<!-- Learn about this code on MDN: https://developer.mozilla.org/en-US/docs/Web/SVG/Element/feGaussianBlur -->

<svg width="230" height="120"
 xmlns="http://www.w3.org/2000/svg"
  xmlns:xlink="http://www.w3.org/1999/xlink">


<g filter="url(#blurMe)">
  <circle cx="60"  cy="60" r="50" fill="green" />

                                                                                                                                                                <g id="knobsCoarse" class="elementOn">
                                                                                                                                                                    <path fill="#4F5251" d="M423.726,428.355L423.726,428.355v-42.591l0,0c4.801,0,8.731,0,8.731,8.732v25.129
                                                                                                                                                                            C432.457,428.355,428.527,428.355,423.726,428.355z"></path>
                                                                                                                                                                                <rect x="421.438" y="385.763" fill="#3F403F" width="2.288" height="42.591"></rect>
                                                                                                                                                                                    <path fill="#4F5251" d="M341.408,428.355L341.408,428.355v-42.591l0,0c-4.802,0-8.731,0-8.731,8.732v25.129
                                                                                                                                                                                            C332.677,428.355,336.605,428.355,341.408,428.355z"></path>

        <rect x="341.408" y="385.763" transform="matrix(-1 -1.224647e-16 1.224647e-16 -1 685.103 814.1181)" fill="#3F403F" width="2.288" height="42.591"></rect>
        </g>
  <circle cx="170" cy="60" r="50" fill="green"
            />
                      </g>
                                
            <filter id="blurMe">
                <feGaussianBlur stdDeviation="1" />
                  </filter>
                  </svg>
