<?xml version="1.0" encoding="utf-8"?>
<!-- Generator: Adobe Illustrator 19.1.0, SVG Export Plug-In . SVG Version: 6.00 Build 0)  -->
<svg version="1.1" id="Layer_1" xmlns="http://www.w3.org/2000/svg" xmlns:xlink="http://www.w3.org/1999/xlink" x="0px" y="0px"
	 viewBox="0 0 250 150" style="enable-background:new 0 0 250 150;" xml:space="preserve">
<style type="text/css">
	.st0{fill:none;}
	.st1{fill:#FFFFFF;}
	.st2{fill:#F4F2F2;}
	.st3{fill:url(#SVGID_1_);stroke:#000000;stroke-miterlimit:10;}
</style>
<pattern  y="150" width="43.1" height="132" patternUnits="userSpaceOnUse" id="New_Pattern_Swatch_2" viewBox="0 -132 43.1 132" style="overflow:visible;">
	<g>
		<polygon class="st0" points="0,0 43.1,0 43.1,-132 0,-132 		"/>
		<g>
			<polygon class="st0" points="0,-132 43.1,-132 43.1,0 0,0 			"/>
			<g>
				<polygon class="st1" points="0,-132 32.2,-132 32.2,0 0,0 				"/>
				<polygon class="st2" points="21.5,-132 43.1,-132 43.1,0 21.5,0 				"/>
			</g>
		</g>
	</g>
</pattern>
<pattern  id="SVGID_1_" xlink:href="#New_Pattern_Swatch_2" patternTransform="matrix(1 0 0 -1 0 -16930)">
</pattern>
<path class="st3" d="M225,0H25C11.2,0,0,11.2,0,25v70c0,13.8,11.2,25,25,25h82.7l17.3,30l17.3-30H225c13.8,0,25-11.2,25-25V25
	C250,11.2,238.8,0,225,0z"/>
</svg>
