<?xml version="1.0" encoding="utf-8"?>
<!-- Generator: Adobe Illustrator 19.2.1, SVG Export Plug-In . SVG Version: 6.00 Build 0)  -->
<svg version="1.1" id="Layer_1" xmlns="http://www.w3.org/2000/svg" xmlns:xlink="http://www.w3.org/1999/xlink" x="0px" y="0px"
	 viewBox="0 0 100 100" style="enable-background:new 0 0 100 100;" xml:space="preserve">
<style type="text/css">
	.st0{fill:none;}
	.st1{fill:#111111;}
	.st2{fill:#202020;}
	.st3{fill:url(#SVGID_2_);}
	.st4{fill:none;stroke:#000000;stroke-miterlimit:10;}
	.st5{fill:none;stroke:#BCBEC0;stroke-width:3;stroke-miterlimit:10;}
	.st6{fill:#BCBEC0;}
</style>
<pattern  y="100" width="40" height="163.7" patternUnits="userSpaceOnUse" id="SVGID_1_" viewBox="0 -163.7 40 163.7" style="overflow:visible;">
	<g>
		<rect y="-163.7" class="st0" width="40" height="163.7"/>
		<g>
			<polygon class="st0" points="0,-163.7 40,-163.7 40,0 0,0 			"/>
			<polygon class="st1" points="20,-163.7 0,-163.7 0,0 20,0 			"/>
			<polygon class="st2" points="40,-163.7 20,-163.7 20,0 40,0 			"/>
		</g>
	</g>
</pattern>
<g>
	<pattern  id="SVGID_2_" xlink:href="#SVGID_1_" patternTransform="matrix(0.6124 0.6124 0.6124 -0.6124 -6046.4595 -10206.8164)">
	</pattern>
	<polygon class="st3" points="25,93.3 0,50 25,6.7 75,6.7 100,50 75,93.3 	"/>
	<polygon class="st4" points="25,93.3 0,50 25,6.7 75,6.7 100,50 75,93.3 	"/>
</g>
<polygon class="st5" points="30,84.6 10,50 30,15.4 70,15.4 90,50 70,84.6 "/>
<polygon class="st6" points="50,77.7 75,52.7 70.8,48.6 52.8,66.7 52.8,22.3 47.2,22.3 47.2,66.7 29.2,48.6 25,52.7 50,77.7 "/>
</svg>
