<?xml version="1.0" encoding="utf-8"?>
<!-- Generator: Adobe Illustrator 19.1.0, SVG Export Plug-In . SVG Version: 6.00 Build 0)  -->
<svg version="1.1" id="Layer_1" xmlns="http://www.w3.org/2000/svg" xmlns:xlink="http://www.w3.org/1999/xlink" x="0px" y="0px"
	 viewBox="0 0 100 100" style="enable-background:new 0 0 100 100;" xml:space="preserve">
<style type="text/css">
	.st0{fill:none;}
	.st1{fill:#111111;}
	.st2{fill:#202020;}
	.st3{fill:url(#SVGID_1_);}
	.st4{fill:none;stroke:#000000;stroke-miterlimit:10;}
	.st5{fill:none;stroke:#ED1C24;stroke-width:3;stroke-miterlimit:10;}
	.st6{fill:#ED1C24;}
</style>
<pattern  width="40" height="163.7" patternUnits="userSpaceOnUse" id="New_Pattern_Swatch_5" viewBox="0 -163.7 40 163.7" style="overflow:visible;">
	<g>
		<polygon class="st0" points="0,0 40,0 40,-163.7 0,-163.7 		"/>
		<polygon class="st1" points="20,0 0,0 0,-163.7 20,-163.7 		"/>
		<polygon class="st2" points="40,0 20,0 20,-163.7 40,-163.7 		"/>
	</g>
</pattern>
<g>
	
		<pattern  id="SVGID_1_" xlink:href="#New_Pattern_Swatch_5" patternTransform="matrix(0.6124 0.6124 -0.6124 0.6124 -7992.5684 1785.4286)">
	</pattern>
	<polygon class="st3" points="25,93.3 0,50 25,6.7 75,6.7 100,50 75,93.3 	"/>
	<polygon class="st4" points="25,93.3 0,50 25,6.7 75,6.7 100,50 75,93.3 	"/>
</g>
<polygon class="st5" points="30,84.6 10,50 30,15.4 70,15.4 90,50 70,84.6 "/>
<polygon class="st6" points="70.1,33.7 66.3,29.9 50,46.1 33.7,29.9 29.9,33.7 46.1,50 29.9,66.3 33.7,70.1 50,53.9 66.3,70.1 
	70.1,66.3 53.9,50 "/>
</svg>
