<?xml version="1.0" encoding="utf-8"?>
<!-- Generator: Adobe Illustrator 19.2.1, SVG Export Plug-In . SVG Version: 6.00 Build 0)  -->
<svg version="1.1" id="Layer_1" xmlns="http://www.w3.org/2000/svg" xmlns:xlink="http://www.w3.org/1999/xlink" x="0px" y="0px"
	 viewBox="0 0 1920 1080" style="enable-background:new 0 0 1920 1080;" xml:space="preserve">
<style type="text/css">
	.st0{fill:#FFFFFF;stroke:#000000;stroke-miterlimit:10;}
</style>
<rect x="779" y="225" class="st0" width="726" height="663"/>
<g>
	<g>
		<path d="M865,343.4c45.2,59.9,96.4,115.1,152.8,164.6c-0.2-1.8-0.5-3.6-0.7-5.5c-5.6,9-14.6,14.5-23.5,19.9
			c-10.5,6.4-21,12.7-31.6,19c-20.9,12.3-42,24.1-63.3,35.6c-5.1,2.7-0.6,10.5,4.5,7.8c22.5-12.1,44.7-24.6,66.7-37.6
			c10.7-6.3,21.3-12.6,31.8-19.2c8.9-5.6,17.4-11.9,23.1-20.9c1-1.6,0.8-4.2-0.7-5.5c-55.8-49-106.6-103.5-151.4-162.8
			C869.3,334.2,861.5,338.7,865,343.4L865,343.4z"/>
	</g>
</g>
<g>
	<g>
		<path d="M1062.8,622.2c-15.1,9.7-29.3,21.3-41.1,35c-5.2,6.1-7.7,12.3-4,20c3.2,6.6,8.4,12,14.2,16.2c27,19.5,62.5,6.9,81.8-16.9
			c-2.5-0.7-5-1.3-7.5-2c5.8,26.7,24.9,49.8,50.1,60.3c11.3,4.7,24.7,6.6,36.5,2.7c13.7-4.6,20.2-15.9,22.4-29.6
			c3.4-20.3,3.2-40.8-0.1-61.1c-0.9-5.7-9.6-3.3-8.7,2.4c3.1,19.6,3.5,40.8-0.7,60.3c-1.6,7.5-4.8,14.1-11.8,17.8
			c-5.9,3.1-12.9,3.7-19.4,3.1c-29.7-2.8-53.7-30.4-59.8-58.2c-0.7-3.1-5.4-4.6-7.5-2c-16,19.7-43.6,31.8-67.3,17.9
			c-5.3-3.1-10-7.4-13.2-12.8c-1.9-3.2-2.9-5.8-0.8-9.2c1.8-2.9,4.5-5.3,6.8-7.7c10.3-10.8,21.9-20.3,34.5-28.4
			C1072.2,626.8,1067.7,619,1062.8,622.2L1062.8,622.2z"/>
	</g>
</g>
<g>
	<g>
		<path d="M1329.8,326c-4.6,25-17,47.2-31.7,67.7c-16.1,22.4-34.3,43.3-51.8,64.5c-9.2,11.2-18.3,22.4-27.5,33.6
			c-4.6,5.6-9.2,11.2-13.8,16.8c-4.2,5.1-10.4,10.6-13,16.7c-4.9,11.2,8.6,15.1,16.7,16.4c13.8,2.1,27.5,4.7,41.1,7.7
			c31.6,7,62.6,16.3,92.8,27.7c5.4,2.1,7.8-6.6,2.4-8.7c-25.5-9.6-51.5-17.8-78-24.2c-12.9-3.2-25.9-5.9-39-8.3
			c-6.2-1.1-12.5-2.1-18.7-3.1c-2.3-0.4-4.8-0.6-7-1.6c-3.9-1.9-0.2-4.7,1.6-6.9c17.9-21.9,35.9-43.8,53.8-65.6
			c15.9-19.4,32.4-38.6,47.2-58.9c15.5-21.4,28.8-44.9,33.6-71.2C1339.6,322.7,1330.9,320.3,1329.8,326L1329.8,326z"/>
	</g>
</g>
<g>
	<g>
		<path d="M915.3,634.4c-0.1-0.1-0.1-0.3-0.2-0.4c-0.8-1.6-3.3-2.8-5.1-2.1c-4.1,1.7-6.2,7.4-1.3,9.8c5.5,2.6,9.8-4.3,12.7-7.7
			c8.2-9.8,16-20.2,27.8-25.6c-2.3-1.3-4.5-2.6-6.8-3.9c0.2,10.4-0.7,20.7-2.8,30.9c-0.9,4.5,4.1,7.4,7.5,4.4
			c3.7-3.2,7.5-6.5,11.2-9.7c3.6-3.1,7.3-7.2,11.4-9.6c5-2.8,5.9,0.2,7.1,4.5c0.8,3,1.7,6.2,3.7,8.7c5.1,6.1,15.7-0.2,20.5-3.7
			c3.4-2.5,6.7-5.9,10.8-7.4c3.2-1.2,10-0.2,7.9,4.6c-1.6,3.8,3.5,6.9,6.6,5.1c3.4-2,5.3-5.2,5-9.2c-0.4-5.7-9.4-5.8-9,0
			c-0.2,0.5-0.4,1-0.6,1.5c2.2,1.7,4.4,3.4,6.6,5.1c3.8-9.2-6.2-17.5-14.9-16.6c-11.2,1.1-17.9,14.8-29.1,13.9
			c1.3,0.7,2.6,1.5,3.9,2.2c-2.8-3.7-2.8-8.6-4.9-12.7c-2.3-4.4-6.6-6.8-11.6-6.3c-5.7,0.7-10.1,5-14.3,8.6
			c-5.6,4.9-11.2,9.7-16.8,14.6c2.5,1.5,5,2.9,7.5,4.4c2.3-11,3.4-22.1,3.2-33.3c-0.1-3.6-3.7-5.3-6.8-3.9
			c-7.4,3.4-13.7,8.8-19.2,14.8c-2.8,3-5.4,6.2-8,9.3c-2.3,2.7-5.1,7.7-8.3,9.2c1.2-0.2,2.3-0.3,3.5-0.5c-0.3-0.1-0.6-0.1-0.9-0.2
			c1,1,2.1,2.1,3.1,3.1c-0.1-0.2-0.1-0.4-0.2-0.5c-0.2,1.2-0.3,2.3-0.5,3.5c0.1-0.2,0.3-0.4,0.4-0.5c-0.9,0.7-1.8,1.4-2.7,2.1
			c0.2-0.1,0.4-0.1,0.5-0.2c-1.7-0.7-3.4-1.4-5.1-2.1c0.1,0.1,0.1,0.3,0.2,0.4C910.3,644,918,639.5,915.3,634.4L915.3,634.4z"/>
	</g>
</g>
<g>
	<g>
		<path d="M1247.3,610.9c0.7-0.5,1.4-1,2.1-1.5c-1.5,0-3,0-4.5,0c4.3,2.3,5.1,9.1,8,12.7c4.3,5.3,10.9,5.8,17,3.1
			c7-3.1,13-8.4,19-13.1c1.3-1,3.8-3.5,5.6-3c2.1,0.6,1.6,2.4,1.6,4.3c-0.1,4.9-0.3,9.9-0.7,14.8c-0.2,3.1,3,4.9,5.7,4.3
			c8.6-1.9,14.5-8.6,22.5-11.4c4.1-1.5,8.2-1.7,11.3,1.8c2.5,2.9,4.1,5.9,7.7,7.5c2,0.9,5.1,0.8,6.2-1.6c0.4-0.9,0.8-1.8,1.1-2.6
			c2.3-5.3-5.5-9.9-7.8-4.5c-0.4,0.9-0.8,1.8-1.1,2.6c2.1-0.5,4.1-1.1,6.2-1.6c-4-1.9-5.5-6.8-9.4-9.2c-3.7-2.3-8.1-2.7-12.3-2.1
			c-10.2,1.6-16.9,10.3-26.7,12.5c1.9,1.4,3.8,2.9,5.7,4.3c0.4-5.3,0.8-10.6,0.7-15.8c0-3.4-0.5-6.9-3.1-9.4
			c-6.1-5.9-14.2-1.6-19.6,2.7c-4.1,3.3-17.8,16.4-22.8,10.4c-4-4.9-4.1-11.2-10.2-14.5c-1.3-0.7-3.2-0.9-4.5,0
			c-0.7,0.5-1.4,1-2.1,1.5C1238,606.4,1242.5,614.2,1247.3,610.9L1247.3,610.9z"/>
	</g>
</g>
</svg>
