<svg id="microscope" xmlns="http://www.w3.org/2000/svg" viewBox="0 0 240.81 540.71"><defs><style>.cls-1{opacity:0.53;}.cls-1,.cls-23,.cls-54,.cls-61,.cls-69,.cls-70,.cls-71,.cls-72,.cls-74,.cls-75,.cls-77,.cls-78{isolation:isolate;}.cls-2{fill:#ede5dc;}.cls-3{fill:#383a3a;}.cls-4{fill:#e6dfd5;}.cls-5{fill:#1f1e21;}.cls-6{fill:#b0afb0;}.cls-7{fill:#878787;}.cls-8{fill:#636464;}.cls-9{fill:#4f5251;}.cls-10{fill:#ababab;}.cls-11{fill:#848484;}.cls-12{fill:#46484d;}.cls-13{fill:#292e2c;}.cls-14{fill:#3d3d3d;}.cls-15{fill:#464641;}.cls-16{fill:#666766;}.cls-17{fill:#bababa;}.cls-18{fill:#212355;}.cls-19{fill:#404157;}.cls-20{fill:#b8a491;}.cls-21{fill:#6b6f6b;}.cls-22{fill:#364042;}.cls-23,.cls-30,.cls-61,.cls-69,.cls-70,.cls-71,.cls-72,.cls-74,.cls-75,.cls-77,.cls-78{fill:#fff;}.cls-23{opacity:0.5;}.cls-24{fill:#001359;}.cls-25{fill:#7b7b7b;}.cls-26{fill:#303030;}.cls-27,.cls-33,.cls-60{fill:none;}.cls-27{stroke:#000;}.cls-27,.cls-60{stroke-miterlimit:10;}.cls-28{fill:#161616;}.cls-29{fill:#606262;}.cls-31{fill:#5c5c5d;}.cls-32{fill:#2d2d2d;}.cls-34{fill:#333;}.cls-35{fill:#444445;}.cls-36{fill:#979797;}.cls-37{fill:#818181;}.cls-38{fill:#282827;}.cls-39{fill:#9d9c9d;}.cls-40{fill:#cfd1d0;}.cls-41{fill:#484748;}.cls-42{fill:#cfcece;}.cls-43{fill:#1e2322;}.cls-44{fill:#293331;}.cls-45{fill:#1d2322;}.cls-46{fill:#313837;}.cls-47{fill:#a2a5a6;}.cls-48{fill:#aea699;}.cls-49{fill:#6c7378;}.cls-50{fill:#313b3b;}.cls-51{fill:#c6c6c4;}.cls-52{fill:#6a6f72;}.cls-53{fill:#3b4247;}.cls-54,.cls-55{fill:#2c3033;}.cls-54{opacity:0.45;}.cls-56{fill:#5c676d;}.cls-57{fill:#3c4247;}.cls-58{fill:#5c686d;}.cls-59{fill:#121311;}.cls-60{stroke:#fff;stroke-width:0.5px;}.cls-61{font-size:3.39px;font-family:Avenir;}.cls-62{fill:#3f403f;}.cls-63{fill:#252626;}.cls-64{fill:#7d847f;}.cls-65{fill:#ed1f24;}.cls-66{fill:#878986;}.cls-67{fill:#585b59;}.cls-68{fill:#5464ae;}.cls-69{font-size:9px;}.cls-69,.cls-70,.cls-71,.cls-72,.cls-74,.cls-75,.cls-77,.cls-78{font-family:Helvetica;}.cls-69,.cls-70,.cls-72,.cls-74,.cls-77{font-weight:700;}.cls-70{font-size:4.61px;}.cls-71{font-size:3.07px;}.cls-72,.cls-77{font-size:8px;}.cls-73{fill:#f6ec13;}.cls-74{font-size:3.4px;}.cls-75{font-size:2.27px;}.cls-76{fill:#545554;}.cls-77{letter-spacing:1px;}.cls-78{font-size:2.32px;}</style></defs><title>microscope2</title><g id="frame"><path class="cls-1" d="M502.7,560.2L382.5,571.5,262.3,560.2c-0.9,30.1,41.8,28.8,41.8,28.8H460.7C460.9,589,503.7,590.3,502.7,560.2Z" transform="translate(-262.29 -48.3)"/><path class="cls-2" d="M494.3,516L382.6,554.9,270.8,516s-8.4,26-8.4,45.5c2.4,23.7,34.9,22.7,39.8,22.4H463c4.9,0.3,37.5,1.3,39.8-22.4C502.7,542,494.3,516,494.3,516Z" transform="translate(-262.29 -48.3)"/><path class="cls-3" d="M496.5,523.1s-8.3-26.6-17.3-53.2a37.45,37.45,0,0,1-1.2-4.5c-4.9-25.2-34.2-23.4-34.2-23.4l-61.2-.1-61.2.1c-0.1,0-29.3-1.7-34.2,23.4a33,33,0,0,1-1.2,4.5c-9,26.6-17.3,53.2-17.3,53.2s-12.9,33.2,27.6,40.5a9.7,9.7,0,0,0,1.7.1H467.4a9.7,9.7,0,0,0,1.7-.1C509.5,556.3,496.5,523.1,496.5,523.1Z" transform="translate(-262.29 -48.3)"/><path class="cls-4" d="M433.1,515.5c-11.3-72.8-11.7-73.6-11.7-73.6l-0.1-170,8.8-78.8c-18.9-5.1-47.3-4.2-47.6-4.2s-28.7-.9-47.6,4.2l8.8,78.8-0.1,170s-0.3.8-11.7,73.6C327.5,536,351.3,535,351.3,535h62.4S437.5,536,433.1,515.5Z" transform="translate(-262.29 -48.3)"/></g><g id="diaphragm"><rect class="cls-5" x="95.01" y="322.3" width="51.1" height="39.8"/><circle class="cls-6" cx="111.91" cy="358.5" r="1.9"/><circle class="cls-6" cx="129.21" cy="358.5" r="1.9"/><circle class="cls-7" cx="111.91" cy="358.5" r="1.1"/><circle class="cls-7" cx="129.21" cy="358.5" r="1.1"/><path class="cls-8" d="M350.1,396.4h0V380h0c-1.4,0-2.5,0-2.5,4.7v7.1C347.7,396.4,348.8,396.4,350.1,396.4Z" transform="translate(-262.29 -48.3)"/><path class="cls-9" d="M351,396.5h0V380h0c-1.3,0-2.4,0-2.4,3.4v9.7C348.6,396.5,349.6,396.5,351,396.5Z" transform="translate(-262.29 -48.3)"/><path class="cls-9" d="M350.4,396.5h0V380h0c1.3,0,2.4,0,2.4,3.4v9.7C352.8,396.5,351.7,396.5,350.4,396.5Z" transform="translate(-262.29 -48.3)"/><rect class="cls-10" x="90.51" y="338" width="4.5" height="3.9"/><path class="cls-11" d="M357.3,390.1h0v-3.9h0c-0.2,0-.3,0-0.3,1.1V389C357,390.1,357.1,390.1,357.3,390.1Z" transform="translate(-262.29 -48.3)"/><path class="cls-12" d="M382.8,382.5v-1.9h0v1.9h0Z" transform="translate(-262.29 -48.3)"/><path class="cls-13" d="M382.9,369.8c1.3,0,12.8.2,15,.3-0.1-3.5-.5-3.7-0.5-3.7-0.6-1.9-2.7-3.1-4-3.8a39.46,39.46,0,0,0-10.5-1.3,35.25,35.25,0,0,0-10.5,1.3c-1.3.6-3.3,1.8-4,3.8,0,0-.5.2-0.5,3.7C370.1,369.9,381.9,369.8,382.9,369.8Z" transform="translate(-262.29 -48.3)"/><path class="cls-14" d="M372.3,362.8a43.17,43.17,0,0,1,10.4-1.3h0.2a34.08,34.08,0,0,1,10.4,1.3h0a5.9,5.9,0,0,0-.8-0.4c-1.9-2.3-8.3-3-9.7-3s-7.8.7-9.8,3a3.22,3.22,0,0,1-.7.4h0Z" transform="translate(-262.29 -48.3)"/><path class="cls-15" d="M358.4,380.6a14.43,14.43,0,0,0,1.7,1.2,7.38,7.38,0,0,0,3,1.2h0.1c1.2-.3,2.5-0.6,3.8-0.9a3,3,0,0,1-1.3-2.2c0.9-2.5,15.8-3.5,17-3.6,1.3,0.1,16.1,1.1,17,3.6a3,3,0,0,1-1.3,2.2,30.49,30.49,0,0,1,3.8.9h0.1a7.38,7.38,0,0,0,3-1.2,9.14,9.14,0,0,0,1.7-1.2,7.45,7.45,0,0,0,1-2h0a25.34,25.34,0,0,0-12.6-3.6c-5.7-.1-11.7-0.1-12.8-0.2h-0.2c-1.1,0-7.1.1-12.8,0.2a26.34,26.34,0,0,0-12.6,3.6h0A14.29,14.29,0,0,1,358.4,380.6Z" transform="translate(-262.29 -48.3)"/><path class="cls-12" d="M382.9,382.5v-1.9h0v1.9h0Z" transform="translate(-262.29 -48.3)"/><path class="cls-16" d="M357.4,378.7h0a24.71,24.71,0,0,1,12.6-3.5c6-.1,12.2-0.2,12.9-0.2,0.9,0,7,.1,12.9.2a26.34,26.34,0,0,1,12.6,3.6h0a7.44,7.44,0,0,0-.3-3.3,3.71,3.71,0,0,0-.8-1.7,15.74,15.74,0,0,0-9.2-3.8h-0.2c-2.2-.1-13.4-0.3-14.9-0.3h-0.2c-1.6,0-12.7.2-14.9,0.3h-0.2a15.1,15.1,0,0,0-9.2,3.8,3.2,3.2,0,0,0-.8,1.7A8.42,8.42,0,0,0,357.4,378.7Z" transform="translate(-262.29 -48.3)"/><path class="cls-17" d="M367.1,382.1c0.2,0,.4-0.1.6-0.1a5.74,5.74,0,0,1,.1-1.2c0.8-1.9,13.9-2.6,15.1-2.7,1.2,0.1,14.3.8,15.1,2.7a5.74,5.74,0,0,1,.1,1.2c0.2,0,.4.1,0.6,0.1a3,3,0,0,0,1.3-2.2c-0.9-2.5-17-3.6-17-3.6h-0.1c-1.8.1-16,1.1-16.9,3.6C365.7,380.7,366.5,381.6,367.1,382.1Z" transform="translate(-262.29 -48.3)"/><path class="cls-18" d="M367.7,382a109.92,109.92,0,0,1,15.1-1.3v0.1h0v-0.1h0.1v0.1h0v-0.1A111.08,111.08,0,0,1,398,382a5.74,5.74,0,0,0-.1-1.2c-0.8-1.9-13.4-2.6-15-2.7h-0.2c-1.7.1-14.2,0.8-15,2.7V382Z" transform="translate(-262.29 -48.3)"/><path class="cls-19" d="M366.1,395.1h0c1.1,0.9,4.7,1.5,16.8,1.5h0c12,0,15.6-.6,16.6-1.4h0.1a1.61,1.61,0,0,0,.3-0.9c0-.9-2.8-1.6-7.2-2.1a0.9,0.9,0,0,1-.5-0.1c-0.4,0-.7-0.1-1.1-0.1h-0.6c-2.3-.2-4.9-0.3-7.7-0.3h0c-2.7,0-5.3.1-7.6,0.3h-0.6c-0.4,0-.8.1-1.1,0.1a0.9,0.9,0,0,0-.5.1c-4.3.5-7.2,1.2-7.2,2.1A4.12,4.12,0,0,0,366.1,395.1Z" transform="translate(-262.29 -48.3)"/><path class="cls-15" d="M358.2,392.4l0.2,0.2s1.3,1.4,7.8,2.6H366a3.69,3.69,0,0,1-.7-2.2,1,1,0,0,1,.2-0.6c2.1-2.9,15.7-3,17.2-3v0.1h0v-0.1h0.1v0.1h0v-0.1c1.5,0,15.1.1,17.2,3a1.19,1.19,0,0,1,.2.6,3.07,3.07,0,0,1-.7,2.2h-0.2c6.5-1.2,7.8-2.6,7.8-2.6l0.2-.2c-0.2-.5-2.2-4.1-24.8-4.1h0C360.4,388.2,358.4,391.8,358.2,392.4Z" transform="translate(-262.29 -48.3)"/><path class="cls-20" d="M366.1,395.1h0a1.49,1.49,0,0,1-.2-0.9c0-.9,2.8-1.6,7.2-2.1a0.9,0.9,0,0,0,.5-0.1c0.4,0,.7-0.1,1.1-0.1h0.6c2.3-.2,4.9-0.3,7.7-0.3h0c2.7,0,5.3.1,7.6,0.3h0.6c0.4,0,.8.1,1.1,0.1a0.9,0.9,0,0,1,.5.1c4.3,0.5,7.2,1.2,7.2,2.1a1.1,1.1,0,0,1-.3.9h0.1a3.69,3.69,0,0,0,.7-2.2,1,1,0,0,0-.2-0.6c-2.2-3.1-17.3-3-17.3-3h0c-1.5,0-15.1.1-17.2,3a1.19,1.19,0,0,0-.2.6A3.08,3.08,0,0,0,366.1,395.1Z" transform="translate(-262.29 -48.3)"/><path class="cls-16" d="M407.4,384.3c-0.8-1.2-9.2-2.7-9.4-2.7a126.76,126.76,0,0,0-15.2-1.3,128.3,128.3,0,0,0-15.2,1.3c-0.2,0-8.7,1.5-9.4,2.7a27.39,27.39,0,0,0-.1,8h0c0.2-.5,2.2-3.2,24.7-3.2s24.5,2.7,24.7,3.2h0A27.57,27.57,0,0,0,407.4,384.3Z" transform="translate(-262.29 -48.3)"/></g><g id="slideStage"><polygon class="cls-21" points="213.31 294.4 27.31 294.4 52.31 230.7 188.31 230.7 213.31 294.4"/><rect class="cls-22" x="27.31" y="294.4" width="185.9" height="16.3"/><ellipse cx="118.51" cy="262.6" rx="15.8" ry="8.2"/></g><g id="slide"><rect class="cls-23" x="69.31" y="253.1" width="100" height="28.2"/><path class="cls-24" d="M381.6,306.6l0.1,0.7a21.57,21.57,0,0,1,.1,7.6l-0.2,1c-0.2,1-.6.9-0.8-0.1l-0.2-1.3a17.27,17.27,0,0,1,.1-6.8l0.2-1C381,305.7,381.4,305.7,381.6,306.6Z" transform="translate(-262.29 -48.3)"/></g><g id="caliperKnob"><g id="yCaliperKnob"><path class="cls-25" d="M476.8,385.8v-0.9h0c-0.1-3.2-.7-5.6-5-5.6H457.4c-4.2,0-4.9,2.4-5,5.6h0v1.8h0c0.1,3.2.7,5.6,5,5.6h14.4c4.2,0,4.9-2.4,5-5.6h0v-0.9Z" transform="translate(-262.29 -48.3)"/><path class="cls-26" d="M476.8,384.9V384h0c-0.1-3.2-.7-5.6-5-5.6H457.4c-4.2,0-4.9,2.4-5,5.6h0v1.8h0c0.1,3.2.7,5.6,5,5.6h14.4c4.2,0,4.9-2.4,5-5.6h0v-0.9Z" transform="translate(-262.29 -48.3)"/></g><rect class="cls-10" x="198.51" y="310.8" width="7.5" height="19.8"/><g id="xCaliperKnob"><path class="cls-25" d="M473.4,397.3v-0.6h0c-0.1-2.3-.5-4.1-3.6-4.1H459.4c-3.1,0-3.5,1.7-3.6,4.1h0v1.2h0c0.1,2.3.5,4.1,3.6,4.1h10.4c3.1,0,3.5-1.7,3.6-4.1h0v-0.6Z" transform="translate(-262.29 -48.3)"/><path class="cls-26" d="M473.4,396.7v-0.6h0c-0.1-2.3-.5-4.1-3.6-4.1H459.4c-3.1,0-3.5,1.7-3.6,4.1h0v1.2h0c0.1,2.3.5,4.1,3.6,4.1h10.4c3.1,0,3.5-1.7,3.6-4.1h0v-0.6Z" transform="translate(-262.29 -48.3)"/></g></g><g id="aperture"><rect class="cls-27" x="100.31" y="337.3" width="40.3" height="0.4"/></g><g id="caliper"><polygon class="cls-28" points="219.41 298.1 219.41 296.3 194.41 239.6 188.21 239.6 213.21 296.3 213.21 310.7 198.61 310.7 198.61 317 213.21 317 213.21 324.5 214.21 324.5 215.21 324.5 216.81 324.5 216.81 320.2 219.41 320.2 219.41 319.5 219.41 318.2 219.41 317 216.81 317 216.81 298.1 219.41 298.1"/><rect class="cls-29" x="216.81" y="298.1" width="2.6" height="18.9"/><rect class="cls-30" x="477.82" y="342.11" width="2.8" height="0.7" transform="translate(-360.14 176.19) rotate(-24)"/><rect class="cls-30" x="472.92" y="331.31" width="2.8" height="0.7" transform="translate(-356.17 173.26) rotate(-24)"/><rect class="cls-30" x="468.12" y="320.41" width="2.8" height="0.7" transform="translate(-352.15 170.37) rotate(-24)"/><rect class="cls-30" x="463.32" y="309.61" width="2.8" height="0.7" transform="translate(-348.18 167.48) rotate(-24)"/></g><g id="xcaliper"><polygon class="cls-28" points="238.51 238 115.51 238 113.21 241.5 133.31 241.5 220.81 241.5 240.81 241.5 238.51 238"/><rect class="cls-28" x="113.21" y="241.5" width="127.6" height="2.6"/><rect class="cls-30" x="236.31" y="238.4" width="0.5" height="2.7"/><rect class="cls-30" x="227.81" y="238.4" width="0.5" height="2.7"/><rect class="cls-30" x="219.31" y="238.4" width="0.5" height="2.7"/><rect class="cls-30" x="210.81" y="238.4" width="0.5" height="2.7"/><rect class="cls-30" x="202.41" y="238.4" width="0.5" height="2.7"/><rect class="cls-30" x="193.91" y="238.4" width="0.5" height="2.7"/><rect class="cls-30" x="185.41" y="238.4" width="0.5" height="2.7"/><rect class="cls-30" x="176.91" y="238.4" width="0.5" height="2.7"/><rect class="cls-30" x="168.41" y="238.4" width="0.5" height="2.7"/><rect class="cls-30" x="160.01" y="238.4" width="0.5" height="2.7"/><rect class="cls-30" x="151.51" y="238.4" width="0.5" height="2.7"/><rect class="cls-30" x="143.01" y="238.4" width="0.5" height="2.7"/><rect class="cls-30" x="134.51" y="238.4" width="0.5" height="2.7"/><rect class="cls-30" x="126.01" y="238.4" width="0.5" height="2.7"/><rect class="cls-30" x="117.61" y="238.4" width="0.5" height="2.7"/><rect class="cls-30" x="235.51" y="238.4" width="0.1" height="1.4"/><rect class="cls-30" x="234.71" y="238.4" width="0.1" height="1.4"/><rect class="cls-30" x="233.81" y="238.4" width="0.1" height="1.4"/><rect class="cls-30" x="233.01" y="238.4" width="0.1" height="1.4"/><rect class="cls-30" x="231.31" y="238.4" width="0.1" height="1.4"/><rect class="cls-30" x="230.51" y="238.4" width="0.1" height="1.4"/><rect class="cls-30" x="229.61" y="238.4" width="0.1" height="1.4"/><rect class="cls-30" x="228.81" y="238.4" width="0.1" height="1.4"/><rect class="cls-30" x="227.11" y="238.4" width="0.1" height="1.4"/><rect class="cls-30" x="226.21" y="238.4" width="0.1" height="1.4"/><rect class="cls-30" x="225.41" y="238.4" width="0.1" height="1.4"/><rect class="cls-30" x="224.51" y="238.4" width="0.1" height="1.4"/><rect class="cls-30" x="222.81" y="238.4" width="0.1" height="1.4"/><rect class="cls-30" x="222.01" y="238.4" width="0.1" height="1.4"/><rect class="cls-30" x="221.11" y="238.4" width="0.1" height="1.4"/><rect class="cls-30" x="220.31" y="238.4" width="0.1" height="1.4"/><rect class="cls-30" x="218.61" y="238.4" width="0.1" height="1.4"/><rect class="cls-30" x="217.71" y="238.4" width="0.1" height="1.4"/><rect class="cls-30" x="216.91" y="238.4" width="0.1" height="1.4"/><rect class="cls-30" x="216.01" y="238.4" width="0.1" height="1.4"/><rect class="cls-30" x="215.11" y="238.4" width="0.2" height="1.7"/><rect class="cls-30" x="223.61" y="238.4" width="0.2" height="1.7"/><rect class="cls-30" x="206.61" y="238.4" width="0.2" height="1.7"/><rect class="cls-30" x="198.21" y="238.4" width="0.2" height="1.7"/><rect class="cls-30" x="189.71" y="238.4" width="0.2" height="1.7"/><rect class="cls-30" x="181.21" y="238.4" width="0.2" height="1.7"/><rect class="cls-30" x="172.71" y="238.4" width="0.2" height="1.7"/><rect class="cls-30" x="164.21" y="238.4" width="0.2" height="1.7"/><rect class="cls-30" x="155.81" y="238.4" width="0.2" height="1.7"/><rect class="cls-30" x="147.31" y="238.4" width="0.2" height="1.7"/><rect class="cls-30" x="138.81" y="238.4" width="0.2" height="1.7"/><rect class="cls-30" x="130.31" y="238.4" width="0.2" height="1.7"/><rect class="cls-30" x="121.81" y="238.4" width="0.2" height="1.7"/><rect class="cls-30" x="121.01" y="238.4" width="0.2" height="1.7"/><rect class="cls-30" x="214.31" y="238.4" width="0.1" height="1.4"/><rect class="cls-30" x="213.51" y="238.4" width="0.1" height="1.4"/><rect class="cls-30" x="212.71" y="238.4" width="0.1" height="1.4"/><rect class="cls-30" x="211.81" y="238.4" width="0.1" height="1.4"/><rect class="cls-30" x="210.11" y="238.4" width="0.1" height="1.4"/><rect class="cls-30" x="209.31" y="238.4" width="0.1" height="1.4"/><rect class="cls-30" x="208.41" y="238.4" width="0.1" height="1.4"/><rect class="cls-30" x="207.61" y="238.4" width="0.1" height="1.4"/><rect class="cls-30" x="205.91" y="238.4" width="0.1" height="1.4"/><rect class="cls-30" x="205.01" y="238.4" width="0.1" height="1.4"/><rect class="cls-30" x="204.21" y="238.4" width="0.1" height="1.4"/><rect class="cls-30" x="203.31" y="238.4" width="0.1" height="1.4"/><rect class="cls-30" x="201.61" y="238.4" width="0.1" height="1.4"/><rect class="cls-30" x="200.81" y="238.4" width="0.1" height="1.4"/><rect class="cls-30" x="199.91" y="238.4" width="0.1" height="1.4"/><rect class="cls-30" x="199.11" y="238.4" width="0.1" height="1.4"/><rect class="cls-30" x="197.41" y="238.4" width="0.1" height="1.4"/><rect class="cls-30" x="196.51" y="238.4" width="0.1" height="1.4"/><rect class="cls-30" x="195.71" y="238.4" width="0.1" height="1.4"/><rect class="cls-30" x="194.81" y="238.4" width="0.1" height="1.4"/><rect class="cls-30" x="193.11" y="238.4" width="0.1" height="1.4"/><rect class="cls-30" x="192.31" y="238.4" width="0.1" height="1.4"/><rect class="cls-30" x="191.51" y="238.4" width="0.1" height="1.4"/><rect class="cls-30" x="190.61" y="238.4" width="0.1" height="1.4"/><rect class="cls-30" x="188.91" y="238.4" width="0.1" height="1.4"/><rect class="cls-30" x="188.11" y="238.4" width="0.1" height="1.4"/><rect class="cls-30" x="187.21" y="238.4" width="0.1" height="1.4"/><rect class="cls-30" x="186.41" y="238.4" width="0.1" height="1.4"/><rect class="cls-30" x="184.71" y="238.4" width="0.1" height="1.4"/><rect class="cls-30" x="183.81" y="238.4" width="0.1" height="1.4"/><rect class="cls-30" x="183.01" y="238.4" width="0.1" height="1.4"/><rect class="cls-30" x="182.11" y="238.4" width="0.1" height="1.4"/><rect class="cls-30" x="180.41" y="238.4" width="0.1" height="1.4"/><rect class="cls-30" x="179.61" y="238.4" width="0.1" height="1.4"/><rect class="cls-30" x="178.71" y="238.4" width="0.1" height="1.4"/><rect class="cls-30" x="177.91" y="238.4" width="0.1" height="1.4"/><rect class="cls-30" x="176.21" y="238.4" width="0.1" height="1.4"/><rect class="cls-30" x="175.31" y="238.4" width="0.1" height="1.4"/><rect class="cls-30" x="174.51" y="238.4" width="0.1" height="1.4"/><rect class="cls-30" x="173.61" y="238.4" width="0.1" height="1.4"/><rect class="cls-30" x="175.31" y="238.4" width="0.1" height="1.4"/><rect class="cls-30" x="174.51" y="238.4" width="0.1" height="1.4"/><rect class="cls-30" x="173.61" y="238.4" width="0.1" height="1.4"/><rect class="cls-30" x="172.81" y="238.4" width="0.1" height="1.4"/><rect class="cls-30" x="171.91" y="238.4" width="0.1" height="1.4"/><rect class="cls-30" x="171.11" y="238.4" width="0.1" height="1.4"/><rect class="cls-30" x="170.31" y="238.4" width="0.1" height="1.4"/><rect class="cls-30" x="169.41" y="238.4" width="0.1" height="1.4"/><rect class="cls-30" x="167.71" y="238.4" width="0.1" height="1.4"/><rect class="cls-30" x="166.91" y="238.4" width="0.1" height="1.4"/><rect class="cls-30" x="166.01" y="238.4" width="0.1" height="1.4"/><rect class="cls-30" x="165.21" y="238.4" width="0.1" height="1.4"/><rect class="cls-30" x="163.51" y="238.4" width="0.1" height="1.4"/><rect class="cls-30" x="162.61" y="238.4" width="0.1" height="1.4"/><rect class="cls-30" x="161.81" y="238.4" width="0.1" height="1.4"/><rect class="cls-30" x="160.91" y="238.4" width="0.1" height="1.4"/><rect class="cls-30" x="159.21" y="238.4" width="0.1" height="1.4"/><rect class="cls-30" x="158.41" y="238.4" width="0.1" height="1.4"/><rect class="cls-30" x="157.51" y="238.4" width="0.1" height="1.4"/><rect class="cls-30" x="156.71" y="238.4" width="0.1" height="1.4"/><rect class="cls-30" x="155.01" y="238.4" width="0.1" height="1.4"/><rect class="cls-30" x="154.11" y="238.4" width="0.1" height="1.4"/><rect class="cls-30" x="153.31" y="238.4" width="0.1" height="1.4"/><rect class="cls-30" x="152.41" y="238.4" width="0.1" height="1.4"/><rect class="cls-30" x="150.71" y="238.4" width="0.1" height="1.4"/><rect class="cls-30" x="149.91" y="238.4" width="0.1" height="1.4"/><rect class="cls-30" x="149.11" y="238.4" width="0.1" height="1.4"/><rect class="cls-30" x="148.21" y="238.4" width="0.1" height="1.4"/><rect class="cls-30" x="146.51" y="238.4" width="0.1" height="1.4"/><rect class="cls-30" x="145.71" y="238.4" width="0.1" height="1.4"/><rect class="cls-30" x="144.81" y="238.4" width="0.1" height="1.4"/><rect class="cls-30" x="144.01" y="238.4" width="0.1" height="1.4"/><rect class="cls-30" x="142.31" y="238.4" width="0.1" height="1.4"/><rect class="cls-30" x="141.41" y="238.4" width="0.1" height="1.4"/><rect class="cls-30" x="140.61" y="238.4" width="0.1" height="1.4"/><rect class="cls-30" x="139.71" y="238.4" width="0.1" height="1.4"/><rect class="cls-30" x="138.01" y="238.4" width="0.1" height="1.4"/><rect class="cls-30" x="137.21" y="238.4" width="0.1" height="1.4"/><rect class="cls-30" x="136.31" y="238.4" width="0.1" height="1.4"/><rect class="cls-30" x="135.51" y="238.4" width="0.1" height="1.4"/><rect class="cls-30" x="133.81" y="238.4" width="0.1" height="1.4"/><rect class="cls-30" x="132.91" y="238.4" width="0.1" height="1.4"/><rect class="cls-30" x="132.11" y="238.4" width="0.1" height="1.4"/><rect class="cls-30" x="131.21" y="238.4" width="0.1" height="1.4"/><rect class="cls-30" x="129.51" y="238.4" width="0.1" height="1.4"/><rect class="cls-30" x="128.71" y="238.4" width="0.1" height="1.4"/><rect class="cls-30" x="127.91" y="238.4" width="0.1" height="1.4"/><rect class="cls-30" x="127.01" y="238.4" width="0.1" height="1.4"/><rect class="cls-30" x="125.31" y="238.4" width="0.1" height="1.4"/><rect class="cls-30" x="124.51" y="238.4" width="0.1" height="1.4"/><rect class="cls-30" x="123.61" y="238.4" width="0.1" height="1.4"/><rect class="cls-30" x="122.81" y="238.4" width="0.1" height="1.4"/><rect class="cls-30" x="121.11" y="238.4" width="0.1" height="1.4"/><rect class="cls-30" x="120.21" y="238.4" width="0.1" height="1.4"/><rect class="cls-30" x="119.41" y="238.4" width="0.1" height="1.4"/><rect class="cls-30" x="118.51" y="238.4" width="0.1" height="1.4"/><rect class="cls-30" x="120.21" y="238.4" width="0.1" height="1.4"/><rect class="cls-30" x="119.41" y="238.4" width="0.1" height="1.4"/><rect class="cls-30" x="118.51" y="238.4" width="0.1" height="1.4"/><rect class="cls-30" x="117.71" y="238.4" width="0.1" height="1.4"/></g><g id="ycaliper"><polygon class="cls-29" points="215.71 289.1 225.51 289.2 225.51 293.1 217.51 293.1 215.71 289.1"/><polygon class="cls-31" points="199.31 251.8 220.41 251.8 220.51 246.8 197.41 246.8 199.31 251.8"/><rect class="cls-32" x="169.21" y="241.9" width="26.8" height="2.7"/><polygon class="cls-33" points="184.81 241.9 184.81 244.8 193.91 244.8 193.91 241.9 184.81 241.9"/><polygon class="cls-30" points="193.21 242.8 193.21 244.6 193.51 244.6 193.51 242.8 193.21 242.8"/><polygon class="cls-30" points="190.51 243.6 190.51 244.6 190.81 244.6 190.81 243.6 190.51 243.6"/><polygon class="cls-30" points="191.91 243.6 191.91 244.6 192.21 244.6 192.21 243.6 191.91 243.6"/><polygon class="cls-30" points="189.21 242.8 189.21 244.6 189.51 244.6 189.51 242.8 189.21 242.8"/><polygon class="cls-30" points="188.01 243.6 187.91 244.6 188.21 244.6 188.31 243.6 188.01 243.6"/><polygon class="cls-30" points="186.61 243.6 186.61 244.6 186.91 244.6 186.91 243.6 186.61 243.6"/><polygon class="cls-30" points="185.31 242.8 185.31 244.6 185.61 244.6 185.61 242.8 185.31 242.8"/><path class="cls-30" d="M455.8,290.9a0.24,0.24,0,0,1,.2.3,0.3,0.3,0,0,1-.4.1,0.53,0.53,0,0,1-.2-0.3A0.27,0.27,0,0,1,455.8,290.9Z" transform="translate(-262.29 -48.3)"/><polygon class="cls-31" points="220.41 251.7 210.81 257.2 212.11 260 220.41 255.5 220.41 251.7"/><path class="cls-14" d="M473.4,305.4l9.2-5.3H461.5l17.3,39.3,3.7,0.1h3.3a1.87,1.87,0,0,0,1.7-2.7Z" transform="translate(-262.29 -48.3)"/><rect class="cls-34" x="475.52" y="325.31" width="5.6" height="11.4" transform="translate(-354.94 171.59) rotate(-23.67)"/><rect class="cls-30" x="478.02" y="335.71" width="3.6" height="0.4" transform="translate(-356.78 172.6) rotate(-23.67)"/><rect class="cls-30" x="476.72" y="333.01" width="1.9" height="0.4" transform="translate(-355.88 171.51) rotate(-23.67)"/><rect class="cls-30" x="477.42" y="334.51" width="1.9" height="0.4" transform="translate(-356.42 171.92) rotate(-23.67)"/><rect class="cls-30" x="475.92" y="331.11" width="3.6" height="0.4" transform="translate(-355.11 171.37) rotate(-23.67)"/><rect class="cls-30" x="475.42" y="330.01" width="1.9" height="0.4" transform="translate(-354.78 170.74) rotate(-23.67)"/><rect class="cls-30" x="474.72" y="328.51" width="1.9" height="0.4" transform="translate(-354.24 170.33) rotate(-23.67)"/><rect class="cls-30" x="474.02" y="326.71" width="3.6" height="0.4" transform="translate(-353.5 170.24) rotate(-23.67)"/><circle class="cls-30" cx="219.01" cy="286.9" r="0.4"/><path class="cls-14" d="M475.1,285.8H376.8l-7.2,9.3H482.8ZM458.3,289v3.9H431.6V289h0c0-1.6,1.1-1.4,3.2-1.4h19.7c2.1-.1,3.8-0.3,3.8,1.4h0Z" transform="translate(-262.29 -48.3)"/></g><g id="caliperMetal"><path class="cls-35" d="M307.3,302.5l6.7,0.1h2l-0.8-.9-6.2-.1a1,1,0,0,1-.9-0.4l-0.3-1a0.34,0.34,0,0,1,.2-0.5l-0.1-.1-1.4.5a0.55,0.55,0,0,0-.4.6V301l0.3,1A1.35,1.35,0,0,0,307.3,302.5Z" transform="translate(-262.29 -48.3)"/><polygon class="cls-35" points="58.61 253.3 58.71 253.4 58.71 253.3 58.61 253.3"/><rect class="cls-35" x="61.91" y="249.9" width="6.9" height="1.1"/><path class="cls-36" d="M308.1,301.2a1,1,0,0,0,.9.4l6.2,0.1H321l-0.1-.1H321v0.1h3.2v-4.2h-9.1v0.1l-7,2a0.49,0.49,0,0,0-.3.6Z" transform="translate(-262.29 -48.3)"/><path class="cls-36" d="M334.7,334.3l-4-7.5a0.55,0.55,0,0,0-.5-0.3h-0.8c-1.5,0-1.5,0-1.5-2.3l-0.7-22.9-15.3.1,20,35.9,1.3,1.8a1.54,1.54,0,0,0,1.1-.2l0.7-3.6Z" transform="translate(-262.29 -48.3)"/><path class="cls-35" d="M335,335.8l-0.1-.2-0.6,3.2a1.17,1.17,0,0,1-1.1.2l-1.3-1.8-19.8-35.5h-1.5l21.2,37,1.5,1.8a1.36,1.36,0,0,0,1.2-.2c1-.6,1.4-2.3,1-3.7Z" transform="translate(-262.29 -48.3)"/><g id="caliperMetal-2" data-name="caliperMetal"><path class="cls-36" d="M435.8,302.5a3.1,3.1,0,0,1,3.1,3,3.13,3.13,0,0,1-1.2,2.4l2.5,6.6h8.5l-6.7-15-1.5-4.4H329.2V302h85.5l1.2,2.5h17A3,3,0,0,1,435.8,302.5Z" transform="translate(-262.29 -48.3)"/><polyline class="cls-36" points="110.81 241.2 79.71 241.2 79.71 253.6 110.81 253.6"/><circle class="cls-37" cx="64.91" cy="244.2" r="1"/><rect x="64.31" y="244.1" width="1.2" height="0.2"/><rect x="64.81" y="243.6" width="0.2" height="1.2"/><circle class="cls-37" cx="64.91" cy="252" r="1"/><rect x="64.31" y="251.9" width="1.2" height="0.2"/><rect x="64.81" y="251.4" width="0.2" height="1.2"/><path class="cls-35" d="M315.2,302.7l-0.1-.1h0.1v0.1Z" transform="translate(-262.29 -48.3)"/><path class="cls-36" d="M315.5,301.7l-0.1-.1h0.1v0.1Z" transform="translate(-262.29 -48.3)"/><path class="cls-38" d="M342,289.5a5.34,5.34,0,0,0-2.5-4.4,6.28,6.28,0,0,0-5.2-.6L318,289.3c-3.3,0-5.3-2.8-5.3.2l1.4,11H344Z" transform="translate(-262.29 -48.3)"/><path d="M331,300.5v-2.6h-1.9l-16.2-2.5c-1.3-.2-2.4-0.1-2.4,1.4v2.6a2.36,2.36,0,0,0,2.1,2.5h30.3c0.9,0,1-.6,1.1-1.4H331Z" transform="translate(-262.29 -48.3)"/><rect class="cls-37" x="48.21" y="243.4" width="19.9" height="5.6"/><path class="cls-37" d="M326.7,291.7H314.1a3.59,3.59,0,0,0-3.6,3.6v1.6a3.59,3.59,0,0,0,3.6,3.6h12.6a3.59,3.59,0,0,0,3.6-3.6v-1.6A3.52,3.52,0,0,0,326.7,291.7Z" transform="translate(-262.29 -48.3)"/><ellipse class="cls-39" cx="58.11" cy="243.4" rx="9.9" ry="5.5"/><ellipse class="cls-40" cx="58.11" cy="243.4" rx="7" ry="3.9"/><ellipse class="cls-41" cx="58.11" cy="243.4" rx="1.8" ry="1"/><polyline class="cls-36" points="110.81 253.6 110.81 250 178.01 250 176.91 246.6 110.81 246.6 110.81 241.2"/></g></g><g id="apertureKnob"><rect class="cls-42" x="138.61" y="336.8" width="2.7" height="4.1"/></g><g id="illumination"><path class="cls-43" d="M382.6,446.5v-5.6H367.4v-2.1s-5,.8-9.2,1.9a15.47,15.47,0,0,0-7.3,4.3l-0.3.3a1.91,1.91,0,0,0-.3,1Z" transform="translate(-262.29 -48.3)"/><path class="cls-43" d="M366.2,451.9c0.7,0,2.1-1.1.8-1.1-0.8,0-2.1,1.1-.8,1.1h0Z" transform="translate(-262.29 -48.3)"/><path class="cls-44" d="M421,468l-1.8-19.8c-0.5-1.4-3.5-1.9-3.5-1.9l-33.1-.5h0l-33.1.5s-3,.5-3.5,1.9L344.2,468l-0.6,10c-0.1,4.9,5.9,4.9,5.9,4.9h66.2s6.1,0,5.9-4.9Z" transform="translate(-262.29 -48.3)"/><polygon class="cls-45" points="159.01 427.1 120.21 427.1 120.21 427.1 81.41 427.1 81.21 430.3 120.21 430.3 120.21 430.3 159.21 430.3 159.01 427.1"/><polygon class="cls-45" points="158.91 423.8 158.71 420.4 120.21 420.4 120.21 420.4 81.71 420.4 81.51 423.8 120.21 423.7 158.91 423.8"/><path class="cls-43" d="M382.5,446.5v-5.6h15.2v-2.1s5,0.8,9.2,1.9a15.47,15.47,0,0,1,7.3,4.3l0.3,0.3a1.91,1.91,0,0,1,.3,1Z" transform="translate(-262.29 -48.3)"/><path class="cls-43" d="M414.8,446.4c0-8.6-31.2-4.5-32.3-4.4-1.1-.1-32.3-4.3-32.3,4.4L349.9,458a2.83,2.83,0,0,0,1.7,2.5c5.8,2.8,21.8,2.5,30.8,2.5s25,0.3,30.8-2.5a2.58,2.58,0,0,0,1.7-2.5Z" transform="translate(-262.29 -48.3)"/><path class="cls-43" d="M398.1,451.9c0.7,0,2.1-1.1.8-1.1-0.8,0-2.1,1.1-.8,1.1h0Z" transform="translate(-262.29 -48.3)"/><path class="cls-46" d="M409,450.5c0-4.1-11.8-7.4-26.5-7.5h-0.2c-14.6,0-26.5,3.3-26.5,7.5s11.8,7.4,26.5,7.5h0.2C397.2,458,409,454.6,409,450.5Z" transform="translate(-262.29 -48.3)"/><path class="cls-47" d="M382.6,456.7H367.8v2.1c1.4,2.4,13.9,2.1,14.8,2.1s13.4,0.3,14.8-2.1v-2.1H382.6Z" transform="translate(-262.29 -48.3)"/></g><g id="ocularHighlight"><g id="eyepiece"><path class="cls-4" d="M299.6,208.9" transform="translate(-262.29 -48.3)"/><path class="cls-4" d="M465.4,208.9" transform="translate(-262.29 -48.3)"/><path class="cls-48" d="M494.5,143.1l-111.5,5a0.73,0.73,0,0,1-1,0l-111.5-5c-0.4,0-.7.2-0.6,0.5l0.8,7.4a0.2,0.2,0,0,0,.1.2c0.6,0.9,5.9,8.5,10,10.9a0.1,0.1,0,0,1,.1.1c6.8,2.6,7,4.3,7,4.3s2.8,11.2,4.2,18.3c0.8,4.2,1.1,5.8,1.2,6.4a0.54,0.54,0,0,0,.5.4l33.9,2.6H437.3l33.9-2.6a0.46,0.46,0,0,0,.5-0.4c0.1-.6.4-2.2,1.2-6.4,1.4-7.1,4.2-18.3,4.2-18.3s0.2-1.6,7-4.3a0.1,0.1,0,0,0,.1-0.1c4.1-2.5,9.4-10.1,10-10.9,0-.1.1-0.1,0.1-0.2l0.8-7.4A0.56,0.56,0,0,0,494.5,143.1Z" transform="translate(-262.29 -48.3)"/><polygon class="cls-49" points="230.81 62.6 220.01 55.8 213.71 55.8 120.31 55.8 120.31 55.8 120.21 55.8 120.11 55.8 120.11 55.8 26.71 55.8 20.41 55.8 9.61 62.6 7.01 83.2 7.91 96.9 17.01 105.1 120.11 105.1 120.31 105.1 223.41 105.1 232.51 96.9 233.41 83.2 230.81 62.6"/><polygon class="cls-50" points="224.11 93.2 120.31 93.2 120.11 93.2 16.31 93.2 6.81 85 7.81 97.3 16.61 105.1 120.21 105.1 223.81 105.1 232.61 97.3 233.61 85 224.11 93.2"/><path class="cls-51" d="M459,190.8H306s0.2-.1-12.8-0.1c0.4,4.8,11.9,4.6,11.9,4.6h155s11.5,0.2,11.9-4.6C458.8,190.7,459,190.8,459,190.8Z" transform="translate(-262.29 -48.3)"/></g><g id="ocularLensBase"><path class="cls-4" d="M299.6,208.9" transform="translate(-262.29 -48.3)"/><path class="cls-4" d="M465.4,208.9" transform="translate(-262.29 -48.3)"/><path class="cls-48" d="M494.5,143.1l-111.5,5a0.73,0.73,0,0,1-1,0l-111.5-5c-0.4,0-.7.2-0.6,0.5l0.8,7.4a0.2,0.2,0,0,0,.1.2c0.6,0.9,5.9,8.5,10,10.9a0.1,0.1,0,0,1,.1.1c6.8,2.6,7,4.3,7,4.3s2.8,11.2,4.2,18.3c0.8,4.2,1.1,5.8,1.2,6.4a0.54,0.54,0,0,0,.5.4l33.9,2.6H437.3l33.9-2.6a0.46,0.46,0,0,0,.5-0.4c0.1-.6.4-2.2,1.2-6.4,1.4-7.1,4.2-18.3,4.2-18.3s0.2-1.6,7-4.3a0.1,0.1,0,0,0,.1-0.1c4.1-2.5,9.4-10.1,10-10.9,0-.1.1-0.1,0.1-0.2l0.8-7.4A0.56,0.56,0,0,0,494.5,143.1Z" transform="translate(-262.29 -48.3)"/><polygon class="cls-50" points="224.11 93.2 120.31 93.2 120.11 93.2 16.31 93.2 6.81 85 7.81 97.3 16.61 105.1 120.21 105.1 223.81 105.1 232.61 97.3 233.61 85 224.11 93.2"/><path class="cls-51" d="M459,190.8H306s0.2-.1-12.8-0.1c0.4,4.8,11.9,4.6,11.9,4.6h155s11.5,0.2,11.9-4.6C458.8,190.7,459,190.8,459,190.8Z" transform="translate(-262.29 -48.3)"/><g id="middle"><path class="cls-52" d="M396.2,120.8c0-3.8,3.1-7,7.5-8.1v-8.6h-42v8.6c4.4,1.1,7.6,4.3,7.6,8.1s-3.2,7.1-7.6,8.1v12.5h42V128.9C399.3,127.8,396.2,124.6,396.2,120.8Z" transform="translate(-262.29 -48.3)"/></g></g><g id="ocularRight"><path class="cls-53" d="M413.7,57.5h0v0Z" transform="translate(-262.29 -48.3)"/><path class="cls-30" d="M392.6,148.3" transform="translate(-262.29 -48.3)"/><polygon class="cls-49" points="230.91 62.5 220.11 55.7 213.81 55.7 150.91 55.7 150.91 93.2 224.01 93.2 233.41 85.1 233.51 83.2 230.91 62.5"/><path class="cls-53" d="M455,57.5v0h0Z" transform="translate(-262.29 -48.3)"/><path class="cls-53" d="M434.3,125.5c-11.4,0-20.7-3.8-20.7-8.5V68.8c0,4,9.3,7.2,20.7,7.2S455,72.8,455,68.8V117C455,121.7,445.7,125.5,434.3,125.5Z" transform="translate(-262.29 -48.3)"/><path class="cls-53" d="M434.3,76c-11.4,0-20.7-3.2-20.7-7.2V57.6c0,5.1,9.3,9.2,20.7,9.2S455,62.7,455,57.6V68.8C455,72.8,445.7,76,434.3,76Z" transform="translate(-262.29 -48.3)"/><path class="cls-54" d="M434.3,76c-11.4,0-20.7-3.2-20.7-7.2V57.6c0,5.1,9.3,9.2,20.7,9.2S455,62.7,455,57.6V68.8C455,72.8,445.7,76,434.3,76Z" transform="translate(-262.29 -48.3)"/><path class="cls-55" d="M455,57.6V57.4c-0.2-5-9.4-9.1-20.7-9.1s-20.5,4.1-20.7,9.1v0.2c0,5.1,9.3,9.2,20.7,9.2S455,62.7,455,57.6Zm-7.6,0c-0.2,2.8-6,5-13.1,5s-12.9-2.2-13.1-5V57.4c0-2.8,5.9-5.1,13.1-5.1s13.1,2.3,13.1,5.1C447.5,57.5,447.5,57.6,447.4,57.6Z" transform="translate(-262.29 -48.3)"/><path class="cls-56" d="M434.3,62.6c-7.1,0-12.9-2.2-13.1-5V57.4c0-2.8,5.9-5.1,13.1-5.1s13.1,2.3,13.1,5.1v0.2C447.2,60.4,441.4,62.6,434.3,62.6Z" transform="translate(-262.29 -48.3)"/><path class="cls-53" d="M434.3,129.4c-11.4,0-20.7-3.8-20.7-8.5V72.7c0,4,9.3,7.2,20.7,7.2S455,76.7,455,72.7v48.2C455,125.6,445.7,129.4,434.3,129.4Z" transform="translate(-262.29 -48.3)"/></g><g id="ocularLeft"><polygon class="cls-49" points="94.51 55.7 26.51 55.7 20.11 55.7 9.31 62.5 6.71 83.2 6.81 85 16.31 93.2 94.51 93.2 94.51 55.7"/></g><g id="friend"><polygon id="coarseKnobSide" class="cls-55" points="91.11 53.9 92.41 52.6 92.31 52.5 89.41 47.1 89.31 46.8 87.61 46.8 88.21 45.5 88.01 45.4 82.81 41.2 82.61 41 80.71 41.5 80.51 39.9 80.31 39.8 73.41 37.7 73.21 37.6 71.91 38.5 71.21 37.3 70.91 37.3 63.51 37.3 63.31 37.3 62.31 38.7 60.81 37.7 60.61 37.7 53.81 40.1 53.51 40.1 53.41 41.4 51.81 41 51.61 41.2 46.41 45.4 46.21 45.5 46.91 47.1 44.91 47.2 44.81 47.4 42.01 52.8 41.91 53 43.01 54 41.51 54.6 41.51 54.8 41.51 60.7 41.51 60.9 43.31 61.7 42.01 62.9 42.11 63.1 45.01 68.5 45.11 68.7 46.81 68.7 46.21 70 46.41 70.2 51.61 74.4 51.81 74.5 53.81 74 53.91 75.6 54.21 75.7 61.01 77.8 61.21 77.9 62.51 77 63.31 78.3 63.51 78.3 70.91 78.3 71.21 78.3 72.11 76.8 73.61 77.8 73.91 77.8 80.71 75.5 80.91 75.4 81.01 74.1 82.61 74.5 82.81 74.4 88.01 70.2 88.21 70 87.51 68.5 89.61 68.3 89.71 68.2 92.41 62.7 92.51 62.5 91.41 61.5 92.91 60.9 92.91 60.7 92.91 54.8 92.91 54.6 91.11 53.9"/></g><g id="ocularLeftDiopter"><path class="cls-57" d="M329.5,66.8c-11.4,0-20.7-4.1-20.7-9.1v11c0,3.9,9.3,7.1,20.7,7.1s20.7-3.2,20.7-7.1V57.6C350.2,62.7,340.9,66.8,329.5,66.8Z" transform="translate(-262.29 -48.3)"/><path class="cls-54" d="M329.5,69.8c-11.4,0-20.7-4.1-20.7-9.1v11c0,3.9,9.3,7.1,20.7,7.1s20.7-3.2,20.7-7.1V60.6C350.2,65.7,340.9,69.8,329.5,69.8Z" transform="translate(-262.29 -48.3)"/><path class="cls-55" d="M329.5,66.8c11.4,0,20.7-4.1,20.7-9.1V57.5c-0.2-5-9.4-9-20.7-9s-20.5,4-20.7,9v0.2C308.8,62.7,318.1,66.8,329.5,66.8Zm0-14.4c7.3,0,13.2,2.3,13.2,5.1v0.2c-0.2,2.7-6,4.9-13.1,4.9s-12.9-2.2-13.1-4.9V57.5C316.3,54.7,322.2,52.4,329.5,52.4Z" transform="translate(-262.29 -48.3)"/><path class="cls-58" d="M329.5,62.5c7.1,0,12.9-2.2,13.1-4.9V57.4c0-2.8-5.9-5.1-13.2-5.1s-13.2,2.3-13.2,5.1v0.2C316.6,60.3,322.4,62.5,329.5,62.5Z" transform="translate(-262.29 -48.3)"/><path class="cls-57" d="M329.5,75.8c-11.4,0-20.7-3.2-20.7-7.1v32c0,7.5,9.3,13.5,20.7,13.5s20.7-6.1,20.7-13.5v-32C350.2,72.6,340.9,75.8,329.5,75.8Z" transform="translate(-262.29 -48.3)"/></g></g><g id="switch"><path class="cls-59" d="M326.9,477.2h0a6.16,6.16,0,0,1-5.2-6.9l1.4-10.2a6.16,6.16,0,0,1,6.9-5.2h0a6.16,6.16,0,0,1,5.2,6.9L333.8,472A6.12,6.12,0,0,1,326.9,477.2Z" transform="translate(-262.29 -48.3)"/><line class="cls-60" x1="61.41" y1="424.2" x2="69.31" y2="425.3"/><line class="cls-60" x1="62.21" y1="421.5" x2="69.21" y2="422.4"/><line class="cls-60" x1="63.21" y1="413" x2="70.21" y2="414"/><line class="cls-60" x1="63.01" y1="410.1" x2="71.01" y2="411.2"/><line class="cls-60" x1="63.01" y1="418.7" x2="69.11" y2="419.6"/><line class="cls-60" x1="63.31" y1="415.9" x2="69.41" y2="416.7"/><rect class="cls-33" x="305.16" y="461.22" width="18.7" height="11.1" transform="translate(-462.52 646.14) rotate(-79.89)"/><text class="cls-61" transform="translate(50.32 411.57) rotate(10.11)">ON</text><text class="cls-61" transform="translate(47.74 422.48) rotate(10.11)">OFF</text></g><g id="knobsCoarse"><path class="cls-9" d="M424.2,436.9h0V377.4h0c5.7,0,10.3,0,10.3,12.2v35.1C434.6,436.9,429.9,436.9,424.2,436.9Z" transform="translate(-262.29 -48.3)"/><rect class="cls-62" x="159.21" y="329" width="2.7" height="59.5"/><path class="cls-9" d="M340.8,436.9h0V377.4h0c-5.7,0-10.3,0-10.3,12.2v35.1C330.6,436.9,335.2,436.9,340.8,436.9Z" transform="translate(-262.29 -48.3)"/><rect class="cls-62" x="78.51" y="329" width="2.7" height="59.5"/></g><g id="knobsFine"><path class="cls-63" d="M434.6,425h0V389.1h0c5,0,9.1,0,9.1,10.2v15.5C443.4,425,439.5,425,434.6,425Z" transform="translate(-262.29 -48.3)"/><path class="cls-63" d="M330.6,425h0V389.1h0c-5,0-9.1,0-9.1,10.2v15.5C321.7,425,325.6,425,330.6,425Z" transform="translate(-262.29 -48.3)"/></g><g id="lensesBase"><ellipse class="cls-64" cx="118.91" cy="183.3" rx="53.5" ry="20.6"/><path class="cls-3" d="M437.2,218a15.12,15.12,0,0,0-6.5-10.9c-0.9-.6-1.9-1.2-2.8-1.8-16-9.7-46.8-9.9-46.8-9.9s-30.9.2-46.8,9.9c-0.9.6-1.8,1.2-2.8,1.8A15.12,15.12,0,0,0,325,218a58.55,58.55,0,0,0-.5,10.1,29.42,29.42,0,0,0,4.7,9.7c0.7-.8,3.1-5.2,3.1-5.2l-1-2.1a4.2,4.2,0,0,1,.3-4.2,18.48,18.48,0,0,1,5.7-5.1c6.2-3.6,4.6-2.2,6.4-3.2,5.4-3,11.8-4.1,20.3-4.8s17.1-.9,17.1-0.9,8.5,0.2,17.1.9,14.9,1.9,20.3,4.8c1.8,1,.2-0.4,6.4,3.2a16.28,16.28,0,0,1,5.7,5.1,4.49,4.49,0,0,1,.3,4.2l-1,2.1s2.4,4.4,3.1,5.2a27.56,27.56,0,0,0,4.7-9.7A58.88,58.88,0,0,0,437.2,218Z" transform="translate(-262.29 -48.3)"/><path class="cls-65" d="M395.5,234.1v-1" transform="translate(-262.29 -48.3)"/><path class="cls-65" d="M365,233.1v1" transform="translate(-262.29 -48.3)"/><rect class="cls-33" x="102.81" y="183.7" width="30.4" height="9.3"/></g><g id="lensesBasePath"><path class="cls-3" d="M437.2,218a15.12,15.12,0,0,0-6.5-10.9c-0.9-.6-1.9-1.2-2.8-1.8-16-9.7-46.8-9.9-46.8-9.9s-30.9.2-46.8,9.9c-0.9.6-1.8,1.2-2.8,1.8A15.12,15.12,0,0,0,325,218a58.55,58.55,0,0,0-.5,10.1,29.42,29.42,0,0,0,4.7,9.7c0.7-.8,3.1-5.2,3.1-5.2l-1-2.1a4.2,4.2,0,0,1,.3-4.2,18.48,18.48,0,0,1,5.7-5.1c6.2-3.6,4.6-2.2,6.4-3.2,5.4-3,11.8-4.1,20.3-4.8s17.1-.9,17.1-0.9,8.5,0.2,17.1.9,14.9,1.9,20.3,4.8c1.8,1,.2-0.4,6.4,3.2a16.28,16.28,0,0,1,5.7,5.1,4.49,4.49,0,0,1,.3,4.2l-1,2.1s2.4,4.4,3.1,5.2a27.56,27.56,0,0,0,4.7-9.7A58.88,58.88,0,0,0,437.2,218Z" transform="translate(-262.29 -48.3)"/><path class="cls-65" d="M395.5,234.1v-1" transform="translate(-262.29 -48.3)"/><path class="cls-65" d="M365,233.1v1" transform="translate(-262.29 -48.3)"/><rect class="cls-33" x="102.81" y="183.7" width="30.4" height="9.3"/></g><g id="lenses6"><g id="_40" data-name="40"><polygon class="cls-3" points="151.31 213.5 149.41 220.3 129.51 229.6 123.61 226.4 112.21 202 139.91 189.1 151.31 213.5"/><path class="cls-66" d="M392.1,277.7l1,2.1a1.71,1.71,0,0,0,2.2.4l16.6-7.7a1.6,1.6,0,0,0,1.1-1.9l-1-2.1Z" transform="translate(-262.29 -48.3)"/><polygon class="cls-67" points="137.71 184.4 110.11 197.3 112.21 202 125.81 195.7 139.91 189.1 137.71 184.4"/><polyline class="cls-68" points="141.01 191.5 141.51 192.5 113.81 205.3 113.41 204.4"/><text class="cls-69" transform="matrix(0.91, -0.42, 0.42, 0.91, 122.23, 213.05)">E.</text><text class="cls-69" transform="matrix(0.91, -0.42, 0.42, 0.91, 129.93, 209.46)"> </text><text class="cls-69" transform="matrix(0.91, -0.42, 0.42, 0.91, 132.84, 208.1)">40</text><text class="cls-70" transform="matrix(0.91, -0.42, 0.42, 0.91, 130.36, 215.33)">0.65</text><text class="cls-71" transform="matrix(0.91, -0.42, 0.42, 0.91, 130.29, 219.44)">1</text><text class="cls-71" transform="matrix(0.91, -0.42, 0.42, 0.91, 131.92, 218.68)">6</text><text class="cls-71" transform="matrix(0.91, -0.42, 0.42, 0.91, 133.46, 217.96)">0</text><text class="cls-71" transform="matrix(0.91, -0.42, 0.42, 0.91, 135.27, 217.12)">/</text><text class="cls-71" transform="matrix(0.91, -0.42, 0.42, 0.91, 136.18, 216.7)">0.17</text></g><g id="_100" data-name="100"><polygon class="cls-3" points="180.31 198.4 182.01 207.5 165.31 221.6 157.11 218 131.61 187.9 154.81 168.2 180.31 198.4"/><path class="cls-66" d="M427.6,269.9l1,1.2c0.3,0.4,1.2.2,2-.5l14-11.8c0.8-.6,1.1-1.5.8-1.8l-1-1.2Z" transform="translate(-262.29 -48.3)"/><path class="cls-67" d="M393.8,236s2.8-15.9,22.8-20.3l4.2,5.1s-18.3-.2-23.8,19.1Z" transform="translate(-262.29 -48.3)"/><path class="cls-30" d="M407.2,228.4c-8.3,7-8.7,13.4-8.7,13.4l0.6,0.8a30.94,30.94,0,0,1,8.8-13.3,29.79,29.79,0,0,1,14.5-6.4s-0.4-.5-0.7-0.8C421.9,222.1,415.5,221.4,407.2,228.4Z" transform="translate(-262.29 -48.3)"/><text class="cls-72" transform="translate(148.6 202.87) rotate(-40)">E.</text><text class="cls-72" transform="translate(154.43 197.98) rotate(-40)"> </text><text class="cls-72" transform="translate(156.57 196.18) rotate(-40)">100</text><text class="cls-70" transform="translate(156.12 203.74) rotate(-40)">1.25 </text><text class="cls-71" transform="translate(164.01 197.12) rotate(-40)">oil</text><text class="cls-71" transform="translate(158.88 206.25) rotate(-40)">1</text><text class="cls-71" transform="translate(160.19 205.16) rotate(-40)">6</text><text class="cls-71" transform="translate(161.49 204.06) rotate(-40)">0</text><text class="cls-71" transform="translate(163.02 202.78) rotate(-40)">/</text><text class="cls-71" transform="translate(163.79 202.14) rotate(-40)">0.17</text></g><g id="_10" data-name="10"><polygon class="cls-3" points="86.01 217.1 79.81 217.3 63.11 203.2 62.61 197.6 75.31 182.2 98.71 201.8 86.01 217.1"/><path class="cls-66" d="M325.6,251.7l-0.8.9c-0.3.3,0.2,1,1,1.6l-0.3,11.5,2.6,2.2,11.7-2c0.8,0.6,1.6.9,1.8,0.7l0.8-.9Z" transform="translate(-262.29 -48.3)"/><path class="cls-67" d="M337.7,230.6s16.2,0,24,18.8l-4.3,5s-3-18.1-23-20Z" transform="translate(-262.29 -48.3)"/><path class="cls-73" d="M346.1,244.2c-8.4-6.9-14.7-6.1-14.7-6.1l-0.6.8a30.8,30.8,0,0,1,14.6,6.2,30.18,30.18,0,0,1,9,13.1s0.4-.5.7-0.8C354.8,257.4,354.5,251.1,346.1,244.2Z" transform="translate(-262.29 -48.3)"/><text class="cls-72" transform="translate(69.37 198.08) rotate(40)">E.</text><text class="cls-72" transform="translate(75.19 202.96) rotate(40)"> </text><text class="cls-72" transform="translate(77.33 204.76) rotate(40)">10</text><text class="cls-74" transform="translate(71.63 205.33) rotate(40)">0.25</text><text class="cls-75" transform="translate(70.28 207.72) rotate(40)">1</text><text class="cls-75" transform="translate(71.28 208.56) rotate(40)">6</text><text class="cls-75" transform="translate(72.27 209.39) rotate(40)">0</text><text class="cls-75" transform="translate(73.35 210.29) rotate(40)">/</text><text class="cls-75" transform="translate(73.96 210.81) rotate(40)">-</text></g><g id="_4" data-name="4"><rect class="cls-3" x="357.54" y="216.71" width="20" height="30.5" transform="translate(-213.92 478.64) rotate(-75)"/><path class="cls-67" d="M355.8,218.2s14.5-7.1,29.8,6.5l-1.7,6.5s-10.6-15-29.5-7.9Z" transform="translate(-262.29 -48.3)"/><ellipse class="cls-76" cx="365.1" cy="241.74" rx="3.6" ry="15.2" transform="matrix(0.26, -0.97, 0.97, 0.26, -225.18, 483.54)"/><path class="cls-65" d="M369.7,225.4c-10.5-2.8-16,.5-16,0.5a6.59,6.59,0,0,1-.3,1,30.8,30.8,0,0,1,15.9-.3,29.85,29.85,0,0,1,13.5,8.2s0.2-.6.3-1C383.2,233.7,380.2,228.2,369.7,225.4Z" transform="translate(-262.29 -48.3)"/><text class="cls-72" transform="matrix(0.97, 0.26, -0.26, 0.97, 96.87, 184.5)">E.</text><text class="cls-72" transform="matrix(0.97, 0.26, -0.26, 0.97, 104.21, 186.46)"> </text><text class="cls-77" transform="matrix(0.97, 0.26, -0.26, 0.97, 106.92, 187.19)">4</text><text class="cls-78" transform="matrix(0.97, 0.26, -0.26, 0.97, 101.36, 188.6)">1</text><text class="cls-78" transform="matrix(0.97, 0.26, -0.26, 0.97, 102.62, 188.94)">6</text><text class="cls-78" transform="matrix(0.97, 0.26, -0.26, 0.97, 103.87, 189.27)">0</text><text class="cls-78" transform="matrix(0.97, 0.26, -0.26, 0.97, 105.32, 189.66)">/</text><text class="cls-78" transform="matrix(0.97, 0.26, -0.26, 0.97, 106.1, 189.87)">-</text></g></g></svg>