<?xml version="1.0" encoding="utf-8"?>
<!-- Generator: Adobe Illustrator 19.2.1, SVG Export Plug-In . SVG Version: 6.00 Build 0)  -->
<svg version="1.1" xmlns="http://www.w3.org/2000/svg" xmlns:xlink="http://www.w3.org/1999/xlink" x="0px" y="0px"
	 viewBox="0 0 792.998 640.101" enable-background="new 0 0 792.998 640.101" xml:space="preserve">
<g id="table" opacity="0">
	<polygon fill="#AD6328" points="703.062,438.161 88,438.161 0,640.101 791.062,640.101 	"/>
</g>
<g id="frame">
	<path opacity="0.53" d="M502.732,560.197l-120.167,11.274l-120.167-11.274c-0.919,30.141,41.834,28.76,41.834,28.76h78.333h78.333
		C460.898,588.957,503.651,590.338,502.732,560.197z"/>
	<path fill="#EDE5DC" d="M494.294,515.966l-111.729,38.868l-111.729-38.868c0,0-8.438,26.007-8.438,45.51
		c2.354,23.666,34.947,22.655,39.814,22.371c0.459-0.027,0.914-0.041,1.374-0.041h78.978h78.978c0.46,0,0.915,0.014,1.374,0.041
		c4.867,0.284,37.461,1.294,39.814-22.371C502.732,541.973,494.294,515.966,494.294,515.966z"/>
	<path fill="#383A3A" d="M496.542,523.086c0,0-8.314-26.591-17.317-53.188c-0.503-1.486-0.899-3.009-1.2-4.549
		c-4.93-25.173-34.184-23.439-34.246-23.439l-61.214-0.095l-61.214,0.095c-0.063,0-29.316-1.734-34.246,23.439
		c-0.301,1.539-0.697,3.063-1.2,4.549c-9.003,26.597-17.317,53.188-17.317,53.188s-12.911,33.199,27.62,40.505
		c0.556,0.1,1.127,0.146,1.693,0.146h84.663h84.663c0.566,0,1.137-0.046,1.693-0.146
		C509.453,556.285,496.542,523.086,496.542,523.086z"/>
	<path fill="#E6DFD5" d="M433.127,515.476c-11.342-72.804-11.66-73.599-11.66-73.599l-0.084-170.007l8.764-78.754
		c-18.889-5.069-47.28-4.18-47.581-4.17c-0.301-0.01-28.692-0.899-47.581,4.17l8.764,78.754l-0.084,170.007
		c0,0-0.318,0.795-11.66,73.599c-4.416,20.502,19.398,19.506,19.398,19.506h31.164h0h0h31.164
		C413.729,534.982,437.543,535.977,433.127,515.476z"/>
</g>
<g id="diaphragm">
	<rect x="357.308" y="370.603" fill="#1F1E21" width="51.121" height="39.827"/>
	<circle fill="#B0AFB0" cx="374.196" cy="406.758" r="1.873"/>
	<circle fill="#B0AFB0" cx="391.54" cy="406.758" r="1.873"/>
	<circle fill="#878787" cx="374.196" cy="406.758" r="1.078"/>
	<circle fill="#878787" cx="391.54" cy="406.758" r="1.078"/>
	<g>
		<path fill="#636464" d="M350.145,396.441L350.145,396.441v-16.44l0,0c-1.377,0-2.504,0-2.504,4.667v7.107
			C347.682,396.441,348.768,396.441,350.145,396.441z"/>
		<g>
			<path fill="#4F5251" d="M350.977,396.463L350.977,396.463v-16.483l0,0c-1.33,0-2.419,0-2.419,3.379v9.725
				C348.558,396.463,349.646,396.463,350.977,396.463z"/>
			<path fill="#4F5251" d="M350.396,396.463L350.396,396.463v-16.483l0,0c1.33,0,2.419,0,2.419,3.379v9.725
				C352.815,396.463,351.727,396.463,350.396,396.463z"/>
		</g>
	</g>
	<rect x="352.815" y="386.283" fill="#ABABAB" width="4.493" height="3.869"/>
	<path fill="#848484" d="M357.308,390.15L357.308,390.15v-3.868l0,0c-0.176,0-0.32,0-0.32,1.098v1.672
		C356.993,390.15,357.132,390.15,357.308,390.15z"/>
	<g>
		<path fill="#46484D" d="M382.796,382.484v-1.851c-0.006,0-0.012,0-0.018,0v1.85C382.778,382.484,382.785,382.484,382.796,382.484z
			"/>
		<path fill="#292E2C" d="M382.893,369.761c1.263,0.017,12.767,0.175,14.993,0.297c-0.059-3.475-0.524-3.669-0.524-3.669
			c-0.627-1.94-2.691-3.13-3.956-3.771c-4.875-1.271-8.842-1.319-10.546-1.26c-1.714-0.057-5.671-0.005-10.527,1.261
			c-1.266,0.641-3.329,1.832-3.956,3.77c0,0-0.465,0.195-0.524,3.67C370.11,369.934,381.913,369.774,382.893,369.761z"/>
		<path fill="#3D3D3D" d="M372.332,362.751c4.78-1.247,8.69-1.317,10.446-1.265v0.006c0.026-0.002,0.054-0.002,0.081-0.003
			c0.034,0.001,0.068,0.002,0.1,0.004v-0.008c1.756-0.052,5.665,0.019,10.446,1.266c0.003,0,0.005,0.001,0.008,0.002
			c-0.333-0.169-0.612-0.301-0.796-0.397c-1.92-2.348-8.262-3.034-9.744-3.034c-1.482,0-7.833,0.687-9.753,3.034
			c-0.184,0.096-0.463,0.229-0.797,0.397C372.325,362.752,372.328,362.752,372.332,362.751z"/>
		<path fill="#464641" d="M358.39,380.609c0.388,0.384,1.745,1.217,1.745,1.217s1.824,1.167,2.991,1.167
			c0.032,0,0.078,0,0.133-0.001c1.174-0.349,2.474-0.645,3.83-0.897c-0.595-0.522-1.354-1.366-1.253-2.212
			c0.917-2.51,15.791-3.496,17.038-3.575c1.323,0.083,16.113,1.072,17.027,3.574c0.102,0.846-0.658,1.689-1.253,2.212
			c1.357,0.251,2.656,0.548,3.83,0.897c0.056,0,0.102,0,0.133,0c1.167,0,2.992-1.167,2.992-1.167s1.357-0.834,1.745-1.217
			c0.536-0.667,0.829-1.372,0.977-2.049c-0.004,0.013-0.007,0.025-0.011,0.038c-0.034,0.104-5.036-3.489-12.565-3.574
			c-5.735-0.064-11.69-0.147-12.789-0.163v-0.001c0,0-0.025,0-0.068,0c-0.072,0-0.113-0.002-0.113-0.002v0.003
			c-1.099,0.016-7.054,0.098-12.789,0.163c-7.53,0.085-12.531,3.677-12.566,3.573c-0.003-0.012-0.007-0.025-0.011-0.038
			C357.56,379.237,357.853,379.942,358.39,380.609z"/>
		<path fill="#46484D" d="M382.941,382.484v-1.851c0.006,0,0.012,0,0.018,0v1.851C382.959,382.484,382.952,382.484,382.941,382.484z
			"/>
		<path fill="#666766" d="M357.413,378.693c0.004,0.012,0.008,0.026,0.011,0.038c0.035,0.104,5.036-3.489,12.566-3.574
			c5.982-0.068,12.203-0.154,12.902-0.165c0.885,0.013,6.984,0.098,12.856,0.165c7.529,0.085,12.531,3.678,12.565,3.573
			c0.004-0.012,0.008-0.025,0.011-0.038c0.336-1.106-0.24-3.079-0.282-3.255c-0.161-0.676-0.195-0.91-0.824-1.734
			c-3.212-2.955-7.301-3.637-9.176-3.768c-0.045-0.003-0.099-0.007-0.157-0.01c-2.191-0.121-13.373-0.275-14.926-0.297v-0.001
			c0,0-0.024,0.001-0.067,0.001c-0.074-0.001-0.115-0.002-0.115-0.002v0.003c-1.554,0.021-12.735,0.176-14.927,0.297
			c-0.058,0.003-0.111,0.006-0.156,0.01c-1.876,0.131-5.964,0.813-9.176,3.768c-0.63,0.824-0.663,1.058-0.824,1.734
			C357.653,375.614,357.077,377.587,357.413,378.693z"/>
		<path fill="#BABABA" d="M367.088,382.096c0.204-0.038,0.408-0.075,0.613-0.11c-0.014-0.324-0.008-0.749,0.059-1.22
			c0.811-1.894,13.943-2.642,15.114-2.705c1.25,0.067,14.294,0.817,15.102,2.705c0.067,0.471,0.073,0.896,0.059,1.22
			c0.205,0.035,0.409,0.072,0.612,0.11c0.595-0.522,1.355-1.366,1.253-2.212c-0.897-2.455-16.973-3.578-17.027-3.574
			c-0.062-0.004-0.096,0.007-0.096,0.007c-1.777,0.114-16.045,1.112-16.943,3.568C365.734,380.731,366.494,381.574,367.088,382.096z
			"/>
		<path fill="#212355" d="M367.701,381.986c6.442-1.12,13.892-1.279,15.077-1.297v0.076c0.006,0,0.011,0,0.018,0v-0.076
			c0.041-0.001,0.073-0.001,0.096-0.001c0.015,0,0.031,0,0.049,0v0.077c0.006,0,0.012,0,0.018,0v-0.077
			c1.184,0.019,8.635,0.177,15.076,1.298c0.013-0.325,0.008-0.749-0.059-1.22c-0.793-1.852-13.361-2.608-15.017-2.7v-0.009
			c0,0-0.03,0.001-0.085,0.004c-0.063-0.003-0.096-0.005-0.096-0.005v0.01c-1.656,0.092-14.225,0.849-15.018,2.7
			C367.694,381.237,367.688,381.662,367.701,381.986z"/>
		<path fill="#404157" d="M366.119,395.06c0.017,0.015,0.033,0.029,0.051,0.043c-0.003-0.001-0.005-0.001-0.008-0.001
			c0.004,0.004,0.008,0.008,0.013,0.011c1.061,0.845,4.655,1.429,16.76,1.429v-0.001c11.998-0.005,15.571-0.588,16.629-1.429
			c0.005-0.004,0.008-0.008,0.012-0.011c-0.003,0.001-0.006,0.001-0.009,0.001c0.018-0.014,0.034-0.029,0.051-0.043
			c0.236-0.282,0.266-0.589,0.266-0.909c0-0.858-2.835-1.615-7.183-2.077c-0.158-0.019-0.321-0.036-0.486-0.054
			c-0.361-0.037-0.741-0.073-1.14-0.103c-0.186-0.014-0.376-0.028-0.572-0.041c-2.314-0.175-4.929-0.273-7.699-0.273v0.001
			c-2.721,0.002-5.291,0.101-7.568,0.272c-0.194,0.013-0.385,0.027-0.571,0.041c-0.399,0.03-0.779,0.066-1.14,0.103
			c-0.166,0.017-0.329,0.036-0.486,0.055c-4.347,0.462-7.183,1.219-7.183,2.076C365.853,394.471,365.882,394.777,366.119,395.06z"/>
		<path fill="#464641" d="M358.183,392.37c0.17,0.173,0.173,0.175,0.173,0.175s1.348,1.362,7.806,2.557
			c0.003,0.001,0.005,0.001,0.008,0.001c-0.017-0.014-0.034-0.028-0.051-0.043c0.008,0.01,0.014,0.02,0.023,0.03
			c-0.024-0.005-0.049-0.009-0.073-0.014c-0.719-0.685-0.664-2.221-0.664-2.221s-0.002-0.378,0.225-0.637
			c2.096-2.938,15.657-3.002,17.165-3v0.092c0,0,0.004,0,0.007,0v-0.092c0.085,0.001,0.132,0.001,0.132,0.001v0.092
			c0.003,0,0.007,0,0.007,0v-0.094c1.508-0.001,15.068,0.062,17.164,2.999c0.228,0.26,0.227,0.638,0.227,0.638
			s0.055,1.537-0.664,2.221c-0.025,0.004-0.049,0.009-0.073,0.014c0.009-0.01,0.015-0.02,0.023-0.03
			c-0.017,0.014-0.033,0.03-0.051,0.043c0.003,0,0.006-0.001,0.009-0.001c6.458-1.195,7.806-2.557,7.806-2.557
			s0.002-0.002,0.172-0.175c-0.182-0.533-2.243-4.148-24.757-4.148v0.001C360.42,388.238,358.365,391.837,358.183,392.37z"/>
		<path fill="#B8A491" d="M366.069,395.077c0.024,0.005,0.049,0.008,0.073,0.014c-0.009-0.01-0.015-0.02-0.023-0.03
			c-0.237-0.283-0.266-0.589-0.266-0.91c0-0.857,2.836-1.615,7.183-2.076c0.157-0.019,0.321-0.037,0.486-0.055
			c0.361-0.037,0.741-0.073,1.14-0.103c0.186-0.014,0.377-0.028,0.571-0.041c2.314-0.175,4.93-0.273,7.7-0.273v-0.001
			c2.721,0.004,5.291,0.101,7.568,0.273c0.195,0.013,0.385,0.026,0.572,0.041c0.399,0.03,0.779,0.066,1.14,0.103
			c0.166,0.018,0.328,0.036,0.486,0.054c4.348,0.462,7.183,1.219,7.183,2.077c0,0.32-0.03,0.627-0.266,0.909
			c-0.008,0.011-0.015,0.02-0.023,0.03c0.025-0.004,0.049-0.009,0.073-0.014c0.719-0.685,0.664-2.221,0.664-2.221
			s0.001-0.378-0.227-0.638c-2.219-3.11-17.302-2.998-17.302-2.998l0,0c-1.472-0.002-15.072,0.057-17.171,3
			c-0.227,0.259-0.225,0.637-0.225,0.637S365.35,394.392,366.069,395.077z"/>
	</g>
	<path fill="#666766" d="M407.399,384.336c-0.754-1.216-9.227-2.68-9.433-2.716c-6.474-1.135-15.131-1.31-15.167-1.31
		c-0.036-0.001-8.694,0.175-15.167,1.31c-0.205,0.036-8.678,1.5-9.433,2.716c-0.19,0.346-0.585,4.971-0.102,8.004
		c0.006,0.008,0.011,0.011,0.017,0.018c0.182-0.537,2.242-3.211,24.685-3.218c22.444,0.007,24.503,2.681,24.685,3.218
		c0.005-0.007,0.011-0.011,0.017-0.018C407.984,389.307,407.589,384.682,407.399,384.336z"/>
</g>
<g id="slideStage">
	<g>
		<polygon fill="#6B6F6B" points="475.569,342.749 289.628,342.749 314.59,279.008 450.607,279.008 		"/>
		<rect x="289.628" y="342.749" fill="#364042" width="185.941" height="16.284"/>
	</g>
	<ellipse cx="380.751" cy="310.919" rx="15.785" ry="8.197"/>
</g>
<g id="slide" opacity="0.5">
	<rect x="331.65" y="301.382" display="inline" fill="#FFFFFF" width="100.024" height="28.207"/>
</g>
<g id="caliperKnob">
	<path fill="#7B7B7B" d="M476.773,385.795c0.002-0.29,0.003-0.584,0.003-0.883h-0.019c-0.096-3.2-0.733-5.592-4.976-5.592h-14.377
		c-4.243,0-4.88,2.392-4.976,5.592h-0.019c0,0.299,0.001,0.593,0.003,0.883c-0.002,0.29-0.003,0.584-0.003,0.883h0.019
		c0.096,3.2,0.733,5.592,4.976,5.592h14.377c4.243,0,4.879-2.392,4.976-5.592h0.019
		C476.776,386.379,476.775,386.085,476.773,385.795z"/>

		<rect x="454.709" y="365.249" transform="matrix(1.969098e-11 -1 1 1.969098e-11 95.5779 833.6075)" fill="#ABABAB" width="19.768" height="7.532"/>
	<path fill="#303030" d="M476.773,384.876c0.002-0.29,0.003-0.584,0.003-0.883h-0.019c-0.096-3.2-0.733-5.592-4.976-5.592h-14.377
		c-4.243,0-4.88,2.392-4.976,5.592h-0.019c0,0.299,0.001,0.593,0.003,0.883c-0.002,0.29-0.003,0.584-0.003,0.883h0.019
		c0.096,3.2,0.733,5.592,4.976,5.592h14.377c4.243,0,4.879-2.392,4.976-5.592h0.019C476.776,385.46,476.775,385.166,476.773,384.876
		z"/>
	<path fill="#7B7B7B" d="M473.421,397.343c0.001-0.21,0.002-0.423,0.002-0.64h-0.014c-0.07-2.319-0.531-4.053-3.606-4.053h-10.42
		c-3.075,0-3.537,1.734-3.607,4.053h-0.014c0,0.217,0.001,0.43,0.002,0.64c-0.001,0.21-0.002,0.423-0.002,0.64h0.014
		c0.07,2.319,0.531,4.053,3.607,4.053h10.42c3.075,0,3.537-1.734,3.606-4.053h0.014
		C473.423,397.766,473.423,397.553,473.421,397.343z"/>
	<path fill="#303030" d="M473.421,396.677c0.001-0.21,0.002-0.423,0.002-0.64h-0.014c-0.07-2.319-0.531-4.053-3.606-4.053h-10.42
		c-3.075,0-3.537,1.734-3.607,4.053h-0.014c0,0.217,0.001,0.43,0.002,0.64c-0.001,0.21-0.002,0.423-0.002,0.64h0.014
		c0.07,2.319,0.531,4.053,3.607,4.053h10.42c3.075,0,3.537-1.734,3.606-4.053h0.014C473.423,397.1,473.423,396.887,473.421,396.677z
		"/>
</g>
<g id="caliper">
	<polygon fill="#151515" points="481.57,346.358 481.57,344.555 456.608,287.881 450.39,287.881 475.352,344.555 475.352,359.033
		460.796,359.033 460.796,365.251 475.352,365.251 475.352,372.841 476.387,372.841 477.394,372.841 478.984,372.841
		478.984,368.45 481.57,368.45 481.57,367.837 481.57,366.485 481.57,365.251 478.984,365.251 478.984,346.358 	"/>
	<rect x="478.984" y="346.358" fill="#606161" width="2.586" height="18.894"/>

		<rect x="477.666" y="342.081" transform="matrix(0.9135 -0.4067 0.4067 0.9135 -97.8704 224.4659)" fill="#FFFFFF" width="2.827" height="0.748"/>

		<rect x="472.837" y="331.235" transform="matrix(0.9135 -0.4067 0.4067 0.9135 -93.8766 221.5642)" fill="#FFFFFF" width="2.827" height="0.748"/>

		<rect x="468.009" y="320.39" transform="matrix(0.9135 -0.4067 0.4067 0.9135 -89.8828 218.6626)" fill="#FFFFFF" width="2.827" height="0.748"/>

		<rect x="463.18" y="309.545" transform="matrix(0.9135 -0.4067 0.4067 0.9135 -85.8891 215.7609)" fill="#FFFFFF" width="2.827" height="0.748"/>
</g>
<g id="xcaliper">
	<g>
		<polygon fill="#151515" points="500.737,286.257 377.732,286.257 375.43,289.755 395.482,289.755 482.987,289.755
			503.046,289.755 500.737,286.257 		"/>
		<rect x="375.43" y="289.755" fill="#151515" width="127.616" height="2.65"/>
		<rect x="498.488" y="286.662" fill="#FFFFFF" width="0.53" height="2.709"/>
		<rect x="490.008" y="286.662" fill="#FFFFFF" width="0.53" height="2.709"/>
		<rect x="481.528" y="286.662" fill="#FFFFFF" width="0.53" height="2.709"/>
		<rect x="473.048" y="286.662" fill="#FFFFFF" width="0.53" height="2.709"/>
		<rect x="464.569" y="286.662" fill="#FFFFFF" width="0.53" height="2.709"/>
		<rect x="456.089" y="286.662" fill="#FFFFFF" width="0.53" height="2.709"/>
		<rect x="447.609" y="286.662" fill="#FFFFFF" width="0.53" height="2.709"/>
		<rect x="439.129" y="286.662" fill="#FFFFFF" width="0.53" height="2.709"/>
		<rect x="430.649" y="286.662" fill="#FFFFFF" width="0.53" height="2.709"/>
		<rect x="422.169" y="286.662" fill="#FFFFFF" width="0.53" height="2.709"/>
		<rect x="413.689" y="286.662" fill="#FFFFFF" width="0.53" height="2.709"/>
		<rect x="405.21" y="286.662" fill="#FFFFFF" width="0.53" height="2.709"/>
		<rect x="396.73" y="286.662" fill="#FFFFFF" width="0.53" height="2.709"/>
		<rect x="388.25" y="286.662" fill="#FFFFFF" width="0.53" height="2.709"/>
		<rect x="379.77" y="286.662" fill="#FFFFFF" width="0.53" height="2.709"/>
		<rect x="497.746" y="286.662" fill="#FFFFFF" width="0.071" height="1.354"/>
		<rect x="496.898" y="286.662" fill="#FFFFFF" width="0.071" height="1.354"/>
		<rect x="496.05" y="286.662" fill="#FFFFFF" width="0.071" height="1.354"/>
		<rect x="495.202" y="286.662" fill="#FFFFFF" width="0.071" height="1.354"/>
		<rect x="493.506" y="286.662" fill="#FFFFFF" width="0.071" height="1.354"/>
		<rect x="492.658" y="286.662" fill="#FFFFFF" width="0.071" height="1.354"/>
		<rect x="491.81" y="286.662" fill="#FFFFFF" width="0.071" height="1.354"/>
		<rect x="490.962" y="286.662" fill="#FFFFFF" width="0.071" height="1.354"/>
		<rect x="489.266" y="286.662" fill="#FFFFFF" width="0.071" height="1.354"/>
		<rect x="488.418" y="286.662" fill="#FFFFFF" width="0.071" height="1.354"/>
		<rect x="487.57" y="286.662" fill="#FFFFFF" width="0.071" height="1.354"/>
		<rect x="486.722" y="286.662" fill="#FFFFFF" width="0.071" height="1.354"/>
		<rect x="485.026" y="286.662" fill="#FFFFFF" width="0.071" height="1.354"/>
		<rect x="484.178" y="286.662" fill="#FFFFFF" width="0.071" height="1.354"/>
		<rect x="483.33" y="286.662" fill="#FFFFFF" width="0.071" height="1.354"/>
		<rect x="482.482" y="286.662" fill="#FFFFFF" width="0.071" height="1.354"/>
		<rect x="480.786" y="286.662" fill="#FFFFFF" width="0.071" height="1.354"/>
		<rect x="479.938" y="286.662" fill="#FFFFFF" width="0.071" height="1.354"/>
		<rect x="479.09" y="286.662" fill="#FFFFFF" width="0.071" height="1.354"/>
		<rect x="478.242" y="286.662" fill="#FFFFFF" width="0.071" height="1.354"/>
		<rect x="477.322" y="286.662" fill="#FFFFFF" width="0.191" height="1.722"/>
		<rect x="485.801" y="286.662" fill="#FFFFFF" width="0.191" height="1.722"/>
		<rect x="468.842" y="286.662" fill="#FFFFFF" width="0.191" height="1.722"/>
		<rect x="460.362" y="286.662" fill="#FFFFFF" width="0.191" height="1.722"/>
		<rect x="451.882" y="286.662" fill="#FFFFFF" width="0.191" height="1.722"/>
		<rect x="443.402" y="286.662" fill="#FFFFFF" width="0.191" height="1.722"/>
		<rect x="434.922" y="286.662" fill="#FFFFFF" width="0.191" height="1.722"/>
		<rect x="426.442" y="286.662" fill="#FFFFFF" width="0.191" height="1.722"/>
		<rect x="417.962" y="286.662" fill="#FFFFFF" width="0.191" height="1.722"/>
		<rect x="409.483" y="286.662" fill="#FFFFFF" width="0.191" height="1.722"/>
		<rect x="401.003" y="286.662" fill="#FFFFFF" width="0.191" height="1.722"/>
		<rect x="392.523" y="286.662" fill="#FFFFFF" width="0.191" height="1.722"/>
		<rect x="384.043" y="286.662" fill="#FFFFFF" width="0.191" height="1.722"/>
		<rect x="383.195" y="286.662" fill="#FFFFFF" width="0.191" height="1.722"/>
		<rect x="476.546" y="286.662" fill="#FFFFFF" width="0.071" height="1.354"/>
		<rect x="475.698" y="286.662" fill="#FFFFFF" width="0.071" height="1.354"/>
		<rect x="474.85" y="286.662" fill="#FFFFFF" width="0.071" height="1.354"/>
		<rect x="474.002" y="286.662" fill="#FFFFFF" width="0.071" height="1.354"/>
		<rect x="472.306" y="286.662" fill="#FFFFFF" width="0.071" height="1.354"/>
		<rect x="471.458" y="286.662" fill="#FFFFFF" width="0.071" height="1.354"/>
		<rect x="470.611" y="286.662" fill="#FFFFFF" width="0.071" height="1.354"/>
		<rect x="469.763" y="286.662" fill="#FFFFFF" width="0.071" height="1.354"/>
		<rect x="468.067" y="286.662" fill="#FFFFFF" width="0.071" height="1.354"/>
		<rect x="467.219" y="286.662" fill="#FFFFFF" width="0.071" height="1.354"/>
		<rect x="466.371" y="286.662" fill="#FFFFFF" width="0.071" height="1.354"/>
		<rect x="465.523" y="286.662" fill="#FFFFFF" width="0.071" height="1.354"/>
		<rect x="463.827" y="286.662" fill="#FFFFFF" width="0.071" height="1.354"/>
		<rect x="462.979" y="286.662" fill="#FFFFFF" width="0.071" height="1.354"/>
		<rect x="462.131" y="286.662" fill="#FFFFFF" width="0.071" height="1.354"/>
		<rect x="461.283" y="286.662" fill="#FFFFFF" width="0.071" height="1.354"/>
		<rect x="459.587" y="286.662" fill="#FFFFFF" width="0.071" height="1.354"/>
		<rect x="458.739" y="286.662" fill="#FFFFFF" width="0.071" height="1.354"/>
		<rect x="457.891" y="286.662" fill="#FFFFFF" width="0.071" height="1.354"/>
		<rect x="457.043" y="286.662" fill="#FFFFFF" width="0.071" height="1.354"/>
		<rect x="455.347" y="286.662" fill="#FFFFFF" width="0.071" height="1.354"/>
		<rect x="454.499" y="286.662" fill="#FFFFFF" width="0.071" height="1.354"/>
		<rect x="453.651" y="286.662" fill="#FFFFFF" width="0.071" height="1.354"/>
		<rect x="452.803" y="286.662" fill="#FFFFFF" width="0.071" height="1.354"/>
		<rect x="451.107" y="286.662" fill="#FFFFFF" width="0.071" height="1.354"/>
		<rect x="450.259" y="286.662" fill="#FFFFFF" width="0.071" height="1.354"/>
		<rect x="449.411" y="286.662" fill="#FFFFFF" width="0.071" height="1.354"/>
		<rect x="448.563" y="286.662" fill="#FFFFFF" width="0.071" height="1.354"/>
		<rect x="446.867" y="286.662" fill="#FFFFFF" width="0.071" height="1.354"/>
		<rect x="446.019" y="286.662" fill="#FFFFFF" width="0.071" height="1.354"/>
		<rect x="445.171" y="286.662" fill="#FFFFFF" width="0.071" height="1.354"/>
		<rect x="444.323" y="286.662" fill="#FFFFFF" width="0.071" height="1.354"/>
		<rect x="442.627" y="286.662" fill="#FFFFFF" width="0.071" height="1.354"/>
		<rect x="441.779" y="286.662" fill="#FFFFFF" width="0.071" height="1.354"/>
		<rect x="440.931" y="286.662" fill="#FFFFFF" width="0.071" height="1.354"/>
		<rect x="440.083" y="286.662" fill="#FFFFFF" width="0.071" height="1.354"/>
		<rect x="438.387" y="286.662" fill="#FFFFFF" width="0.071" height="1.354"/>
		<rect x="437.539" y="286.662" fill="#FFFFFF" width="0.071" height="1.354"/>
		<rect x="436.691" y="286.662" fill="#FFFFFF" width="0.071" height="1.354"/>
		<rect x="435.843" y="286.662" fill="#FFFFFF" width="0.071" height="1.354"/>
		<rect x="437.539" y="286.662" fill="#FFFFFF" width="0.071" height="1.354"/>
		<rect x="436.691" y="286.662" fill="#FFFFFF" width="0.071" height="1.354"/>
		<rect x="435.843" y="286.662" fill="#FFFFFF" width="0.071" height="1.354"/>
		<rect x="434.995" y="286.662" fill="#FFFFFF" width="0.071" height="1.354"/>
		<rect x="434.147" y="286.662" fill="#FFFFFF" width="0.071" height="1.354"/>
		<rect x="433.299" y="286.662" fill="#FFFFFF" width="0.071" height="1.354"/>
		<rect x="432.451" y="286.662" fill="#FFFFFF" width="0.071" height="1.354"/>
		<rect x="431.603" y="286.662" fill="#FFFFFF" width="0.071" height="1.354"/>
		<rect x="429.907" y="286.662" fill="#FFFFFF" width="0.071" height="1.354"/>
		<rect x="429.059" y="286.662" fill="#FFFFFF" width="0.071" height="1.354"/>
		<rect x="428.211" y="286.662" fill="#FFFFFF" width="0.071" height="1.354"/>
		<rect x="427.363" y="286.662" fill="#FFFFFF" width="0.071" height="1.354"/>
		<rect x="425.667" y="286.662" fill="#FFFFFF" width="0.071" height="1.354"/>
		<rect x="424.819" y="286.662" fill="#FFFFFF" width="0.071" height="1.354"/>
		<rect x="423.971" y="286.662" fill="#FFFFFF" width="0.071" height="1.354"/>
		<rect x="423.123" y="286.662" fill="#FFFFFF" width="0.071" height="1.354"/>
		<rect x="421.427" y="286.662" fill="#FFFFFF" width="0.071" height="1.354"/>
		<rect x="420.579" y="286.662" fill="#FFFFFF" width="0.071" height="1.354"/>
		<rect x="419.731" y="286.662" fill="#FFFFFF" width="0.071" height="1.354"/>
		<rect x="418.883" y="286.662" fill="#FFFFFF" width="0.071" height="1.354"/>
		<rect x="417.187" y="286.662" fill="#FFFFFF" width="0.071" height="1.354"/>
		<rect x="416.339" y="286.662" fill="#FFFFFF" width="0.071" height="1.354"/>
		<rect x="415.491" y="286.662" fill="#FFFFFF" width="0.071" height="1.354"/>
		<rect x="414.643" y="286.662" fill="#FFFFFF" width="0.071" height="1.354"/>
		<rect x="412.947" y="286.662" fill="#FFFFFF" width="0.071" height="1.354"/>
		<rect x="412.099" y="286.662" fill="#FFFFFF" width="0.071" height="1.354"/>
		<rect x="411.251" y="286.662" fill="#FFFFFF" width="0.071" height="1.354"/>
		<rect x="410.403" y="286.662" fill="#FFFFFF" width="0.071" height="1.354"/>
		<rect x="408.707" y="286.662" fill="#FFFFFF" width="0.071" height="1.354"/>
		<rect x="407.859" y="286.662" fill="#FFFFFF" width="0.071" height="1.354"/>
		<rect x="407.012" y="286.662" fill="#FFFFFF" width="0.071" height="1.354"/>
		<rect x="406.164" y="286.662" fill="#FFFFFF" width="0.071" height="1.354"/>
		<rect x="404.468" y="286.662" fill="#FFFFFF" width="0.071" height="1.354"/>
		<rect x="403.62" y="286.662" fill="#FFFFFF" width="0.071" height="1.354"/>
		<rect x="402.772" y="286.662" fill="#FFFFFF" width="0.071" height="1.354"/>
		<rect x="401.924" y="286.662" fill="#FFFFFF" width="0.071" height="1.354"/>
		<rect x="400.228" y="286.662" fill="#FFFFFF" width="0.071" height="1.354"/>
		<rect x="399.38" y="286.662" fill="#FFFFFF" width="0.071" height="1.354"/>
		<rect x="398.532" y="286.662" fill="#FFFFFF" width="0.071" height="1.354"/>
		<rect x="397.684" y="286.662" fill="#FFFFFF" width="0.071" height="1.354"/>
		<rect x="395.988" y="286.662" fill="#FFFFFF" width="0.071" height="1.354"/>
		<rect x="395.14" y="286.662" fill="#FFFFFF" width="0.071" height="1.354"/>
		<rect x="394.292" y="286.662" fill="#FFFFFF" width="0.071" height="1.354"/>
		<rect x="393.444" y="286.662" fill="#FFFFFF" width="0.071" height="1.354"/>
		<rect x="391.748" y="286.662" fill="#FFFFFF" width="0.071" height="1.354"/>
		<rect x="390.9" y="286.662" fill="#FFFFFF" width="0.071" height="1.354"/>
		<rect x="390.052" y="286.662" fill="#FFFFFF" width="0.071" height="1.354"/>
		<rect x="389.204" y="286.662" fill="#FFFFFF" width="0.071" height="1.354"/>
		<rect x="387.508" y="286.662" fill="#FFFFFF" width="0.071" height="1.354"/>
		<rect x="386.66" y="286.662" fill="#FFFFFF" width="0.071" height="1.354"/>
		<rect x="385.812" y="286.662" fill="#FFFFFF" width="0.071" height="1.354"/>
		<rect x="384.964" y="286.662" fill="#FFFFFF" width="0.071" height="1.354"/>
		<rect x="383.268" y="286.662" fill="#FFFFFF" width="0.071" height="1.354"/>
		<rect x="382.42" y="286.662" fill="#FFFFFF" width="0.071" height="1.354"/>
		<rect x="381.572" y="286.662" fill="#FFFFFF" width="0.071" height="1.354"/>
		<rect x="380.724" y="286.662" fill="#FFFFFF" width="0.071" height="1.354"/>
		<rect x="382.42" y="286.662" fill="#FFFFFF" width="0.071" height="1.354"/>
		<rect x="381.572" y="286.662" fill="#FFFFFF" width="0.071" height="1.354"/>
		<rect x="380.724" y="286.662" fill="#FFFFFF" width="0.071" height="1.354"/>
		<rect x="379.876" y="286.662" fill="#FFFFFF" width="0.071" height="1.354"/>
	</g>
</g>
<g id="ycaliper">
	<path fill="#9B9A9A" d="M448.699,302.491c1.723,0,3.119,1.36,3.119,3.037c0,0.971-0.476,1.825-1.205,2.381l2.465,6.613h8.453
		l-6.66-15.049l-1.512-4.381H342.102v4.381v2.473h85.483l1.179,2.519h17.023C446.231,303.314,447.362,302.491,448.699,302.491z"/>
	<polygon fill="#9B9A9A" points="482.594,294.914 386.941,294.914 386.941,289.547 355.817,289.547 355.817,301.874
		386.941,301.874 386.941,298.306 482.594,298.306 	"/>
	<g>
		<g>
			<circle fill="#828282" cx="341.026" cy="292.468" r="1.001"/>
		</g>
		<g>
			<rect x="340.434" y="292.362" width="1.185" height="0.169"/>

				<rect x="340.434" y="292.383" transform="matrix(-1.836970e-16 1 -1 -1.836970e-16 633.4937 -48.5585)" width="1.185" height="0.169"/>
		</g>
	</g>
	<g>
		<g>
			<circle fill="#828282" cx="341.026" cy="300.311" r="1.001"/>
		</g>
		<g>
			<rect x="340.434" y="300.206" width="1.185" height="0.169"/>

				<rect x="340.434" y="300.227" transform="matrix(-1.836970e-16 1 -1 -1.836970e-16 641.3373 -40.7149)" width="1.185" height="0.169"/>
		</g>
	</g>
	<g>
		<path fill="#434343" d="M343.644,319.537l-0.59-0.907l-6.488-7.384h-2.687v-1.375c-0.974-0.265-1.697-1.119-1.697-2.136v-0.259
			v-1.477h-1.304v-6.693h8.561v-1.104h-8.33h-2.092h-6.624v0.079l-5.679,1.603l-0.465-0.343l-1.409,0.488l0.005,0.008
			c-0.26,0.088-0.429,0.336-0.382,0.605l0.034,0.194c0.003,0.018,0.015,0.032,0.02,0.049c0.001,0.045,0,0.09,0.014,0.136
			l0.313,1.022c0.081,0.264,0.611,0.436,0.939,0.464l6.678,0.06l17.553,19.978l0,0.001l2.076,1.739
			c0.447,0.029,0.887-0.118,1.258-0.469C344.313,322.904,344.446,320.988,343.644,319.537z M329.016,302.653l-0.094-0.107h0.094
			V302.653z"/>
		<path fill="#9B9A9A" d="M342.774,317.88l-0.543-0.87l-6.306-7.472v-0.068h-1.336c-1.217,0-2.212-0.995-2.212-2.212v-0.257v-1.329
			h-0.001v-8.249h-1.147h-1.927h-6.101v0.076l-6.953,2.043c-0.233,0.068-0.362,0.331-0.288,0.584l0.288,0.98
			c0.074,0.253,0.562,0.418,0.865,0.445l6.151,0.058l16.167,19.156l0,0.001l1.912,1.667c0.412,0.028,0.817-0.114,1.159-0.45
			C343.391,321.108,343.513,319.271,342.774,317.88z M329.302,301.691l-0.087-0.103h0.087V301.691z"/>
		<path d="M344.776,300.489v-2.555h-1.885l-16.184-2.461c-1.283-0.195-2.422-0.112-2.422,1.384v2.603
			c0,1.368,0.959,2.478,2.143,2.478h8.279h8.342h2.086h7.293h4.316c0.893,0,1.037-0.647,1.058-1.449H344.776z"/>
		<path fill="#282828" d="M355.817,289.547c0-1.803-0.979-3.409-2.481-4.406c-1.504-0.998-3.437-1.095-5.168-0.584l-16.262,4.8
			c-3.326,0-5.345-2.815-5.345,0.19l1.356,10.942h29.886L355.817,289.547z"/>
		<g>
			<rect x="324.285" y="291.673" fill="#828282" width="19.881" height="5.603"/>
			<g>
				<path fill="#828282" d="M340.534,291.673h-12.617c-2.006,0-3.632,1.626-3.632,3.632v1.552c0,2.006,1.626,3.632,3.632,3.632
					h6.308h6.308c2.006,0,3.632-1.626,3.632-3.632v-1.552C344.166,293.3,342.54,291.673,340.534,291.673z"/>
				<ellipse fill="#A09F9F" cx="334.226" cy="291.673" rx="9.94" ry="5.537"/>
				<ellipse fill="#D1D2D1" cx="334.226" cy="291.673" rx="6.964" ry="3.879"/>
				<ellipse fill="#484748" cx="334.226" cy="291.673" rx="1.849" ry="1.03"/>
			</g>
		</g>
		<line fill="#434343" x1="310.217" y1="298.543" x2="312.676" y2="298.392"/>
	</g>
	<polygon fill="#606161" points="477.867,337.374 487.726,337.547 487.726,341.367 479.675,341.374 	"/>
	<polygon fill="#5B5C5C" points="461.465,300.108 482.594,300.108 482.594,298.306 460.725,298.306 	"/>
	<rect x="431.41" y="290.219" fill="#2D2D2D" width="26.77" height="2.707"/>
	<g>
		<polygon fill="none" points="446.987,290.219 446.977,293.121 456.068,293.134 456.078,290.232 		"/>
		<polygon fill="#FFFFFF" points="455.406,291.085 455.399,292.938 455.696,292.938 455.703,291.086 		"/>
		<polygon fill="#FFFFFF" points="452.719,291.938 452.716,292.934 453.013,292.934 453.017,291.938 		"/>
		<polygon fill="#FFFFFF" points="454.061,291.94 454.057,292.935 454.355,292.936 454.358,291.94 		"/>
		<polygon fill="#FFFFFF" points="451.39,291.079 451.384,292.931 451.681,292.932 451.687,291.08 		"/>
		<polygon fill="#FFFFFF" points="450.152,291.934 450.148,292.93 450.446,292.93 450.45,291.935 		"/>
		<polygon fill="#FFFFFF" points="448.811,291.932 448.807,292.928 449.105,292.928 449.108,291.933 		"/>
		<polygon fill="#FFFFFF" points="447.548,291.074 447.541,292.926 447.838,292.926 447.845,291.074 		"/>
		<path fill="#FFFFFF" d="M455.692,290.881c0.162,0.047,0.236,0.17,0.164,0.276c-0.072,0.106-0.262,0.154-0.424,0.107
			s-0.236-0.17-0.164-0.276C455.34,290.883,455.529,290.835,455.692,290.881z"/>
	</g>
	<g>
		<polygon fill="#5B5C5C" points="482.594,300.108 473.026,305.585 474.316,308.435 482.553,303.881 		"/>
		<path fill="#3D3D3D" d="M473.336,305.385l9.218-5.276h-21.09l17.309,39.274l3.746,0.114h3.298c1.376,0,2.298-1.414,1.743-2.673
			L473.336,305.385z"/>
	</g>
	<g>

			<rect x="475.341" y="325.321" transform="matrix(0.9159 -0.4015 0.4015 0.9159 -92.6721 219.8031)" fill="#333333" width="5.591" height="11.41"/>

			<rect x="477.8" y="335.721" transform="matrix(0.9159 -0.4015 0.4015 0.9159 -94.5098 220.7948)" fill="#FFFFFF" width="3.568" height="0.373"/>

			<rect x="476.517" y="332.967" transform="matrix(0.9159 -0.4015 0.4015 0.9159 -93.5818 219.717)" fill="#FFFFFF" width="1.918" height="0.374"/>

			<rect x="477.193" y="334.509" transform="matrix(0.9159 -0.4015 0.4015 0.9159 -94.144 220.1181)" fill="#FFFFFF" width="1.918" height="0.374"/>

			<rect x="475.776" y="331.105" transform="matrix(0.9159 -0.4015 0.4015 0.9159 -92.8268 219.5941)" fill="#FFFFFF" width="3.568" height="0.373"/>

			<rect x="475.224" y="330.016" transform="matrix(0.9159 -0.4015 0.4015 0.9159 -92.5058 218.9494)" fill="#FFFFFF" width="1.918" height="0.374"/>

			<rect x="474.548" y="328.474" transform="matrix(0.9159 -0.4015 0.4015 0.9159 -91.9436 218.5483)" fill="#FFFFFF" width="1.918" height="0.374"/>

			<rect x="473.84" y="326.688" transform="matrix(0.9159 -0.4015 0.4015 0.9159 -91.2163 218.4452)" fill="#FFFFFF" width="3.568" height="0.373"/>
		<circle fill="#FFFFFF" cx="481.244" cy="335.191" r="0.404"/>
	</g>
	<path fill="#3D3D3D" d="M474.961,285.823h-98.33l-7.243,9.269h53.423h32.999h26.784L474.961,285.823z M458.18,288.951v0.989v1.298
		v1.583h-3.823h-19.124h-3.823v-1.583v-1.298v-0.989v-0.05c0-1.585,1.129-1.374,3.232-1.374l19.716-0.009
		c2.103,0,3.822-0.202,3.822,1.383V288.951z"/>
</g>
<g id="aperture">
	<rect x="362.639" y="385.572" fill="none" stroke="#000000" stroke-miterlimit="10" width="40.32" height="0.445"/>
</g>
<g id="apertureKnob">
	<rect x="361.639" y="385.096" fill="#CFCECE" width="2.663" height="4.121"/>
</g>
<g id="illumination">
	<path fill="#1E2322" d="M382.566,446.549v-5.609h-15.25v-2.083c0,0-5.039,0.773-9.209,1.874c-2.838,0.749-5.366,2.262-7.336,4.299
		c-0.083,0.086-0.172,0.177-0.267,0.274c-0.278,0.387-0.301,1.018-0.301,1.018L382.566,446.549z"/>
	<g>
		<g>
			<path fill="#1E2322" d="M366.156,451.901c0.727,0,2.051-1.096,0.751-1.096C366.181,450.805,364.857,451.901,366.156,451.901
				L366.156,451.901z"/>
		</g>
	</g>
	<path fill="#293331" d="M420.977,468.03l-1.837-19.786c-0.495-1.414-3.463-1.908-3.463-1.908l-33.146-0.494v-0.001h-0.016h-0.016
		v0.001l-33.146,0.494c0,0-2.968,0.494-3.463,1.908l-1.837,19.786c0,0,0,0-0.565,10.035c-0.142,4.946,5.936,4.946,5.936,4.946h6.784
		h26.291h0.031h26.291h6.784c0,0,6.078,0,5.936-4.946C420.977,468.03,420.977,468.03,420.977,468.03z"/>
	<polygon fill="#1D2322" points="421.343,475.351 382.53,475.351 382.499,475.351 343.687,475.351 343.488,478.629 382.499,478.629
		382.53,478.629 421.542,478.629 	"/>
	<polygon fill="#1D2322" points="421.207,472.115 421.017,468.737 382.53,468.737 382.499,468.737 344.013,468.737 343.823,472.115
		382.515,472.015 	"/>
	<path fill="#1E2322" d="M382.464,446.549v-5.609h15.249v-2.083c0,0,5.038,0.773,9.21,1.874c2.837,0.749,5.365,2.262,7.335,4.299
		c0.083,0.086,0.172,0.177,0.267,0.274c0.278,0.387,0.301,1.018,0.301,1.018L382.464,446.549z"/>
	<path fill="#1E2322" d="M414.829,446.404c0-8.63-31.246-4.494-32.314-4.35c-1.068-0.144-32.314-4.28-32.314,4.35l-0.254,11.591
		c0,1.201,0.656,1.934,1.738,2.455c5.819,2.804,21.759,2.546,30.83,2.545c9.07,0.001,25.011,0.259,30.83-2.545
		c1.081-0.521,1.737-1.255,1.737-2.455L414.829,446.404z"/>
	<g>
		<g>
			<path fill="#1E2322" d="M398.121,451.901c0.727,0,2.051-1.096,0.751-1.096C398.146,450.805,396.822,451.901,398.121,451.901
				L398.121,451.901z"/>
		</g>
	</g>
	<path fill="#313837" d="M409.034,450.54c0-4.107-11.84-7.438-26.468-7.454v-0.001c-0.017,0-0.034,0-0.051,0
		c-0.017,0-0.034,0-0.051,0v0.001c-14.627,0.016-26.468,3.346-26.468,7.454c0,4.107,11.841,7.439,26.468,7.455v0.001
		c0.017,0,0.034,0,0.051,0c0.017,0,0.034,0,0.051,0v-0.001C397.193,457.979,409.034,454.647,409.034,450.54z"/>
	<path fill="#A2A5A6" d="M382.566,456.734h-0.102h-14.738c0,0,0,0,0,2.109c1.433,2.362,13.923,2.13,14.789,2.111
		c0.865,0.019,13.357,0.251,14.789-2.111c0-2.109,0-2.109,0-2.109H382.566z"/>
</g>
<g id="eyepiece">
	<path fill="#E6DFD5" d="M299.569,208.868"/>
	<g>
		<path fill="#E6DFD5" d="M465.412,208.868"/>
		<path fill="#AEA699" d="M494.483,143.128l-111.51,4.976c-0.214,0.009-0.389,0.108-0.483,0.243
			c-0.094-0.135-0.269-0.234-0.483-0.243l-111.51-4.976c-0.359-0.016-0.654,0.212-0.626,0.485l0.76,7.387
			c0.006,0.061,0.026,0.118,0.064,0.172c0.596,0.858,5.937,8.455,10.045,10.918c0.034,0.02,0.07,0.037,0.108,0.052
			c6.814,2.643,7.047,4.286,7.047,4.286s2.786,11.215,4.179,18.298c0.836,4.249,1.114,5.848,1.203,6.447
			c0.031,0.211,0.251,0.371,0.528,0.393l33.928,2.604l54.755-0.001l54.755,0.001l33.929-2.604c0.277-0.021,0.497-0.182,0.528-0.393
			c0.089-0.599,0.368-2.198,1.202-6.447c1.394-7.083,4.179-18.298,4.179-18.298s0.234-1.643,7.047-4.286
			c0.039-0.015,0.075-0.032,0.109-0.052c4.107-2.463,9.449-10.059,10.045-10.918c0.038-0.054,0.058-0.111,0.065-0.172l0.76-7.387
			C495.137,143.34,494.842,143.112,494.483,143.128z"/>
		<polygon fill="#6C7378" points="493.085,110.889 482.313,104.105 475.998,104.105 382.566,104.105 382.566,104.105
			382.49,104.105 382.415,104.105 382.415,104.105 288.982,104.105 282.667,104.105 271.895,110.889 269.295,131.523
			270.224,145.232 279.324,153.43 382.415,153.43 382.566,153.43 485.656,153.43 494.757,145.232 495.686,131.523 		"/>
		<polygon fill="#313B3B" points="486.399,141.453 382.566,141.453 382.415,141.453 278.581,141.453 269.109,133.291
			270.078,145.62 278.86,153.431 382.49,153.43 486.121,153.431 494.902,145.62 495.871,133.291 		"/>
		<path fill="#C6C6C4" d="M458.981,190.777h-76.416h-0.151h-76.416c0,0,0.206-0.07-12.795-0.07
			c0.352,4.805,11.867,4.593,11.867,4.593h21.359l55.985,0l0,0h0.075h0.075l0,0l55.985,0h21.359c0,0,11.516,0.212,11.867-4.593
			C458.775,190.707,458.981,190.777,458.981,190.777z"/>
	</g>
</g>
<g id="ocularLensBase">
	<path fill="#E6DFD5" d="M299.569,208.868"/>
	<path fill="#E6DFD5" d="M465.412,208.868"/>
	<path fill="#AEA699" d="M494.483,143.128l-111.51,4.976c-0.214,0.009-0.389,0.108-0.483,0.243
		c-0.094-0.135-0.269-0.234-0.483-0.243l-111.51-4.976c-0.359-0.016-0.654,0.212-0.626,0.485l0.76,7.387
		c0.006,0.061,0.026,0.118,0.064,0.172c0.596,0.858,5.937,8.455,10.045,10.918c0.034,0.02,0.07,0.037,0.108,0.052
		c6.814,2.643,7.047,4.286,7.047,4.286s2.786,11.215,4.179,18.298c0.836,4.249,1.114,5.848,1.203,6.447
		c0.031,0.211,0.251,0.371,0.528,0.393l33.928,2.604l54.755-0.001l54.755,0.001l33.929-2.604c0.277-0.021,0.497-0.182,0.528-0.393
		c0.089-0.599,0.368-2.198,1.202-6.447c1.394-7.083,4.179-18.298,4.179-18.298s0.234-1.643,7.047-4.286
		c0.039-0.015,0.075-0.032,0.109-0.052c4.107-2.463,9.449-10.059,10.045-10.918c0.038-0.054,0.058-0.111,0.065-0.172l0.76-7.387
		C495.137,143.34,494.842,143.112,494.483,143.128z"/>
	<polygon fill="#313B3B" points="486.399,141.453 382.566,141.453 382.415,141.453 278.581,141.453 269.109,133.291 270.078,145.62
		278.86,153.431 382.49,153.43 486.121,153.431 494.902,145.62 495.871,133.291 	"/>
	<path fill="#C6C6C4" d="M458.981,190.777h-76.416h-0.151h-76.416c0,0,0.206-0.07-12.795-0.07
		c0.352,4.805,11.867,4.593,11.867,4.593h21.359l55.985,0l0,0h0.075h0.075l0,0l55.985,0h21.359c0,0,11.516,0.212,11.867-4.593
		C458.775,190.707,458.981,190.777,458.981,190.777z"/>
	<g id="middle">
		<path fill="#6A6F72" d="M396.189,120.821c0-3.771,3.144-6.987,7.461-8.098v-8.618h-42.037v8.58
			c4.389,1.076,7.601,4.323,7.601,8.136s-3.212,7.06-7.601,8.136v12.496h42.037v-12.535
			C399.334,127.807,396.189,124.592,396.189,120.821z"/>
	</g>
</g>
<g id="ocularRight">
	<path fill="#3B4247" d="M413.655,57.469h0.01c-0.002,0.056-0.01,0.112-0.01,0.169V57.469z"/>
	<path fill="#FFFFFF" d="M392.637,148.342"/>
	<polygon fill="#6C7378" points="493.224,110.844 482.424,104.042 476.093,104.042 413.159,104.042 413.159,141.516
		486.252,141.516 495.706,133.369 495.83,131.53 	"/>
	<g>
		<path fill="#3B4247" d="M454.994,57.469v0.169c0-0.057-0.007-0.112-0.01-0.169H454.994z"/>
		<path fill="#3B4247" d="M434.325,125.463c-11.416,0-20.67-3.803-20.67-8.494V99.017V68.823c0,3.972,9.254,7.193,20.67,7.193
			c11.415,0,20.67-3.221,20.67-7.193v30.194v17.952C454.994,121.66,445.74,125.463,434.325,125.463z"/>
		<path fill="#3B4247" d="M434.325,76.016c-11.416,0-20.67-3.221-20.67-7.193V57.638c0,5.109,9.254,9.25,20.67,9.25
			c11.415,0,20.67-4.141,20.67-9.25v11.186C454.994,72.796,445.74,76.016,434.325,76.016z"/>
		<path opacity="0.45" fill="#2C3033" d="M434.325,76.016c-11.416,0-20.67-3.221-20.67-7.193V57.638c0,5.109,9.254,9.25,20.67,9.25
			c11.415,0,20.67-4.141,20.67-9.25v11.186C454.994,72.796,445.74,76.016,434.325,76.016z"/>
		<path fill="#2C3033" d="M454.994,57.638c0-0.057-0.007-0.112-0.01-0.169c-0.202-5.031-9.371-9.082-20.66-9.082
			c-11.289,0-20.459,4.051-20.66,9.082c-0.002,0.056-0.01,0.112-0.01,0.169c0,5.109,9.254,9.25,20.67,9.25
			C445.74,66.888,454.994,62.747,454.994,57.638z M447.447,57.638c-0.23,2.757-6.008,4.966-13.122,4.966
			c-7.113,0-12.892-2.209-13.122-4.966c-0.005-0.056-0.022-0.112-0.022-0.169c0-2.836,5.885-5.135,13.144-5.135
			c7.259,0,13.144,2.299,13.144,5.135C447.468,57.526,447.451,57.581,447.447,57.638z"/>
		<path fill="#5C676D" d="M434.325,62.603c-7.113,0-12.892-2.209-13.122-4.966c-0.005-0.056-0.022-0.112-0.022-0.169
			c0-2.836,5.885-5.135,13.144-5.135c7.259,0,13.144,2.299,13.144,5.135c0,0.057-0.017,0.112-0.022,0.169
			C447.217,60.394,441.438,62.603,434.325,62.603z"/>
		<path fill="#3B4247" d="M434.325,129.379c-11.416,0-20.67-3.803-20.67-8.494v-17.953V72.739c0,3.972,9.254,7.193,20.67,7.193
			c11.415,0,20.67-3.221,20.67-7.193v30.194v17.952C454.994,125.576,445.74,129.379,434.325,129.379z"/>
	</g>
</g>
<g id="ocularLeft">
	<g>
		<ellipse fill="#232628" cx="328.717" cy="117.685" rx="27.227" ry="19.623"/>
	</g>
	<g>
		<ellipse fill="#293235" cx="328.717" cy="117.714" rx="23.694" ry="17.317"/>
	</g>
	<path fill="#3B4247" d="M308.511,59.822v0.166c0-0.056,0.007-0.111,0.01-0.166H308.511z"/>
	<path fill="#3B4247" d="M329.199,67.15c-11.426,0-20.688-4.087-20.688-9.129v11.04c0,3.92,9.262,7.099,20.688,7.099
		c11.426,0,20.688-3.178,20.688-7.099V58.02C349.887,63.063,340.624,67.15,329.199,67.15z"/>
	<path opacity="0.45" fill="#2C3033" d="M329.199,67.15c-11.426,0-20.688-4.087-20.688-9.129v11.04c0,3.92,9.262,7.099,20.688,7.099
		c11.426,0,20.688-3.178,20.688-7.099V58.02C349.887,63.063,340.624,67.15,329.199,67.15z"/>
	<path fill="#2C3033" d="M329.199,67.15c11.426,0,20.688-4.087,20.688-9.129c0-0.056-0.007-0.111-0.01-0.166
		c-0.202-4.965-9.379-8.963-20.678-8.963c-11.299,0-20.477,3.998-20.678,8.963c-0.002,0.056-0.01,0.111-0.01,0.166
		C308.511,63.063,317.773,67.15,329.199,67.15z M329.199,52.787c7.265,0,13.155,2.269,13.155,5.068c0,0.056-0.017,0.111-0.022,0.166
		c-0.23,2.721-6.014,4.901-13.134,4.901c-7.12,0-12.904-2.18-13.134-4.901c-0.005-0.056-0.022-0.11-0.022-0.166
		C316.043,55.055,321.933,52.787,329.199,52.787z"/>
	<path fill="#5C676D" d="M329.199,62.921c7.119,0,12.904-2.18,13.134-4.901c0.005-0.056,0.022-0.11,0.022-0.166
		c0-2.799-5.89-5.068-13.155-5.068c-7.266,0-13.155,2.269-13.155,5.068c0,0.056,0.017,0.111,0.022,0.166
		C316.295,60.741,322.079,62.921,329.199,62.921z"/>
	<path fill="#3B4247" d="M329.199,76.159c-11.426,0-20.688-3.178-20.688-7.099v32.018c0,7.464,9.262,13.515,20.688,13.515
		c11.426,0,20.688-6.051,20.688-13.515V69.06C349.887,72.98,340.624,76.159,329.199,76.159z"/>
	<polygon fill="#6C7378" points="356.768,103.98 288.759,103.98 282.428,103.98 271.629,110.781 269.022,131.468 269.146,133.307
		278.6,141.453 356.768,141.453 	"/>
	<path fill="#3B4247" d="M329.199,90.631c-11.426,0-20.688-3.178-20.688-7.099v32.018c0,7.464,9.262,13.515,20.688,13.515
		c11.426,0,20.688-6.051,20.688-13.515V83.532C349.887,87.453,340.624,90.631,329.199,90.631z"/>
</g>
<g id="lenses">
	<g>
		<g>
			<g>
				<ellipse fill="#7D847F" cx="381.132" cy="231.709" rx="53.545" ry="20.551"/>
				<path fill="#383A3A" d="M437.219,218.132c-0.486-4.401-2.826-8.409-6.48-10.909c-0.943-0.646-1.877-1.222-2.761-1.799
					c-15.957-9.693-46.848-9.929-46.848-9.929s-30.889,0.236-46.846,9.929c-0.885,0.576-1.818,1.153-2.761,1.799
					c-3.656,2.501-5.995,6.508-6.48,10.909c-0.457,4.143-0.686,8.854-0.451,10.106c0.353,1.891,2.482,7.092,4.728,9.693
					c0.709-0.828,3.072-5.201,3.072-5.201l-1.012-2.15c-0.643-1.367-0.551-2.978,0.293-4.231c0.969-1.444,2.691-3.341,5.685-5.085
					c6.163-3.594,4.589-2.207,6.382-3.191c5.408-2.972,11.821-4.137,20.331-4.846c8.511-0.709,17.058-0.946,17.058-0.946
					s8.55,0.236,17.06,0.946c8.511,0.709,14.924,1.875,20.331,4.846c1.793,0.985,0.219-0.403,6.384,3.191
					c2.992,1.743,4.714,3.641,5.685,5.085c0.842,1.253,0.933,2.864,0.289,4.231l-1.01,2.15c0,0,2.363,4.373,3.072,5.201
					c2.246-2.601,4.374-7.802,4.728-9.693C437.907,226.986,437.674,222.275,437.219,218.132z"/>
			</g>
			<g>
				<rect x="365.043" y="225.267" fill="#383A3A" width="30.471" height="20.024"/>
				<path fill="#585B59" d="M365.025,225.252c0,0,12.241-10.61,30.506-1.446c0,6.651,0,6.651,0,6.651s-14.115-11.663-30.506,0
					V225.252z"/>
				<ellipse fill="#545554" cx="380.287" cy="245.291" rx="15.244" ry="3.553"/>
				<path fill="#ED1F24" d="M380.287,228.505c-10.882,0-15.262,4.636-15.262,4.636c0,0.476,0,1.049,0,1.049
					s6.609-4.435,15.262-4.435s15.227,4.435,15.227,4.435s0-0.573,0-1.049C395.513,233.141,391.17,228.505,380.287,228.505z"/>
			</g>
			<g>
				<g>
					<polygon fill="#383A3A" points="354.038,267.032 348.311,269.184 327.848,261.46 325.53,256.27 332.549,237.682
						361.055,248.442 					"/>
					<path fill="#878986" d="M328.135,261.567l-0.408,1.08c-0.125,0.329,0.516,0.876,1.431,1.222l3.519,11.013l3.226,1.219
						l10.389-5.762c0.916,0.347,1.76,0.358,1.883,0.029l0.41-1.081L328.135,261.567z"/>
				</g>
				<path fill="#585B59" d="M332.611,237.668c0,0,15.301-5.317,28.869,9.966c-2.466,6.177-2.466,6.177-2.466,6.177
					s-8.786-16.065-28.332-11.308L332.611,237.668z"/>
				<path fill="#F6EC13" d="M345.01,247.763c-10.211-3.76-15.923-0.926-15.923-0.926c-0.165,0.446-0.362,0.984-0.362,0.984
					s7.733-1.876,15.853,1.117c8.121,2.99,12.754,9.428,12.754,9.428s0.198-0.538,0.363-0.985
					C357.696,257.38,355.223,251.527,345.01,247.763z"/>
			</g>
			<g>
				<polygon fill="#383A3A" points="440.186,276.118 438.293,285.172 417.493,291.935 411.207,285.541 398.99,247.965
					427.968,238.545 				"/>
				<path fill="#878986" d="M417.493,291.934l0.482,1.491c0.149,0.454,1.021,0.577,1.954,0.275l17.418-5.663
					c0.931-0.303,1.564-0.917,1.417-1.372l-0.484-1.489L417.493,291.934z"/>
				<path fill="#585B59" d="M398.99,247.726c0,0,8.655-13.693,28.789-10.195c1.92,6.368,1.92,6.368,1.92,6.368
					s-16.881-7.091-29.205,8.81L398.99,247.726z"/>
				<path fill="#FFFFFF" d="M414.849,247.782c-10.28,3.569-12.897,9.384-12.897,9.384c0.154,0.448,0.342,0.99,0.342,0.99
					s4.79-6.355,12.967-9.191c8.175-2.839,15.84-0.8,15.84-0.8s-0.189-0.542-0.346-0.992
					C430.755,247.173,425.131,244.216,414.849,247.782z"/>
			</g>
			<g>
				<polygon fill="#383A3A" points="394.521,281.832 389.922,287.286 368.051,287.286 364.052,281.832 364.052,254.978
					394.521,254.978 				"/>
				<path fill="#878986" d="M368.358,287.286v2.334c0,0.713,0.793,1.291,1.771,1.291h18.316c0.978,0,1.77-0.578,1.77-1.291v-2.334
					H368.358z"/>
				<polygon fill="#585B59" points="394.521,249.791 364.052,249.791 364.052,254.978 379.107,254.978 394.521,254.978 				"/>
				<rect x="364.052" y="258.149" fill="#5464AE" width="30.47" height="1"/>
			</g>
			<rect x="365.043" y="232.106" fill="none" width="30.424" height="9.332"/>
			<text transform="matrix(1 0 0 1 377.6148 235.7009)" fill="#FFFFFF" font-family="'Helvetica'" font-size="4.9994px">4x</text>

				<rect x="336.762" y="241.377" transform="matrix(0.3317 -0.9434 0.9434 0.3317 -13.8836 493.5791)" fill="none" width="9.333" height="30.423"/>

				<text transform="matrix(0.9434 0.3317 -0.3317 0.9434 338.0204 254.2804)" fill="#FFFFFF" font-family="'Helvetica'" font-size="4.9994px">10x</text>

				<rect x="403.335" y="254.186" transform="matrix(0.957 -0.29 0.29 0.957 -57.0749 132.4793)" fill="none" width="30.423" height="9.333"/>

				<text transform="matrix(0.957 -0.29 0.29 0.957 413.0578 259.4081)" fill="#FFFFFF" font-family="'Helvetica'" font-size="4.9994px">100x</text>

				<rect x="408.087" y="268.378" transform="matrix(0.957 -0.29 0.29 0.957 -60.9852 134.4654)" fill="none" width="30.423" height="9.333"/>

				<text transform="matrix(0.957 -0.29 0.29 0.957 418.5793 274.1178)" fill="#FFFFFF" font-family="'Helvetica'" font-size="5.9992px">OIL</text>
		</g>
		<rect x="364.075" y="264.168" fill="none" width="30.423" height="9.332"/>
		<text transform="matrix(1 0 0 1 375.2564 267.7624)" fill="#FFFFFF" font-family="'Helvetica'" font-size="4.9994px">40x</text>
	</g>
</g>
<g id="lensesRed" opacity="0">
	<g display="inline">
		<ellipse fill="#7D847F" cx="381.068" cy="231.709" rx="53.545" ry="20.551"/>
		<path fill="#383A3A" d="M437.155,218.132c-0.486-4.401-2.826-8.409-6.48-10.909c-0.943-0.646-1.877-1.222-2.761-1.799
			c-15.957-9.693-46.848-9.929-46.848-9.929s-30.889,0.236-46.846,9.929c-0.885,0.576-1.818,1.153-2.761,1.799
			c-3.656,2.501-5.995,6.508-6.48,10.909c-0.457,4.143-0.686,8.854-0.451,10.106c0.353,1.891,2.482,7.092,4.728,9.693
			c0.709-0.828,3.072-5.201,3.072-5.201l-1.012-2.15c-0.643-1.367-0.551-2.978,0.293-4.231c0.969-1.444,2.691-3.341,5.685-5.085
			c6.163-3.594,4.589-2.207,6.382-3.191c5.408-2.972,11.821-4.137,20.331-4.846c8.511-0.709,17.058-0.946,17.058-0.946
			s8.55,0.236,17.06,0.946c8.511,0.709,14.924,1.875,20.331,4.846c1.793,0.985,0.219-0.403,6.384,3.191
			c2.992,1.743,4.714,3.641,5.685,5.085c0.842,1.253,0.934,2.864,0.289,4.231l-1.01,2.15c0,0,2.363,4.373,3.072,5.201
			c2.246-2.601,4.374-7.802,4.728-9.693C437.842,226.986,437.61,222.275,437.155,218.132z"/>
	</g>
	<g id="yellow_5_" display="inline">
		<g>
			<polygon fill="#383A3A" points="436.713,244.01 435.036,248.988 418.793,258.409 414.082,257.135 405.525,242.378
				428.154,229.253 			"/>
			<path fill="#878986" d="M419.02,258.276l0.497,0.858c0.151,0.261,0.863,0.133,1.59-0.289l9.236,3.635l2.562-1.485l1.805-10.039
				c0.728-0.421,1.193-0.976,1.041-1.237l-0.497-0.859L419.02,258.276z"/>
		</g>
		<path fill="#585B59" d="M405.549,242.328c0,0,4.767-13.065,22.297-13.798c2.771,4.993,2.771,4.993,2.771,4.993
			s-15.456-2.874-22.899,12.712L405.549,242.328z"/>
		<path fill="#F6EC13" d="M418.994,239.558c-8.043,4.752-9.257,10.091-9.257,10.091c0.207,0.352,0.458,0.775,0.458,0.775
			s2.949-6.163,9.347-9.941c6.397-3.78,13.194-3.369,13.194-3.369s-0.25-0.424-0.458-0.776
			C432.277,236.338,427.041,234.807,418.994,239.558z"/>
	</g>
	<g id="white_5_" display="inline">
		<polygon fill="#383A3A" points="340.868,266.444 334.695,270.031 320.078,261.583 320.503,254.675 335.763,228.269
			356.127,240.039 		"/>
		<path fill="#878986" d="M320.078,261.583l-0.606,1.046c-0.183,0.32,0.196,0.884,0.85,1.264l12.24,7.074
			c0.655,0.378,1.334,0.425,1.519,0.105l0.604-1.046L320.078,261.583z"/>
		<path fill="#585B59" d="M335.9,228.146c0,0,12.326-2.1,20.71,11.262c-2.664,4.389-2.664,4.389-2.664,4.389
			s-4.643-13.348-20.13-12.215L335.9,228.146z"/>
		<path fill="#FFFFFF" d="M344.054,237.277c-7.354-4.058-12.042-2.559-12.042-2.559c-0.178,0.32-0.392,0.707-0.392,0.707
			s6.12-0.53,11.968,2.698c5.848,3.227,8.634,8.678,8.634,8.678s0.213-0.388,0.391-0.71
			C352.613,246.092,351.407,241.338,344.054,237.277z"/>
	</g>
	<g id="blue_5_" display="inline">
		<polygon fill="#383A3A" points="390.734,232.841 387.816,236.302 373.939,236.302 371.402,232.841 371.402,215.803
			390.734,215.803 		"/>
		<path fill="#878986" d="M374.134,236.302v1.481c0,0.452,0.503,0.819,1.124,0.819h11.621c0.621,0,1.123-0.367,1.123-0.819v-1.481
			H374.134z"/>
		<polygon fill="#585B59" points="390.734,212.512 371.402,212.512 371.402,215.803 380.954,215.803 390.734,215.803 		"/>
		<rect x="371.402" y="217.815" fill="#5464AE" width="19.332" height="0.634"/>
	</g>
	<g display="inline">
		<g id="red_5_">
			<rect x="358.065" y="246.282" fill="#383A3A" width="46.005" height="30.232"/>
			<path fill="#585B59" d="M358.038,246.259c0,0,18.481-16.018,46.058-2.183c0,10.042,0,10.042,0,10.042s-21.312-17.609-46.058,0
				V246.259z"/>
			<ellipse fill="#545554" cx="381.081" cy="276.515" rx="23.016" ry="5.364"/>
			<path fill="#ED1F24" d="M381.081,251.171c-16.43,0-23.042,6.999-23.042,6.999c0,0.719,0,1.583,0,1.583s9.978-6.695,23.042-6.695
				s22.989,6.695,22.989,6.695s0-0.865,0-1.583C404.07,258.17,397.513,251.171,381.081,251.171z"/>
		</g>
		<rect x="358.065" y="256.608" fill="none" width="45.934" height="14.09"/>
		<text transform="matrix(1 0 0 1 375.752 263.7971)" fill="#FFFFFF" font-family="'Helvetica'" font-size="9.9987px">4x</text>
	</g>
</g>
<g id="lensesBlue" opacity="0">
	<g display="inline">
		<g>
			<ellipse fill="#7D847F" cx="381.132" cy="231.709" rx="53.545" ry="20.551"/>
			<path fill="#383A3A" d="M437.219,218.132c-0.486-4.401-2.826-8.409-6.48-10.909c-0.943-0.646-1.877-1.222-2.761-1.799
				c-15.957-9.693-46.848-9.929-46.848-9.929s-30.889,0.236-46.846,9.929c-0.885,0.576-1.818,1.153-2.761,1.799
				c-3.656,2.501-5.995,6.508-6.48,10.909c-0.457,4.143-0.686,8.854-0.451,10.106c0.353,1.891,2.482,7.092,4.728,9.693
				c0.709-0.828,3.072-5.201,3.072-5.201l-1.012-2.15c-0.643-1.367-0.551-2.978,0.293-4.231c0.969-1.444,2.691-3.341,5.685-5.085
				c6.163-3.594,4.589-2.207,6.382-3.191c5.408-2.972,11.821-4.137,20.331-4.846c8.511-0.709,17.058-0.946,17.058-0.946
				s8.55,0.236,17.06,0.946c8.511,0.709,14.924,1.875,20.331,4.846c1.793,0.985,0.219-0.403,6.384,3.191
				c2.992,1.743,4.714,3.641,5.685,5.085c0.842,1.253,0.933,2.864,0.289,4.231l-1.01,2.15c0,0,2.363,4.373,3.072,5.201
				c2.246-2.601,4.374-7.802,4.728-9.693C437.907,226.986,437.674,222.275,437.219,218.132z"/>
		</g>
		<g id="white">
			<polygon fill="#383A3A" points="446.626,254.938 446.647,262.621 430.91,271.698 424.7,267.585 408.302,239.154 430.228,226.509
							"/>
			<path fill="#878986" d="M430.91,271.697l0.649,1.128c0.199,0.343,0.929,0.293,1.635-0.113l13.178-7.601
				c0.705-0.407,1.113-1.014,0.915-1.359l-0.65-1.126L430.91,271.697z"/>
			<path fill="#585B59" d="M408.261,238.96c0,0,4.675-12.617,21.639-13.241c2.657,4.844,2.657,4.844,2.657,4.844
				s-14.938-2.855-22.215,12.188L408.261,238.96z"/>
			<path fill="#FFFFFF" d="M421.158,236.275c-7.739,4.67-8.864,9.846-8.864,9.846c0.203,0.338,0.448,0.746,0.448,0.746
				s2.798-5.989,8.954-9.702c6.154-3.714,12.734-3.377,12.734-3.377s-0.247-0.408-0.452-0.747
				C433.979,233.041,428.899,231.606,421.158,236.275z"/>
		</g>
		<g>
			<g id="blue">
				<polygon fill="#383A3A" points="399.191,275.049 393.74,281.515 367.813,281.515 363.072,275.049 363.072,243.216
					399.191,243.216 				"/>
				<path fill="#878986" d="M368.177,281.515v2.766c0,0.845,0.94,1.53,2.1,1.53h21.712c1.16,0,2.099-0.685,2.099-1.53v-2.766
					H368.177z"/>
				<polygon fill="#585B59" points="399.191,237.068 363.072,237.068 363.072,243.216 380.919,243.216 399.191,243.216 				"/>
				<rect x="363.072" y="246.975" fill="#5464AE" width="36.119" height="1.185"/>
			</g>
			<rect x="363.1" y="254.11" fill="none" width="36.064" height="11.063"/>
			<text transform="matrix(1 0 0 1 372.2578 262.0241)" fill="#FFFFFF" font-family="'Helvetica'" font-size="11.0073px">40x</text>
		</g>
		<g id="yellow">
			<g>
				<polygon fill="#383A3A" points="349.017,252.783 344.035,253.786 328.284,244.734 327.073,240.17 335.298,225.862
					357.241,238.473 				"/>
				<path fill="#878986" d="M328.505,244.86l-0.478,0.831c-0.146,0.253,0.306,0.787,1.011,1.192l1.422,9.498l2.483,1.428
					l9.284-3.344c0.705,0.406,1.395,0.528,1.54,0.274l0.48-0.832L328.505,244.86z"/>
			</g>
			<path fill="#585B59" d="M335.351,225.858c0,0,13.252-2.326,22.347,12.008c-2.843,4.737-2.843,4.737-2.843,4.737
				s-5.069-14.34-21.728-13.037L335.351,225.858z"/>
			<path fill="#F6EC13" d="M344.176,235.783c-7.872-4.44-12.933-2.875-12.933-2.875c-0.195,0.344-0.428,0.759-0.428,0.759
				s6.59-0.511,12.851,3.022c6.261,3.531,9.205,9.425,9.205,9.425s0.234-0.415,0.429-0.76
				C353.299,245.355,352.049,240.228,344.176,235.783z"/>
		</g>
		<g id="red_8_">
			<rect x="368.477" y="215.468" fill="#383A3A" width="25.31" height="16.633"/>
			<path fill="#585B59" d="M368.462,215.456c0,0,10.168-8.813,25.34-1.201c0,5.525,0,5.525,0,5.525s-11.725-9.688-25.34,0V215.456z"
				/>
			<ellipse fill="#545554" cx="381.139" cy="232.101" rx="12.663" ry="2.951"/>
			<path fill="#ED1F24" d="M381.139,218.158c-9.039,0-12.677,3.851-12.677,3.851c0,0.395,0,0.871,0,0.871s5.489-3.684,12.677-3.684
				s12.648,3.684,12.648,3.684s0-0.476,0-0.871C393.787,222.009,390.179,218.158,381.139,218.158z"/>
		</g>
	</g>
</g>
<g id="lensesYellow" opacity="0">
	<g display="inline">
		<ellipse fill="#7D847F" cx="381.17" cy="231.769" rx="53.545" ry="20.551"/>
		<path fill="#383A3A" d="M437.257,218.192c-0.486-4.401-2.826-8.409-6.48-10.909c-0.943-0.646-1.877-1.222-2.761-1.799
			c-15.957-9.693-46.848-9.929-46.848-9.929s-30.889,0.236-46.846,9.929c-0.885,0.576-1.818,1.153-2.761,1.799
			c-3.656,2.501-5.995,6.508-6.48,10.909c-0.457,4.143-0.686,8.854-0.451,10.106c0.353,1.891,2.482,7.092,4.728,9.693
			c0.709-0.828,3.072-5.201,3.072-5.201l-1.012-2.15c-0.643-1.367-0.551-2.978,0.293-4.231c0.969-1.444,2.691-3.341,5.685-5.085
			c6.163-3.594,4.589-2.207,6.382-3.191c5.408-2.972,11.821-4.137,20.331-4.846c8.511-0.709,17.058-0.946,17.058-0.946
			s8.55,0.236,17.06,0.946c8.511,0.709,14.924,1.875,20.331,4.846c1.793,0.985,0.219-0.403,6.384,3.191
			c2.992,1.743,4.714,3.641,5.685,5.085c0.842,1.253,0.933,2.864,0.289,4.231l-1.01,2.15c0,0,2.363,4.373,3.072,5.201
			c2.246-2.601,4.374-7.802,4.728-9.693C437.944,227.046,437.712,222.335,437.257,218.192z"/>
	</g>
	<g id="red_3_" display="inline">

			<rect x="330.729" y="226.434" transform="matrix(0.5 -0.866 0.866 0.5 -38.9211 415.9251)" fill="#383A3A" width="20.024" height="30.471"/>
		<path fill="#585B59" d="M332.545,225.359c0,0,15.905-3.068,27.142,14.001c-3.325,5.76-3.325,5.76-3.325,5.76
			s-6.393-17.158-26.419-15.253L332.545,225.359z"/>

			<ellipse transform="matrix(0.5 -0.866 0.866 0.5 -48.9331 415.9339)" fill="#545554" cx="335.743" cy="250.344" rx="3.553" ry="15.244"/>
		<path fill="#ED1F24" d="M344.136,235.807c-9.424-5.441-15.535-3.616-15.535-3.616c-0.238,0.412-0.524,0.908-0.524,0.908
			s7.94-0.536,15.434,3.79s10.969,11.454,10.969,11.454s0.286-0.496,0.524-0.908C355.005,247.435,353.561,241.249,344.136,235.807z"
			/>
	</g>
	<g id="blue_3_" display="inline">
		<polygon fill="#383A3A" points="442.947,252.893 441.692,259.916 422.751,270.852 416.56,268.128 403.133,244.871 429.52,229.637
					"/>
		<path fill="#878986" d="M423.016,270.698l1.167,2.021c0.356,0.617,1.332,0.721,2.179,0.232l15.862-9.158
			c0.847-0.489,1.244-1.386,0.888-2.003l-1.167-2.021L423.016,270.698z"/>
		<polygon fill="#585B59" points="426.927,225.145 400.539,240.379 403.133,244.871 416.172,237.344 429.52,229.637 		"/>

			<rect x="402.927" y="239.933" transform="matrix(0.866 -0.5 0.5 0.866 -64.1933 241.2928)" fill="#5464AE" width="30.47" height="1"/>
	</g>
	<g id="white_3_" display="inline">
		<polygon fill="#383A3A" points="390.178,240.696 387.225,245.844 373.19,245.838 370.625,240.688 370.636,215.335
			390.188,215.344 		"/>
		<path fill="#878986" d="M373.191,245.838l-0.002,1.005c0.001,0.306,0.508,0.555,1.137,0.556l11.752,0.005
			c0.629,0,1.137-0.249,1.137-0.556l0-1.004L373.191,245.838z"/>
		<path fill="#585B59" d="M370.684,215.189c0,0,8.001-6.635,19.591-0.501c-0.094,4.267-0.094,4.267-0.094,4.267
			s-8.891-7.68-19.569-0.427L370.684,215.189z"/>
		<path fill="#FFFFFF" d="M380.349,218.374c-6.981,0.135-9.733,3.163-9.733,3.163c0.005,0.304,0.012,0.672,0.012,0.672
			s4.185-2.926,9.738-3.032c5.552-0.108,9.823,2.659,9.823,2.659s-0.008-0.368-0.014-0.674
			C390.175,221.162,387.33,218.241,380.349,218.374z"/>
	</g>
	<g display="inline">
		<g id="yellow_3_">
			<g>
				<polygon fill="#383A3A" points="400.592,265.708 394.74,270.864 366.859,270.92 361.747,265.784 361.7,240.454 400.542,240.378
									"/>
				<path fill="#878986" d="M367.249,270.917l0.002,1.472c0,0.448,1.011,0.811,2.259,0.809l9.178,11.532l4.396-0.008l9.774-11.569
					c1.249-0.001,2.259-0.369,2.257-0.818l0-1.474L367.249,270.917z"/>
			</g>
			<path fill="#585B59" d="M361.768,240.409c0,0,15.829-13.261,38.915-1.188c-0.144,8.478-0.144,8.478-0.144,8.478
				s-17.741-15.17-38.883-0.655L361.768,240.409z"/>
			<path fill="#F6EC13" d="M381.113,246.829c-13.87,0.139-19.395,6.103-19.395,6.103c0.005,0.606,0.014,1.337,0.014,1.337
				s8.367-5.736,19.399-5.844c11.032-0.111,19.466,5.463,19.466,5.463s-0.007-0.731-0.013-1.339
				C400.583,252.55,394.987,246.694,381.113,246.829z"/>
		</g>
		<g>
			<rect x="361.778" y="253.019" fill="none" width="38.783" height="11.898"/>

				<text transform="matrix(1 -3.800000e-04 3.800000e-04 1 371.72 261.4525)" fill="#FFFFFF" font-family="'Helvetica'" font-size="11.7238px">10x</text>
		</g>
	</g>
</g>
<g id="lensesWhite" opacity="0">
	<g display="inline">
		<g>
			<ellipse fill="#7D847F" cx="381.144" cy="231.771" rx="53.545" ry="20.551"/>
			<path fill="#383A3A" d="M437.231,218.195c-0.486-4.401-2.826-8.409-6.48-10.909c-0.943-0.646-1.877-1.222-2.761-1.799
				c-15.957-9.693-46.848-9.929-46.848-9.929s-30.889,0.236-46.846,9.929c-0.885,0.576-1.818,1.153-2.761,1.799
				c-3.656,2.501-5.995,6.508-6.48,10.909c-0.457,4.143-0.686,8.854-0.451,10.106c0.353,1.891,2.482,7.092,4.728,9.693
				c0.709-0.828,3.072-5.201,3.072-5.201l-1.012-2.15c-0.643-1.367-0.551-2.978,0.293-4.231c0.969-1.444,2.691-3.341,5.685-5.085
				c6.163-3.594,4.589-2.207,6.382-3.191c5.408-2.972,11.821-4.137,20.331-4.846c8.511-0.709,17.058-0.946,17.058-0.946
				s8.55,0.236,17.06,0.946c8.511,0.709,14.924,1.875,20.331,4.846c1.793,0.985,0.219-0.403,6.384,3.191
				c2.992,1.743,4.714,3.641,5.685,5.085c0.842,1.253,0.934,2.864,0.289,4.231l-1.01,2.15c0,0,2.363,4.373,3.072,5.201
				c2.246-2.601,4.374-7.802,4.728-9.693C437.919,227.049,437.686,222.338,437.231,218.195z"/>
		</g>
		<g id="yellow_7_">
			<g>
				<polygon fill="#383A3A" points="394.69,230.076 390.609,233.673 371.162,233.711 367.598,230.129 367.564,212.463
					394.655,212.409 				"/>
				<path fill="#878986" d="M371.435,233.71l0.002,1.027c0,0.313,0.705,0.566,1.576,0.564l6.401,8.043l3.066-0.005l6.817-8.069
					c0.871-0.001,1.576-0.258,1.574-0.57l0-1.028L371.435,233.71z"/>
			</g>
			<path fill="#585B59" d="M367.612,212.432c0,0,11.04-9.249,27.142-0.829c-0.1,5.913-0.1,5.913-0.1,5.913
				s-12.374-10.58-27.119-0.457L367.612,212.432z"/>
			<path fill="#F6EC13" d="M381.104,216.909c-9.674,0.097-13.527,4.256-13.527,4.256c0.004,0.423,0.01,0.932,0.01,0.932
				s5.836-4.001,13.53-4.076c7.694-0.078,13.577,3.81,13.577,3.81s-0.005-0.51-0.009-0.934
				C394.684,220.899,390.781,216.815,381.104,216.909z"/>
		</g>
		<g id="red_7_">

				<rect x="406.344" y="232.411" transform="matrix(0.866 -0.5 0.5 0.866 -64.5638 242.7638)" fill="#383A3A" width="28.756" height="18.897"/>
			<path fill="#585B59" d="M403.524,240.862c0,0,4.998-14.447,24.249-15.576c3.138,5.436,3.138,5.436,3.138,5.436
				s-17.039-2.871-24.932,14.394L403.524,240.862z"/>

				<ellipse transform="matrix(0.866 -0.5 0.5 0.866 -68.0191 246.2252)" fill="#545554" cx="425.453" cy="250.038" rx="14.386" ry="3.353"/>
			<path fill="#ED1F24" d="M417.532,236.319c-8.894,5.135-10.286,10.99-10.286,10.99c0.225,0.389,0.495,0.857,0.495,0.857
				s3.309-6.743,10.381-10.826s14.537-3.56,14.537-3.56s-0.27-0.468-0.495-0.857C432.164,232.923,426.427,231.184,417.532,236.319z"
				/>
		</g>
		<g id="white_7_">
			<polygon fill="#383A3A" points="397.481,280.562 392.526,289.201 368.974,289.191 364.669,280.549 364.687,238.002
				397.499,238.018 			"/>
			<path fill="#878986" d="M368.974,289.19l-0.003,1.687c0.002,0.514,0.853,0.931,1.909,0.933l19.722,0.008
				c1.055,0,1.907-0.417,1.908-0.933l0-1.686L368.974,289.19z"/>
			<path fill="#585B59" d="M364.767,237.758c0,0,13.427-11.135,32.875-0.84c-0.157,7.16-0.157,7.16-0.157,7.16
				s-14.92-12.888-32.84-0.716L364.767,237.758z"/>
			<path fill="#FFFFFF" d="M380.986,243.102c-11.715,0.227-16.333,5.308-16.333,5.308c0.009,0.51,0.02,1.128,0.02,1.128
				s7.023-4.909,16.341-5.088c9.316-0.181,16.485,4.462,16.485,4.462s-0.013-0.618-0.023-1.131
				C397.476,247.781,392.703,242.879,380.986,243.102z"/>
		</g>

			<rect x="376.119" y="239.29" transform="matrix(0.0015 -1 1 0.0015 124.885 636.4181)" fill="none" width="10.05" height="32.76"/>
		<text transform="matrix(1 0.0015 -0.0015 1 370.3097 257.8263)" fill="#FFFFFF" font-family="'Helvetica'" font-size="9.9988px">100x</text>

			<rect x="376.119" y="255.405" transform="matrix(0.006 -1 1 0.006 107.0916 651.3015)" fill="none" width="10.05" height="32.76"/>
		<text transform="matrix(1 0.0059 -0.0059 1 373.0548 273.8814)" fill="#FFFFFF" font-family="'Helvetica'" font-size="9.9987px">OIL</text>
		<g id="blue_7_">
			<polygon fill="#383A3A" points="347.054,265.849 340.721,268.137 322.847,257.817 322.152,251.472 334.823,229.525
				359.725,243.902 			"/>
			<path fill="#878986" d="M323.097,257.962l-1.101,1.907c-0.336,0.582,0.039,1.429,0.839,1.891l14.969,8.643
				c0.8,0.462,1.72,0.363,2.056-0.22l1.101-1.907L323.097,257.962z"/>
			<polygon fill="#585B59" points="362.172,239.663 337.27,225.286 334.823,229.525 347.127,236.629 359.725,243.902 			"/>

				<rect x="345.07" y="225.336" transform="matrix(0.5 -0.866 0.866 0.5 -34.8267 419.1047)" fill="#5464AE" width="0.944" height="28.755"/>
		</g>
	</g>
</g>
<g id="switch">
	<g>
		<path fill="#121311" d="M326.924,477.184L326.924,477.184c-3.334-0.464-5.683-3.571-5.219-6.905l1.414-10.172
			c0.464-3.334,3.571-5.682,6.905-5.219l0,0c3.334,0.464,5.683,3.571,5.219,6.905l-1.414,10.172
			C333.365,475.299,330.258,477.647,326.924,477.184z"/>
		<g>

				<line fill="none" stroke="#FFFFFF" stroke-width="0.5" stroke-miterlimit="10" x1="323.679" y1="472.53" x2="331.617" y2="473.634"/>

				<line fill="none" stroke="#FFFFFF" stroke-width="0.5" stroke-miterlimit="10" x1="324.479" y1="469.767" x2="331.479" y2="470.74"/>

				<line fill="none" stroke="#FFFFFF" stroke-width="0.5" stroke-miterlimit="10" x1="325.471" y1="461.311" x2="332.471" y2="462.285"/>

				<line fill="none" stroke="#FFFFFF" stroke-width="0.5" stroke-miterlimit="10" x1="325.331" y1="458.438" x2="333.269" y2="459.541"/>

				<line fill="none" stroke="#FFFFFF" stroke-width="0.5" stroke-miterlimit="10" x1="325.261" y1="467.001" x2="331.361" y2="467.85"/>

				<line fill="none" stroke="#FFFFFF" stroke-width="0.5" stroke-miterlimit="10" x1="325.591" y1="464.183" x2="331.692" y2="465.031"/>
		</g>
	</g>

		<rect x="304.776" y="461.463" transform="matrix(0.1756 -0.9845 0.9845 0.1756 -200.7768 694.2421)" fill="none" width="18.709" height="11.077"/>
	<text id="ON_OFF_1_" transform="matrix(0.9845 0.1756 -0.1756 0.9845 312.61 459.8651)"><tspan x="0" y="0" fill="#FFFFFF" font-family="'Avenir-Black'" font-size="3.392px">ON</tspan><tspan x="-0.629" y="11.193" fill="#FFFFFF" font-family="'Avenir-Black'" font-size="3.392px">OFF</tspan></text>
</g>
<g id="knobsCoarse">
	<path fill="#4F5251" d="M423.726,428.355L423.726,428.355v-42.591l0,0c4.801,0,8.731,0,8.731,8.732v25.129
		C432.457,428.355,428.527,428.355,423.726,428.355z"/>
	<rect x="421.438" y="385.763" fill="#3F403F" width="2.288" height="42.591"/>
	<path fill="#4F5251" d="M341.408,428.355L341.408,428.355v-42.591l0,0c-4.802,0-8.731,0-8.731,8.732v25.129
		C332.677,428.355,336.605,428.355,341.408,428.355z"/>

		<rect x="341.408" y="385.763" transform="matrix(-1 -1.224647e-16 1.224647e-16 -1 685.103 814.1181)" fill="#3F403F" width="2.288" height="42.591"/>
</g>
<g id="knobsFine">
	<path fill="#252626" d="M432.488,419.896L432.488,419.896v-25.675l0,0c4.217,0,7.667,0,7.667,7.288v11.098
		C440.03,419.896,436.705,419.896,432.488,419.896z"/>
	<path fill="#252626" d="M332.708,419.896L332.708,419.896v-25.675l0,0c-4.217,0-7.666,0-7.666,7.288v11.098
		C325.166,419.896,328.491,419.896,332.708,419.896z"/>
</g>
</svg>
