<?xml version="1.0" encoding="utf-8"?>
<!-- Generator: Adobe Illustrator 15.1.0, SVG Export Plug-In . SVG Version: 6.00 Build 0)  -->
<!DOCTYPE svg PUBLIC "-//W3C//DTD SVG 1.1//EN" "http://www.w3.org/Graphics/SVG/1.1/DTD/svg11.dtd">
<svg version="1.1" id="Layer_1" xmlns="http://www.w3.org/2000/svg" xmlns:xlink="http://www.w3.org/1999/xlink" x="0px" y="0px"
	 width="792.998px" height="640.101px" viewBox="0 0 792.998 640.101" enable-background="new 0 0 792.998 640.101"
	 xml:space="preserve">
<g>
	<defs>
		<rect id="SVGID_1_" width="792.998" height="640.101"/>
	</defs>
	<clipPath id="SVGID_2_">
		<use xlink:href="#SVGID_1_"  overflow="visible"/>
	</clipPath>
	<g clip-path="url(#SVGID_2_)">
		<defs>
			<rect id="SVGID_3_" width="792.998" height="640.101"/>
		</defs>
		<clipPath id="SVGID_4_">
			<use xlink:href="#SVGID_3_"  overflow="visible"/>
		</clipPath>
		<g opacity="0.53" clip-path="url(#SVGID_4_)">
			<g>
				<defs>
					<rect id="SVGID_5_" x="262.384" y="560.198" width="240.363" height="28.77"/>
				</defs>
				<clipPath id="SVGID_6_">
					<use xlink:href="#SVGID_5_"  overflow="visible"/>
				</clipPath>
				<path clip-path="url(#SVGID_6_)" d="M502.732,560.198l-120.167,11.273l-120.166-11.273c-0.919,30.141,41.834,28.76,41.834,28.76
					h78.332h78.333C460.898,588.958,503.651,590.338,502.732,560.198"/>
			</g>
		</g>
		<path clip-path="url(#SVGID_4_)" fill="#ECE5DC" d="M494.294,515.966l-111.729,38.868l-111.729-38.868
			c0,0-8.437,26.007-8.437,45.51c2.353,23.666,34.947,22.656,39.814,22.372c0.459-0.027,0.914-0.041,1.374-0.041h78.978h78.978
			c0.46,0,0.916,0.014,1.374,0.041c4.867,0.284,37.461,1.294,39.815-22.372C502.732,541.973,494.294,515.966,494.294,515.966"/>
		<path clip-path="url(#SVGID_4_)" fill="#383A3A" d="M496.542,523.086c0,0-8.313-26.591-17.316-53.188
			c-0.502-1.485-0.898-3.009-1.2-4.549c-4.93-25.173-34.184-23.438-34.246-23.438l-61.214-0.096l-61.214,0.096
			c-0.062,0-29.316-1.734-34.246,23.438c-0.301,1.54-0.697,3.063-1.2,4.549c-9.003,26.598-17.317,53.188-17.317,53.188
			s-12.91,33.199,27.621,40.505c0.556,0.101,1.127,0.146,1.693,0.146h84.663h84.664c0.564,0,1.136-0.046,1.692-0.146
			C509.453,556.286,496.542,523.086,496.542,523.086"/>
		<path clip-path="url(#SVGID_4_)" fill="#E6DFD5" d="M433.127,515.476c-11.342-72.804-11.66-73.599-11.66-73.599l-0.084-170.007
			l8.764-78.754c-18.889-5.069-47.28-4.18-47.581-4.17c-0.301-0.01-28.692-0.899-47.581,4.17l8.764,78.754l-0.085,170.007
			c0,0-0.318,0.795-11.659,73.599c-4.417,20.502,19.397,19.506,19.397,19.506h31.164h31.163
			C413.729,534.982,437.543,535.978,433.127,515.476"/>
	</g>
	<rect x="357.308" y="370.603" clip-path="url(#SVGID_2_)" fill="#1F1E21" width="51.121" height="39.827"/>
	<g clip-path="url(#SVGID_2_)">
		<defs>
			<rect id="SVGID_7_" width="792.998" height="640.101"/>
		</defs>
		<clipPath id="SVGID_8_">
			<use xlink:href="#SVGID_7_"  overflow="visible"/>
		</clipPath>
		<path clip-path="url(#SVGID_8_)" fill="#B0AFB0" d="M376.068,406.758c0,1.034-0.838,1.873-1.873,1.873
			c-1.034,0-1.872-0.839-1.872-1.873s0.838-1.873,1.872-1.873C375.23,404.885,376.068,405.724,376.068,406.758"/>
		<path clip-path="url(#SVGID_8_)" fill="#B0AFB0" d="M393.413,406.758c0,1.034-0.838,1.873-1.873,1.873
			c-1.034,0-1.872-0.839-1.872-1.873s0.838-1.873,1.872-1.873C392.575,404.885,393.413,405.724,393.413,406.758"/>
		<path clip-path="url(#SVGID_8_)" fill="#878787" d="M375.273,406.758c0,0.595-0.482,1.078-1.078,1.078
			c-0.595,0-1.077-0.483-1.077-1.078s0.482-1.078,1.077-1.078C374.792,405.68,375.273,406.164,375.273,406.758"/>
		<path clip-path="url(#SVGID_8_)" fill="#878787" d="M392.618,406.758c0,0.595-0.482,1.078-1.078,1.078
			c-0.595,0-1.077-0.483-1.077-1.078s0.482-1.078,1.077-1.078C392.136,405.68,392.618,406.164,392.618,406.758"/>
		<path clip-path="url(#SVGID_8_)" fill="#636464" d="M350.146,396.441L350.146,396.441v-16.439c-1.377,0-2.504,0-2.504,4.667v7.105
			C347.682,396.441,348.768,396.441,350.146,396.441"/>
		<path clip-path="url(#SVGID_8_)" fill="#4F5251" d="M350.977,396.463L350.977,396.463V379.98c-1.33,0-2.419,0-2.419,3.379v9.725
			C348.558,396.463,349.647,396.463,350.977,396.463"/>
		<path clip-path="url(#SVGID_8_)" fill="#4F5251" d="M350.396,396.463L350.396,396.463V379.98c1.33,0,2.419,0,2.419,3.379v9.725
			C352.815,396.463,351.726,396.463,350.396,396.463"/>
		<rect x="352.815" y="386.283" clip-path="url(#SVGID_8_)" fill="#ABABAB" width="4.493" height="3.869"/>
		<path clip-path="url(#SVGID_8_)" fill="#848484" d="M357.308,390.151L357.308,390.151v-3.868c-0.176,0-0.32,0-0.32,1.098v1.672
			C356.993,390.151,357.132,390.151,357.308,390.151"/>
		<path clip-path="url(#SVGID_8_)" fill="#46484E" d="M382.796,382.485v-1.852h-0.018v1.851
			C382.778,382.484,382.785,382.484,382.796,382.485"/>
		<path clip-path="url(#SVGID_8_)" fill="#292E2C" d="M382.893,369.761c1.263,0.017,12.767,0.175,14.993,0.297
			c-0.06-3.476-0.524-3.669-0.524-3.669c-0.627-1.94-2.691-3.13-3.956-3.771c-4.875-1.271-8.843-1.318-10.547-1.261
			c-1.714-0.057-5.671-0.004-10.527,1.262c-1.266,0.642-3.329,1.831-3.956,3.771c0,0-0.466,0.194-0.525,3.67
			C370.11,369.934,381.914,369.774,382.893,369.761"/>
		<path clip-path="url(#SVGID_8_)" fill="#3D3D3D" d="M372.332,362.751c4.78-1.247,8.69-1.317,10.446-1.266v0.006
			c0.026-0.002,0.054-0.002,0.081-0.003c0.034,0.001,0.068,0.002,0.101,0.004v-0.008c1.755-0.052,5.665,0.02,10.446,1.267
			c0.002,0,0.005,0.001,0.008,0.002c-0.334-0.171-0.613-0.303-0.796-0.397c-1.921-2.348-8.263-3.034-9.745-3.034
			s-7.833,0.688-9.753,3.034c-0.184,0.096-0.463,0.229-0.796,0.397C372.326,362.753,372.329,362.752,372.332,362.751"/>
		<path clip-path="url(#SVGID_8_)" fill="#464641" d="M358.39,380.609c0.388,0.384,1.745,1.217,1.745,1.217s1.824,1.168,2.991,1.168
			c0.031,0,0.078,0,0.133-0.001c1.174-0.349,2.474-0.645,3.83-0.896c-0.595-0.522-1.355-1.365-1.253-2.211
			c0.917-2.51,15.791-3.496,17.038-3.575c1.323,0.083,16.113,1.072,17.027,3.574c0.103,0.846-0.658,1.689-1.253,2.212
			c1.357,0.251,2.657,0.548,3.83,0.896h0.133c1.167,0,2.992-1.167,2.992-1.167s1.356-0.834,1.745-1.217
			c0.536-0.667,0.829-1.372,0.976-2.049c-0.004,0.013-0.007,0.025-0.011,0.038c-0.034,0.104-5.036-3.489-12.565-3.574
			c-5.735-0.064-11.69-0.146-12.788-0.163v-0.001h-0.068c-0.072,0-0.114-0.001-0.114-0.001v0.003
			c-1.099,0.017-7.053,0.098-12.789,0.163c-7.529,0.085-12.53,3.677-12.565,3.574c-0.003-0.012-0.007-0.025-0.011-0.038
			C357.561,379.237,357.854,379.942,358.39,380.609"/>
		<rect x="382.941" y="380.634" clip-path="url(#SVGID_8_)" fill="#46484E" width="0.018" height="1.851"/>
		<path clip-path="url(#SVGID_8_)" fill="#666766" d="M357.413,378.693c0.004,0.013,0.008,0.026,0.011,0.038
			c0.034,0.104,5.036-3.488,12.565-3.573c5.983-0.068,12.203-0.155,12.903-0.165c0.885,0.013,6.984,0.097,12.856,0.165
			c7.528,0.084,12.531,3.677,12.564,3.572c0.004-0.012,0.007-0.024,0.012-0.037c0.336-1.106-0.24-3.078-0.282-3.256
			c-0.161-0.675-0.195-0.909-0.824-1.733c-3.212-2.954-7.3-3.638-9.176-3.769c-0.045-0.003-0.1-0.006-0.156-0.01
			c-2.192-0.121-13.373-0.275-14.927-0.296v-0.002c0,0-0.024,0.001-0.066,0.002c-0.074-0.002-0.115-0.002-0.115-0.002v0.003
			c-1.554,0.021-12.735,0.175-14.927,0.296c-0.057,0.003-0.111,0.006-0.156,0.01c-1.876,0.132-5.964,0.813-9.176,3.769
			c-0.629,0.824-0.663,1.058-0.824,1.733C357.654,375.615,357.077,377.587,357.413,378.693"/>
		<path clip-path="url(#SVGID_8_)" fill="#BABABA" d="M367.088,382.096c0.204-0.038,0.408-0.075,0.613-0.109
			c-0.014-0.324-0.008-0.749,0.059-1.222c0.811-1.894,13.943-2.642,15.114-2.705c1.249,0.068,14.293,0.817,15.103,2.705
			c0.066,0.473,0.072,0.896,0.059,1.222c0.205,0.033,0.41,0.07,0.612,0.108c0.595-0.521,1.354-1.365,1.254-2.211
			c-0.897-2.455-16.973-3.578-17.028-3.574c-0.062-0.004-0.095,0.007-0.095,0.007c-1.777,0.114-16.046,1.112-16.943,3.567
			C365.734,380.73,366.493,381.575,367.088,382.096"/>
		<path clip-path="url(#SVGID_8_)" fill="#212355" d="M367.701,381.986c6.442-1.12,13.892-1.278,15.077-1.297v0.077h0.018v-0.077
			c0.04-0.001,0.072-0.001,0.096-0.001h0.049v0.078h0.018v-0.078c1.184,0.02,8.635,0.177,15.076,1.298
			c0.014-0.325,0.008-0.749-0.059-1.22c-0.793-1.853-13.361-2.608-15.018-2.701v-0.009c0,0-0.03,0.002-0.085,0.005
			c-0.063-0.003-0.096-0.006-0.096-0.006v0.01c-1.656,0.093-14.225,0.85-15.018,2.701
			C367.693,381.237,367.687,381.662,367.701,381.986"/>
		<path clip-path="url(#SVGID_8_)" fill="#404057" d="M366.119,395.06c0.017,0.016,0.033,0.029,0.051,0.043
			c-0.003-0.001-0.006-0.001-0.009-0.001c0.005,0.004,0.009,0.007,0.013,0.011c1.062,0.846,4.655,1.43,16.76,1.43v-0.001
			c11.998-0.004,15.571-0.587,16.628-1.43c0.005-0.004,0.009-0.007,0.013-0.011c-0.003,0.001-0.005,0.001-0.008,0.001
			c0.017-0.013,0.033-0.028,0.051-0.043c0.235-0.282,0.265-0.589,0.265-0.909c0-0.857-2.835-1.615-7.183-2.077
			c-0.158-0.019-0.321-0.035-0.486-0.055c-0.361-0.037-0.741-0.072-1.141-0.102c-0.186-0.016-0.376-0.028-0.571-0.041
			c-2.314-0.175-4.93-0.273-7.7-0.273v0.001c-2.72,0.002-5.29,0.102-7.567,0.272c-0.195,0.013-0.386,0.026-0.572,0.041
			c-0.399,0.03-0.779,0.065-1.14,0.103c-0.166,0.019-0.329,0.036-0.486,0.055c-4.348,0.462-7.184,1.22-7.184,2.076
			C365.853,394.471,365.882,394.777,366.119,395.06"/>
		<path clip-path="url(#SVGID_8_)" fill="#464641" d="M358.183,392.37c0.17,0.173,0.173,0.175,0.173,0.175s1.348,1.362,7.805,2.558
			c0.003,0.001,0.006,0.001,0.009,0.002c-0.018-0.015-0.034-0.028-0.051-0.043c0.008,0.009,0.014,0.02,0.024,0.029
			c-0.025-0.006-0.05-0.009-0.074-0.014c-0.719-0.685-0.663-2.221-0.663-2.221s-0.002-0.379,0.225-0.638
			c2.096-2.938,15.657-3.003,17.165-3v0.093h0.006v-0.093c0.085,0.001,0.132,0.001,0.132,0.001v0.093h0.007v-0.095
			c1.508-0.002,15.068,0.062,17.165,2.999c0.228,0.261,0.226,0.639,0.226,0.639s0.055,1.537-0.663,2.221
			c-0.025,0.005-0.049,0.009-0.074,0.014c0.009-0.01,0.016-0.02,0.024-0.029c-0.018,0.014-0.034,0.028-0.051,0.043
			c0.003,0,0.005-0.001,0.008-0.002c6.458-1.194,7.806-2.558,7.806-2.558s0.002-0.002,0.172-0.175
			c-0.182-0.533-2.243-4.146-24.757-4.146C360.42,388.239,358.365,391.836,358.183,392.37"/>
		<path clip-path="url(#SVGID_8_)" fill="#B8A491" d="M366.069,395.077c0.024,0.005,0.049,0.008,0.073,0.014
			c-0.009-0.01-0.015-0.021-0.023-0.03c-0.237-0.283-0.266-0.589-0.266-0.91c0-0.857,2.836-1.614,7.184-2.076
			c0.157-0.019,0.32-0.037,0.486-0.054c0.361-0.037,0.741-0.073,1.14-0.104c0.186-0.015,0.377-0.027,0.571-0.041
			c2.314-0.175,4.93-0.272,7.7-0.272v-0.001c2.721,0.004,5.291,0.101,7.568,0.272c0.195,0.014,0.385,0.027,0.571,0.041
			c0.4,0.03,0.78,0.066,1.14,0.104c0.166,0.018,0.329,0.035,0.487,0.054c4.348,0.462,7.183,1.219,7.183,2.077
			c0,0.32-0.028,0.627-0.265,0.91c-0.009,0.01-0.015,0.02-0.024,0.029c0.025-0.005,0.049-0.009,0.074-0.014
			c0.718-0.684,0.663-2.221,0.663-2.221s0.002-0.378-0.226-0.639c-2.22-3.109-17.303-2.997-17.303-2.997
			c-1.472-0.004-15.071,0.057-17.171,3c-0.227,0.258-0.226,0.637-0.226,0.637S365.35,394.392,366.069,395.077"/>
		<path clip-path="url(#SVGID_8_)" fill="#666766" d="M407.399,384.335c-0.755-1.216-9.228-2.68-9.434-2.716
			c-6.473-1.135-15.13-1.311-15.167-1.31c-0.036-0.001-8.694,0.175-15.167,1.31c-0.205,0.036-8.678,1.5-9.433,2.716
			c-0.19,0.347-0.585,4.972-0.102,8.004c0.006,0.008,0.011,0.012,0.017,0.019c0.182-0.536,2.241-3.211,24.685-3.217
			c22.444,0.006,24.503,2.681,24.687,3.217c0.005-0.007,0.01-0.011,0.016-0.019C407.984,389.307,407.589,384.682,407.399,384.335"/>
	</g>
	<polygon clip-path="url(#SVGID_2_)" fill="#6B6F6B" points="475.569,342.75 289.628,342.75 314.59,279.007 450.607,279.007 	"/>
	<rect x="289.628" y="342.75" clip-path="url(#SVGID_2_)" fill="#364042" width="185.941" height="16.283"/>
	<g clip-path="url(#SVGID_2_)">
		<defs>
			<rect id="SVGID_9_" width="792.998" height="640.101"/>
		</defs>
		<clipPath id="SVGID_10_">
			<use xlink:href="#SVGID_9_"  overflow="visible"/>
		</clipPath>
		<path clip-path="url(#SVGID_10_)" d="M396.536,310.919c0,4.527-7.067,8.197-15.785,8.197c-8.718,0-15.785-3.67-15.785-8.197
			s7.067-8.197,15.785-8.197C389.469,302.722,396.536,306.392,396.536,310.919"/>
	</g>
	<g clip-path="url(#SVGID_2_)">
		<defs>
			<rect id="SVGID_11_" width="792.998" height="640.101"/>
		</defs>
		<clipPath id="SVGID_12_">
			<use xlink:href="#SVGID_11_"  overflow="visible"/>
		</clipPath>
		<g opacity="0.5" clip-path="url(#SVGID_12_)">
			<g>
				<defs>
					<rect id="SVGID_13_" x="331.65" y="301.382" width="100.024" height="28.207"/>
				</defs>
				<clipPath id="SVGID_14_">
					<use xlink:href="#SVGID_13_"  overflow="visible"/>
				</clipPath>
			</g>
		</g>
	</g>
	<g clip-path="url(#SVGID_2_)">
		<defs>
			<rect id="SVGID_15_" width="792.998" height="640.101"/>
		</defs>
		<clipPath id="SVGID_16_">
			<use xlink:href="#SVGID_15_"  overflow="visible"/>
		</clipPath>
		<path clip-path="url(#SVGID_16_)" fill="#7B7B7B" d="M476.773,385.795c0.002-0.29,0.003-0.584,0.003-0.884h-0.019
			c-0.098-3.199-0.733-5.592-4.977-5.592h-14.377c-4.243,0-4.88,2.393-4.976,5.592h-0.02c0,0.3,0.001,0.594,0.003,0.884
			c-0.002,0.29-0.003,0.584-0.003,0.883h0.02c0.096,3.2,0.732,5.592,4.976,5.592h14.377c4.243,0,4.879-2.392,4.977-5.592h0.019
			C476.776,386.379,476.775,386.085,476.773,385.795"/>
		<rect x="460.827" y="359.131" clip-path="url(#SVGID_16_)" fill="#ABABAB" width="7.532" height="19.768"/>
		<path clip-path="url(#SVGID_16_)" fill="#303030" d="M476.773,384.876c0.002-0.29,0.003-0.584,0.003-0.883h-0.019
			c-0.098-3.2-0.733-5.593-4.977-5.593h-14.377c-4.243,0-4.88,2.393-4.976,5.593h-0.02c0,0.299,0.001,0.593,0.003,0.883
			c-0.002,0.29-0.003,0.584-0.003,0.883h0.02c0.096,3.2,0.732,5.592,4.976,5.592h14.377c4.243,0,4.879-2.392,4.977-5.592h0.019
			C476.776,385.46,476.775,385.167,476.773,384.876"/>
		<path clip-path="url(#SVGID_16_)" fill="#7B7B7B" d="M473.421,397.343c0.001-0.21,0.002-0.423,0.002-0.641h-0.014
			c-0.07-2.319-0.531-4.053-3.605-4.053h-10.421c-3.075,0-3.536,1.733-3.606,4.053h-0.014c0,0.218,0,0.431,0.002,0.641
			c-0.002,0.21-0.002,0.423-0.002,0.64h0.014c0.07,2.32,0.531,4.053,3.606,4.053h10.421c3.074,0,3.535-1.732,3.605-4.053h0.014
			C473.423,397.766,473.422,397.553,473.421,397.343"/>
		<path clip-path="url(#SVGID_16_)" fill="#303030" d="M473.421,396.677c0.001-0.21,0.002-0.423,0.002-0.641h-0.014
			c-0.07-2.319-0.531-4.053-3.605-4.053h-10.421c-3.075,0-3.536,1.733-3.606,4.053h-0.014c0,0.218,0,0.431,0.002,0.641
			c-0.002,0.21-0.002,0.423-0.002,0.64h0.014c0.07,2.32,0.531,4.053,3.606,4.053h10.421c3.074,0,3.535-1.732,3.605-4.053h0.014
			C473.423,397.1,473.422,396.887,473.421,396.677"/>
	</g>
	<polygon clip-path="url(#SVGID_2_)" fill="#151515" points="481.57,346.358 481.57,344.555 456.608,287.882 450.39,287.882 
		475.351,344.555 475.351,359.033 460.796,359.033 460.796,365.251 475.351,365.251 475.351,372.841 476.387,372.841 
		477.394,372.841 478.984,372.841 478.984,368.45 481.57,368.45 481.57,367.836 481.57,366.485 481.57,365.251 478.984,365.251 
		478.984,346.358 	"/>
	<rect x="478.984" y="346.357" clip-path="url(#SVGID_2_)" fill="#606161" width="2.586" height="18.895"/>
	
		<rect x="477.666" y="342.081" transform="matrix(0.9134 -0.407 0.407 0.9134 -97.9008 224.6143)" clip-path="url(#SVGID_2_)" fill="#FFFFFF" width="2.827" height="0.748"/>
	
		<rect x="472.837" y="331.236" transform="matrix(0.9134 -0.407 0.407 0.9134 -93.9049 221.7104)" clip-path="url(#SVGID_2_)" fill="#FFFFFF" width="2.827" height="0.747"/>
	
		<rect x="468.009" y="320.39" transform="matrix(0.9135 -0.4068 0.4068 0.9135 -89.8931 218.7183)" clip-path="url(#SVGID_2_)" fill="#FFFFFF" width="2.827" height="0.748"/>
	
		<rect x="463.18" y="309.545" transform="matrix(0.9135 -0.4068 0.4068 0.9135 -85.8986 215.8158)" clip-path="url(#SVGID_2_)" fill="#FFFFFF" width="2.827" height="0.748"/>
	<polygon clip-path="url(#SVGID_2_)" fill="#151515" points="500.736,286.257 377.731,286.257 375.43,289.754 395.481,289.754 
		482.987,289.754 503.046,289.754 	"/>
	<rect x="375.43" y="289.755" clip-path="url(#SVGID_2_)" fill="#151515" width="127.616" height="2.65"/>
	<rect x="498.488" y="286.662" clip-path="url(#SVGID_2_)" fill="#FFFFFF" width="0.528" height="2.709"/>
	<rect x="490.009" y="286.662" clip-path="url(#SVGID_2_)" fill="#FFFFFF" width="0.529" height="2.709"/>
	<rect x="481.528" y="286.662" clip-path="url(#SVGID_2_)" fill="#FFFFFF" width="0.529" height="2.709"/>
	<rect x="473.048" y="286.662" clip-path="url(#SVGID_2_)" fill="#FFFFFF" width="0.53" height="2.709"/>
	<rect x="464.568" y="286.662" clip-path="url(#SVGID_2_)" fill="#FFFFFF" width="0.529" height="2.709"/>
	<rect x="456.089" y="286.662" clip-path="url(#SVGID_2_)" fill="#FFFFFF" width="0.53" height="2.709"/>
	<rect x="447.609" y="286.662" clip-path="url(#SVGID_2_)" fill="#FFFFFF" width="0.529" height="2.709"/>
	<rect x="439.129" y="286.662" clip-path="url(#SVGID_2_)" fill="#FFFFFF" width="0.53" height="2.709"/>
	<rect x="430.649" y="286.662" clip-path="url(#SVGID_2_)" fill="#FFFFFF" width="0.529" height="2.709"/>
	<rect x="422.169" y="286.662" clip-path="url(#SVGID_2_)" fill="#FFFFFF" width="0.53" height="2.709"/>
	<rect x="413.689" y="286.662" clip-path="url(#SVGID_2_)" fill="#FFFFFF" width="0.529" height="2.709"/>
	<rect x="405.21" y="286.662" clip-path="url(#SVGID_2_)" fill="#FFFFFF" width="0.53" height="2.709"/>
	<rect x="396.73" y="286.662" clip-path="url(#SVGID_2_)" fill="#FFFFFF" width="0.529" height="2.709"/>
	<rect x="388.25" y="286.662" clip-path="url(#SVGID_2_)" fill="#FFFFFF" width="0.53" height="2.709"/>
	<rect x="379.77" y="286.662" clip-path="url(#SVGID_2_)" fill="#FFFFFF" width="0.529" height="2.709"/>
	<rect x="497.746" y="286.662" clip-path="url(#SVGID_2_)" fill="#FFFFFF" width="0.071" height="1.354"/>
	<rect x="496.898" y="286.662" clip-path="url(#SVGID_2_)" fill="#FFFFFF" width="0.069" height="1.354"/>
	<rect x="496.05" y="286.662" clip-path="url(#SVGID_2_)" fill="#FFFFFF" width="0.07" height="1.354"/>
	<rect x="495.202" y="286.662" clip-path="url(#SVGID_2_)" fill="#FFFFFF" width="0.07" height="1.354"/>
	<rect x="493.506" y="286.662" clip-path="url(#SVGID_2_)" fill="#FFFFFF" width="0.071" height="1.354"/>
	<rect x="492.658" y="286.662" clip-path="url(#SVGID_2_)" fill="#FFFFFF" width="0.069" height="1.354"/>
	<rect x="491.81" y="286.662" clip-path="url(#SVGID_2_)" fill="#FFFFFF" width="0.07" height="1.354"/>
	<rect x="490.963" y="286.662" clip-path="url(#SVGID_2_)" fill="#FFFFFF" width="0.07" height="1.354"/>
	<rect x="489.266" y="286.662" clip-path="url(#SVGID_2_)" fill="#FFFFFF" width="0.071" height="1.354"/>
	<rect x="488.418" y="286.662" clip-path="url(#SVGID_2_)" fill="#FFFFFF" width="0.07" height="1.354"/>
	<rect x="487.57" y="286.662" clip-path="url(#SVGID_2_)" fill="#FFFFFF" width="0.069" height="1.354"/>
	<rect x="486.722" y="286.662" clip-path="url(#SVGID_2_)" fill="#FFFFFF" width="0.071" height="1.354"/>
	<rect x="485.026" y="286.662" clip-path="url(#SVGID_2_)" fill="#FFFFFF" width="0.07" height="1.354"/>
	<rect x="484.178" y="286.662" clip-path="url(#SVGID_2_)" fill="#FFFFFF" width="0.07" height="1.354"/>
	<rect x="483.331" y="286.662" clip-path="url(#SVGID_2_)" fill="#FFFFFF" width="0.07" height="1.354"/>
	<rect x="482.482" y="286.662" clip-path="url(#SVGID_2_)" fill="#FFFFFF" width="0.07" height="1.354"/>
	<rect x="480.786" y="286.662" clip-path="url(#SVGID_2_)" fill="#FFFFFF" width="0.071" height="1.354"/>
	<rect x="479.939" y="286.662" clip-path="url(#SVGID_2_)" fill="#FFFFFF" width="0.069" height="1.354"/>
	<rect x="479.091" y="286.662" clip-path="url(#SVGID_2_)" fill="#FFFFFF" width="0.07" height="1.354"/>
	<rect x="478.242" y="286.662" clip-path="url(#SVGID_2_)" fill="#FFFFFF" width="0.071" height="1.354"/>
	<rect x="477.321" y="286.662" clip-path="url(#SVGID_2_)" fill="#FFFFFF" width="0.19" height="1.723"/>
	<rect x="485.801" y="286.662" clip-path="url(#SVGID_2_)" fill="#FFFFFF" width="0.192" height="1.723"/>
	<rect x="468.841" y="286.662" clip-path="url(#SVGID_2_)" fill="#FFFFFF" width="0.191" height="1.723"/>
	<rect x="460.362" y="286.662" clip-path="url(#SVGID_2_)" fill="#FFFFFF" width="0.19" height="1.723"/>
	<rect x="451.882" y="286.662" clip-path="url(#SVGID_2_)" fill="#FFFFFF" width="0.191" height="1.723"/>
	<rect x="443.402" y="286.662" clip-path="url(#SVGID_2_)" fill="#FFFFFF" width="0.19" height="1.723"/>
	<rect x="434.922" y="286.662" clip-path="url(#SVGID_2_)" fill="#FFFFFF" width="0.191" height="1.723"/>
	<rect x="426.443" y="286.662" clip-path="url(#SVGID_2_)" fill="#FFFFFF" width="0.19" height="1.723"/>
	<rect x="417.963" y="286.662" clip-path="url(#SVGID_2_)" fill="#FFFFFF" width="0.191" height="1.723"/>
	<rect x="409.483" y="286.662" clip-path="url(#SVGID_2_)" fill="#FFFFFF" width="0.19" height="1.723"/>
	<rect x="401.003" y="286.662" clip-path="url(#SVGID_2_)" fill="#FFFFFF" width="0.191" height="1.723"/>
	<rect x="392.522" y="286.662" clip-path="url(#SVGID_2_)" fill="#FFFFFF" width="0.192" height="1.723"/>
	<rect x="384.043" y="286.662" clip-path="url(#SVGID_2_)" fill="#FFFFFF" width="0.192" height="1.723"/>
	<rect x="383.195" y="286.662" clip-path="url(#SVGID_2_)" fill="#FFFFFF" width="0.191" height="1.723"/>
	<rect x="476.546" y="286.662" clip-path="url(#SVGID_2_)" fill="#FFFFFF" width="0.071" height="1.354"/>
	<rect x="475.699" y="286.662" clip-path="url(#SVGID_2_)" fill="#FFFFFF" width="0.069" height="1.354"/>
	<rect x="474.851" y="286.662" clip-path="url(#SVGID_2_)" fill="#FFFFFF" width="0.07" height="1.354"/>
	<rect x="474.002" y="286.662" clip-path="url(#SVGID_2_)" fill="#FFFFFF" width="0.071" height="1.354"/>
	<rect x="472.306" y="286.662" clip-path="url(#SVGID_2_)" fill="#FFFFFF" width="0.07" height="1.354"/>
	<rect x="471.459" y="286.662" clip-path="url(#SVGID_2_)" fill="#FFFFFF" width="0.07" height="1.354"/>
	<rect x="470.611" y="286.662" clip-path="url(#SVGID_2_)" fill="#FFFFFF" width="0.069" height="1.354"/>
	<rect x="469.762" y="286.662" clip-path="url(#SVGID_2_)" fill="#FFFFFF" width="0.071" height="1.354"/>
	<rect x="468.067" y="286.662" clip-path="url(#SVGID_2_)" fill="#FFFFFF" width="0.069" height="1.354"/>
	<rect x="467.219" y="286.662" clip-path="url(#SVGID_2_)" fill="#FFFFFF" width="0.07" height="1.354"/>
	<rect x="466.371" y="286.662" clip-path="url(#SVGID_2_)" fill="#FFFFFF" width="0.07" height="1.354"/>
	<rect x="465.522" y="286.662" clip-path="url(#SVGID_2_)" fill="#FFFFFF" width="0.07" height="1.354"/>
	<rect x="463.827" y="286.662" clip-path="url(#SVGID_2_)" fill="#FFFFFF" width="0.07" height="1.354"/>
	<rect x="462.979" y="286.662" clip-path="url(#SVGID_2_)" fill="#FFFFFF" width="0.07" height="1.354"/>
	<rect x="462.13" y="286.662" clip-path="url(#SVGID_2_)" fill="#FFFFFF" width="0.071" height="1.354"/>
	<rect x="461.282" y="286.662" clip-path="url(#SVGID_2_)" fill="#FFFFFF" width="0.071" height="1.354"/>
	<rect x="459.587" y="286.662" clip-path="url(#SVGID_2_)" fill="#FFFFFF" width="0.07" height="1.354"/>
	<rect x="458.739" y="286.662" clip-path="url(#SVGID_2_)" fill="#FFFFFF" width="0.069" height="1.354"/>
	<rect x="457.89" y="286.662" clip-path="url(#SVGID_2_)" fill="#FFFFFF" width="0.071" height="1.354"/>
	<rect x="457.043" y="286.662" clip-path="url(#SVGID_2_)" fill="#FFFFFF" width="0.071" height="1.354"/>
	<rect x="455.347" y="286.662" clip-path="url(#SVGID_2_)" fill="#FFFFFF" width="0.07" height="1.354"/>
	<rect x="454.499" y="286.662" clip-path="url(#SVGID_2_)" fill="#FFFFFF" width="0.07" height="1.354"/>
	<rect x="453.65" y="286.662" clip-path="url(#SVGID_2_)" fill="#FFFFFF" width="0.07" height="1.354"/>
	<rect x="452.803" y="286.662" clip-path="url(#SVGID_2_)" fill="#FFFFFF" width="0.071" height="1.354"/>
	<rect x="451.107" y="286.662" clip-path="url(#SVGID_2_)" fill="#FFFFFF" width="0.069" height="1.354"/>
	<rect x="450.259" y="286.662" clip-path="url(#SVGID_2_)" fill="#FFFFFF" width="0.07" height="1.354"/>
	<rect x="449.41" y="286.662" clip-path="url(#SVGID_2_)" fill="#FFFFFF" width="0.071" height="1.354"/>
	<rect x="448.562" y="286.662" clip-path="url(#SVGID_2_)" fill="#FFFFFF" width="0.071" height="1.354"/>
	<rect x="446.867" y="286.662" clip-path="url(#SVGID_2_)" fill="#FFFFFF" width="0.07" height="1.354"/>
	<rect x="446.019" y="286.662" clip-path="url(#SVGID_2_)" fill="#FFFFFF" width="0.07" height="1.354"/>
	<rect x="445.171" y="286.662" clip-path="url(#SVGID_2_)" fill="#FFFFFF" width="0.071" height="1.354"/>
	<rect x="444.323" y="286.662" clip-path="url(#SVGID_2_)" fill="#FFFFFF" width="0.07" height="1.354"/>
	<rect x="442.627" y="286.662" clip-path="url(#SVGID_2_)" fill="#FFFFFF" width="0.07" height="1.354"/>
	<rect x="441.779" y="286.662" clip-path="url(#SVGID_2_)" fill="#FFFFFF" width="0.069" height="1.354"/>
	<rect x="440.931" y="286.662" clip-path="url(#SVGID_2_)" fill="#FFFFFF" width="0.071" height="1.354"/>
	<rect x="440.083" y="286.662" clip-path="url(#SVGID_2_)" fill="#FFFFFF" width="0.071" height="1.354"/>
	<rect x="438.387" y="286.662" clip-path="url(#SVGID_2_)" fill="#FFFFFF" width="0.07" height="1.354"/>
	<rect x="437.539" y="286.662" clip-path="url(#SVGID_2_)" fill="#FFFFFF" width="0.071" height="1.354"/>
	<rect x="436.691" y="286.662" clip-path="url(#SVGID_2_)" fill="#FFFFFF" width="0.07" height="1.354"/>
	<rect x="435.843" y="286.662" clip-path="url(#SVGID_2_)" fill="#FFFFFF" width="0.071" height="1.354"/>
	<rect x="437.539" y="286.662" clip-path="url(#SVGID_2_)" fill="#FFFFFF" width="0.071" height="1.354"/>
	<rect x="436.691" y="286.662" clip-path="url(#SVGID_2_)" fill="#FFFFFF" width="0.07" height="1.354"/>
	<rect x="435.843" y="286.662" clip-path="url(#SVGID_2_)" fill="#FFFFFF" width="0.071" height="1.354"/>
	<rect x="434.995" y="286.662" clip-path="url(#SVGID_2_)" fill="#FFFFFF" width="0.07" height="1.354"/>
	<rect x="434.147" y="286.662" clip-path="url(#SVGID_2_)" fill="#FFFFFF" width="0.069" height="1.354"/>
	<rect x="433.299" y="286.662" clip-path="url(#SVGID_2_)" fill="#FFFFFF" width="0.071" height="1.354"/>
	<rect x="432.451" y="286.662" clip-path="url(#SVGID_2_)" fill="#FFFFFF" width="0.071" height="1.354"/>
	<rect x="431.603" y="286.662" clip-path="url(#SVGID_2_)" fill="#FFFFFF" width="0.071" height="1.354"/>
	<rect x="429.908" y="286.662" clip-path="url(#SVGID_2_)" fill="#FFFFFF" width="0.069" height="1.354"/>
	<rect x="429.059" y="286.662" clip-path="url(#SVGID_2_)" fill="#FFFFFF" width="0.071" height="1.354"/>
	<rect x="428.211" y="286.662" clip-path="url(#SVGID_2_)" fill="#FFFFFF" width="0.071" height="1.354"/>
	<rect x="427.363" y="286.662" clip-path="url(#SVGID_2_)" fill="#FFFFFF" width="0.069" height="1.354"/>
	<rect x="425.668" y="286.662" clip-path="url(#SVGID_2_)" fill="#FFFFFF" width="0.07" height="1.354"/>
	<rect x="424.819" y="286.662" clip-path="url(#SVGID_2_)" fill="#FFFFFF" width="0.07" height="1.354"/>
	<rect x="423.971" y="286.662" clip-path="url(#SVGID_2_)" fill="#FFFFFF" width="0.071" height="1.354"/>
	<rect x="423.123" y="286.662" clip-path="url(#SVGID_2_)" fill="#FFFFFF" width="0.07" height="1.354"/>
	<rect x="421.428" y="286.662" clip-path="url(#SVGID_2_)" fill="#FFFFFF" width="0.07" height="1.354"/>
	<rect x="420.579" y="286.662" clip-path="url(#SVGID_2_)" fill="#FFFFFF" width="0.071" height="1.354"/>
	<rect x="419.731" y="286.662" clip-path="url(#SVGID_2_)" fill="#FFFFFF" width="0.07" height="1.354"/>
	<rect x="418.883" y="286.662" clip-path="url(#SVGID_2_)" fill="#FFFFFF" width="0.07" height="1.354"/>
	<rect x="417.188" y="286.662" clip-path="url(#SVGID_2_)" fill="#FFFFFF" width="0.07" height="1.354"/>
	<rect x="416.339" y="286.662" clip-path="url(#SVGID_2_)" fill="#FFFFFF" width="0.071" height="1.354"/>
	<rect x="415.491" y="286.662" clip-path="url(#SVGID_2_)" fill="#FFFFFF" width="0.071" height="1.354"/>
	<rect x="414.643" y="286.662" clip-path="url(#SVGID_2_)" fill="#FFFFFF" width="0.07" height="1.354"/>
	<rect x="412.947" y="286.662" clip-path="url(#SVGID_2_)" fill="#FFFFFF" width="0.07" height="1.354"/>
	<rect x="412.099" y="286.662" clip-path="url(#SVGID_2_)" fill="#FFFFFF" width="0.071" height="1.354"/>
	<rect x="411.251" y="286.662" clip-path="url(#SVGID_2_)" fill="#FFFFFF" width="0.071" height="1.354"/>
	<rect x="410.404" y="286.662" clip-path="url(#SVGID_2_)" fill="#FFFFFF" width="0.069" height="1.354"/>
	<rect x="408.707" y="286.662" clip-path="url(#SVGID_2_)" fill="#FFFFFF" width="0.071" height="1.354"/>
	<rect x="407.859" y="286.662" clip-path="url(#SVGID_2_)" fill="#FFFFFF" width="0.07" height="1.354"/>
	<rect x="407.012" y="286.662" clip-path="url(#SVGID_2_)" fill="#FFFFFF" width="0.071" height="1.354"/>
	<rect x="406.164" y="286.662" clip-path="url(#SVGID_2_)" fill="#FFFFFF" width="0.07" height="1.354"/>
	<rect x="404.467" y="286.662" clip-path="url(#SVGID_2_)" fill="#FFFFFF" width="0.071" height="1.354"/>
	<rect x="403.619" y="286.662" clip-path="url(#SVGID_2_)" fill="#FFFFFF" width="0.071" height="1.354"/>
	<rect x="402.772" y="286.662" clip-path="url(#SVGID_2_)" fill="#FFFFFF" width="0.069" height="1.354"/>
	<rect x="401.924" y="286.662" clip-path="url(#SVGID_2_)" fill="#FFFFFF" width="0.07" height="1.354"/>
	<rect x="400.227" y="286.662" clip-path="url(#SVGID_2_)" fill="#FFFFFF" width="0.071" height="1.354"/>
	<rect x="399.379" y="286.662" clip-path="url(#SVGID_2_)" fill="#FFFFFF" width="0.071" height="1.354"/>
	<rect x="398.532" y="286.662" clip-path="url(#SVGID_2_)" fill="#FFFFFF" width="0.069" height="1.354"/>
	<rect x="397.684" y="286.662" clip-path="url(#SVGID_2_)" fill="#FFFFFF" width="0.07" height="1.354"/>
	<rect x="395.987" y="286.662" clip-path="url(#SVGID_2_)" fill="#FFFFFF" width="0.071" height="1.354"/>
	<rect x="395.14" y="286.662" clip-path="url(#SVGID_2_)" fill="#FFFFFF" width="0.071" height="1.354"/>
	<rect x="394.292" y="286.662" clip-path="url(#SVGID_2_)" fill="#FFFFFF" width="0.07" height="1.354"/>
	<rect x="393.444" y="286.662" clip-path="url(#SVGID_2_)" fill="#FFFFFF" width="0.07" height="1.354"/>
	<rect x="391.747" y="286.662" clip-path="url(#SVGID_2_)" fill="#FFFFFF" width="0.071" height="1.354"/>
	<rect x="390.9" y="286.662" clip-path="url(#SVGID_2_)" fill="#FFFFFF" width="0.071" height="1.354"/>
	<rect x="390.052" y="286.662" clip-path="url(#SVGID_2_)" fill="#FFFFFF" width="0.07" height="1.354"/>
	<rect x="389.204" y="286.662" clip-path="url(#SVGID_2_)" fill="#FFFFFF" width="0.07" height="1.354"/>
	<rect x="387.508" y="286.662" clip-path="url(#SVGID_2_)" fill="#FFFFFF" width="0.071" height="1.354"/>
	<rect x="386.66" y="286.662" clip-path="url(#SVGID_2_)" fill="#FFFFFF" width="0.071" height="1.354"/>
	<rect x="385.812" y="286.662" clip-path="url(#SVGID_2_)" fill="#FFFFFF" width="0.07" height="1.354"/>
	<rect x="384.964" y="286.662" clip-path="url(#SVGID_2_)" fill="#FFFFFF" width="0.07" height="1.354"/>
	<rect x="383.268" y="286.662" clip-path="url(#SVGID_2_)" fill="#FFFFFF" width="0.071" height="1.354"/>
	<rect x="382.42" y="286.662" clip-path="url(#SVGID_2_)" fill="#FFFFFF" width="0.071" height="1.354"/>
	<rect x="381.572" y="286.662" clip-path="url(#SVGID_2_)" fill="#FFFFFF" width="0.07" height="1.354"/>
	<rect x="380.724" y="286.662" clip-path="url(#SVGID_2_)" fill="#FFFFFF" width="0.07" height="1.354"/>
	<rect x="382.42" y="286.662" clip-path="url(#SVGID_2_)" fill="#FFFFFF" width="0.071" height="1.354"/>
	<rect x="381.572" y="286.662" clip-path="url(#SVGID_2_)" fill="#FFFFFF" width="0.07" height="1.354"/>
	<rect x="380.724" y="286.662" clip-path="url(#SVGID_2_)" fill="#FFFFFF" width="0.07" height="1.354"/>
	<rect x="379.876" y="286.662" clip-path="url(#SVGID_2_)" fill="#FFFFFF" width="0.071" height="1.354"/>
	<g clip-path="url(#SVGID_2_)">
		<defs>
			<rect id="SVGID_17_" width="792.998" height="640.101"/>
		</defs>
		<clipPath id="SVGID_18_">
			<use xlink:href="#SVGID_17_"  overflow="visible"/>
		</clipPath>
		<path clip-path="url(#SVGID_18_)" fill="#9B9A9A" d="M448.699,302.491c1.723,0,3.119,1.36,3.119,3.037
			c0,0.971-0.477,1.825-1.204,2.381l2.465,6.613h8.453l-6.66-15.049l-1.512-4.381H342.102v4.381v2.473h85.483l1.179,2.519h17.023
			C446.231,303.314,447.362,302.491,448.699,302.491"/>
		<polygon clip-path="url(#SVGID_18_)" fill="#9B9A9A" points="482.595,294.914 386.941,294.914 386.941,289.547 355.817,289.547 
			355.817,301.874 386.941,301.874 386.941,298.306 482.595,298.306 		"/>
		<path clip-path="url(#SVGID_18_)" fill="#828282" d="M340.025,292.468c0-0.553,0.448-1.001,1.001-1.001
			c0.553,0,1.001,0.448,1.001,1.001s-0.448,1.001-1.001,1.001C340.473,293.469,340.025,293.021,340.025,292.468"/>
		<rect x="340.433" y="292.362" clip-path="url(#SVGID_18_)" width="1.185" height="0.169"/>
		<rect x="340.942" y="291.875" clip-path="url(#SVGID_18_)" width="0.169" height="1.185"/>
		<path clip-path="url(#SVGID_18_)" fill="#828282" d="M340.025,300.311c0-0.553,0.448-1.001,1.001-1.001
			c0.553,0,1.001,0.448,1.001,1.001c0,0.553-0.448,1.001-1.001,1.001C340.473,301.312,340.025,300.864,340.025,300.311"/>
		<rect x="340.433" y="300.206" clip-path="url(#SVGID_18_)" width="1.185" height="0.169"/>
		<rect x="340.942" y="299.719" clip-path="url(#SVGID_18_)" width="0.169" height="1.185"/>
		<path clip-path="url(#SVGID_18_)" fill="#424343" d="M343.644,319.537l-0.59-0.907l-6.487-7.383h-2.687v-1.375
			c-0.974-0.265-1.697-1.119-1.697-2.136v-0.259V306h-1.304v-6.693h8.56v-1.104h-8.33h-2.092h-6.624v0.079l-5.679,1.603
			l-0.465-0.343l-1.409,0.488l0.005,0.008c-0.259,0.088-0.429,0.335-0.382,0.605l0.034,0.194c0.004,0.018,0.015,0.032,0.02,0.05
			c0.001,0.045,0,0.09,0.014,0.135l0.313,1.022c0.081,0.264,0.611,0.438,0.939,0.464l6.678,0.061l17.554,19.978l2.076,1.739
			c0.446,0.029,0.887-0.118,1.258-0.469C344.313,322.904,344.445,320.988,343.644,319.537 M329.017,302.654l-0.094-0.107h0.094
			V302.654z"/>
		<path clip-path="url(#SVGID_18_)" fill="#9B9A9A" d="M342.774,317.88l-0.543-0.87l-6.306-7.472v-0.067h-1.336
			c-1.217,0-2.212-0.995-2.212-2.212v-0.257v-1.33h-0.001v-8.248h-1.147h-1.927h-6.101v0.075l-6.953,2.043
			c-0.232,0.069-0.362,0.331-0.287,0.584l0.288,0.98c0.074,0.253,0.562,0.419,0.864,0.445l6.151,0.058l16.167,19.157l1.912,1.668
			c0.412,0.027,0.817-0.114,1.159-0.45C343.39,321.109,343.512,319.271,342.774,317.88 M329.302,301.691l-0.087-0.103h0.087V301.691
			z"/>
		<path clip-path="url(#SVGID_18_)" d="M344.776,300.489v-2.555h-1.885l-16.184-2.461c-1.283-0.196-2.422-0.113-2.422,1.384v2.603
			c0,1.368,0.959,2.478,2.143,2.478h8.279h8.342h2.086h7.294c0,0,5.353-0.648,5.374-1.449H344.776z"/>
		<path clip-path="url(#SVGID_18_)" fill="#282828" d="M355.817,289.547c0-1.803-0.979-3.409-2.481-4.406
			c-1.504-0.998-3.438-1.095-5.169-0.584l-16.262,4.8c-3.325,0-5.344-2.815-5.344,0.19l1.356,10.942h29.886L355.817,289.547z"/>
		<rect x="324.285" y="291.674" clip-path="url(#SVGID_18_)" fill="#828282" width="19.881" height="5.603"/>
		<path clip-path="url(#SVGID_18_)" fill="#828282" d="M340.534,291.673h-12.617c-2.006,0-3.632,1.626-3.632,3.632v1.552
			c0,2.006,1.626,3.632,3.632,3.632h6.309h6.308c2.006,0,3.632-1.626,3.632-3.632v-1.552
			C344.166,293.3,342.54,291.673,340.534,291.673"/>
		<path clip-path="url(#SVGID_18_)" fill="#A09F9F" d="M344.166,291.673c0,3.058-4.45,5.537-9.94,5.537
			c-5.49,0-9.941-2.479-9.941-5.537c0-3.058,4.451-5.537,9.941-5.537C339.716,286.137,344.166,288.616,344.166,291.673"/>
		<path clip-path="url(#SVGID_18_)" fill="#D1D1D1" d="M341.189,291.673c0,2.142-3.118,3.879-6.964,3.879
			c-3.845,0-6.963-1.737-6.963-3.879c0-2.142,3.118-3.879,6.963-3.879C338.071,287.794,341.189,289.532,341.189,291.673"/>
		<path clip-path="url(#SVGID_18_)" fill="#484748" d="M336.075,291.673c0,0.569-0.828,1.03-1.849,1.03
			c-1.022,0-1.85-0.461-1.85-1.03c0-0.569,0.828-1.03,1.85-1.03C335.247,290.644,336.075,291.104,336.075,291.673"/>
		<line clip-path="url(#SVGID_18_)" fill="#424343" x1="310.217" y1="298.543" x2="312.676" y2="298.392"/>
		<polygon clip-path="url(#SVGID_18_)" fill="#606161" points="477.866,337.374 487.726,337.547 487.726,341.367 479.675,341.374 		
			"/>
		<polygon clip-path="url(#SVGID_18_)" fill="#5C5C5C" points="461.465,300.108 482.594,300.108 482.594,298.306 460.725,298.306 		
			"/>
		<rect x="431.41" y="290.219" clip-path="url(#SVGID_18_)" fill="#2D2D2D" width="26.77" height="2.707"/>
		
			<rect x="454.624" y="291.864" transform="matrix(0.0037 -1 1 0.0037 161.8589 746.4813)" clip-path="url(#SVGID_18_)" fill="#FFFFFF" width="1.852" height="0.297"/>
		<rect x="452.717" y="291.938" clip-path="url(#SVGID_18_)" fill="#FFFFFF" width="0.298" height="0.996"/>
		<rect x="454.059" y="291.94" clip-path="url(#SVGID_18_)" fill="#FFFFFF" width="0.298" height="0.996"/>
		
			<rect x="450.609" y="291.858" transform="matrix(0.0037 -1 1 0.0037 157.8639 742.4599)" clip-path="url(#SVGID_18_)" fill="#FFFFFF" width="1.852" height="0.297"/>
		<rect x="450.15" y="291.934" clip-path="url(#SVGID_18_)" fill="#FFFFFF" width="0.298" height="0.996"/>
		<rect x="448.809" y="291.932" clip-path="url(#SVGID_18_)" fill="#FFFFFF" width="0.297" height="0.996"/>
		
			<rect x="446.767" y="291.852" transform="matrix(0.0037 -1 1 0.0037 154.0422 738.6123)" clip-path="url(#SVGID_18_)" fill="#FFFFFF" width="1.852" height="0.297"/>
		<path clip-path="url(#SVGID_18_)" fill="#FFFFFF" d="M455.691,290.881c0.162,0.047,0.236,0.17,0.164,0.276
			c-0.07,0.106-0.261,0.154-0.424,0.107c-0.162-0.046-0.235-0.17-0.164-0.276C455.34,290.882,455.529,290.834,455.691,290.881"/>
		<polygon clip-path="url(#SVGID_18_)" fill="#5C5C5C" points="482.595,300.108 473.026,305.585 474.315,308.435 482.554,303.881 		
			"/>
		<path clip-path="url(#SVGID_18_)" fill="#3D3D3D" d="M473.336,305.385l9.219-5.276h-21.09l17.31,39.272l3.746,0.114h3.298
			c1.376,0,2.298-1.414,1.744-2.673L473.336,305.385z"/>
		
			<rect x="475.341" y="325.322" transform="matrix(0.9159 -0.4014 0.4014 0.9159 -92.6682 219.7827)" clip-path="url(#SVGID_18_)" fill="#333333" width="5.59" height="11.411"/>
		
			<rect x="477.8" y="335.721" transform="matrix(0.916 -0.4012 0.4012 0.916 -94.4773 220.6328)" clip-path="url(#SVGID_18_)" fill="#FFFFFF" width="3.568" height="0.373"/>
		
			<rect x="476.516" y="332.968" transform="matrix(0.9158 -0.4016 0.4016 0.9158 -93.6044 219.8297)" clip-path="url(#SVGID_18_)" fill="#FFFFFF" width="1.918" height="0.373"/>
		
			<rect x="477.193" y="334.51" transform="matrix(0.9158 -0.4016 0.4016 0.9158 -94.1667 220.2312)" clip-path="url(#SVGID_18_)" fill="#FFFFFF" width="1.918" height="0.373"/>
		
			<rect x="475.777" y="331.105" transform="matrix(0.916 -0.4012 0.4012 0.916 -92.7953 219.4331)" clip-path="url(#SVGID_18_)" fill="#FFFFFF" width="3.568" height="0.373"/>
		
			<rect x="475.223" y="330.016" transform="matrix(0.9158 -0.4016 0.4016 0.9158 -92.528 219.0617)" clip-path="url(#SVGID_18_)" fill="#FFFFFF" width="1.918" height="0.373"/>
		
			<rect x="474.547" y="328.474" transform="matrix(0.9158 -0.4016 0.4016 0.9158 -91.9655 218.6605)" clip-path="url(#SVGID_18_)" fill="#FFFFFF" width="1.918" height="0.373"/>
		
			<rect x="473.84" y="326.687" transform="matrix(0.9159 -0.4014 0.4014 0.9159 -91.2128 218.4271)" clip-path="url(#SVGID_18_)" fill="#FFFFFF" width="3.569" height="0.373"/>
		<path clip-path="url(#SVGID_18_)" fill="#FFFFFF" d="M481.647,335.191c0,0.223-0.181,0.403-0.403,0.403s-0.403-0.181-0.403-0.403
			c0-0.224,0.181-0.404,0.403-0.404S481.647,334.967,481.647,335.191"/>
		<path clip-path="url(#SVGID_18_)" fill="#3D3D3D" d="M474.962,285.823h-98.331l-7.243,9.269h53.423h32.999h26.784L474.962,285.823
			z M458.18,288.951v0.989v1.298v1.583h-3.823h-19.124h-3.822v-1.583v-1.298v-0.989v-0.05c0-1.584,1.129-1.373,3.231-1.373
			l19.716-0.009c2.104,0,3.822-0.202,3.822,1.382V288.951z"/>
	</g>
	
		<rect x="362.639" y="385.572" clip-path="url(#SVGID_2_)" fill="none" stroke="#000000" stroke-miterlimit="10" width="40.32" height="0.445"/>
	<rect x="361.639" y="385.096" clip-path="url(#SVGID_2_)" fill="#CFCFCE" width="2.663" height="4.121"/>
	<g clip-path="url(#SVGID_2_)">
		<defs>
			<rect id="SVGID_19_" width="792.998" height="640.101"/>
		</defs>
		<clipPath id="SVGID_20_">
			<use xlink:href="#SVGID_19_"  overflow="visible"/>
		</clipPath>
		<path clip-path="url(#SVGID_20_)" fill="#1E2322" d="M382.566,446.549v-5.609h-15.25v-2.082c0,0-5.038,0.772-9.209,1.874
			c-2.838,0.748-5.366,2.262-7.336,4.299c-0.083,0.086-0.172,0.177-0.267,0.273c-0.278,0.387-0.301,1.02-0.301,1.02L382.566,446.549
			z"/>
		<path clip-path="url(#SVGID_20_)" fill="#1E2322" d="M366.156,451.901c0.727,0,2.051-1.096,0.751-1.096
			C366.182,450.805,364.857,451.901,366.156,451.901"/>
		<path clip-path="url(#SVGID_20_)" fill="#293331" d="M420.977,468.03l-1.837-19.786c-0.495-1.414-3.463-1.908-3.463-1.908
			l-33.146-0.494h-0.016h-0.016l-33.146,0.494c0,0-2.968,0.494-3.463,1.908l-1.837,19.786l-0.565,10.035
			c-0.142,4.946,5.936,4.946,5.936,4.946h6.784h26.291h0.032h26.292h6.783c0,0,6.078,0,5.937-4.946L420.977,468.03z"/>
		<polygon clip-path="url(#SVGID_20_)" fill="#1D2322" points="421.343,475.351 382.531,475.351 382.499,475.351 343.687,475.351 
			343.488,478.629 382.499,478.629 382.531,478.629 421.542,478.629 		"/>
		<polygon clip-path="url(#SVGID_20_)" fill="#1D2322" points="421.207,472.115 421.017,468.737 382.531,468.737 382.499,468.737 
			344.013,468.737 343.823,472.115 382.515,472.016 		"/>
		<path clip-path="url(#SVGID_20_)" fill="#1E2322" d="M382.464,446.549v-5.609h15.249v-2.082c0,0,5.039,0.772,9.211,1.874
			c2.837,0.748,5.364,2.262,7.335,4.299c0.083,0.086,0.173,0.177,0.268,0.273c0.278,0.387,0.301,1.02,0.301,1.02L382.464,446.549z"
			/>
		<path clip-path="url(#SVGID_20_)" fill="#1E2322" d="M414.829,446.405c0-8.631-31.246-4.494-32.314-4.351
			c-1.068-0.144-32.314-4.28-32.314,4.351l-0.254,11.591c0,1.201,0.656,1.935,1.738,2.455c5.819,2.804,21.759,2.546,30.83,2.545
			c9.071,0.001,25.011,0.259,30.83-2.545c1.081-0.521,1.737-1.254,1.737-2.455L414.829,446.405z"/>
		<path clip-path="url(#SVGID_20_)" fill="#1E2322" d="M398.121,451.901c0.728,0,2.051-1.096,0.751-1.096
			C398.146,450.805,396.822,451.901,398.121,451.901"/>
		<path clip-path="url(#SVGID_20_)" fill="#313837" d="M409.034,450.541c0-4.107-11.841-7.438-26.468-7.454v-0.001h-0.051h-0.051
			v0.001c-14.627,0.016-26.468,3.347-26.468,7.454c0,4.106,11.841,7.438,26.468,7.454h0.051h0.051
			C397.193,457.979,409.034,454.647,409.034,450.541"/>
		<path clip-path="url(#SVGID_20_)" fill="#A2A6A6" d="M382.566,456.734h-0.102h-14.738v2.109c1.433,2.362,13.924,2.13,14.789,2.111
			c0.866,0.019,13.357,0.251,14.79-2.111v-2.109H382.566z"/>
	</g>
	<g clip-path="url(#SVGID_2_)">
		<defs>
			<rect id="SVGID_21_" width="792.998" height="640.101"/>
		</defs>
		<clipPath id="SVGID_22_">
			<use xlink:href="#SVGID_21_"  overflow="visible"/>
		</clipPath>
		<path clip-path="url(#SVGID_22_)" fill="#AEA699" d="M494.483,143.128l-111.51,4.976c-0.214,0.009-0.389,0.107-0.483,0.242
			c-0.094-0.135-0.269-0.233-0.483-0.242l-111.51-4.976c-0.359-0.016-0.653,0.212-0.626,0.485l0.761,7.387
			c0.006,0.061,0.026,0.118,0.064,0.172c0.596,0.858,5.937,8.455,10.045,10.918c0.033,0.02,0.07,0.037,0.108,0.052
			c6.814,2.643,7.047,4.286,7.047,4.286s2.786,11.215,4.179,18.298c0.836,4.249,1.114,5.848,1.204,6.447
			c0.031,0.211,0.251,0.372,0.528,0.393l33.928,2.604l54.755-0.001l54.755,0.001l33.928-2.604c0.277-0.021,0.497-0.182,0.529-0.393
			c0.089-0.599,0.367-2.198,1.202-6.447c1.394-7.083,4.18-18.298,4.18-18.298s0.233-1.643,7.047-4.286
			c0.039-0.015,0.075-0.032,0.108-0.052c4.108-2.463,9.449-10.06,10.045-10.918c0.038-0.054,0.058-0.111,0.065-0.172l0.76-7.387
			C495.136,143.34,494.842,143.112,494.483,143.128"/>
		<polygon clip-path="url(#SVGID_22_)" fill="#6C7378" points="493.085,110.889 482.313,104.105 475.998,104.105 382.565,104.105 
			382.49,104.105 382.415,104.105 288.982,104.105 282.667,104.105 271.896,110.889 269.294,131.523 270.224,145.232 
			279.324,153.43 382.415,153.43 382.565,153.43 485.656,153.43 494.757,145.232 495.686,131.523 		"/>
		<polygon clip-path="url(#SVGID_22_)" fill="#313B3B" points="486.399,141.453 382.565,141.453 382.415,141.453 278.581,141.453 
			269.109,133.291 270.078,145.62 278.86,153.431 382.49,153.43 486.121,153.431 494.902,145.62 495.871,133.291 		"/>
		<path clip-path="url(#SVGID_22_)" fill="#C6C6C4" d="M458.981,190.778h-76.416h-0.15H306c0,0,0.206-0.07-12.795-0.07
			c0.351,4.805,11.867,4.593,11.867,4.593h21.358h55.986h0.075h0.075h55.985h21.358c0,0,11.517,0.212,11.867-4.593
			C458.775,190.708,458.981,190.778,458.981,190.778"/>
	</g>
	<g clip-path="url(#SVGID_2_)">
		<defs>
			<rect id="SVGID_23_" width="792.998" height="640.101"/>
		</defs>
		<clipPath id="SVGID_24_">
			<use xlink:href="#SVGID_23_"  overflow="visible"/>
		</clipPath>
		<path clip-path="url(#SVGID_24_)" fill="#AEA699" d="M494.483,143.128l-111.51,4.976c-0.214,0.009-0.389,0.107-0.483,0.242
			c-0.094-0.135-0.269-0.233-0.483-0.242l-111.51-4.976c-0.359-0.016-0.653,0.212-0.626,0.485l0.761,7.387
			c0.006,0.061,0.026,0.118,0.064,0.172c0.596,0.858,5.937,8.455,10.045,10.918c0.033,0.02,0.07,0.037,0.108,0.052
			c6.814,2.643,7.047,4.286,7.047,4.286s2.786,11.215,4.179,18.298c0.836,4.249,1.114,5.848,1.204,6.447
			c0.031,0.211,0.251,0.372,0.528,0.393l33.928,2.604l54.755-0.001l54.755,0.001l33.928-2.604c0.277-0.021,0.497-0.182,0.529-0.393
			c0.089-0.599,0.367-2.198,1.202-6.447c1.394-7.083,4.18-18.298,4.18-18.298s0.233-1.643,7.047-4.286
			c0.039-0.015,0.075-0.032,0.108-0.052c4.108-2.463,9.449-10.06,10.045-10.918c0.038-0.054,0.058-0.111,0.065-0.172l0.76-7.387
			C495.136,143.34,494.842,143.112,494.483,143.128"/>
		<polygon clip-path="url(#SVGID_24_)" fill="#313B3B" points="486.399,141.453 382.565,141.453 382.415,141.453 278.581,141.453 
			269.109,133.291 270.078,145.62 278.86,153.431 382.49,153.43 486.121,153.431 494.902,145.62 495.871,133.291 		"/>
		<path clip-path="url(#SVGID_24_)" fill="#C6C6C4" d="M458.981,190.778h-76.416h-0.15H306c0,0,0.206-0.07-12.795-0.07
			c0.351,4.805,11.867,4.593,11.867,4.593h21.358h55.986h0.075h0.075h55.985h21.358c0,0,11.517,0.212,11.867-4.593
			C458.775,190.708,458.981,190.778,458.981,190.778"/>
		<path clip-path="url(#SVGID_24_)" fill="#6A6F72" d="M396.189,120.821c0-3.771,3.144-6.987,7.461-8.098v-8.618h-42.037v8.58
			c4.39,1.076,7.602,4.323,7.602,8.136s-3.212,7.06-7.602,8.136v12.496h42.037v-12.534
			C399.333,127.808,396.189,124.592,396.189,120.821"/>
	</g>
	<g clip-path="url(#SVGID_2_)">
		<defs>
			<rect id="SVGID_25_" width="792.998" height="640.101"/>
		</defs>
		<clipPath id="SVGID_26_">
			<use xlink:href="#SVGID_25_"  overflow="visible"/>
		</clipPath>
		<path clip-path="url(#SVGID_26_)" fill="#3B4247" d="M413.655,57.469h0.01c-0.003,0.056-0.01,0.112-0.01,0.169V57.469z"/>
		<polygon clip-path="url(#SVGID_26_)" fill="#6C7378" points="493.224,110.844 482.425,104.042 476.093,104.042 413.159,104.042 
			413.159,141.516 486.252,141.516 495.706,133.37 495.831,131.531 		"/>
		<path clip-path="url(#SVGID_26_)" fill="#3B4247" d="M454.994,57.469v0.169c0-0.057-0.007-0.113-0.01-0.169H454.994z"/>
		<path clip-path="url(#SVGID_26_)" fill="#3B4247" d="M434.324,125.463c-11.416,0-20.67-3.803-20.67-8.494V99.018V68.824
			c0,3.972,9.254,7.193,20.67,7.193c11.415,0,20.671-3.221,20.671-7.193v30.194v17.952
			C454.995,121.661,445.739,125.463,434.324,125.463"/>
		<path clip-path="url(#SVGID_26_)" fill="#3B4247" d="M434.324,76.017c-11.416,0-20.67-3.221-20.67-7.193V57.638
			c0,5.109,9.254,9.251,20.67,9.251c11.415,0,20.671-4.142,20.671-9.251v11.186C454.995,72.795,445.739,76.017,434.324,76.017"/>
		<g opacity="0.45" clip-path="url(#SVGID_26_)">
			<g>
				<defs>
					<rect id="SVGID_27_" x="413.655" y="57.638" width="41.339" height="18.378"/>
				</defs>
				<clipPath id="SVGID_28_">
					<use xlink:href="#SVGID_27_"  overflow="visible"/>
				</clipPath>
				<path clip-path="url(#SVGID_28_)" fill="#2C3033" d="M434.324,76.017c-11.416,0-20.67-3.221-20.67-7.193V57.638
					c0,5.109,9.254,9.251,20.67,9.251c11.415,0,20.671-4.142,20.671-9.251v11.186C454.995,72.795,445.739,76.017,434.324,76.017"/>
			</g>
		</g>
		<path clip-path="url(#SVGID_26_)" fill="#2C3033" d="M454.995,57.638c0-0.057-0.009-0.112-0.011-0.169
			c-0.201-5.03-9.371-9.081-20.66-9.081c-11.288,0-20.459,4.051-20.659,9.081c-0.002,0.057-0.011,0.112-0.011,0.169
			c0,5.109,9.254,9.25,20.67,9.25C445.739,66.888,454.995,62.747,454.995,57.638 M447.446,57.638
			c-0.229,2.757-6.008,4.966-13.122,4.966c-7.112,0-12.892-2.209-13.121-4.966c-0.006-0.056-0.022-0.112-0.022-0.169
			c0-2.835,5.885-5.134,13.144-5.134c7.26,0,13.145,2.299,13.145,5.134C447.469,57.526,447.451,57.582,447.446,57.638"/>
		<path clip-path="url(#SVGID_26_)" fill="#5C676E" d="M434.324,62.604c-7.112,0-12.892-2.209-13.121-4.966
			c-0.006-0.056-0.022-0.111-0.022-0.168c0-2.836,5.885-5.135,13.144-5.135c7.26,0,13.145,2.299,13.145,5.135
			c0,0.057-0.017,0.112-0.022,0.168C447.217,60.395,441.438,62.604,434.324,62.604"/>
		<path clip-path="url(#SVGID_26_)" fill="#3B4247" d="M434.324,129.379c-11.416,0-20.67-3.803-20.67-8.494v-17.953V72.739
			c0,3.972,9.254,7.193,20.67,7.193c11.415,0,20.671-3.221,20.671-7.193v30.194v17.952
			C454.995,125.576,445.739,129.379,434.324,129.379"/>
	</g>
	<g clip-path="url(#SVGID_2_)">
		<defs>
			<rect id="SVGID_29_" width="792.998" height="640.101"/>
		</defs>
		<clipPath id="SVGID_30_">
			<use xlink:href="#SVGID_29_"  overflow="visible"/>
		</clipPath>
		<path clip-path="url(#SVGID_30_)" fill="#232628" d="M301.49,117.685c0-10.837,12.19-19.622,27.227-19.622
			c15.036,0,27.226,8.785,27.226,19.622s-12.19,19.623-27.226,19.623C313.68,137.308,301.49,128.522,301.49,117.685"/>
		<path clip-path="url(#SVGID_30_)" fill="#293235" d="M305.022,117.714c0-9.564,10.608-17.317,23.694-17.317
			c13.086,0,23.694,7.753,23.694,17.317s-10.608,17.317-23.694,17.317C315.63,135.031,305.022,127.278,305.022,117.714"/>
		<path clip-path="url(#SVGID_30_)" fill="#3B4247" d="M308.511,59.822v0.166c0-0.055,0.007-0.111,0.01-0.166H308.511z"/>
		<path clip-path="url(#SVGID_30_)" fill="#3B4247" d="M329.199,67.15c-11.426,0-20.688-4.087-20.688-9.129V69.06
			c0,3.921,9.262,7.099,20.688,7.099c11.426,0,20.688-3.178,20.688-7.099V58.021C349.887,63.063,340.625,67.15,329.199,67.15"/>
		<g opacity="0.45" clip-path="url(#SVGID_30_)">
			<g>
				<defs>
					<rect id="SVGID_31_" x="308.511" y="58.021" width="41.376" height="18.138"/>
				</defs>
				<clipPath id="SVGID_32_">
					<use xlink:href="#SVGID_31_"  overflow="visible"/>
				</clipPath>
				<path clip-path="url(#SVGID_32_)" fill="#2C3033" d="M329.199,67.15c-11.426,0-20.688-4.087-20.688-9.129V69.06
					c0,3.921,9.262,7.099,20.688,7.099c11.426,0,20.688-3.178,20.688-7.099V58.021C349.887,63.063,340.625,67.15,329.199,67.15"/>
			</g>
		</g>
		<path clip-path="url(#SVGID_30_)" fill="#2C3033" d="M329.199,67.15c11.426,0,20.688-4.087,20.688-9.129
			c0-0.056-0.007-0.111-0.01-0.166c-0.201-4.965-9.379-8.964-20.678-8.964s-20.477,3.999-20.678,8.964
			c-0.003,0.055-0.01,0.11-0.01,0.166C308.511,63.063,317.773,67.15,329.199,67.15 M329.199,52.787
			c7.265,0,13.155,2.269,13.155,5.068c0,0.056-0.017,0.11-0.021,0.166c-0.23,2.721-6.015,4.901-13.134,4.901
			c-7.12,0-12.904-2.18-13.134-4.901c-0.004-0.056-0.021-0.11-0.021-0.166C316.044,55.056,321.933,52.787,329.199,52.787"/>
		<path clip-path="url(#SVGID_30_)" fill="#5C676E" d="M329.199,62.921c7.119,0,12.904-2.18,13.134-4.901
			c0.004-0.056,0.021-0.11,0.021-0.166c0-2.799-5.89-5.068-13.155-5.068c-7.266,0-13.155,2.269-13.155,5.068
			c0,0.056,0.017,0.11,0.021,0.166C316.295,60.742,322.079,62.921,329.199,62.921"/>
		<path clip-path="url(#SVGID_30_)" fill="#3B4247" d="M329.199,76.159c-11.426,0-20.688-3.178-20.688-7.099v32.018
			c0,7.464,9.262,13.515,20.688,13.515c11.426,0,20.688-6.051,20.688-13.515V69.06C349.887,72.981,340.625,76.159,329.199,76.159"/>
		<polygon clip-path="url(#SVGID_30_)" fill="#6C7378" points="356.769,103.979 288.759,103.979 282.428,103.979 271.628,110.781 
			269.022,131.468 269.146,133.307 278.6,141.453 356.769,141.453 		"/>
		<path clip-path="url(#SVGID_30_)" fill="#3B4247" d="M329.199,90.631c-11.426,0-20.688-3.178-20.688-7.099v32.018
			c0,7.464,9.262,13.515,20.688,13.515c11.426,0,20.688-6.051,20.688-13.515V83.533C349.887,87.454,340.625,90.631,329.199,90.631"
			/>
	</g>
	<g clip-path="url(#SVGID_2_)">
		<defs>
			<rect id="SVGID_33_" width="792.998" height="640.101"/>
		</defs>
		<clipPath id="SVGID_34_">
			<use xlink:href="#SVGID_33_"  overflow="visible"/>
		</clipPath>
		<path clip-path="url(#SVGID_34_)" fill="#7D847F" d="M434.677,231.709c0,11.35-23.973,20.55-53.544,20.55
			s-53.546-9.2-53.546-20.55c0-11.351,23.974-20.552,53.546-20.552S434.677,220.359,434.677,231.709"/>
		<path clip-path="url(#SVGID_34_)" fill="#383A3A" d="M437.219,218.132c-0.485-4.401-2.826-8.409-6.479-10.909
			c-0.943-0.646-1.876-1.223-2.761-1.799c-15.957-9.692-46.849-9.929-46.849-9.929s-30.888,0.237-46.845,9.929
			c-0.885,0.576-1.818,1.153-2.761,1.799c-3.656,2.5-5.996,6.508-6.48,10.909c-0.457,4.143-0.686,8.854-0.451,10.106
			c0.353,1.89,2.482,7.092,4.728,9.692c0.709-0.827,3.072-5.201,3.072-5.201l-1.012-2.149c-0.643-1.367-0.551-2.978,0.293-4.232
			c0.969-1.443,2.691-3.341,5.685-5.085c6.163-3.594,4.589-2.206,6.382-3.191c5.407-2.972,11.82-4.137,20.331-4.847
			c8.511-0.709,17.058-0.945,17.058-0.945s8.55,0.236,17.062,0.945c8.51,0.71,14.924,1.875,20.331,4.847
			c1.793,0.985,0.219-0.403,6.384,3.191c2.992,1.744,4.714,3.642,5.685,5.085c0.842,1.254,0.934,2.865,0.289,4.232l-1.01,2.149
			c0,0,2.363,4.374,3.072,5.201c2.246-2.6,4.375-7.802,4.728-9.692C437.906,226.986,437.674,222.275,437.219,218.132"/>
		<rect x="365.042" y="225.267" clip-path="url(#SVGID_34_)" fill="#383A3A" width="30.471" height="20.024"/>
		<path clip-path="url(#SVGID_34_)" fill="#585B58" d="M365.025,225.252c0,0,12.241-10.61,30.506-1.446v6.651
			c0,0-14.115-11.663-30.506,0V225.252z"/>
		<path clip-path="url(#SVGID_34_)" fill="#545554" d="M395.531,245.292c0,1.963-6.824,3.553-15.244,3.553
			c-8.419,0-15.244-1.59-15.244-3.553s6.825-3.553,15.244-3.553C388.707,241.738,395.531,243.329,395.531,245.292"/>
		<path clip-path="url(#SVGID_34_)" fill="#ED1F24" d="M380.287,228.505c-10.882,0-15.262,4.636-15.262,4.636v1.048
			c0,0,6.609-4.434,15.262-4.434c8.653,0,15.227,4.434,15.227,4.434v-1.048C395.514,233.142,391.17,228.505,380.287,228.505"/>
		<polygon clip-path="url(#SVGID_34_)" fill="#383A3A" points="354.038,267.032 348.31,269.184 327.848,261.46 325.53,256.271 
			332.549,237.682 361.055,248.442 		"/>
		<path clip-path="url(#SVGID_34_)" fill="#878986" d="M328.135,261.567l-0.408,1.08c-0.125,0.329,0.515,0.876,1.431,1.222
			l3.519,11.013l3.226,1.218l10.39-5.762c0.916,0.347,1.759,0.359,1.882,0.029l0.411-1.081L328.135,261.567z"/>
		<path clip-path="url(#SVGID_34_)" fill="#585B58" d="M332.611,237.668c0,0,15.301-5.317,28.869,9.966l-2.466,6.176
			c0,0-8.786-16.065-28.332-11.308L332.611,237.668z"/>
		<path clip-path="url(#SVGID_34_)" fill="#F6EC13" d="M345.01,247.763c-10.211-3.76-15.923-0.926-15.923-0.926
			c-0.165,0.447-0.362,0.985-0.362,0.985s7.733-1.877,15.853,1.116c8.122,2.99,12.755,9.428,12.755,9.428s0.198-0.538,0.363-0.986
			C357.696,257.38,355.223,251.528,345.01,247.763"/>
		<polygon clip-path="url(#SVGID_34_)" fill="#383A3A" points="440.186,276.119 438.293,285.172 417.493,291.935 411.206,285.542 
			398.989,247.965 427.969,238.545 		"/>
		<path clip-path="url(#SVGID_34_)" fill="#878986" d="M417.493,291.935l0.481,1.491c0.15,0.453,1.022,0.577,1.954,0.275
			l17.418-5.663c0.932-0.304,1.564-0.917,1.417-1.373l-0.484-1.488L417.493,291.935z"/>
		<path clip-path="url(#SVGID_34_)" fill="#585B58" d="M398.989,247.727c0,0,8.655-13.693,28.789-10.195l1.92,6.368
			c0,0-16.881-7.091-29.204,8.811L398.989,247.727z"/>
		<path clip-path="url(#SVGID_34_)" fill="#FFFFFF" d="M414.849,247.782c-10.279,3.569-12.896,9.384-12.896,9.384
			c0.154,0.448,0.342,0.99,0.342,0.99s4.79-6.355,12.967-9.192c8.175-2.838,15.84-0.799,15.84-0.799s-0.189-0.542-0.346-0.992
			C430.755,247.173,425.131,244.216,414.849,247.782"/>
		<polygon clip-path="url(#SVGID_34_)" fill="#383A3A" points="394.521,281.832 389.922,287.286 368.051,287.286 364.051,281.832 
			364.051,254.978 394.521,254.978 		"/>
		<path clip-path="url(#SVGID_34_)" fill="#878986" d="M368.358,287.287v2.334c0,0.712,0.793,1.291,1.771,1.291h18.316
			c0.979,0,1.771-0.579,1.771-1.291v-2.334H368.358z"/>
		<polygon clip-path="url(#SVGID_34_)" fill="#585B58" points="394.521,249.792 364.051,249.792 364.051,254.979 379.107,254.979 
			394.521,254.979 		"/>
		<rect x="364.051" y="258.148" clip-path="url(#SVGID_34_)" fill="#5464AE" width="30.47" height="1"/>
	</g>
	<g clip-path="url(#SVGID_2_)">
		<text transform="matrix(1 0 0 1 377.6147 235.7012)" fill="#FFFFFF" font-family="'Helvetica'" font-size="4.9994">4x</text>
	</g>
	<g clip-path="url(#SVGID_2_)">
		
			<text transform="matrix(0.9434 0.3317 -0.3317 0.9434 338.0205 254.2817)" fill="#FFFFFF" font-family="'Helvetica'" font-size="4.9994">10x</text>
	</g>
	<g clip-path="url(#SVGID_2_)">
		
			<text transform="matrix(0.957 -0.29 0.29 0.957 413.0576 259.4082)" fill="#FFFFFF" font-family="'Helvetica'" font-size="4.9994">100x</text>
	</g>
	<g clip-path="url(#SVGID_2_)">
		
			<text transform="matrix(0.957 -0.29 0.29 0.957 418.6846 274.0859)" fill="#FFFFFF" font-family="'Helvetica'" font-size="5.9992">OIL</text>
	</g>
	<g clip-path="url(#SVGID_2_)">
		<text transform="matrix(1 0 0 1 375.2563 267.7627)" fill="#FFFFFF" font-family="'Helvetica'" font-size="4.9994">40x</text>
	</g>
	<g clip-path="url(#SVGID_2_)">
		<defs>
			<rect id="SVGID_35_" width="792.998" height="640.101"/>
		</defs>
		<clipPath id="SVGID_36_">
			<use xlink:href="#SVGID_35_"  overflow="visible"/>
		</clipPath>
	</g>
	<g clip-path="url(#SVGID_2_)">
		<defs>
			<rect id="SVGID_37_" width="792.998" height="640.101"/>
		</defs>
		<clipPath id="SVGID_38_">
			<use xlink:href="#SVGID_37_"  overflow="visible"/>
		</clipPath>
	</g>
	<g clip-path="url(#SVGID_2_)">
		<defs>
			<rect id="SVGID_39_" width="792.998" height="640.101"/>
		</defs>
		<clipPath id="SVGID_40_">
			<use xlink:href="#SVGID_39_"  overflow="visible"/>
		</clipPath>
	</g>
	<g clip-path="url(#SVGID_2_)">
		<defs>
			<rect id="SVGID_41_" width="792.998" height="640.101"/>
		</defs>
		<clipPath id="SVGID_42_">
			<use xlink:href="#SVGID_41_"  overflow="visible"/>
		</clipPath>
	</g>
	<g clip-path="url(#SVGID_2_)">
		<defs>
			<rect id="SVGID_43_" width="792.998" height="640.101"/>
		</defs>
		<clipPath id="SVGID_44_">
			<use xlink:href="#SVGID_43_"  overflow="visible"/>
		</clipPath>
	</g>
	<g clip-path="url(#SVGID_2_)">
		<defs>
			<rect id="SVGID_45_" width="792.998" height="640.101"/>
		</defs>
		<clipPath id="SVGID_46_">
			<use xlink:href="#SVGID_45_"  overflow="visible"/>
		</clipPath>
	</g>
	<g clip-path="url(#SVGID_2_)">
		<defs>
			<rect id="SVGID_47_" width="792.998" height="640.101"/>
		</defs>
		<clipPath id="SVGID_48_">
			<use xlink:href="#SVGID_47_"  overflow="visible"/>
		</clipPath>
		<path clip-path="url(#SVGID_48_)" fill="#121311" d="M326.924,477.184L326.924,477.184c-3.334-0.465-5.683-3.571-5.219-6.905
			l1.414-10.171c0.464-3.334,3.571-5.684,6.905-5.22c3.334,0.465,5.683,3.571,5.219,6.905l-1.414,10.171
			C333.365,475.298,330.258,477.648,326.924,477.184"/>
		
			<line clip-path="url(#SVGID_48_)" fill="none" stroke="#FFFFFF" stroke-width="0.5" stroke-miterlimit="10" x1="323.679" y1="472.531" x2="331.617" y2="473.634"/>
		
			<line clip-path="url(#SVGID_48_)" fill="none" stroke="#FFFFFF" stroke-width="0.5" stroke-miterlimit="10" x1="324.479" y1="469.767" x2="331.479" y2="470.74"/>
		
			<line clip-path="url(#SVGID_48_)" fill="none" stroke="#FFFFFF" stroke-width="0.5" stroke-miterlimit="10" x1="325.471" y1="461.311" x2="332.471" y2="462.286"/>
		
			<line clip-path="url(#SVGID_48_)" fill="none" stroke="#FFFFFF" stroke-width="0.5" stroke-miterlimit="10" x1="325.331" y1="458.438" x2="333.269" y2="459.542"/>
		
			<line clip-path="url(#SVGID_48_)" fill="none" stroke="#FFFFFF" stroke-width="0.5" stroke-miterlimit="10" x1="325.261" y1="467.001" x2="331.362" y2="467.85"/>
		
			<line clip-path="url(#SVGID_48_)" fill="none" stroke="#FFFFFF" stroke-width="0.5" stroke-miterlimit="10" x1="325.591" y1="464.183" x2="331.692" y2="465.031"/>
	</g>
	<g clip-path="url(#SVGID_2_)">
		
			<text transform="matrix(0.9845 0.1756 -0.1756 0.9845 312.6089 459.8647)" fill="#FFFFFF" font-family="'Avenir-Black'" font-size="3.392">ON</text>
	</g>
	<g clip-path="url(#SVGID_2_)">
		
			<text transform="matrix(0.9845 0.1756 -0.1756 0.9845 310.0259 470.7749)" fill="#FFFFFF" font-family="'Avenir-Black'" font-size="3.392">OFF</text>
	</g>
	<g clip-path="url(#SVGID_2_)">
		<defs>
			<rect id="SVGID_49_" width="792.998" height="640.101"/>
		</defs>
		<clipPath id="SVGID_50_">
			<use xlink:href="#SVGID_49_"  overflow="visible"/>
		</clipPath>
		<g opacity="0.7" clip-path="url(#SVGID_50_)">
			<g>
				<defs>
					<rect id="SVGID_51_" x="179.768" y="260.596" width="405.813" height="379.151"/>
				</defs>
				<clipPath id="SVGID_52_">
					<use xlink:href="#SVGID_51_"  overflow="visible"/>
				</clipPath>
				<g opacity="0.93" clip-path="url(#SVGID_52_)">
					<g>
						<defs>
							<rect id="SVGID_53_" x="179.768" y="260.596" width="405.813" height="379.151"/>
						</defs>
						<clipPath id="SVGID_54_">
							<use xlink:href="#SVGID_53_"  overflow="visible"/>
						</clipPath>
					</g>
				</g>
				<g clip-path="url(#SVGID_52_)">
					<g>
						<defs>
							<rect id="SVGID_55_" x="310.238" y="397.155" width="144.904" height="105.422"/>
						</defs>
						<clipPath id="SVGID_56_">
							<use xlink:href="#SVGID_55_"  overflow="visible"/>
						</clipPath>
					</g>
				</g>
			</g>
		</g>
	</g>
	<g clip-path="url(#SVGID_2_)">
		<defs>
			<rect id="SVGID_57_" width="792.998" height="640.101"/>
		</defs>
		<clipPath id="SVGID_58_">
			<use xlink:href="#SVGID_57_"  overflow="visible"/>
		</clipPath>
		<path clip-path="url(#SVGID_58_)" fill="#4F5251" d="M423.727,428.355L423.727,428.355v-42.591c4.801,0,8.73,0,8.73,8.73v25.129
			C432.457,428.355,428.527,428.355,423.727,428.355"/>
		<rect x="421.438" y="385.763" clip-path="url(#SVGID_58_)" fill="#404040" width="2.288" height="42.591"/>
		<path clip-path="url(#SVGID_58_)" fill="#4F5251" d="M341.408,428.355L341.408,428.355v-42.591c-4.802,0-8.731,0-8.731,8.73
			v25.129C332.677,428.355,336.605,428.355,341.408,428.355"/>
		<rect x="341.407" y="385.763" clip-path="url(#SVGID_58_)" fill="#404040" width="2.288" height="42.591"/>
	</g>
	<g clip-path="url(#SVGID_2_)">
		<defs>
			<rect id="SVGID_59_" width="792.998" height="640.101"/>
		</defs>
		<clipPath id="SVGID_60_">
			<use xlink:href="#SVGID_59_"  overflow="visible"/>
		</clipPath>
		<path clip-path="url(#SVGID_60_)" fill="#252626" d="M432.488,419.897L432.488,419.897v-25.676c4.217,0,7.667,0,7.667,7.288v11.1
			C440.03,419.897,436.705,419.897,432.488,419.897"/>
		<path clip-path="url(#SVGID_60_)" fill="#252626" d="M332.708,419.897L332.708,419.897v-25.676c-4.217,0-7.666,0-7.666,7.288v11.1
			C325.166,419.897,328.491,419.897,332.708,419.897"/>
	</g>
</g>
<path fill="#DFF3FD" d="M494.667,305.601"/>
<polygon fill="#9CACB5" points="427.865,302.813 432.5,320.05 344.684,320.05 350.745,302.813 "/>
</svg>
