<?xml version="1.0" encoding="utf-8"?>
<!-- Generator: Adobe Illustrator 19.2.1, SVG Export Plug-In . SVG Version: 6.00 Build 0)  -->
<svg version="1.1" id="body" xmlns="http://www.w3.org/2000/svg" xmlns:xlink="http://www.w3.org/1999/xlink" x="0px" y="0px"
	 viewBox="0 0 793 640.1" style="enable-background:new 0 0 793 640.1;" xml:space="preserve">
<style type="text/css">
	.st0{fill:#E6DFD5;}
	.st1{fill:none;}
	.st2{fill:#BCB6AF;}
	.st3{fill:#ADA598;}
	.st4{fill:#D7D0C8;}
	.st5{fill:#9D9C9A;}
	.st6{fill:#BCB5AD;}
	.st7{fill:#C4BEB7;}
	.st8{fill:#373A3A;}
	.st9{fill:#53545B;}
	.st10{fill:#9C9EA3;}
	.st11{fill:#5C655F;}
	.st12{fill:#353A38;}
	.st13{fill:#1E2E31;}
	.st14{fill:#767D73;}
	.st15{fill:#47493F;}
	.st16{fill:#909385;}
	.st17{fill:#62645D;}
	.st18{fill:#161B1B;}
	.st19{fill:#313737;}
	.st20{fill:#0F1111;}
	.st21{fill:#1D2526;}
	.st22{fill:#2A302F;}
	.st23{fill:#494C4C;}
	.st24{fill:#0E1414;}
	.st25{fill:#394441;}
	.st26{fill:#394E9E;}
	.st27{fill:#172149;}
	.st28{fill:#546EB4;}
	.st29{fill:#29322B;}
	.st30{fill:#141716;}
	.st31{fill:#231F20;stroke:#6D6E71;stroke-width:0.25;stroke-miterlimit:10;}
	.st32{fill:#999999;}
	.st33{fill:#59595A;}
	.st34{fill:#101919;}
	.st35{fill:#A5ACAA;}
	.st36{fill:#252D2A;}
	.st37{fill:#162120;}
	.st38{fill:#5F6A66;}
	.st39{fill:#122121;}
	.st40{fill:#7B807B;}
	.st41{fill:#151D17;}
	.st42{fill:#585B5A;}
	.st43{opacity:0.46;fill:#5A665E;enable-background:new    ;}
	.st44{fill:#4B5A55;}
	.st45{fill:#17211D;}
	.st46{fill:#BCBDAF;}
	.st47{fill:#2F3124;}
	.st48{fill:#505555;}
	.st49{fill:#2C3333;}
	.st50{fill:#414A43;}
	.st51{fill:#151A1A;}
	.st52{fill:#838C85;}
</style>
<title>sideview2</title>
<path class="st0" d="M534.7,529.4c0,0-12.6-11.8-13.6-14.2l-20.6-47.7c-0.6-1.4-1.9-2.5-3.4-2.8l0,0H497c-0.6-0.1-1.1-0.1-1.7,0
	h-9.1v-13.3H344.9v-0.3c-5.9-0.8-10.1-6.3-9.2-12.2c0-0.1,0-0.1,0-0.2h-0.1v-29.5h-4.4V270.9c1.3-7.5,6-14,12.9-17.3l38.6-14
	L517.3,189c0,0-2.3-9.2-5.1-11c-2.8-1.8-10-1.6-10-1.6v-15.5l3.3-3.8l20.3-20.4l7.6-7.5l-5.6-9.3l-8.2-10l-5.8-6.5l-10.7-11.5
	l-10.8-11.7l-8-5.7L462.6,96l0.1,0.1L418.3,141l-9.1,14.4l0.5,16.2l-144.2,53.1c-1.1,0.4-13.7,7.3-13.7,13.4v5.7h-15.4l-1.9-8.1
	v-2.9c0-1.1-0.9-2-2-2h-11.3c-1.1,0-2,0.9-2,2v34.9c0,1.1,0.9,2,2,2h5.8v0.7l1-0.6h0.2l16.5,24.9h7.1v82.6l-19.1,31.2h-6.6
	c-2.2,0-4,1.8-4,4v30.3c0,2.2,1.8,4,4,4h0.7l10.8-13.5l0.2,0h14V530c0,0.9,0.1,1.7,0.3,2.6c-4.6,2.6-9.2,3-11.4,7.8
	c-1.4,3.1-1.3,10.1-1.3,13.7v26.1c0,13.6,11.1,24.7,24.7,24.7h270.6c13.6,0,24.7-11.1,24.7-24.7v-26.1
	C559.4,545.2,548.3,529.4,534.7,529.4z"/>
<line class="st1" x1="336.6" y1="410.2" x2="333.6" y2="410.2"/>
<path class="st2" d="M332.1,271.9c1.3-7.5,6-14,12.9-17.3l38.6-14L518.3,190l-3-6.5l-134.6,50.6l-38.6,14
	c-6.8,3.4-11.6,9.8-12.9,17.3v138.3h3V271.9z"/>
<path class="st3" d="M440.7,142.1c3.2,0,3.2-5,0-5S437.5,142.1,440.7,142.1L440.7,142.1z"/>
<polygon class="st4" points="502.2,171 502.2,160.9 505.5,157.1 525.8,136.7 533.3,129.2 527.8,119.9 519.6,109.9 513.8,103.4 
	503.1,91.9 492.3,80.2 484.3,74.5 462.6,96 462.8,96.1 418.3,141 409.2,155.4 409.7,171 "/>
<polygon class="st5" points="409.6,168.4 409.7,171 502.2,171 502.2,168.4 "/>
<path class="st6" d="M228.3,414.4c-1.5,0-3.7,1.4-3.7,3v23.1c-0.1,1.6,1.1,2.9,2.7,3h0.5l0.2-9.4l0.4-12L228.3,414.4L228.3,414.4z"
	/>
<path class="st6" d="M251.8,433.1c0-1.5-1.3-3.7-2.8-3.7h-21.2c-1.5,0-2.8,1.2-2.8,2.7v0.8l19.6,0.2H251.8L251.8,433.1z"/>
<path class="st7" d="M232.2,235.8h-4.1c-2,0-3.6,1.6-3.6,3.6l0,0v32.9c0,0.6,0.4,1,1,1h0.9c0.6,0,1-0.4,1-1v-23.6
	c0-1.5,1.2-2.7,2.7-2.7h2.1c1.4,0,3.7,0.1,3.7-1.3l-1.1-6.3C234.8,236.9,233.7,235.8,232.2,235.8z"/>
<path class="st8" d="M532.2,503.3c-0.4-1.2-0.9-2.4-1.6-3.6l-11.4-18.4c-2.2-3.6-5.9-6.2-10-7.1l-0.1-0.4l-11.1-3.9
	c6.6,12.5,13.9,27.2,14.4,28.2l9.1,16.1c0.5,0.9,0.7,2,0.5,3.1c-0.5,2.7-2.4,4-5.6,4h-0.5l-130.2-15.8c0.3-2.2,1.3-4.2,2.7-5.9
	H263.6c-5.4,0-10,3.6-11.4,8.8c-0.8,2.9-10.2,22.2-10.4,22.9c-1,4.8-1.9,10.2-0.3,12.6c3.1,4.5,11.4,3,15.5,3h60.4l19.3,1.2
	l182.6,21.5h28.1c6.6-0.1,11.9-5.4,11.9-12v-4.5c0-3.6-1-7.2-2.9-10.3L532.2,503.3z"/>
<path class="st9" d="M565.1,44.8c-7.8-8.2-17.3-11.9-21.2-8.1l-35.6,34.9l28.9,29.6l35.6-35.6C575.7,61.5,572.4,52.5,565.1,44.8z"/>
<polygon class="st10" points="508.3,71.5 502.4,66.9 495.8,62.1 478.2,80.6 528.7,133.8 545.9,117.2 538.4,105.9 537.2,101.2 
	521.1,84.7 "/>
<rect x="390.2" y="339.9" class="st10" width="100.9" height="24.3"/>
<polygon class="st11" points="390.2,321.5 325.4,321.5 330.7,312.9 390.2,312.9 "/>
<polygon class="st12" points="325.4,321.5 325.4,409.3 375.8,409.3 375.8,394.1 390.2,394.1 390.2,321.5 "/>
<rect x="349.2" y="326.4" class="st13" width="183.8" height="13.5"/>
<polygon class="st14" points="352.4,309.4 503.4,309.4 532.9,326.4 349.2,326.4 "/>
<polygon class="st15" points="315.8,417.4 317.2,415.7 317.1,415.5 314,408.1 313.9,407.9 312.1,407.8 312.7,406 312.5,405.8 
	306.8,400.2 306.6,400 304.5,400.7 304.4,398.5 304.1,398.4 296.7,395.4 296.4,395.3 295.1,396.5 294.3,394.9 294,394.9 286,394.9 
	285.7,394.9 284.7,396.8 283.1,395.4 282.8,395.5 275.5,398.6 275.2,398.8 275.1,400.6 273.4,400 273.2,400.2 267.5,405.8 
	267.3,406 268,408.1 265.8,408.3 265.7,408.6 262.7,416 262.6,416.2 263.8,417.6 262.2,418.4 262.2,418.7 262.2,426.7 262.2,426.9 
	264.2,427.9 262.7,429.6 262.8,429.9 266,437.2 266.1,437.5 267.9,437.6 267.3,439.3 267.5,439.5 273.2,445.1 273.4,445.3 
	275.4,444.6 275.6,446.8 275.9,446.9 283.3,449.9 283.5,450 284.9,448.8 285.7,450.5 286,450.5 294,450.5 294.3,450.5 295.2,448.5 
	296.9,449.9 297.2,449.8 304.5,446.7 304.8,446.6 304.9,444.8 306.6,445.3 306.8,445.1 312.5,439.5 312.7,439.3 312,437.2 
	314.2,437 314.3,436.8 317.3,429.4 317.4,429.1 316.2,427.8 317.8,426.9 317.8,426.7 317.8,418.7 317.8,418.4 "/>
<polygon class="st16" points="392.1,511.3 392.1,508.2 392.1,507.9 390.1,507.2 391.6,505.9 391.4,505.6 388.3,499.8 388.2,499.6 
	386.4,499.6 387,498.2 386.8,498 381.1,493.6 380.9,493.4 378.8,494 378.7,492.2 378.4,492.1 371,489.8 370.8,489.7 369.4,490.7 
	368.6,489.4 368.3,489.4 360.3,489.4 360,489.4 359,490.9 357.4,489.8 357.1,489.9 349.8,492.3 349.5,492.4 349.4,493.9 
	347.7,493.4 347.5,493.6 341.8,498 341.6,498.2 342.3,499.8 340.1,500 340,500.2 337,506 336.9,506.2 338.1,507.3 336.5,507.9 
	336.5,508.2 336.5,511.3 "/>
<polygon class="st17" points="372.5,511.3 372.5,510.1 372.5,510.1 371.9,509.8 372.3,509.3 372.3,509.2 371.4,507 371.3,507 
	370.8,506.9 371,506.4 370.9,506.4 369.3,504.7 369.2,504.7 368.6,504.9 368.5,504.2 368.5,504.2 366.3,503.3 366.2,503.3 
	365.8,503.6 365.6,503.1 365.5,503.1 363.1,503.1 363,503.1 362.8,503.7 362.3,503.3 362.2,503.3 360,504.3 359.9,504.3 
	359.9,504.8 359.4,504.7 359.3,504.7 357.7,506.4 357.6,506.4 357.8,507 357.2,507.1 357.2,507.2 356.3,509.3 356.2,509.4 
	356.6,509.8 356.1,510.1 356.1,510.1 356.1,511.3 "/>
<polygon class="st18" points="303.3,420 304,419.1 304,419 302.4,415.2 302.3,415 301.4,415 301.7,414.1 301.6,414 298.7,411.1 
	298.6,411 297.5,411.3 297.4,410.2 297.3,410.2 293.4,408.6 293.3,408.6 292.6,409.2 292.2,408.3 292,408.3 287.9,408.3 
	287.8,408.3 287.3,409.4 286.4,408.6 286.3,408.7 282.5,410.3 282.4,410.3 282.3,411.3 281.4,411 281.3,411.1 278.4,414 
	278.3,414.1 278.7,415.2 277.5,415.3 277.5,415.4 275.9,419.2 275.9,419.3 276.5,420 275.7,420.5 275.7,420.6 275.7,424.7 
	275.7,424.9 276.7,425.4 275.9,426.2 276,426.4 277.6,430.2 277.7,430.3 278.6,430.4 278.3,431.2 278.4,431.3 281.3,434.2 
	281.4,434.4 282.5,434 282.6,435.1 282.7,435.2 286.5,436.7 286.7,436.8 287.4,436.2 287.8,437 287.9,437 292,437 292.2,437 
	292.7,436 293.6,436.7 293.7,436.7 297.5,435.1 297.6,435 297.7,434.1 298.6,434.4 298.7,434.2 301.6,431.3 301.7,431.2 
	301.3,430.2 302.4,430.1 302.5,429.9 304,426.1 304.1,426 303.5,425.3 304.3,424.9 304.3,424.7 304.3,420.6 304.3,420.5 "/>
<circle class="st19" cx="289.9" cy="422.6" r="1.9"/>
<polygon class="st20" points="290.9,422.4 290.3,422.4 290.3,421.7 289.6,421.7 289.6,422.4 289,422.4 289,423 289.6,423 
	289.6,423.6 290.3,423.6 290.3,423 290.9,423 "/>
<path class="st21" d="M401.8,358.8h-11.7v50.3h-14.4v22.1h7.7v2.9h6.7v3.4h11.7v-59.1c0-4.3,3.5-7.8,7.8-7.8h17.8v-11.7H401.8z"/>
<path class="st21" d="M452.1,355.5c-21.5,0-39,3-39,6.8v11.4c0,2.8,17.5,5.1,39,5.1s39-2.3,39-5.1v-11.4
	C491.1,358.6,473.6,355.5,452.1,355.5z"/>
<path class="st22" d="M424.9,357.7v3.8c0,1.5,12.8,2.7,28.7,2.7s28.7-1.2,28.7-2.7v-3.8H424.9z"/>
<rect x="424.9" y="356.4" class="st23" width="57.4" height="1.3"/>
<polygon class="st24" points="475,349.4 462.4,349.4 458,349.4 449.2,349.4 434.4,349.4 432.3,349.4 424.9,356.4 434.4,356.4 
	449.2,356.4 458,356.4 462.4,356.4 482.3,356.4 "/>
<polygon class="st24" points="468.2,344.6 459.6,344.6 456.6,344.6 450.6,344.6 440.5,344.6 439,344.6 434,349.4 440.5,349.4 
	450.6,349.4 456.6,349.4 459.6,349.4 473.2,349.4 "/>
<path class="st25" d="M490.2,373.4h-77.2v4.4l5.7,6.4h68.9c1.8,0.1,3.3-1.4,3.4-3.2c0,0,0,0,0,0v-7.5H490.2z"/>
<path class="st26" d="M430,384.1v8.6c0,3.3,10.6,6,23.6,6s23.6-2.7,23.6-6v-8.6H430z"/>
<path class="st27" d="M453.6,388.8c-8.8,0-17-0.2-23.6-0.6v2.9c0,1.1,10.6,2,23.6,2s23.6-0.9,23.6-2v-2.9
	C470.5,388.6,462.4,388.8,453.6,388.8z"/>
<path class="st28" d="M453.6,393c-13,0-23.6-0.9-23.6-2v1.7c0,3.3,10.6,6,23.6,6s23.6-2.7,23.6-6V391
	C477.2,392.1,466.6,393,453.6,393z"/>
<polygon points="393.6,392.7 394.6,391.4 394.6,391.2 392.2,385.6 392.1,385.4 390.7,385.3 391.1,384 391,383.9 386.7,379.6 
	386.5,379.4 385,379.9 384.8,378.3 384.6,378.2 379,375.9 378.8,375.8 377.7,376.7 377.1,375.5 376.9,375.5 370.8,375.5 
	370.6,375.5 369.9,377 368.6,375.9 368.4,376 362.8,378.4 362.6,378.5 362.5,379.8 361.2,379.4 361,379.6 356.7,383.9 356.6,384 
	357.1,385.6 355.4,385.7 355.4,385.9 353.1,391.6 353,391.8 353.9,392.8 352.7,393.4 352.7,393.6 352.7,399.7 352.7,399.9 
	354.2,400.7 353.1,402 353.2,402.2 355.5,407.8 355.6,408 357,408.1 356.6,409.4 356.7,409.5 361,413.8 361.2,414 362.8,413.4 
	362.9,415.1 363.1,415.2 368.7,417.5 368.9,417.6 370,416.6 370.6,417.9 370.8,417.9 376.9,417.9 377.1,417.9 377.9,416.4 
	379.1,417.5 379.3,417.4 384.9,415 385.1,414.9 385.2,413.5 386.5,414 386.7,413.8 391,409.5 391.1,409.4 390.6,407.8 392.3,407.6 
	392.4,407.4 394.6,401.8 394.7,401.6 393.8,400.6 395,399.9 395,399.7 395,393.6 395,393.4 "/>
<circle class="st29" cx="373.9" cy="396.7" r="18"/>
<circle class="st30" cx="373.9" cy="396.7" r="14.8"/>
<circle class="st19" cx="373.9" cy="396.7" r="2.4"/>
<rect x="373.6" y="378.7" class="st31" width="0.5" height="16.8"/>
<polygon class="st20" points="375.1,396.3 374.3,396.3 374.3,395.5 373.5,395.5 373.5,396.3 372.6,396.3 372.6,397.1 373.5,397.1 
	373.5,397.9 374.3,397.9 374.3,397.1 375.1,397.1 "/>
<ellipse transform="matrix(0.9172 -0.3984 0.3984 0.9172 -50.0542 208.4766)" class="st32" cx="476.6" cy="224.7" rx="43.6" ry="14.9"/>
<rect x="437.6" y="226.6" class="st33" width="27.6" height="19"/>
<rect x="489.3" y="205.9" transform="matrix(0.7243 -0.6895 0.6895 0.7243 -9.4731 407.0324)" class="st33" width="29.8" height="18.9"/>
<path class="st33" d="M462.6,227.3l6.8,12.8c7-7.8,16.6-12.9,27-14.4l-6.8-12.8C478.9,213.5,469.1,218.8,462.6,227.3z"/>
<polygon class="st34" points="464,240.8 475.1,268.8 480.6,275.5 501.3,267.3 500.8,258.7 489.7,230.6 "/>
<rect x="480.2" y="271.3" transform="matrix(0.9299 -0.3678 0.3678 0.9299 -65.7215 199.815)" class="st35" width="22.2" height="2.1"/>
<rect x="461.5" y="227.8" transform="matrix(0.9299 -0.3678 0.3678 0.9299 -51.9725 191.0858)" class="st36" width="27.6" height="8.2"/>
<path class="st37" d="M499.3,231.8l12.5,13.1c8-5.9,15.2-12.8,21.6-20.5l-12.4-13.1L499.3,231.8z"/>
<rect x="492.9" y="214.8" transform="matrix(0.7243 -0.6895 0.6895 0.7243 -11.0579 410.4963)" class="st38" width="29.8" height="8.6"/>
<path class="st39" d="M480.1,227.6c-7.5,4-12.7,8.7-11.7,10.6l6.1,11.5l6.5,12.2l3.1,5.7l27-14.4l-3.1-5.7l-6.5-12.2l-6.1-11.5
	C494.4,221.9,487.6,223.6,480.1,227.6z"/>
<path class="st40" d="M494.9,255.4c-7.5,4-12.3,9.4-10.9,12.1l16.4,7.9l2.6-1.4l2.7-1.4l2.6-1.4l2.6-18
	C509.6,250.4,502.4,251.4,494.9,255.4z"/>
<ellipse transform="matrix(0.8825 -0.4704 0.4704 0.8825 -69.2301 269.3795)" class="st41" cx="504.4" cy="273.2" rx="4.5" ry="1.2"/>
<path class="st42" d="M464.9,231.6l4.5,8.5c7.7-6.8,17-11.8,27-14.4l-4.5-8.5C481.7,219.3,472.3,224.3,464.9,231.6z"/>
<polygon class="st34" points="437.6,245.5 437.6,279.5 440.2,288.7 462.5,288.7 465.2,279.5 465.2,245.5 "/>
<rect x="441.7" y="288.7" class="st35" width="19.2" height="4.8"/>
<polygon class="st43" points="456.2,293.4 451.6,293.4 451.2,293.4 449.3,293.4 444.3,293.4 445.3,295.3 449.3,295.3 451.2,295.3 
	451.6,295.3 455.1,295.3 457.4,295.3 458.5,293.4 "/>
<rect x="437.6" y="237.3" class="st44" width="27.6" height="8.2"/>
<path class="st40" d="M516.6,190.1l-0.3-0.8l-0.1-0.2l-0.1-0.2c-0.8,0.1-1.6,0.3-2.3,0.6l-82.1,32.5c-0.8,0.2-1.5,0.6-2.1,1.1
	l0.1,0.2l0.1,0.2l0.3,0.8L516.6,190.1z"/>
<path class="st45" d="M426.4,225.8l3.1,7.8l0.7,1.9l0.7,1.9c0.5,1.3,2,1.9,3.3,1.4l89.2-35.4c1.3-0.5,2-1.9,1.5-3.2l-0.7-1.9
	l-0.8-1.8l-3.1-7.8L426.4,225.8z"/>
<polygon class="st46" points="411.7,452.2 365.4,452.2 365.4,471.4 415.1,471.4 "/>
<rect x="368.2" y="453" class="st47" width="4.3" height="16.9"/>
<rect x="376.6" y="453" class="st47" width="4.3" height="16.9"/>
<rect x="385" y="453" class="st47" width="4.3" height="16.9"/>
<rect x="393.4" y="453" class="st47" width="4.3" height="16.9"/>
<rect x="401.8" y="453" class="st47" width="4.3" height="16.9"/>
<path class="st48" d="M492.2,473.5l2.5-1.7V468l0,0c0-0.1,0-0.2,0-0.2l-10-17.7c-0.9-1.8-2.7-3-4.8-3.1h-67c-2.3,0-4,2.3-3.6,4.8
	l2.5,16c0,3.2,2.2,5.8,4.8,5.8L492.2,473.5L492.2,473.5z"/>
<path class="st49" d="M494.7,468c0,0,0-0.1,0-0.1H416c-0.4-0.3-0.8-0.7-1.1-1.2l0,0c-0.5-3-1.7-11-1.7-11l-0.2-1.3l-0.4-2.6
	c0-0.1,0-0.2,0-0.3l-0.6-4.3c-1.8,0.7-2.9,2.7-2.5,4.6c0,0,2.5,16.1,2.5,16.1l0,0c0,1.5,0.5,2.9,1.4,4l0.1,0.1
	c0.2,0.2,0.4,0.4,0.6,0.6c0.1,0.1,0.2,0.1,0.2,0.2c0.2,0.1,0.4,0.3,0.6,0.4c0.2,0.1,0.3,0.1,0.5,0.2c0.1,0.1,0.3,0.1,0.4,0.2
	c0.3,0.1,0.7,0.1,1,0.1h75.5l2.5-1.7L494.7,468L494.7,468L494.7,468z"/>
<path class="st48" d="M492.3,463.9l2.4-1.5V459l0,0c0-0.1,0-0.2,0-0.2L485,443c-1-1.6-2.7-2.7-4.6-2.7h-65.5c-2,0-3.6,1.7-3.6,3.7
	c0,0.2,0,0.4,0.1,0.6l2.4,14.2c-0.1,2.7,2,5,4.7,5.1L492.3,463.9L492.3,463.9z"/>
<path class="st49" d="M494.7,459c0,0,0-0.1,0-0.1h-77c-0.4-0.3-0.8-0.6-1.1-1l0,0c-0.5-2.7-1.7-9.8-1.7-9.8l-0.2-1.2l-0.4-2.3
	c0-0.1,0-0.2,0-0.3l-0.6-3.8c-1.7,0.6-2.8,2.3-2.5,4.1c0,0,2.4,14.3,2.4,14.3l0,0c0,1.3,0.5,2.6,1.4,3.5l0.1,0
	c0.2,0.2,0.4,0.4,0.6,0.6l0.2,0.1c0.2,0.1,0.4,0.2,0.6,0.3c0.2,0.1,0.3,0.1,0.5,0.2c0.4,0.2,0.9,0.3,1.4,0.2h73.8l2.4-1.5L494.7,459
	L494.7,459L494.7,459z"/>
<path class="st48" d="M492.3,456.8l2.4-1.5v-3.4l0,0c0-0.1,0-0.2,0-0.2l-9.6-15.7c-0.9-1.6-2.7-2.7-4.6-2.7h-64.3
	c-2,0-3.6,1.7-3.5,3.7c0,0.2,0,0.4,0.1,0.6l2.4,14.2c-0.1,2.7,1.9,5,4.6,5.1H492.3z"/>
<path class="st49" d="M494.7,451.9c0,0,0-0.1,0-0.1h-75.6c-0.4-0.3-0.8-0.6-1-1l0,0c-0.5-2.7-1.6-9.8-1.6-9.8l-0.2-1.2l-0.4-2.3
	c0-0.1,0-0.2,0-0.3l-0.6-3.8c-1.7,0.6-2.7,2.3-2.4,4.1c0,0,2.4,14.3,2.4,14.3l0,0c0,1.3,0.5,2.6,1.4,3.5l0.1,0
	c0.2,0.2,0.4,0.4,0.6,0.6l0.2,0.1c0.2,0.1,0.4,0.2,0.6,0.3c0.1,0.1,0.3,0.1,0.5,0.2c0.4,0.2,0.9,0.3,1.3,0.2h72.5l2.4-1.5
	L494.7,451.9L494.7,451.9L494.7,451.9z"/>
<path class="st50" d="M482.9,438.5c0,7.3-13.5,11.5-29.3,11.5s-28.2-4.2-28.2-11.5v-3.9c0-6.7,15.4-9.3,28.8-9.3s24.2,3.7,27.6,9.3
	C482.5,435.7,482.9,437.1,482.9,438.5z"/>
<ellipse class="st51" cx="455.6" cy="437" rx="26.6" ry="6.5"/>
<path class="st49" d="M452.1,430.6h2.9c12.4,0.1,22.9,1.7,26.7,4v-4c0-3-12.6-5.5-28.2-5.5s-28.2,2.5-28.2,5.5v4
	C429.2,432.4,439.7,430.7,452.1,430.6z"/>
<ellipse class="st52" cx="455.6" cy="439.1" rx="23.1" ry="5.6"/>
<path class="st49" d="M458.2,445.9h-3c-12.8-0.2-23.6-2.4-27.5-5.4v5.4c0,4.2,13,4.9,29,4.9s29-0.7,29-4.9v-5.4
	C481.8,443.5,471,445.7,458.2,445.9z"/>
</svg>
