<?xml version="1.0" encoding="utf-8"?>
<!-- Generator: Adobe Illustrator 19.2.1, SVG Export Plug-In . SVG Version: 6.00 Build 0)  -->
<svg version="1.1" id="microscopeSide" xmlns="http://www.w3.org/2000/svg" xmlns:xlink="http://www.w3.org/1999/xlink" x="0px"
	 y="0px" viewBox="0 0 793 640.1" style="enable-background:new 0 0 793 640.1;" xml:space="preserve">
<style type="text/css">
	.st0{fill:#E6DFD5;}
	.st1{fill:none;}
	.st2{fill:#BCB6B0;}
	.st3{fill:#ADA598;}
	.st4{fill:#D7D0C8;}
	.st5{fill:#9C9C9A;}
	.st6{fill:#BCB5AD;}
	.st7{fill:#C4BEB7;}
	.st8{fill:#373A3A;}
	.st9{fill:#54555C;}
	.st10{fill:#9C9EA3;}
	.st11{fill:#5D6660;}
	.st12{fill:#363B39;}
	.st13{fill:#1E2E31;}
	.st14{fill:#777E73;}
	.st15{fill:#BCBDAF;}
	.st16{fill:#2F3124;}
	.st17{fill:#494A40;}
	.st18{fill:#919486;}
	.st19{fill:#63655E;}
	.st20{fill:#161B1B;}
	.st21{fill:#323737;}
	.st22{fill:#111314;}
	.st23{fill:#1E2526;}
	.st24{fill:#2A302F;}
	.st25{fill:#4A4D4E;}
	.st26{fill:#101516;}
	.st27{fill:#394542;}
	.st28{fill:#394F9F;}
	.st29{fill:#162249;}
	.st30{fill:#546FB5;}
	.st31{fill:#010101;}
	.st32{fill:#29322C;}
	.st33{fill:#151817;}
	.st34{fill:#989998;}
	.st35{fill:#5A5B5B;}
	.st36{fill:#111A1A;}
	.st37{fill:#A7ACAA;}
	.st38{fill:#252D2A;}
	.st39{fill:#162120;}
	.st40{fill:#606B67;}
	.st41{fill:#132221;}
	.st42{fill:#7D807C;}
	.st43{fill:#161E18;}
	.st44{fill:#5A5D5B;}
	.st45{opacity:0.46;}
	.st46{fill:#5B675F;}
	.st47{fill:#4C5B56;}
	.st48{fill:#17211D;}
</style>
<g id="frameSide">
	<path class="st0" d="M520.4,500.3c0,0-11.7-10.8-12.6-13l-19-43.7c-0.6-1.4-1.8-2.3-3.2-2.5l0,0h-0.1c-0.5-0.1-1-0.1-1.6,0h-8.5
		v-12.2H344.8v-0.3c-4.9-0.7-8.6-4.9-8.6-9.9c0-0.5,0-1,0.1-1.5h-0.1v-27h-4.1V263.6c1.1-6.8,5.7-12.9,11.9-15.9l35.7-12.9
		l124.5-46.3c0,0-2.1-8.4-4.7-10s-9.2-1.5-9.2-1.5v-14.2l3.1-3.4l18.7-18.7l7-6.9l-5.2-8.5l-7.6-9.2l-5.4-6L491,99.6l-10-10.7
		l-7.4-5.2l-20,19.6l0.1,0.1l-41.1,41.1l-8.4,13.2l0.5,14.9l-133.4,48.6c-1,0.4-12.6,6.7-12.6,12.3v5.2h-14.3l-1.8-7.4v-2.6
		c0-1-0.8-1.8-1.8-1.8h-10.4c-1,0-1.8,0.8-1.8,1.8v31.9c0,1,0.8,1.8,1.8,1.8h5.3v0.6l0.9-0.6h0.2l15.3,22.8h6.6v75.6L241,389.5h-6.1
		c-2,0-3.7,1.6-3.7,3.7v27.7c0,2,1.7,3.7,3.7,3.7h0.7l9.9-12.4h0.2h13V501c0,0.8,0.1,1.6,0.3,2.4c-4.3,2.4-8.5,2.7-10.5,7.2
		c-1.3,2.8-1.2,9.3-1.2,12.5V547c0,12.4,10.3,22.6,22.9,22.6h250.3c12.6,0,22.9-10.2,22.9-22.6v-23.9
		C543.2,514.8,532.9,500.3,520.4,500.3"/>
	<line class="st1" x1="337.1" y1="391.2" x2="334.3" y2="391.2"/>
	<path class="st2" d="M333,264.5c1.1-6.8,5.7-12.9,11.9-15.9l35.7-12.9l124.5-46.3l-2.8-6l-124.5,46.3l-35.7,12.9
		c-6.2,3-10.8,9.1-11.9,15.9v126.6h2.8V264.5L333,264.5z"/>
	<path class="st3" d="M433.4,145.7c3,0,3-4.6,0-4.6C430.4,141.1,430.4,145.7,433.4,145.7"/>
	<polygon class="st4" points="490.3,172.1 490.3,162.8 493.4,159.4 512.1,140.7 519.1,133.8 514,125.3 506.4,116.1 501,110.2 
		491.1,99.6 481.1,89 473.7,83.8 453.7,103.4 453.8,103.5 412.7,144.6 404.3,157.8 404.7,172.1 	"/>
	<polygon class="st5" points="404.6,169.7 404.7,172.1 490.3,172.1 490.3,169.7 	"/>
	<path class="st6" d="M237,395c-1.4,0-3.5,1.3-3.5,2.8V419c0,1.5,1.1,2.8,2.5,2.8h0.5l0.2-8.6l0.3-11V397V395L237,395L237,395z"/>
	<path class="st6" d="M258.7,412.1c0-1.3-1.2-3.4-2.6-3.4h-19.6c-1.4,0-2.6,1.1-2.6,2.4v0.8l18.1,0.2h4.8H258.7L258.7,412.1z"/>
	<path class="st7" d="M240.6,231.4h-3.8c-1.8,0-3.3,1.5-3.3,3.3v3.7v26.4c0,0.5,0.4,0.9,0.9,0.9h0.8c0.5,0,0.9-0.4,0.9-0.9v-21.6
		c0-1.3,1.1-2.4,2.5-2.4h2c1.3,0,3.4,0.1,3.4-1.2l-1-5.8C243,232.5,241.9,231.4,240.6,231.4"/>
	<path class="st8" d="M518,476.4c-0.4-1.1-0.9-2.2-1.5-3.3L506,456.4c-2.2-3.4-5.5-5.6-9.2-6.5l-0.1-0.4l-10.3-3.6
		c6.1,11.4,12.9,25,13.3,25.8l8.4,14.7c0.4,0.9,0.6,1.9,0.4,2.8c-0.5,2.5-2.2,3.7-5.2,3.7h-0.5l-120.4-14.4c0.3-2,1.2-3.9,2.5-5.4
		H335h-4.6h-60.8c-5,0-9.3,3.4-10.6,8.1c-0.7,2.6-9.4,20.3-9.6,21c-0.9,4.4-1.8,9.4-0.2,11.5c2.9,4.1,10.5,2.8,14.4,2.8h55.9
		l17.9,1.1l168.9,19.7h26c6,0,11-4.9,11-11v-4.1c0-3.3-0.9-6.6-2.7-9.4L518,476.4z"/>
</g>
<g id="ocularLensesSide">
	<path class="st9" d="M548.5,56.5c-7.2-7.5-16-10.8-19.6-7.5c-0.3,0.3-32.9,32-32.9,32l26.7,27.2l33-32.6
		C558.3,71.8,555.2,63.6,548.5,56.5"/>
	<polygon class="st10" points="496,81 490.5,76.7 484.4,72.4 468.1,89.3 514.8,138 530.8,122.8 523.8,112.5 522.7,108.1 507.8,93 	
		"/>
</g>
<g id="stage">
	<polygon class="st11" points="386.7,310 326.8,310 331.6,302.1 386.7,302.1 	"/>
	<polygon class="st12" points="326.8,310 326.8,390.3 373.4,390.3 373.4,376.4 386.7,376.4 386.7,310 	"/>
	<rect x="348.8" y="314.4" class="st13" width="170" height="12.4"/>
	<polygon class="st14" points="351.8,298.9 491.4,298.9 518.7,314.4 348.8,314.4 	"/>
	<rect x="386.7" y="326.8" class="st10" width="93.3" height="22.2"/>
	<g>
		<polygon class="st15" points="406.6,429.6 363.8,429.6 363.8,447.2 409.7,447.2 		"/>
		<rect x="366.3" y="430.3" class="st16" width="4" height="15.5"/>
		<rect x="374.1" y="430.3" class="st16" width="4" height="15.5"/>
		<rect x="381.9" y="430.3" class="st16" width="4" height="15.5"/>
		<rect x="389.7" y="430.3" class="st16" width="4" height="15.5"/>
		<rect x="397.4" y="430.3" class="st16" width="4" height="15.5"/>
	</g>
</g>
<polygon id="coarseKnobSide" class="st17" points="317.9,397.8 319.2,396.2 319.1,396 316.2,389.3 316.1,389 314.4,388.9 315,387.3 
	314.8,387.2 309.6,382 309.4,381.8 307.5,382.4 307.3,380.4 307.1,380.3 300.2,377.6 300,377.5 298.7,378.6 298,377.1 297.7,377.1 
	290.3,377.1 290.1,377.1 289.1,378.9 287.6,377.6 287.4,377.7 280.6,380.6 280.3,380.7 280.2,382.3 278.6,381.8 278.4,382 
	273.2,387.2 273,387.3 273.7,389.3 271.7,389.4 271.6,389.7 268.8,396.4 268.7,396.7 269.8,397.9 268.3,398.7 268.3,398.9 
	268.3,406.2 268.3,406.5 270.1,407.4 268.8,408.9 268.9,409.2 271.8,415.9 271.9,416.1 273.6,416.2 273,417.8 273.2,418 
	278.4,423.2 278.6,423.3 280.6,422.7 280.7,424.7 281,424.8 287.8,427.5 288,427.6 289.3,426.5 290.1,428 290.3,428 297.7,428 
	298,428 298.9,426.2 300.4,427.5 300.7,427.4 307.5,424.6 307.7,424.5 307.8,422.8 309.4,423.3 309.6,423.2 314.8,418 315,417.8 
	314.3,415.9 316.4,415.7 316.5,415.5 319.2,408.7 319.3,408.5 318.2,407.2 319.7,406.5 319.7,406.2 319.7,398.9 319.7,398.7 "/>
<g id="lightSwitchSide">
	<polygon class="st18" points="388.5,483.8 388.5,480.9 388.5,480.7 386.6,480 388,478.8 387.9,478.6 385,473.3 384.9,473.1 
		383.2,473 383.7,471.7 383.5,471.6 378.3,467.5 378.1,467.4 376.2,467.9 376,466.3 375.8,466.2 369,464 368.7,464 367.5,464.8 
		366.7,463.7 366.4,463.7 359.1,463.7 358.8,463.7 357.9,465.1 356.3,464.1 356.1,464.1 349.3,466.4 349.1,466.5 349,467.8 
		347.4,467.4 347.2,467.5 342,471.6 341.8,471.7 342.4,473.2 340.4,473.4 340.3,473.6 337.5,478.9 337.4,479.1 338.5,480.1 
		337,480.7 337,480.9 337,483.8 	"/>
	<polygon class="st19" points="370.3,483.8 370.3,482.7 370.3,482.6 369.8,482.4 370.2,481.9 370.1,481.8 369.3,479.9 369.3,479.8 
		368.8,479.7 368.9,479.3 368.9,479.2 367.3,477.7 367.3,477.7 366.7,477.8 366.7,477.2 366.6,477.2 364.6,476.4 364.5,476.4 
		364.1,476.7 363.9,476.3 363.8,476.3 361.7,476.3 361.6,476.3 361.3,476.8 360.9,476.4 360.8,476.5 358.8,477.3 358.7,477.3 
		358.7,477.8 358.2,477.7 358.2,477.7 356.6,479.2 356.6,479.3 356.8,479.8 356.2,479.9 356.1,480 355.3,482 355.3,482 355.6,482.4 
		355.2,482.6 355.2,482.7 355.2,483.8 	"/>
</g>
<g id="fineKnobSide_1_">
	<polygon id="fineKnobSide" class="st20" points="306.3,400.1 307,399.3 306.9,399.2 305.5,395.7 305.4,395.6 304.5,395.5 
		304.8,394.7 304.7,394.6 302,392 301.9,391.9 300.9,392.2 300.9,391.2 300.7,391.1 297.2,389.7 297.1,389.7 296.4,390.2 296,389.5 
		295.9,389.5 292.1,389.5 292,389.5 291.5,390.4 290.7,389.7 290.6,389.8 287.1,391.2 287,391.3 286.9,392.1 286.1,391.9 286,392 
		283.3,394.6 283.2,394.7 283.5,395.7 282.5,395.8 282.4,395.9 281,399.4 281,399.5 281.5,400.2 280.8,400.6 280.8,400.7 
		280.8,404.5 280.8,404.6 281.7,405.1 281,405.8 281.1,406 282.6,409.4 282.6,409.6 283.5,409.6 283.2,410.4 283.3,410.5 286,413.2 
		286.1,413.3 287.1,413 287.2,414 287.3,414 290.8,415.4 290.9,415.5 291.6,414.9 292,415.7 292.1,415.7 295.9,415.7 296,415.7 
		296.5,414.8 297.3,415.4 297.4,415.4 300.9,413.9 301.1,413.9 301.1,413 301.9,413.3 302,413.2 304.7,410.5 304.8,410.4 
		304.5,409.4 305.5,409.4 305.6,409.2 307,405.7 307.1,405.6 306.5,405 307.3,404.6 307.3,404.5 307.3,400.7 307.3,400.6 	"/>
	<path class="st21" d="M295.7,402.5c0,1-0.8,1.7-1.8,1.7s-1.8-0.8-1.8-1.7c0-1,0.8-1.7,1.8-1.7C294.9,400.8,295.7,401.5,295.7,402.5
		"/>
	<polygon class="st22" points="294.9,402.3 294.3,402.3 294.3,401.7 293.7,401.7 293.7,402.3 293.1,402.3 293.1,402.9 293.7,402.9 
		293.7,403.5 294.3,403.5 294.3,402.9 294.9,402.9 	"/>
</g>
<g id="adjustDHeight">
	<path class="st23" d="M397.4,344.1h-10.8v10.7v35.4h-13.3v20.2h7.1v2.6h6.2v3.1h10.8v-5.7v-2.3v-4.3v-13.6V362c0-4,3.2-7.2,7.2-7.2
		h16.5v-10.7L397.4,344.1L397.4,344.1L397.4,344.1L397.4,344.1z"/>
	<path class="st23" d="M443.9,341.1c-19.9,0-36.1,2.8-36.1,6.2v1.3v4.8v4.4c0,2.6,16.1,4.7,36.1,4.7c19.9,0,36.1-2.1,36.1-4.7v-4.4
		v-4.8v-1.3C480,343.9,463.9,341.1,443.9,341.1"/>
	<path class="st24" d="M418.8,343.1v3.5c0,1.4,11.9,2.4,26.5,2.4c14.7,0,26.5-1.1,26.5-2.4v-3.5H418.8z"/>
	<rect x="418.8" y="341.9" class="st25" width="53.1" height="1.2"/>
	<polygon class="st26" points="465.1,335.5 453.5,335.5 449.4,335.5 441.3,335.5 427.6,335.5 425.6,335.5 418.8,341.9 427.6,341.9 
		441.3,341.9 449.4,341.9 453.5,341.9 471.9,341.9 	"/>
	<polygon class="st26" points="458.9,331.1 450.9,331.1 448.1,331.1 442.6,331.1 433.2,331.1 431.9,331.1 427.2,335.5 433.2,335.5 
		442.6,335.5 448.1,335.5 450.9,335.5 463.5,335.5 	"/>
	<path class="st27" d="M479.2,357.5h-2.4h-4h-28.3h-23.2h-6h-2.1h-5.3v4l5.3,5.8h8.2h12.4H477c1.7,0,3.1-1.3,3.1-2.9v-2v-2v-2.9
		H479.2L479.2,357.5z"/>
	<path class="st28" d="M423.5,367.3v2.6v5.3c0,3,9.8,5.5,21.8,5.5s21.8-2.5,21.8-5.5v-5.3v-2.6H423.5z"/>
	<path class="st29" d="M445.4,371.6c-8.1,0-15.7-0.2-21.8-0.6v2.6c0,1,9.8,1.8,21.8,1.8s21.8-0.8,21.8-1.8V371
		C461,371.3,453.5,371.6,445.4,371.6"/>
	<path class="st30" d="M445.4,375.4c-12,0-21.8-0.8-21.8-1.8v1.6c0,3,9.8,5.5,21.8,5.5s21.8-2.5,21.8-5.5v-1.6
		C467.2,374.6,457.4,375.4,445.4,375.4"/>
</g>
<g id="draggableDiaphragm">
	<polygon class="st31" points="389.8,375.1 390.8,374 390.7,373.8 388.5,368.6 388.5,368.5 387.2,368.4 387.6,367.2 387.4,367 
		383.5,363.1 383.3,363 381.9,363.4 381.7,361.9 381.5,361.8 376.3,359.8 376.1,359.7 375.2,360.5 374.6,359.4 374.4,359.4 
		368.8,359.4 368.6,359.4 367.9,360.8 366.7,359.8 366.5,359.8 361.3,362 361.2,362.1 361.1,363.4 359.9,363 359.7,363.1 355.7,367 
		355.6,367.2 356.1,368.6 354.5,368.8 354.5,368.9 352.4,374.1 352.3,374.3 353.1,375.2 352,375.8 352,376 352,381.6 352,381.8 
		353.4,382.5 352.4,383.6 352.5,383.8 354.7,388.9 354.7,389.1 356,389.2 355.6,390.4 355.7,390.5 359.7,394.5 359.9,394.6 
		361.3,394.1 361.5,395.7 361.6,395.7 366.9,397.8 367,397.9 368,397 368.6,398.2 368.8,398.2 374.4,398.2 374.6,398.2 375.3,396.8 
		376.5,397.8 376.7,397.7 381.8,395.6 382,395.5 382.1,394.2 383.3,394.6 383.5,394.5 387.4,390.5 387.6,390.4 387.1,388.9 
		388.6,388.8 388.7,388.6 390.8,383.5 390.9,383.3 390,382.3 391.2,381.8 391.2,381.6 391.2,376 391.2,375.8 	"/>
	<path class="st32" d="M388.2,378.8c0,9.1-7.5,16.5-16.7,16.5s-16.7-7.4-16.7-16.5s7.5-16.5,16.7-16.5S388.2,369.7,388.2,378.8"/>
	<path class="st33" d="M385.2,378.8c0,7.5-6.1,13.5-13.6,13.5s-13.6-6-13.6-13.5s6.1-13.5,13.6-13.5S385.2,371.3,385.2,378.8"/>
	<path class="st21" d="M373.8,378.8c0,1.2-1,2.2-2.2,2.2s-2.2-1-2.2-2.2s1-2.2,2.2-2.2S373.8,377.6,373.8,378.8"/>
	<polygon class="st22" points="372.7,378.4 372,378.4 372,377.7 371.2,377.7 371.2,378.4 370.5,378.4 370.5,379.1 371.2,379.1 
		371.2,379.9 372,379.9 372,379.1 372.7,379.1 	"/>
</g>
<g id="lensesSide">
	<path class="st34" d="M503.6,205.3c3,6.9-11.1,19.6-31.5,28.4c-20.4,8.8-39.5,10.3-42.5,3.4c-3-6.9,11.1-19.6,31.5-28.4
		C481.5,199.9,500.6,198.4,503.6,205.3"/>
	<rect x="430.5" y="223" class="st35" width="25.6" height="17.4"/>
	<polygon class="st35" points="496.1,197.1 476.2,215.9 488.2,228.4 508.1,209.6 	"/>
	<path class="st35" d="M453.6,223.6l6.3,11.8c2.8-3.3,6.7-6.4,11.3-8.8c4.6-2.4,9.3-3.9,13.7-4.4l-6.3-11.8
		c-4.5,0.2-9.3,1.5-13.9,3.9C460.1,216.8,456.3,220.1,453.6,223.6"/>
	<polygon class="st36" points="455,236 465.2,261.7 470.3,267.8 489.5,260.3 489,252.4 478.7,226.7 	"/>
	<polygon class="st37" points="489.5,260.3 470.4,267.8 471.1,269.6 490.2,262.1 	"/>
	<polygon class="st38" points="475.9,219.7 452.2,229 455,236 478.7,226.7 	"/>
	<path class="st39" d="M487.7,227.8l11.5,12c3.2-2.3,6.9-5.3,10.5-8.8c3.7-3.5,6.9-6.9,9.4-10l-11.5-12L487.7,227.8z"/>
	<polygon class="st40" points="502.7,203.9 482.7,222.7 488.2,228.4 508.1,209.6 	"/>
	<path class="st41" d="M469.9,223.9c-6.9,3.6-11.8,8-10.8,9.7l5.7,10.6l6,11.1l2.8,5.3l25-13.2l-2.8-5.3l-6-11.1l-5.7-10.6
		C483.1,218.7,476.8,220.3,469.9,223.9"/>
	<path class="st42" d="M483.6,249.4c-6.9,3.6-11.4,8.6-10.1,11.1l15.2,7.2l2.5-1.3l2.5-1.3l2.5-1.3l2.4-16.5
		C497.1,244.8,490.5,245.7,483.6,249.4"/>
	<path class="st43" d="M496,263.7c-0.3-0.5-2.2-0.1-4.2,1s-3.5,2.4-3.2,2.9s2.2,0.1,4.2-1C494.9,265.6,496.3,264.3,496,263.7"/>
	<path class="st44" d="M455.8,227.6l4.2,7.8c3.1-2.8,7.1-5.6,11.7-8s9.2-4.2,13.3-5.1l-4.2-7.8c-4.2,0.8-8.8,2.4-13.4,4.8
		C462.7,221.7,458.7,224.6,455.8,227.6"/>
	<polygon class="st36" points="430.5,240.3 430.5,271.4 433,279.9 453.6,279.9 456.1,271.4 456.1,240.3 	"/>
	<rect x="434.4" y="279.9" class="st37" width="17.8" height="4.4"/>
	<g class="st45">
		<g>
			<polygon class="st46" points="447.7,284.2 443.5,284.2 443.1,284.2 441.4,284.2 436.7,284.2 437.7,285.9 441.4,285.9 
				443.1,285.9 443.5,285.9 446.7,285.9 448.9,285.9 449.9,284.2 			"/>
		</g>
	</g>
	<rect x="430.5" y="232.9" class="st47" width="25.6" height="7.5"/>
	<path class="st42" d="M503.6,189.6l-0.3-0.7l-0.1-0.2l-0.1-0.2c0-0.1-1,0.1-2.1,0.6l-75.9,29.8c-1.1,0.4-2,0.9-1.9,1l0.1,0.2
		l0.1,0.2l0.3,0.7L503.6,189.6z"/>
	<path class="st48" d="M420.1,222.3l2.8,7.1l0.7,1.7l0.7,1.7c0.5,1.2,1.8,1.7,3.1,1.2l82.5-32.4c1.2-0.5,1.8-1.8,1.4-3l-0.7-1.7
		l-0.7-1.7l-2.8-7.1L420.1,222.3z"/>
</g>
</svg>
