<svg id="microscopeSide" xmlns="http://www.w3.org/2000/svg" viewBox="0 0 793 640.1">
  <title>sideview2</title>
  <g id="frameSide">
    <path d="M520.4,500.3s-11.7-10.8-12.6-13l-19-43.7a4.09,4.09,0,0,0-3.2-2.5h-0.1a4.29,4.29,0,0,0-1.6,0h-8.5V428.9H344.8v-0.3a10,10,0,0,1-8.6-9.9,7.57,7.57,0,0,1,.1-1.5h-0.1v-27h-4.1V263.6A21.86,21.86,0,0,1,344,247.7l35.7-12.9,124.5-46.3s-2.1-8.4-4.7-10-9.2-1.5-9.2-1.5V162.8l3.1-3.4,18.7-18.7,7-6.9-5.2-8.5-7.6-9.2-5.4-6L491,99.6,481,88.9l-7.4-5.2-20,19.6,0.1,0.1-41.1,41.1-8.4,13.2,0.5,14.9L271.3,221.2c-1,.4-12.6,6.7-12.6,12.3v5.2H244.4l-1.8-7.4v-2.6a1.79,1.79,0,0,0-1.8-1.8H230.4a1.79,1.79,0,0,0-1.8,1.8v31.9a1.79,1.79,0,0,0,1.8,1.8h5.3V263l0.9-.6h0.2l15.3,22.8h6.6v75.6L241,389.5h-6.1a3.69,3.69,0,0,0-3.7,3.7v27.7a3.76,3.76,0,0,0,3.7,3.7h0.7l9.9-12.4h13.2V501a9.86,9.86,0,0,0,.3,2.4c-4.3,2.4-8.5,2.7-10.5,7.2-1.3,2.8-1.2,9.3-1.2,12.5V547a22.83,22.83,0,0,0,22.9,22.6H520.5A22.83,22.83,0,0,0,543.4,547V523.1c-0.2-8.3-10.5-22.8-23-22.8" style="fill: #e6dfd5"/>
    <path d="M333,264.5a21.86,21.86,0,0,1,11.9-15.9l35.7-12.9,124.5-46.3-2.8-6L377.8,229.7l-35.7,12.9a21.86,21.86,0,0,0-11.9,15.9V385.1H333V264.5h0Z" style="fill: #bcb6b0"/>
    <path d="M433.4,145.7c3,0,3-4.6,0-4.6s-3,4.6,0,4.6" style="fill: #ada598"/>
    <polygon points="490.3 172.1 490.3 162.8 493.4 159.4 512.1 140.7 519.1 133.8 514 125.3 506.4 116.1 501 110.2 491.1 99.6 481.1 89 473.7 83.8 453.7 103.4 453.8 103.5 412.7 144.6 404.3 157.8 404.7 172.1 490.3 172.1" style="fill: #d7d0c8"/>
    <polygon points="404.6 169.7 404.7 172.1 490.3 172.1 490.3 169.7 404.6 169.7" style="fill: #9c9c9a"/>
    <path d="M237,395c-1.4,0-3.5,1.3-3.5,2.8V419a2.68,2.68,0,0,0,2.5,2.8h0.5l0.2-8.6,0.3-11V395h0Z" style="fill: #bcb5ad"/>
    <path d="M258.7,412.1c0-1.3-1.2-3.4-2.6-3.4H236.5a2.55,2.55,0,0,0-2.6,2.4v0.8l18.1,0.2h6.7Z" style="fill: #bcb5ad"/>
    <path d="M240.6,231.4h-3.8a3.33,3.33,0,0,0-3.3,3.3v30.1a0.9,0.9,0,0,0,.9.9h0.8a0.9,0.9,0,0,0,.9-0.9V243.2a2.46,2.46,0,0,1,2.5-2.4h2c1.3,0,3.4.1,3.4-1.2l-1-5.8a2.43,2.43,0,0,0-2.4-2.4" style="fill: #c4beb7"/>
    <path d="M518,476.4a24.09,24.09,0,0,0-1.5-3.3L506,456.4a15.09,15.09,0,0,0-9.2-6.5l-0.1-.4-10.3-3.6c6.1,11.4,12.9,25,13.3,25.8l8.4,14.7a4.6,4.6,0,0,1,.4,2.8c-0.5,2.5-2.2,3.7-5.2,3.7h-0.5L382.4,478.5a10.77,10.77,0,0,1,2.5-5.4H269.6a11,11,0,0,0-10.6,8.1c-0.7,2.6-9.4,20.3-9.6,21-0.9,4.4-1.8,9.4-.2,11.5,2.9,4.1,10.5,2.8,14.4,2.8h55.9l17.9,1.1,168.9,19.7h26a11,11,0,0,0,11-11v-4.1a17.42,17.42,0,0,0-2.7-9.4Z" style="fill: #373a3a"/>
    <path d="M503.6,189.6l-0.3-.7-0.1-.2-0.1-.2a4.84,4.84,0,0,0-2.1.6l-75.9,29.8a4.39,4.39,0,0,0-1.9,1l0.1,0.2,0.1,0.2,0.3,0.7Z" style="fill: #7d807c"/>
    <polygon points="406.6 429.6 363.8 429.6 363.8 447.2 409.7 447.2 406.6 429.6" style="fill: #bcbdaf"/>
    <rect x="366.3" y="430.3" width="4" height="15.5" style="fill: #2f3124"/>
    <rect x="374.1" y="430.3" width="4" height="15.5" style="fill: #2f3124"/>
    <rect x="381.9" y="430.3" width="4" height="15.5" style="fill: #2f3124"/>
    <rect x="389.7" y="430.3" width="4" height="15.5" style="fill: #2f3124"/>
    <rect x="397.4" y="430.3" width="4" height="15.5" style="fill: #2f3124"/>
  </g>
  <g id="ocularLensSide">
    <path d="M548.5,56.5c-7.2-7.5-16-10.8-19.6-7.5L496,81l26.7,27.2,33-32.6c2.6-3.8-.5-12-7.2-19.1" style="fill: #54555c"/>
    <polygon points="496 81 490.5 76.7 484.4 72.4 468.1 89.3 514.8 138 530.8 122.8 523.8 112.5 522.7 108.1 507.8 93 496 81" style="fill: #9c9ea3"/>
  </g>
  <g id="stageSide">
    <rect x="386.7" y="326.8" width="93.3" height="22.2" style="fill: #9c9ea3"/>
    <polygon points="386.7 310 326.8 310 331.6 302.1 386.7 302.1 386.7 310" style="fill: #5d6660"/>
    <polygon points="326.8 310 326.8 390.3 373.4 390.3 373.4 376.4 386.7 376.4 386.7 310 326.8 310" style="fill: #363b39"/>
    <rect x="348.8" y="314.4" width="170" height="12.4" style="fill: #1e2e31"/>
    <polygon points="351.8 298.9 491.4 298.9 518.7 314.4 348.8 314.4 351.8 298.9" style="fill: #777e73"/>
  </g>
  <g id="lightSwitchSide">
    <polygon points="388.5 483.8 388.5 480.9 388.5 480.7 386.6 480 388 478.8 387.9 478.6 385 473.3 384.9 473.1 383.2 473 383.7 471.7 383.5 471.6 378.3 467.5 378.1 467.4 376.2 467.9 376 466.3 375.8 466.2 369 464 368.7 464 367.5 464.8 366.7 463.7 366.4 463.7 359.1 463.7 358.8 463.7 357.9 465.1 356.3 464.1 356.1 464.1 349.3 466.4 349.1 466.5 349 467.8 347.4 467.4 347.2 467.5 342 471.6 341.8 471.7 342.4 473.2 340.4 473.4 340.3 473.6 337.5 478.9 337.4 479.1 338.5 480.1 337 480.7 337 480.9 337 483.8 388.5 483.8" style="fill: #919486"/>
    <polygon points="370.3 483.8 370.3 482.7 370.3 482.6 369.8 482.4 370.2 481.9 370.1 481.8 369.3 479.9 369.3 479.8 368.8 479.7 368.9 479.3 368.9 479.2 367.3 477.7 367.3 477.7 366.7 477.8 366.7 477.2 366.6 477.2 364.6 476.4 364.5 476.4 364.1 476.7 363.9 476.3 363.8 476.3 361.7 476.3 361.6 476.3 361.3 476.8 360.9 476.4 360.8 476.5 358.8 477.3 358.7 477.3 358.7 477.8 358.2 477.7 358.2 477.7 356.6 479.2 356.6 479.3 356.8 479.8 356.2 479.9 356.1 480 355.3 482 355.3 482 355.6 482.4 355.2 482.6 355.2 482.7 355.2 483.8 370.3 483.8" style="fill: #63655e"/>
  </g>
  <polygon id="coarseKnobSide" points="317.9 397.8 319.2 396.2 319.1 396 316.2 389.3 316.1 389 314.4 388.9 315 387.3 314.8 387.2 309.6 382 309.4 381.8 307.5 382.4 307.3 380.4 307.1 380.3 300.2 377.6 300 377.5 298.7 378.6 298 377.1 297.7 377.1 290.3 377.1 290.1 377.1 289.1 378.9 287.6 377.6 287.4 377.7 280.6 380.6 280.3 380.7 280.2 382.3 278.6 381.8 278.4 382 273.2 387.2 273 387.3 273.7 389.3 271.7 389.4 271.6 389.7 268.8 396.4 268.7 396.7 269.8 397.9 268.3 398.7 268.3 398.9 268.3 406.2 268.3 406.5 270.1 407.4 268.8 408.9 268.9 409.2 271.8 415.9 271.9 416.1 273.6 416.2 273 417.8 273.2 418 278.4 423.2 278.6 423.3 280.6 422.7 280.7 424.7 281 424.8 287.8 427.5 288 427.6 289.3 426.5 290.1 428 290.3 428 297.7 428 298 428 298.9 426.2 300.4 427.5 300.7 427.4 307.5 424.6 307.7 424.5 307.8 422.8 309.4 423.3 309.6 423.2 314.8 418 315 417.8 314.3 415.9 316.4 415.7 316.5 415.5 319.2 408.7 319.3 408.5 318.2 407.2 319.7 406.5 319.7 406.2 319.7 398.9 319.7 398.7 317.9 397.8" style="fill: #494a40"/>
  <g id="fineKnobSide">
    <polygon points="306.6 402.4 307.4 401.7 307.3 401.6 306.5 398 306.5 397.7 305.6 397.6 306 396.8 305.9 396.7 303.8 393.6 303.7 393.5 302.7 393.6 302.9 392.6 302.7 392.5 299.6 390.5 299.5 390.5 298.6 390.8 298.4 390.1 298.3 390 294.5 389.4 294.4 389.4 293.8 390.1 293.1 389.3 293 389.4 289.3 390.2 289.1 390.2 289 390.9 288.2 390.7 288.1 390.7 284.9 392.8 284.8 392.9 284.9 393.9 283.9 393.8 283.8 393.9 281.8 397 281.8 397.1 282.2 398 281.4 398.2 281.4 398.3 280.7 402.1 280.7 402.2 281.4 402.8 280.6 403.4 280.7 403.6 281.6 407.1 281.5 407.3 282.4 407.5 282 408.3 282.1 408.4 284.2 411.6 284.3 411.7 285.3 411.6 285.2 412.6 285.3 412.6 288.6 414.6 288.5 414.7 289.4 414.2 289.6 415.1 289.7 415.1 293.5 415.8 293.6 415.8 294.2 415.1 294.9 415.8 295 415.8 298.8 414.9 299 415 299 414.1 299.8 414.5 299.9 414.4 303.1 412.3 303.2 412.2 303.1 411.2 304.1 411.4 304.2 411.2 306.2 408.1 306.3 408 305.8 407.2 306.7 407 306.7 406.9 307.4 403.1 307.4 403 306.6 402.4" style="fill: #161b1b"/>
    <path d="M295.7,402.5a1.71,1.71,0,0,1-1.8,1.7,1.77,1.77,0,0,1-1.8-1.7,1.8,1.8,0,0,1,3.6,0" style="fill: #323737"/>
    <polygon points="294.9 402.3 294.3 402.3 294.3 401.7 293.7 401.7 293.7 402.3 293.1 402.3 293.1 402.9 293.7 402.9 293.7 403.5 294.3 403.5 294.3 402.9 294.9 402.9 294.9 402.3" style="fill: #111314"/>
    <rect x="293.6" y="389.5" width="0.6" height="11.3" style="fill: #8c8c8c"/>
  </g>
  <g id="adjustDHeight">
    <path d="M397.4,344.1H386.6v46.1H373.3v20.2h7.1V413h6.2v3.1h10.8V362a7.17,7.17,0,0,1,7.2-7.2h16.5V344.1H397.4Z" style="fill: #1e2526"/>
    <path d="M443.9,341.1c-19.9,0-36.1,2.8-36.1,6.2v10.5c0,2.6,16.1,4.7,36.1,4.7s36.1-2.1,36.1-4.7V347.3c0-3.4-16.1-6.2-36.1-6.2" style="fill: #1e2526"/>
    <path d="M418.8,343.1v3.5c0,1.4,11.9,2.4,26.5,2.4s26.5-1.1,26.5-2.4v-3.5h-53Z" style="fill: #2a302f"/>
    <rect x="418.8" y="341.9" width="53.1" height="1.2" style="fill: #4a4d4e"/>
    <polygon points="465.1 335.5 453.5 335.5 449.4 335.5 441.3 335.5 427.6 335.5 425.6 335.5 418.8 341.9 427.6 341.9 441.3 341.9 449.4 341.9 453.5 341.9 471.9 341.9 465.1 335.5" style="fill: #101516"/>
    <polygon points="458.9 331.1 450.9 331.1 448.1 331.1 442.6 331.1 433.2 331.1 431.9 331.1 427.2 335.5 433.2 335.5 442.6 335.5 448.1 335.5 450.9 335.5 463.5 335.5 458.9 331.1" style="fill: #101516"/>
    <path d="M479.2,357.5H407.9v4l5.3,5.8H477a3,3,0,0,0,3.1-2.9v-6.9h-0.9Z" style="fill: #394542"/>
    <path d="M423.5,367.3v7.9c0,3,9.8,5.5,21.8,5.5s21.8-2.5,21.8-5.5v-7.9H423.5Z" style="fill: #394f9f"/>
    <path d="M445.4,371.6c-8.1,0-15.7-.2-21.8-0.6v2.6c0,1,9.8,1.8,21.8,1.8s21.8-.8,21.8-1.8V371c-6.2.3-13.7,0.6-21.8,0.6" style="fill: #162249"/>
    <path d="M445.4,375.4c-12,0-21.8-.8-21.8-1.8v1.6c0,3,9.8,5.5,21.8,5.5s21.8-2.5,21.8-5.5v-1.6c0,1-9.8,1.8-21.8,1.8" style="fill: #546fb5"/>
  </g>
  <g id="draggableDiaphragm">
    <polygon points="389.8 375.1 390.8 374 390.7 373.8 388.5 368.6 388.5 368.5 387.2 368.4 387.6 367.2 387.4 367 383.5 363.1 383.3 363 381.9 363.4 381.7 361.9 381.5 361.8 376.3 359.8 376.1 359.7 375.2 360.5 374.6 359.4 374.4 359.4 368.8 359.4 368.6 359.4 367.9 360.8 366.7 359.8 366.5 359.8 361.3 362 361.2 362.1 361.1 363.4 359.9 363 359.7 363.1 355.7 367 355.6 367.2 356.1 368.6 354.5 368.8 354.5 368.9 352.4 374.1 352.3 374.3 353.1 375.2 352 375.8 352 376 352 381.6 352 381.8 353.4 382.5 352.4 383.6 352.5 383.8 354.7 388.9 354.7 389.1 356 389.2 355.6 390.4 355.7 390.5 359.7 394.5 359.9 394.6 361.3 394.1 361.5 395.7 361.6 395.7 366.9 397.8 367 397.9 368 397 368.6 398.2 368.8 398.2 374.4 398.2 374.6 398.2 375.3 396.8 376.5 397.8 376.7 397.7 381.8 395.6 382 395.5 382.1 394.2 383.3 394.6 383.5 394.5 387.4 390.5 387.6 390.4 387.1 388.9 388.6 388.8 388.7 388.6 390.8 383.5 390.9 383.3 390 382.3 391.2 381.8 391.2 381.6 391.2 376 391.2 375.8 389.8 375.1" style="fill: #010101"/>
    <path d="M388.2,378.8a16.7,16.7,0,1,1-16.7-16.5,16.62,16.62,0,0,1,16.7,16.5" style="fill: #29322c"/>
    <path d="M385.2,378.8a13.6,13.6,0,1,1-13.6-13.5,13.53,13.53,0,0,1,13.6,13.5" style="fill: #151817"/>
    <path d="M373.8,378.8a2.2,2.2,0,1,1-2.2-2.2,2.22,2.22,0,0,1,2.2,2.2" style="fill: #323737"/>
    <polygon points="372.7 378.4 372 378.4 372 377.7 371.2 377.7 371.2 378.4 370.5 378.4 370.5 379.1 371.2 379.1 371.2 379.9 372 379.9 372 379.1 372.7 379.1 372.7 378.4" style="fill: #111314"/>
    <rect x="371.3" y="365.3" width="0.6" height="11.3" style="fill: #8c8c8c"/>
  </g>
  <g id="lensesSide">
    <path d="M503.6,205.3c3,6.9-11.1,19.6-31.5,28.4s-39.5,10.3-42.5,3.4,11.1-19.6,31.5-28.4,39.5-10.3,42.5-3.4" style="fill: #989998"/>
    <rect x="430.5" y="223" width="25.6" height="17.4" style="fill: #5a5b5b"/>
    <polygon points="496.1 197.1 476.2 215.9 488.2 228.4 508.1 209.6 496.1 197.1" style="fill: #5a5b5b"/>
    <path d="M453.6,223.6l6.3,11.8a37.92,37.92,0,0,1,11.3-8.8,39.75,39.75,0,0,1,13.7-4.4l-6.3-11.8a33.57,33.57,0,0,0-13.9,3.9,35.49,35.49,0,0,0-11.1,9.3" style="fill: #5a5b5b"/>
    <polygon points="455 236 465.2 261.7 470.3 267.8 489.5 260.3 489 252.4 478.7 226.7 455 236" style="fill: #111a1a"/>
    <polygon points="489.5 260.3 470.4 267.8 471.1 269.6 490.2 262.1 489.5 260.3" style="fill: #a7acaa"/>
    <polygon points="475.9 219.7 452.2 229 455 236 478.7 226.7 475.9 219.7" style="fill: #252d2a"/>
    <path d="M487.7,227.8l11.5,12a94.19,94.19,0,0,0,10.5-8.8,104.3,104.3,0,0,0,9.4-10l-11.5-12Z" style="fill: #162120"/>
    <polygon points="502.7 203.9 482.7 222.7 488.2 228.4 508.1 209.6 502.7 203.9" style="fill: #606b67"/>
    <path d="M469.9,223.9c-6.9,3.6-11.8,8-10.8,9.7l5.7,10.6,6,11.1,2.8,5.3,25-13.2-2.8-5.3-6-11.1-5.7-10.6c-1-1.7-7.3-.1-14.2,3.5" style="fill: #132221"/>
    <path d="M483.6,249.4c-6.9,3.6-11.4,8.6-10.1,11.1l15.2,7.2,2.5-1.3,2.5-1.3,2.5-1.3,2.4-16.5c-1.5-2.5-8.1-1.6-15,2.1" style="fill: #7d807c"/>
    <path d="M496,263.7c-0.3-.5-2.2-0.1-4.2,1s-3.5,2.4-3.2,2.9,2.2,0.1,4.2-1,3.5-2.3,3.2-2.9" style="fill: #161e18"/>
    <path d="M455.8,227.6l4.2,7.8a57,57,0,0,1,11.7-8,55.44,55.44,0,0,1,13.3-5.1l-4.2-7.8a49.39,49.39,0,0,0-13.4,4.8,44.31,44.31,0,0,0-11.6,8.3" style="fill: #5a5d5b"/>
    <polygon points="430.5 240.3 430.5 271.4 433 279.9 453.6 279.9 456.1 271.4 456.1 240.3 430.5 240.3" style="fill: #111a1a"/>
    <rect x="434.4" y="279.9" width="17.8" height="4.4" style="fill: #a7acaa"/>
    <polygon points="447.7 284.2 443.5 284.2 443.1 284.2 441.4 284.2 436.7 284.2 437.7 285.9 441.4 285.9 443.1 285.9 443.5 285.9 446.7 285.9 448.9 285.9 449.9 284.2 447.7 284.2" style="fill: #5b675f"/>
    <rect x="430.5" y="232.9" width="25.6" height="7.5" style="fill: #4c5b56"/>
    <path d="M420.1,222.3l2.8,7.1,0.7,1.7,0.7,1.7a2.32,2.32,0,0,0,3.1,1.2l82.5-32.4a2.42,2.42,0,0,0,1.4-3l-0.7-1.7-0.7-1.7-2.8-7.1Z" style="fill: #17211d"/>
  </g>
</svg>
