<?xml version="1.0" encoding="utf-8"?>
<!-- Generator: Adobe Illustrator 15.1.0, SVG Export Plug-In . SVG Version: 6.00 Build 0)  -->
<!DOCTYPE svg PUBLIC "-//W3C//DTD SVG 1.1//EN" "http://www.w3.org/Graphics/SVG/1.1/DTD/svg11.dtd">
<svg version="1.1" id="Layer_1" xmlns="http://www.w3.org/2000/svg" xmlns:xlink="http://www.w3.org/1999/xlink" x="0px" y="0px"
	 width="612px" height="792px" viewBox="0 0 612 792" enable-background="new 0 0 612 792" xml:space="preserve">
<g>
	<defs>
		<polygon id="SVGID_1_" points="114.662,528.509 569.897,528.509 571.97,-8.91 116.733,-8.91 		"/>
	</defs>
	<clipPath id="SVGID_2_">
		<use xlink:href="#SVGID_1_"  overflow="visible"/>
	</clipPath>
	<g clip-path="url(#SVGID_2_)">
		<defs>
			<polygon id="SVGID_3_" points="396.824,-63.13 114.662,218.186 116.733,582.728 324.971,528.509 571.97,338.537 569.897,90.741 
				417.787,-63.13 			"/>
		</defs>
		<clipPath id="SVGID_4_">
			<use xlink:href="#SVGID_3_"  overflow="visible"/>
		</clipPath>
	</g>
	<g clip-path="url(#SVGID_2_)">
		<defs>
			<polygon id="SVGID_5_" points="116.733,-8.91 571.97,-8.91 569.897,528.509 114.662,528.509 			"/>
		</defs>
		<clipPath id="SVGID_6_">
			<use xlink:href="#SVGID_5_"  overflow="visible"/>
		</clipPath>
	</g>
	<g clip-path="url(#SVGID_2_)">
		<defs>
			<polygon id="SVGID_7_" points="116.733,-8.91 571.97,-8.91 569.897,528.509 114.662,528.509 			"/>
		</defs>
		<clipPath id="SVGID_8_">
			<use xlink:href="#SVGID_7_"  overflow="visible"/>
		</clipPath>
		<path clip-path="url(#SVGID_8_)" fill="#E6DFD5" d="M436.573,419.443c0,0-9.373-8.828-10.141-10.619l-15.289-35.653
			c-0.475-1.104-1.451-1.842-2.549-2.066l-0.004-0.013h-0.051c-0.408-0.076-0.831-0.073-1.253,0h-6.802v-9.916H295.417v-0.22
			c-3.924-0.575-6.942-3.959-6.942-8.059c0-0.404,0.039-0.796,0.096-1.184h-0.096v-22.038h-3.29V226.393
			c0.849-5.511,4.572-10.5,9.567-12.942l28.743-10.495l100.144-37.801c0,0-1.707-6.887-3.812-8.194
			c-2.103-1.308-7.438-1.214-7.438-1.214v-11.579l2.47-2.801l15.077-15.277l5.631-5.606l-4.148-6.943l-6.073-7.47l-4.339-4.855
			l-7.936-8.591l-8.059-8.715l-5.949-4.229l-16.087,16.016l0.085,0.087l-33.086,33.525l-6.764,10.752l0.371,12.139l-107.301,39.64
			c-0.819,0.299-10.159,5.463-10.159,10.037v4.227h-11.472l-1.428-6.019v-2.143c0-0.815-0.664-1.481-1.474-1.481h-8.395
			c-0.812,0-1.475,0.666-1.475,1.481v26.045c0,0.813,0.664,1.48,1.475,1.48h4.287v0.486l0.729-0.486h0.148l12.284,18.617h5.32
			v61.674l-14.209,23.278h-4.897c-1.632,0-2.967,1.341-2.967,2.979v22.628c0,1.639,1.335,2.98,2.967,2.98h0.551l8-10.103
			l0.137-0.038h10.419v72.402c0,0.664,0.078,1.311,0.217,1.936c-3.418,1.939-6.833,2.234-8.454,5.846
			c-1.032,2.303-0.943,7.56-0.943,10.235v19.488c0,10.15,8.27,18.455,18.377,18.455h201.255c10.107,0,18.377-8.305,18.377-18.455
			v-19.488C454.95,431.271,446.681,419.443,436.573,419.443"/>
		<line clip-path="url(#SVGID_8_)" fill="#BCB6AF" x1="289.194" y1="330.429" x2="286.963" y2="330.429"/>
		<path clip-path="url(#SVGID_8_)" fill="#BCB6AF" d="M285.905,227.145c0.849-5.511,4.572-10.501,9.566-12.941l28.743-10.496
			l100.143-37.8l-2.232-4.894l-100.142,37.8l-28.743,10.496c-4.994,2.44-8.718,7.43-9.566,12.942v103.284h2.231V227.145z"/>
		<path clip-path="url(#SVGID_8_)" fill="#ADA598" d="M366.642,130.161c2.393,0,2.396-3.735,0-3.735
			C364.249,126.426,364.243,130.161,366.642,130.161"/>
		<polygon clip-path="url(#SVGID_8_)" fill="#D6CFC8" points="412.388,151.762 412.388,144.167 414.857,141.367 429.935,126.09 
			435.565,120.482 431.417,113.539 425.344,106.069 421.003,101.214 413.069,92.623 405.011,83.908 399.061,79.679 382.975,95.694 
			383.062,95.781 349.974,129.307 343.21,140.059 343.569,151.762 		"/>
		<polygon clip-path="url(#SVGID_8_)" fill="#9D9C9A" points="343.507,149.77 343.569,151.763 412.388,151.763 412.388,149.77 		"/>
		<path clip-path="url(#SVGID_8_)" fill="#BCB5AD" d="M208.666,333.58c-1.093,0-2.783,1.023-2.783,2.273v17.267
			c0,1.25,0.894,2.273,1.986,2.273h0.369l0.149-7.003l0.279-8.964v-4.202V333.58z"/>
		<path clip-path="url(#SVGID_8_)" fill="#BCB5AD" d="M226.128,347.538c0-1.097-0.935-2.795-2.077-2.795h-15.774
			c-1.143,0-2.078,0.898-2.078,1.994v0.62l14.587,0.181h3.838H226.128z"/>
		<path clip-path="url(#SVGID_8_)" fill="#C4BEB7" d="M211.588,200.129h-3.017c-1.47,0-2.674,1.209-2.674,2.686v3.029v21.533
			c0,0.411,0.333,0.743,0.741,0.743h0.637c0.409,0,0.74-0.333,0.74-0.743v-17.606c0-1.096,0.885-1.985,1.977-1.985h1.597
			c1.063,0,2.75,0.066,2.75-1.002l-0.816-4.713C213.522,201.003,212.652,200.129,211.588,200.129"/>
	</g>
	<g clip-path="url(#SVGID_2_)">
		<defs>
			<polygon id="SVGID_9_" points="116.733,-8.91 571.97,-8.91 569.897,528.509 114.662,528.509 			"/>
		</defs>
		<clipPath id="SVGID_10_">
			<use xlink:href="#SVGID_9_"  overflow="visible"/>
		</clipPath>
		<path clip-path="url(#SVGID_10_)" fill="#373A3A" d="M434.708,399.957c-0.293-0.914-0.688-1.811-1.215-2.658l-8.502-13.684
			c-1.74-2.799-4.453-4.61-7.418-5.275l-0.086-0.286l-8.259-2.944c4.879,9.323,10.358,20.357,10.708,21.053l6.753,12.016
			c0.356,0.709,0.493,1.521,0.341,2.301c-0.395,2.023-1.757,2.988-4.178,2.988h-0.392l-96.855-11.783
			c0.256-1.658,0.961-3.168,1.98-4.402h-40.075h-3.674h-48.889c-4.042,0-7.473,2.803-8.504,6.59
			c-0.584,2.145-7.592,16.584-7.7,17.107c-0.739,3.588-1.419,7.652-0.195,9.395c2.343,3.334,8.441,2.268,11.548,2.268h44.918
			l14.384,0.879l135.812,16.054h20.918c4.852,0,8.82-4.035,8.82-8.963v-3.377c0-2.716-0.748-5.374-2.162-7.688L434.708,399.957z"/>
	</g>
	<g clip-path="url(#SVGID_2_)">
		<defs>
			<polygon id="SVGID_11_" points="116.733,-8.91 571.97,-8.91 569.897,528.509 114.662,528.509 			"/>
		</defs>
		<clipPath id="SVGID_12_">
			<use xlink:href="#SVGID_11_"  overflow="visible"/>
		</clipPath>
		<path clip-path="url(#SVGID_12_)" fill="#53545B" d="M459.165,57.441c-5.814-6.127-12.875-8.848-15.771-6.078
			c-0.23,0.221-26.449,26.048-26.449,26.048l21.471,22.147L464.923,73C467.048,69.911,464.628,63.197,459.165,57.441"/>
		<polygon clip-path="url(#SVGID_12_)" fill="#9C9EA3" points="416.944,77.412 412.573,73.948 407.644,70.402 394.541,84.179 
			432.11,123.922 444.927,111.556 439.353,103.082 438.415,99.559 426.479,87.248 		"/>
	</g>
	<rect x="329.076" y="277.91" clip-path="url(#SVGID_2_)" fill="#9C9EA3" width="75.048" height="18.128"/>
	<polygon clip-path="url(#SVGID_2_)" fill="#5C655F" points="329.076,264.19 280.912,264.19 284.817,257.741 329.076,257.741 	"/>
	<polygon clip-path="url(#SVGID_2_)" fill="#353A38" points="280.912,264.19 280.912,329.74 318.349,329.74 318.349,318.41 
		329.076,318.41 329.076,264.19 	"/>
	<rect x="298.579" y="267.825" clip-path="url(#SVGID_2_)" fill="#1E2E31" width="136.682" height="10.085"/>
	<polygon clip-path="url(#SVGID_2_)" fill="#767D73" points="300.996,255.126 413.317,255.126 435.261,267.825 298.579,267.825 	"/>
	<polygon clip-path="url(#SVGID_2_)" fill="#48493F" points="273.757,335.811 274.816,334.562 274.735,334.367 272.416,328.881 
		272.333,328.685 270.983,328.601 271.411,327.311 271.262,327.162 267.065,322.947 266.916,322.796 265.366,323.316 
		265.236,321.681 265.041,321.602 259.538,319.369 259.342,319.289 258.328,320.189 257.723,318.974 257.512,318.974 
		251.577,318.974 251.365,318.974 250.635,320.441 249.392,319.376 249.198,319.459 243.734,321.789 243.54,321.871 
		243.456,323.228 242.173,322.796 242.023,322.947 237.827,327.162 237.678,327.312 238.194,328.869 236.566,328.999 
		236.487,329.194 234.264,334.721 234.185,334.918 235.08,335.937 233.87,336.544 233.87,336.755 233.87,342.716 233.87,342.928 
		235.331,343.662 234.271,344.909 234.354,345.105 236.673,350.591 236.755,350.787 238.105,350.871 237.678,352.161 
		237.827,352.309 242.023,356.524 242.173,356.674 243.722,356.155 243.853,357.791 244.048,357.87 249.551,360.103 
		249.747,360.181 250.76,359.283 251.365,360.499 251.577,360.499 257.512,360.499 257.723,360.499 258.454,359.031 
		259.697,360.095 259.89,360.012 265.354,357.683 265.548,357.601 265.632,356.245 266.916,356.674 267.065,356.524 
		271.262,352.309 271.411,352.161 270.895,350.604 272.523,350.474 272.602,350.276 274.825,344.751 274.904,344.554 
		274.009,343.535 275.218,342.928 275.218,342.716 275.218,336.755 275.218,336.544 	"/>
	<polygon clip-path="url(#SVGID_2_)" fill="#909385" points="330.498,405.963 330.498,403.609 330.498,403.443 329.037,402.863 
		330.096,401.877 330.014,401.721 327.695,397.389 327.613,397.234 326.263,397.168 326.69,396.148 326.541,396.031 
		322.344,392.702 322.195,392.584 320.646,392.995 320.516,391.703 320.32,391.639 314.816,389.875 314.621,389.813 
		313.607,390.523 313.002,389.563 312.791,389.563 306.856,389.563 306.645,389.563 305.914,390.722 304.671,389.882 
		304.477,389.947 299.014,391.787 298.819,391.851 298.735,392.923 297.452,392.584 297.303,392.702 293.106,396.031 
		292.957,396.148 293.474,397.379 291.845,397.482 291.766,397.637 289.543,402.002 289.463,402.156 290.359,402.961 
		289.148,403.443 289.148,403.609 289.148,405.963 	"/>
	<polygon clip-path="url(#SVGID_2_)" fill="#62645D" points="315.908,405.963 315.908,405.086 315.908,405.023 315.479,404.809 
		315.791,404.441 315.766,404.385 315.084,402.77 315.059,402.711 314.662,402.686 314.787,402.307 314.744,402.264 313.51,401.021 
		313.465,400.979 313.008,401.131 312.971,400.648 312.913,400.625 311.293,399.969 311.236,399.945 310.938,400.211 
		310.759,399.852 310.697,399.852 308.95,399.852 308.888,399.852 308.674,400.285 308.307,399.971 308.25,399.996 306.643,400.682 
		306.584,400.705 306.56,401.105 306.182,400.979 306.139,401.021 304.903,402.264 304.859,402.307 305.011,402.766 
		304.532,402.803 304.509,402.861 303.854,404.488 303.831,404.545 304.095,404.846 303.739,405.023 303.739,405.086 
		303.739,405.963 	"/>
	<polygon clip-path="url(#SVGID_2_)" fill="#161B1B" points="264.446,337.712 264.991,337.069 264.949,336.969 263.754,334.141 
		263.711,334.04 263.016,333.997 263.236,333.333 263.16,333.256 260.997,331.084 260.92,331.007 260.121,331.274 260.054,330.432 
		259.954,330.39 257.118,329.24 257.017,329.199 256.494,329.662 256.182,329.037 256.074,329.037 253.015,329.037 252.906,329.037 
		252.53,329.792 251.889,329.243 251.789,329.287 248.973,330.487 248.874,330.529 248.83,331.228 248.168,331.007 248.091,331.084 
		245.929,333.256 245.852,333.333 246.118,334.136 245.279,334.203 245.238,334.303 244.092,337.151 244.051,337.253 
		244.513,337.778 243.889,338.091 243.889,338.2 243.889,341.272 243.889,341.38 244.643,341.758 244.097,342.403 244.14,342.502 
		245.334,345.329 245.377,345.43 246.072,345.474 245.852,346.138 245.929,346.216 248.091,348.387 248.168,348.465 
		248.967,348.198 249.034,349.041 249.135,349.081 251.97,350.232 252.072,350.273 252.595,349.809 252.906,350.436 
		253.015,350.436 256.074,350.436 256.182,350.436 256.559,349.679 257.199,350.229 257.299,350.185 260.115,348.985 
		260.215,348.943 260.258,348.243 260.92,348.465 260.997,348.387 263.16,346.216 263.236,346.138 262.97,345.336 263.809,345.27 
		263.85,345.168 264.996,342.321 265.036,342.219 264.575,341.693 265.199,341.38 265.199,341.272 265.199,338.2 265.199,338.091 	
		"/>
	<g clip-path="url(#SVGID_2_)">
		<defs>
			<polygon id="SVGID_13_" points="116.733,-8.91 571.97,-8.91 569.897,528.509 114.662,528.509 			"/>
		</defs>
		<clipPath id="SVGID_14_">
			<use xlink:href="#SVGID_13_"  overflow="visible"/>
		</clipPath>
		<path clip-path="url(#SVGID_14_)" fill="#313737" d="M255.922,339.667c0,0.781-0.632,1.417-1.411,1.417s-1.411-0.635-1.411-1.417
			c0-0.783,0.632-1.418,1.411-1.418S255.922,338.884,255.922,339.667"/>
		<polygon clip-path="url(#SVGID_14_)" fill="#0F1112" points="255.237,339.501 254.744,339.501 254.744,339.006 254.277,339.006 
			254.277,339.501 253.784,339.501 253.784,339.97 254.277,339.97 254.277,340.466 254.744,340.466 254.744,339.97 255.237,339.97 
					"/>
	</g>
	<g clip-path="url(#SVGID_2_)">
		<defs>
			<polygon id="SVGID_15_" points="116.733,-8.91 571.97,-8.91 569.897,528.509 114.662,528.509 			"/>
		</defs>
		<clipPath id="SVGID_16_">
			<use xlink:href="#SVGID_15_"  overflow="visible"/>
		</clipPath>
		<path clip-path="url(#SVGID_16_)" fill="#1D2526" d="M337.704,292.063h-8.679v8.715v28.838h-10.677v16.5h5.708v2.157h4.969v2.533
			h8.679v-4.689v-1.865v-3.529v-11.105v-23.002c0-3.223,2.602-5.836,5.811-5.836h13.26v-8.715H337.704z"/>
		<path clip-path="url(#SVGID_16_)" fill="#1D2526" d="M375.117,289.594c-16.021,0-29.007,2.258-29.007,5.042v1.036v3.882v3.593
			c0,2.106,12.986,3.815,29.007,3.815s29.007-1.708,29.007-3.815v-3.593v-3.882v-1.036
			C404.124,291.852,391.138,289.594,375.117,289.594"/>
		<path clip-path="url(#SVGID_16_)" fill="#2A302F" d="M354.913,291.182v2.863c0,1.101,9.553,1.993,21.336,1.993
			c11.785,0,21.338-0.892,21.338-1.993v-2.863H354.913z"/>
		<rect x="354.913" y="290.233" clip-path="url(#SVGID_16_)" fill="#494C4D" width="42.674" height="0.949"/>
		<polygon clip-path="url(#SVGID_16_)" fill="#0E1414" points="392.131,285.005 382.766,285.005 379.509,285.005 372.993,285.005 
			361.999,285.005 360.369,285.005 354.913,290.233 361.999,290.233 372.993,290.233 379.509,290.233 382.766,290.233 
			397.587,290.233 		"/>
		<polygon clip-path="url(#SVGID_16_)" fill="#0E1414" points="387.105,281.439 380.704,281.439 378.478,281.439 374.024,281.439 
			366.509,281.439 365.396,281.439 361.665,285.005 366.509,285.005 374.024,285.005 378.478,285.005 380.704,285.005 
			390.835,285.005 		"/>
		<path clip-path="url(#SVGID_16_)" fill="#394441" d="M403.504,302.928h-1.906h-3.249h-22.737h-18.69h-4.795h-1.725h-4.291v3.283
			l4.256,4.747h6.555h9.964h34.713c1.396,0,2.526-1.069,2.526-2.388v-1.608v-1.646v-2.388H403.504z"/>
		<path clip-path="url(#SVGID_16_)" fill="#394E9E" d="M358.708,310.958v2.134v4.288c0,2.475,7.855,4.481,17.541,4.481
			c9.689,0,17.544-2.007,17.544-4.481v-4.288v-2.134H358.708z"/>
		<path clip-path="url(#SVGID_16_)" fill="#172149" d="M376.249,314.433c-6.549,0-12.604-0.178-17.541-0.478v2.131
			c0,0.822,7.854,1.488,17.541,1.488c9.689,0,17.543-0.667,17.543-1.488v-2.131C388.854,314.254,382.8,314.433,376.249,314.433"/>
		<path clip-path="url(#SVGID_16_)" fill="#546EB4" d="M376.249,317.574c-9.688,0-17.541-0.667-17.541-1.488v1.292
			c0,2.476,7.854,4.481,17.541,4.481c9.689,0,17.543-2.006,17.543-4.481v-1.292C393.792,316.908,385.938,317.574,376.249,317.574"/>
	</g>
	<polygon clip-path="url(#SVGID_2_)" points="331.58,317.337 332.388,316.386 332.324,316.237 330.558,312.055 330.494,311.906 
		329.465,311.841 329.791,310.859 329.678,310.746 326.479,307.532 326.365,307.418 325.184,307.814 325.085,306.568 
		324.936,306.506 320.74,304.806 320.592,304.746 319.818,305.431 319.357,304.504 319.197,304.504 314.673,304.504 
		314.514,304.504 313.955,305.622 313.008,304.812 312.859,304.874 308.695,306.649 308.548,306.713 308.483,307.747 
		307.506,307.418 307.393,307.532 304.192,310.746 304.078,310.859 304.473,312.045 303.231,312.145 303.171,312.295 
		301.477,316.507 301.416,316.656 302.098,317.434 301.176,317.896 301.176,318.058 301.176,322.602 301.176,322.762 
		302.291,323.321 301.482,324.273 301.545,324.422 303.313,328.604 303.376,328.753 304.405,328.817 304.078,329.8 304.192,329.914 
		307.393,333.126 307.506,333.24 308.687,332.845 308.785,334.091 308.935,334.151 313.129,335.854 313.279,335.915 
		314.052,335.229 314.514,336.156 314.673,336.156 319.197,336.156 319.357,336.156 319.914,335.037 320.861,335.849 
		321.01,335.785 325.176,334.01 325.322,333.947 325.387,332.914 326.365,333.24 326.479,333.126 329.678,329.914 329.791,329.8 
		329.397,328.613 330.639,328.514 330.699,328.364 332.395,324.151 332.454,324.002 331.771,323.226 332.693,322.762 
		332.693,322.602 332.693,318.058 332.693,317.896 	"/>
	<g clip-path="url(#SVGID_2_)">
		<defs>
			<polygon id="SVGID_17_" points="116.733,-8.91 571.97,-8.91 569.897,528.509 114.662,528.509 			"/>
		</defs>
		<clipPath id="SVGID_18_">
			<use xlink:href="#SVGID_17_"  overflow="visible"/>
		</clipPath>
		<path clip-path="url(#SVGID_18_)" fill="#29322B" d="M330.328,320.329c0,7.429-5.996,13.451-13.393,13.451
			c-7.397,0-13.394-6.021-13.394-13.451c0-7.428,5.996-13.449,13.394-13.449C324.332,306.88,330.328,312.901,330.328,320.329"/>
		<path clip-path="url(#SVGID_18_)" fill="#141716" d="M327.904,320.329c0,6.083-4.912,11.016-10.969,11.016
			c-6.059,0-10.97-4.933-10.97-11.016c0-6.084,4.911-11.015,10.97-11.015C322.992,309.314,327.904,314.245,327.904,320.329"/>
		<path clip-path="url(#SVGID_18_)" fill="#313737" d="M318.693,320.329c0,0.975-0.787,1.766-1.758,1.766
			c-0.972,0-1.758-0.791-1.758-1.766c0-0.974,0.786-1.765,1.758-1.765C317.906,318.564,318.693,319.355,318.693,320.329"/>
		<polygon clip-path="url(#SVGID_18_)" fill="#0F1112" points="317.84,320.038 317.227,320.038 317.227,319.421 316.645,319.421 
			316.645,320.038 316.03,320.038 316.03,320.622 316.645,320.622 316.645,321.238 317.227,321.238 317.227,320.622 317.84,320.622 
					"/>
	</g>
	<g clip-path="url(#SVGID_2_)">
		<defs>
			<polygon id="SVGID_19_" points="116.733,-8.91 571.97,-8.91 569.897,528.509 114.662,528.509 			"/>
		</defs>
		<clipPath id="SVGID_20_">
			<use xlink:href="#SVGID_19_"  overflow="visible"/>
		</clipPath>
		<path clip-path="url(#SVGID_20_)" fill="#999998" d="M423.099,178.838c2.438,5.636-8.917,16.021-25.36,23.195
			c-16.444,7.174-31.751,8.42-34.19,2.783c-2.438-5.636,8.917-16.021,25.361-23.195C405.353,174.447,420.66,173.202,423.099,178.838
			"/>
		<rect x="364.313" y="193.234" clip-path="url(#SVGID_20_)" fill="#595A5A" width="20.549" height="14.167"/>
		<polygon clip-path="url(#SVGID_20_)" fill="#595A5A" points="417.085,172.124 401.056,187.447 410.723,197.647 426.752,182.324 		
			"/>
		<path clip-path="url(#SVGID_20_)" fill="#595A5A" d="M382.917,193.76l5.088,9.585c2.287-2.677,5.388-5.185,9.101-7.173
			c3.712-1.987,7.515-3.175,11.002-3.589l-5.088-9.585c-3.595,0.157-7.48,1.203-11.209,3.2
			C388.081,188.193,385.05,190.852,382.917,193.76"/>
		<polygon clip-path="url(#SVGID_20_)" fill="#101919" points="383.985,203.866 392.237,224.819 396.336,229.769 411.728,223.656 
			411.345,217.23 403.094,196.276 		"/>
		<polygon clip-path="url(#SVGID_20_)" fill="#A6ACAA" points="411.739,223.651 396.354,229.762 396.933,231.227 412.317,225.117 		
			"/>
		<polygon clip-path="url(#SVGID_20_)" fill="#252D2A" points="400.856,190.596 381.747,198.185 383.985,203.866 403.094,196.276 		
			"/>
		<path clip-path="url(#SVGID_20_)" fill="#162120" d="M410.272,197.171l9.286,9.796c2.587-1.88,5.517-4.333,8.481-7.167
			c2.967-2.836,5.551-5.653,7.547-8.154l-9.287-9.798L410.272,197.171z"/>
		<polygon clip-path="url(#SVGID_20_)" fill="#5F6A66" points="422.347,177.678 406.319,193.001 410.723,197.646 426.752,182.324 		
			"/>
		<path clip-path="url(#SVGID_20_)" fill="#122121" d="M395.959,194.013c-5.551,2.972-9.45,6.514-8.708,7.91l4.572,8.615
			l4.824,9.088l2.278,4.292l20.103-10.763l-2.279-4.291l-4.822-9.088l-4.574-8.614C406.612,189.765,401.511,191.041,395.959,194.013
			"/>
		<path clip-path="url(#SVGID_20_)" fill="#7C807B" d="M406.978,214.771c-5.55,2.972-9.174,7.031-8.094,9.066l12.219,5.875
			l1.969-1.054l1.991-1.067l1.97-1.055l1.954-13.462C417.905,211.041,412.53,211.799,406.978,214.771"/>
		<path clip-path="url(#SVGID_20_)" fill="#151D17" d="M417.017,226.478c-0.23-0.435-1.75-0.073-3.395,0.808
			c-1.645,0.88-2.791,1.946-2.561,2.381s1.75,0.073,3.396-0.807C416.101,227.979,417.247,226.913,417.017,226.478"/>
		<path clip-path="url(#SVGID_20_)" fill="#585C5A" d="M384.64,197.004l3.365,6.34c2.49-2.293,5.71-4.579,9.422-6.565
			c3.712-1.988,7.396-3.399,10.68-4.196l-3.365-6.341c-3.346,0.623-7.089,1.942-10.816,3.938
			C390.196,192.176,387.019,194.562,384.64,197.004"/>
		<polygon clip-path="url(#SVGID_20_)" fill="#101919" points="364.313,207.401 364.313,232.763 366.312,239.647 382.863,239.647 
			384.862,232.763 384.862,207.401 		"/>
		<rect x="367.429" y="239.647" clip-path="url(#SVGID_20_)" fill="#A6ACAA" width="14.318" height="3.548"/>
		<g opacity="0.46" clip-path="url(#SVGID_20_)">
			<g>
				<defs>
					<rect id="SVGID_21_" x="369.3" y="243.196" width="10.576" height="1.37"/>
				</defs>
				<clipPath id="SVGID_22_">
					<use xlink:href="#SVGID_21_"  overflow="visible"/>
				</clipPath>
				<polygon clip-path="url(#SVGID_22_)" fill="#5A665E" points="378.171,243.196 374.747,243.196 374.429,243.196 373.042,243.196 
					369.3,243.196 370.106,244.565 373.042,244.565 374.429,244.565 374.747,244.565 377.366,244.565 379.069,244.565 
					379.876,243.196 				"/>
			</g>
		</g>
		<rect x="364.313" y="201.291" clip-path="url(#SVGID_20_)" fill="#4B5A55" width="20.549" height="6.109"/>
		<path clip-path="url(#SVGID_20_)" fill="#7C807B" d="M423.088,165.975l-0.232-0.588l-0.056-0.14l-0.055-0.142
			c-0.039-0.095-0.806,0.119-1.705,0.478l-61.039,24.297c-0.899,0.358-1.604,0.73-1.566,0.825l0.055,0.142l0.057,0.141l0.231,0.588
			L423.088,165.975z"/>
		<path clip-path="url(#SVGID_20_)" fill="#17211D" d="M355.978,192.676l2.289,5.799l0.549,1.391l0.551,1.39
			c0.372,0.946,1.479,1.401,2.457,1.013l66.342-26.409c0.979-0.39,1.475-1.482,1.1-2.428l-0.549-1.392l-0.549-1.39l-2.289-5.8
			L355.978,192.676z"/>
	</g>
	<polygon clip-path="url(#SVGID_2_)" fill="#BCBDAF" points="345.069,361.783 310.666,361.783 310.666,376.163 347.58,376.163 	"/>
	<rect x="312.711" y="362.391" clip-path="url(#SVGID_2_)" fill="#2F3124" width="3.208" height="12.606"/>
	<rect x="318.965" y="362.391" clip-path="url(#SVGID_2_)" fill="#2F3124" width="3.207" height="12.606"/>
	<rect x="325.219" y="362.391" clip-path="url(#SVGID_2_)" fill="#2F3124" width="3.207" height="12.606"/>
	<rect x="331.471" y="362.391" clip-path="url(#SVGID_2_)" fill="#2F3124" width="3.208" height="12.606"/>
	<rect x="337.725" y="362.391" clip-path="url(#SVGID_2_)" fill="#2F3124" width="3.207" height="12.606"/>
	<g clip-path="url(#SVGID_2_)">
		<defs>
			<polygon id="SVGID_23_" points="116.733,-8.91 571.97,-8.91 569.897,528.509 114.662,528.509 			"/>
		</defs>
		<clipPath id="SVGID_24_">
			<use xlink:href="#SVGID_23_"  overflow="visible"/>
		</clipPath>
		<path clip-path="url(#SVGID_24_)" fill="#4F5555" d="M404.99,377.731l1.851-1.302v-2.828h-0.016
			c0.002-0.063,0.016-0.123,0.016-0.188l-7.405-13.241c-0.791-1.417-2.112-2.276-3.532-2.301h-49.83c-1.684,0-2.96,1.71-2.672,3.581
			l1.842,11.962c0,2.386,1.609,4.318,3.594,4.318h51.111h3.297H404.99z"/>
		<path clip-path="url(#SVGID_24_)" fill="#2C3333" d="M406.825,373.601c0.001-0.035,0.003-0.069,0.01-0.103h-58.539
			c-0.32-0.216-0.598-0.512-0.814-0.876c0,0.007,0.001,0.01,0.002,0.017c-0.346-2.268-1.264-8.239-1.264-8.239l-0.15-0.976
			l-0.304-1.974c-0.011-0.074-0.013-0.146-0.019-0.22l-0.475-3.208c-1.26,0.441-2.11,1.871-1.871,3.427
			c0,0,1.849,12.018,1.85,12.048c0,0.001,0,0.002,0,0.002c0.02,1.173,0.423,2.228,1.07,2.991c0.016,0.017,0.033,0.029,0.047,0.046
			c0.15,0.169,0.307,0.33,0.479,0.469c0.055,0.043,0.117,0.072,0.174,0.112c0.14,0.1,0.278,0.201,0.43,0.276
			c0.111,0.058,0.232,0.089,0.35,0.132c0.105,0.039,0.209,0.09,0.318,0.117c0.232,0.056,0.473,0.087,0.719,0.087h1.053h50.059h3.298
			h1.743l1.852-1.302v-2.828H406.825z"/>
		<path clip-path="url(#SVGID_24_)" fill="#4F5555" d="M405.032,370.523l1.809-1.153v-2.507h-0.016
			c0.002-0.057,0.016-0.109,0.016-0.167l-7.24-11.736c-0.775-1.256-2.066-2.017-3.455-2.041h-48.729
			c-1.646,0-2.895,1.517-2.613,3.173l1.801,10.603c0,2.114,1.574,3.827,3.516,3.827h49.98h3.226H405.032z"/>
		<path clip-path="url(#SVGID_24_)" fill="#2C3333" d="M406.825,366.863c0.001-0.03,0.004-0.062,0.008-0.091h-57.242
			c-0.314-0.19-0.586-0.454-0.798-0.775c0.001,0.004,0.001,0.009,0.003,0.013c-0.338-2.009-1.236-7.302-1.236-7.302l-0.146-0.864
			l-0.298-1.75c-0.011-0.064-0.012-0.129-0.019-0.193l-0.463-2.844c-1.232,0.391-2.064,1.659-1.83,3.037
			c0,0,1.808,10.653,1.809,10.679c0,0,0,0.001,0,0.002c0.021,1.038,0.414,1.974,1.047,2.651c0.015,0.015,0.031,0.025,0.045,0.039
			c0.146,0.151,0.301,0.295,0.469,0.417c0.053,0.038,0.114,0.063,0.17,0.1c0.137,0.088,0.271,0.179,0.42,0.246
			c0.109,0.049,0.229,0.076,0.344,0.115c0.103,0.034,0.202,0.079,0.311,0.104c0.227,0.051,0.461,0.077,0.703,0.077h1.028h48.952
			h3.226h1.706l1.809-1.154v-2.506H406.825z"/>
		<path clip-path="url(#SVGID_24_)" fill="#4F5555" d="M405.063,365.209l1.777-1.154v-2.506h-0.016
			c0.002-0.057,0.016-0.109,0.016-0.167l-7.111-11.735c-0.762-1.255-2.029-2.018-3.394-2.041h-47.859
			c-1.617,0-2.844,1.517-2.566,3.173l1.769,10.603c0,2.115,1.546,3.828,3.451,3.828h49.092h3.166H405.063z"/>
		<path clip-path="url(#SVGID_24_)" fill="#2C3333" d="M406.825,361.549c0.001-0.03,0.004-0.062,0.008-0.091H350.61
			c-0.309-0.19-0.574-0.454-0.783-0.776c0.001,0.005,0.002,0.01,0.002,0.014c-0.332-2.009-1.213-7.303-1.213-7.303l-0.145-0.864
			l-0.291-1.75c-0.011-0.064-0.014-0.129-0.02-0.193l-0.455-2.845c-1.211,0.392-2.027,1.66-1.796,3.038
			c0,0,1.774,10.652,1.776,10.679h-0.002c0,0.001,0.002,0.002,0.002,0.002c0.019,1.038,0.405,1.974,1.027,2.65
			c0.015,0.016,0.03,0.026,0.045,0.04c0.143,0.15,0.295,0.294,0.459,0.417c0.053,0.038,0.113,0.063,0.168,0.1
			c0.134,0.088,0.267,0.178,0.412,0.245c0.107,0.051,0.224,0.077,0.336,0.116c0.103,0.034,0.2,0.079,0.306,0.104
			c0.224,0.05,0.456,0.076,0.69,0.076h1.012h48.08h3.166h1.676l1.777-1.154v-2.505H406.825z"/>
		<path clip-path="url(#SVGID_24_)" fill="#414A43" d="M398.042,351.538c0,5.46-10.014,8.626-21.824,8.626
			s-20.947-3.166-20.947-8.626v-2.93c0-5.027,11.445-6.953,21.385-6.953c9.834,0,18.01,2.776,20.509,6.953
			C397.667,349.449,398.042,350.624,398.042,351.538"/>
		<path clip-path="url(#SVGID_24_)" fill="#141A1A" d="M397.506,350.468c0,2.66-8.864,4.815-19.8,4.815s-19.801-2.155-19.801-4.815
			c0-2.659,8.865-4.815,19.801-4.815S397.506,347.809,397.506,350.468"/>
		<path clip-path="url(#SVGID_24_)" fill="#2C3333" d="M375.134,345.653c0.359-0.003,0.719-0.004,1.084-0.004
			c0.363,0,0.725,0.001,1.083,0.004c9.251,0.089,17.005,1.298,19.862,2.956v-2.96c0-2.27-9.377-4.109-20.945-4.109
			c-11.569,0-20.947,1.839-20.947,4.109v2.96C358.129,346.951,365.884,345.742,375.134,345.653"/>
		<path clip-path="url(#SVGID_24_)" fill="#838C85" d="M394.872,352.032c0,2.307-7.686,4.175-17.166,4.175
			s-17.166-1.868-17.166-4.175c0-2.306,7.686-4.175,17.166-4.175S394.872,349.726,394.872,352.032"/>
		<path clip-path="url(#SVGID_24_)" fill="#2C3333" d="M379.659,357.078c-0.371,0.006-0.743,0.008-1.118,0.008
			c-0.374,0-0.746-0.001-1.117-0.008c-9.537-0.12-17.532-1.773-20.479-4.037v4.045c0,3.1,9.669,3.632,21.597,3.632
			c11.929,0,21.598-0.532,21.598-3.632v-4.045C397.192,355.305,389.196,356.958,379.659,357.078"/>
	</g>
</g>
</svg>
