<?xml version="1.0" encoding="utf-8"?>
<!-- Generator: Adobe Illustrator 19.2.1, SVG Export Plug-In . SVG Version: 6.00 Build 0)  -->
<svg version="1.1" id="microscopeSide" xmlns="http://www.w3.org/2000/svg" xmlns:xlink="http://www.w3.org/1999/xlink" x="0px"
	 y="0px" viewBox="0 0 793 640.1" style="enable-background:new 0 0 793 640.1;" xml:space="preserve">
<g id="frameSide">
	<path style="fill:#E6DFD5;" d="M523.1,492.5c0,0-11.4-10.5-12.2-12.6l-18.4-42.4c-0.6-1.4-1.7-2.2-3.1-2.4l0,0h-0.1
		c-0.5-0.1-1-0.1-1.6,0h-8.2v-11.8H352.7V423c-4.8-0.7-8.3-4.8-8.3-9.6c0-0.5,0-1,0.1-1.5h-0.1v-26.2h-4V262.8
		c1.1-6.6,5.5-12.5,11.5-15.4l34.6-12.5L507.3,190c0,0-2-8.2-4.6-9.7c-2.5-1.6-8.9-1.5-8.9-1.5V165l3-3.3l18.1-18.1l6.8-6.7l-5-8.2
		l-7.4-8.9l-5.2-5.8l-9.6-10.2l-9.7-10.4l-7.2-5l-19.4,19l0.1,0.1l-39.9,39.9l-8.2,12.8l0.5,14.5l-129.5,47.2
		c-1,0.4-12.2,6.5-12.2,11.9v5h-13.9l-1.7-7.2v-2.5c0-1-0.8-1.7-1.7-1.7h-10.1c-1,0-1.7,0.8-1.7,1.7v31c0,1,0.8,1.7,1.7,1.7h5.1v0.6
		l0.9-0.6h0.2l14.8,22.1h6.4v73.4L252,385h-5.9c-1.9,0-3.6,1.6-3.6,3.6v26.9c0,1.9,1.6,3.6,3.6,3.6h0.7l9.6-12h0.2h12.6v86.2
		c0,0.8,0.1,1.6,0.3,2.3c-4.2,2.3-8.2,2.6-10.2,7c-1.3,2.7-1.2,9-1.2,12.1v23.2c0,12,10,21.9,22.2,21.9h242.9
		c12.2,0,22.2-9.9,22.2-21.9v-23.2C545.2,506.6,535.2,492.5,523.1,492.5"/>
	<line style="fill:none;" x1="345.2" y1="386.6" x2="342.5" y2="386.6"/>
	<path style="fill:#BCB6B0;" d="M341.3,263.7c1.1-6.6,5.5-12.5,11.5-15.4l34.6-12.5l120.8-44.9l-2.7-5.8L384.7,230l-34.6,12.5
		c-6,2.9-10.5,8.8-11.5,15.4v122.9h2.7L341.3,263.7L341.3,263.7z"/>
	<path style="fill:#ADA598;" d="M438.7,148.4c2.9,0,2.9-4.5,0-4.5C435.8,143.9,435.8,148.4,438.7,148.4"/>
	<polygon style="fill:#D7D0C8;" points="493.9,174 493.9,165 496.9,161.7 515.1,143.5 521.9,136.8 516.9,128.6 509.5,119.6 
		504.3,113.9 494.7,103.6 485,93.3 477.8,88.3 458.4,107.3 458.5,107.4 418.6,147.3 410.5,160.1 410.8,174 	"/>
	<polygon style="fill:#9C9C9A;" points="410.7,171.7 410.8,174 493.9,174 493.9,171.7 	"/>
	<path style="fill:#BCB5AD;" d="M248.1,390.3c-1.4,0-3.4,1.3-3.4,2.7v20.6c0,1.5,1.1,2.7,2.4,2.7h0.5l0.2-8.3l0.3-10.7v-5V390.3
		L248.1,390.3L248.1,390.3z"/>
	<path style="fill:#BCB5AD;" d="M269.2,406.9c0-1.3-1.2-3.3-2.5-3.3h-19c-1.4,0-2.5,1.1-2.5,2.3v0.8l17.6,0.2h4.7H269.2L269.2,406.9
		z"/>
	<path style="fill:#C4BEB7;" d="M251.6,231.5h-3.7c-1.7,0-3.2,1.5-3.2,3.2v3.6v25.6c0,0.5,0.4,0.9,0.9,0.9h0.8
		c0.5,0,0.9-0.4,0.9-0.9v-21c0-1.3,1.1-2.3,2.4-2.3h1.9c1.3,0,3.3,0.1,3.3-1.2l-1-5.6C253.9,232.6,252.9,231.5,251.6,231.5"/>
	<path style="fill:#373A3A;" d="M520.8,469.3c-0.4-1.1-0.9-2.1-1.5-3.2l-10.2-16.2c-2.1-3.3-5.3-5.4-8.9-6.3l-0.1-0.4l-10-3.5
		c5.9,11.1,12.5,24.3,12.9,25l8.2,14.3c0.4,0.9,0.6,1.8,0.4,2.7c-0.5,2.4-2.1,3.6-5,3.6H506l-116.8-14c0.3-1.9,1.2-3.8,2.4-5.2
		h-48.4h-4.5h-59c-4.9,0-9,3.3-10.3,7.9c-0.7,2.5-9.1,19.7-9.3,20.4c-0.9,4.3-1.7,9.1-0.2,11.2c2.8,4,10.2,2.7,14,2.7h54.2l17.4,1.1
		l163.9,19.1h25.2c5.8,0,10.7-4.8,10.7-10.7v-4c0-3.2-0.9-6.4-2.6-9.1L520.8,469.3z"/>
	<path style="fill:#7D807C;" d="M506.8,191l-0.3-0.7l-0.1-0.2l-0.1-0.2c0-0.1-1,0.1-2,0.6l-73.7,28.9c-1.1,0.4-1.9,0.9-1.8,1
		l0.1,0.2l0.1,0.2l0.3,0.7L506.8,191z"/>
	<polygon style="fill:#BCBDAF;" points="412.7,423.9 371.1,423.9 371.1,441 415.7,441 	"/>
	<rect x="373.6" y="424.6" style="fill:#2F3124;" width="3.9" height="15"/>
	<rect x="381.1" y="424.6" style="fill:#2F3124;" width="3.9" height="15"/>
	<rect x="388.7" y="424.6" style="fill:#2F3124;" width="3.9" height="15"/>
	<rect x="396.3" y="424.6" style="fill:#2F3124;" width="3.9" height="15"/>
	<rect x="403.8" y="424.6" style="fill:#2F3124;" width="3.9" height="15"/>
</g>
<g id="ocularLensSide">
	<path style="fill:#54555C;" d="M550.4,61.8c-7-7.3-15.5-10.5-19-7.3c-0.3,0.3-31.9,31.1-31.9,31.1l25.9,26.4l32-31.6
		C559.9,76.7,556.9,68.7,550.4,61.8"/>
	<polygon style="fill:#9C9EA3;" points="499.4,85.6 494.1,81.4 488.2,77.2 472.4,93.6 517.7,140.9 533.2,126.1 526.4,116.2 
		525.3,111.9 510.9,97.2 	"/>
</g>
<g id="stageSide">
	<rect x="393.4" y="324.1" style="fill:#9C9EA3;" width="90.5" height="21.5"/>
	<polygon style="fill:#5D6660;" points="393.4,307.8 335.2,307.8 339.9,300.1 393.4,300.1 	"/>
	<polygon style="fill:#363B39;" points="335.2,307.8 335.2,385.7 380.5,385.7 380.5,372.2 393.4,372.2 393.4,307.8 	"/>
	<rect x="356.6" y="312.1" style="fill:#1E2E31;" width="165" height="12"/>
	<polygon style="fill:#777E73;" points="359.5,297 495,297 521.5,312.1 356.6,312.1 	"/>
</g>
<g id="lightSwitchSide">
	<polygon style="fill:#919486;" points="395.1,476.5 395.1,473.7 395.1,473.5 393.3,472.8 394.6,471.6 394.5,471.4 391.7,466.3 
		391.6,466.1 390,466 390.5,464.7 390.3,464.6 385.2,460.7 385,460.6 383.2,461 383,459.5 382.8,459.4 376.2,457.3 375.9,457.3 
		374.7,458 374,457 373.7,457 366.6,457 366.3,457 365.4,458.3 363.9,457.4 363.7,457.4 357.1,459.6 356.9,459.7 356.8,460.9 
		355.2,460.6 355,460.7 350,464.6 349.8,464.7 350.4,466.2 348.4,466.4 348.3,466.6 345.6,471.7 345.5,471.9 346.6,472.9 
		345.1,473.5 345.1,473.7 345.1,476.5 	"/>
	<polygon style="fill:#63655E;" points="377.5,476.5 377.5,475.4 377.5,475.3 377,475.1 377.4,474.6 377.3,474.5 376.5,472.7 
		376.5,472.6 376,472.5 376.1,472.1 376.1,472 374.5,470.6 374.5,470.6 374,470.7 374,470.1 373.9,470.1 371.9,469.3 371.8,469.3 
		371.4,469.6 371.2,469.2 371.1,469.2 369.1,469.2 369,469.2 368.7,469.7 368.3,469.3 368.2,469.4 366.3,470.2 366.2,470.2 
		366.2,470.7 365.7,470.6 365.7,470.6 364.2,472 364.2,472.1 364.4,472.6 363.8,472.7 363.7,472.8 362.9,474.7 362.9,474.7 
		363.2,475.1 362.8,475.3 362.8,475.4 362.8,476.5 	"/>
</g>
<polygon id="coarseKnobSide" style="fill:#494A40;" points="326.6,393 327.9,391.5 327.8,391.3 325,384.8 324.9,384.5 323.2,384.4 
	323.8,382.8 323.6,382.7 318.6,377.7 318.4,377.5 316.5,378.1 316.3,376.1 316.1,376 309.4,373.4 309.2,373.3 308,374.4 
	307.3,372.9 307,372.9 299.8,372.9 299.6,372.9 298.7,374.7 297.2,373.4 297,373.5 290.4,376.3 290.1,376.4 290,378 288.5,377.5 
	288.3,377.7 283.2,382.7 283,382.8 283.7,384.8 281.8,384.9 281.7,385.2 279,391.7 278.9,391.9 279.9,393.1 278.5,393.9 
	278.5,394.1 278.5,401.2 278.5,401.5 280.2,402.3 279,403.8 279.1,404.1 281.9,410.6 282,410.8 283.6,410.9 283,412.4 283.2,412.6 
	288.3,417.7 288.5,417.8 290.4,417.2 290.5,419.1 290.8,419.2 297.4,421.8 297.6,421.9 298.9,420.9 299.6,422.3 299.8,422.3 
	307,422.3 307.3,422.3 308.2,420.6 309.6,421.8 309.9,421.7 316.5,419 316.7,418.9 316.8,417.3 318.4,417.8 318.6,417.7 
	323.6,412.6 323.8,412.4 323.1,410.6 325.1,410.4 325.2,410.2 327.9,403.6 328,403.4 326.9,402.1 328.4,401.5 328.4,401.2 
	328.4,394.1 328.4,393.9 "/>
<g id="fineKnobSide">
	<polygon style="fill:#161B1B;" points="315.6,397.5 316.4,396.8 316.3,396.7 315.5,393.2 315.5,392.9 314.7,392.8 315.1,392 
		315,391.9 312.9,388.9 312.8,388.8 311.9,388.9 312,388 311.9,387.9 308.8,385.9 308.7,385.9 307.9,386.2 307.7,385.5 307.6,385.4 
		303.9,384.9 303.8,384.9 303.2,385.5 302.5,384.8 302.4,384.9 298.9,385.6 298.7,385.6 298.6,386.3 297.8,386.1 297.7,386.1 
		294.6,388.2 294.5,388.3 294.6,389.2 293.6,389.1 293.5,389.2 291.6,392.2 291.6,392.3 292,393.2 291.2,393.4 291.2,393.5 
		290.5,397.2 290.5,397.3 291.2,397.9 290.4,398.5 290.5,398.6 291.4,402 291.3,402.2 292.2,402.4 291.8,403.2 291.9,403.3 
		293.9,406.4 294,406.5 295,406.4 294.9,407.4 295,407.4 298.2,409.3 298.1,409.4 298.9,408.9 299.1,409.8 299.2,409.8 302.9,410.5 
		303,410.5 303.6,409.8 304.3,410.5 304.4,410.5 308.1,409.6 308.3,409.7 308.3,408.8 309,409.2 309.1,409.1 312.2,407.1 312.3,407 
		312.2,406 313.2,406.2 313.3,406 315.3,403 315.3,402.9 314.9,402.1 315.7,401.9 315.7,401.8 316.4,398.2 316.4,398.1 	"/>
	<path style="fill:#323737;" d="M305.1,397.6c0,1-0.8,1.6-1.7,1.6s-1.7-0.8-1.7-1.6c0-1,0.8-1.6,1.7-1.6
		C304.3,395.9,305.1,396.6,305.1,397.6"/>
	<polygon style="fill:#111314;" points="304.3,397.4 303.7,397.4 303.7,396.8 303.1,396.8 303.1,397.4 302.5,397.4 302.5,398 
		303.1,398 303.1,398.5 303.7,398.5 303.7,398 304.3,398 	"/>
	<rect x="303" y="385" style="fill:#8C8C8C;" width="0.6" height="11"/>
</g>
<g id="adjustDHeight">
	<path style="fill:#1E2526;" d="M403.8,340.9h-10.5v10.4v34.4h-12.9v19.6h6.9v2.5h6v3h10.5v-5.5V403v-4.2v-13.2v-27.4
		c0-3.9,3.1-7,7-7h16v-10.4L403.8,340.9L403.8,340.9L403.8,340.9L403.8,340.9z"/>
	<path style="fill:#1E2526;" d="M448.9,338c-19.3,0-35,2.7-35,6v1.3v4.7v4.3c0,2.5,15.6,4.6,35,4.6c19.3,0,35-2,35-4.6V350v-4.7V344
		C483.9,340.7,468.3,338,448.9,338"/>
	<path style="fill:#2A302F;" d="M424.5,339.9v3.4c0,1.4,11.5,2.3,25.7,2.3c14.3,0,25.7-1.1,25.7-2.3v-3.4H424.5z"/>
	<rect x="424.5" y="338.8" style="fill:#4A4D4E;" width="51.5" height="1.2"/>
	<polygon style="fill:#101516;" points="469.5,332.6 458.2,332.6 454.2,332.6 446.4,332.6 433.1,332.6 431.1,332.6 424.5,338.8 
		433.1,338.8 446.4,338.8 454.2,338.8 458.2,338.8 476.1,338.8 	"/>
	<polygon style="fill:#101516;" points="463.4,328.3 455.7,328.3 453,328.3 447.6,328.3 438.5,328.3 437.2,328.3 432.7,332.6 
		438.5,332.6 447.6,332.6 453,332.6 455.7,332.6 467.9,332.6 	"/>
	<path style="fill:#394542;" d="M483.1,353.9h-2.3h-3.9h-27.5h-22.5h-5.8h-2H414v3.9l5.1,5.6h8h12H481c1.6,0,3-1.3,3-2.8v-1.9v-1.9
		V354h-0.9V353.9z"/>
	<path style="fill:#394F9F;" d="M429.1,363.4v2.5v5.1c0,2.9,9.5,5.3,21.2,5.3s21.2-2.4,21.2-5.3v-5.1v-2.5H429.1z"/>
	<path style="fill:#162249;" d="M450.3,367.6c-7.9,0-15.2-0.2-21.2-0.6v2.5c0,1,9.5,1.7,21.2,1.7s21.2-0.8,21.2-1.7V367
		C465.5,367.3,458.2,367.6,450.3,367.6"/>
	<path style="fill:#546FB5;" d="M450.3,371.3c-11.6,0-21.2-0.8-21.2-1.7v1.6c0,2.9,9.5,5.3,21.2,5.3s21.2-2.4,21.2-5.3v-1.6
		C471.5,370.5,462,371.3,450.3,371.3"/>
</g>
<g id="draggableDiaphragm">
	<polygon style="fill:#010101;" points="396.4,371 397.3,369.9 397.3,369.7 395.1,364.7 395.1,364.6 393.9,364.5 394.2,363.3 
		394.1,363.1 390.3,359.3 390.1,359.2 388.7,359.6 388.5,358.2 388.3,358.1 383.3,356.1 383.1,356 382.2,356.8 381.6,355.8 
		381.4,355.8 376,355.8 375.8,355.8 375.1,357.1 374,356.1 373.8,356.1 368.7,358.3 368.6,358.4 368.5,359.6 367.4,359.2 
		367.2,359.3 363.3,363.1 363.2,363.3 363.7,364.7 362.1,364.9 362.1,365 360.1,370 360,370.2 360.8,371.1 359.7,371.7 359.7,371.9 
		359.7,377.3 359.7,377.5 361.1,378.2 360.1,379.2 360.2,379.4 362.3,384.4 362.3,384.6 363.6,384.7 363.2,385.8 363.3,385.9 
		367.2,389.8 367.4,389.9 368.7,389.4 368.9,391 369,391 374.2,393 374.3,393.1 375.2,392.2 375.8,393.4 376,393.4 381.4,393.4 
		381.6,393.4 382.3,392 383.5,393 383.7,392.9 388.6,390.9 388.8,390.8 388.9,389.5 390.1,389.9 390.3,389.8 394.1,385.9 
		394.2,385.8 393.8,384.4 395.2,384.3 395.3,384.1 397.3,379.1 397.4,378.9 396.6,378 397.7,377.5 397.7,377.3 397.7,371.9 
		397.7,371.7 	"/>
	<path style="fill:#29322C;" d="M394.8,374.6c0,8.8-7.3,16-16.2,16c-8.9,0-16.2-7.2-16.2-16s7.3-16,16.2-16S394.8,365.7,394.8,374.6
		"/>
	<path style="fill:#151817;" d="M391.9,374.6c0,7.3-5.9,13.1-13.2,13.1c-7.3,0-13.2-5.8-13.2-13.1c0-7.3,5.9-13.1,13.2-13.1
		S391.9,367.3,391.9,374.6"/>
	<path style="fill:#323737;" d="M380.9,374.6c0,1.2-1,2.1-2.1,2.1c-1.2,0-2.1-1-2.1-2.1s1-2.1,2.1-2.1
		C379.9,372.4,380.9,373.4,380.9,374.6"/>
	<polygon style="fill:#111314;" points="379.8,374.2 379.1,374.2 379.1,373.5 378.3,373.5 378.3,374.2 377.6,374.2 377.6,374.9 
		378.3,374.9 378.3,375.6 379.1,375.6 379.1,374.9 379.8,374.9 	"/>
	<rect x="378.4" y="361.5" style="fill:#8C8C8C;" width="0.6" height="11"/>
</g>
<g id="lensesSide">
	<path style="fill:#989998;" d="M506.8,206.2c2.9,6.7-10.8,19-30.6,27.6c-19.8,8.5-38.3,10-41.2,3.3c-2.9-6.7,10.8-19,30.6-27.6
		C485.4,201,503.9,199.5,506.8,206.2"/>
	<rect x="435.9" y="223.4" style="fill:#5A5B5B;" width="24.8" height="16.9"/>
	<polygon style="fill:#5A5B5B;" points="499.5,198.3 480.2,216.5 491.9,228.6 511.2,210.4 	"/>
	<path style="fill:#5A5B5B;" d="M458.3,224l6.1,11.5c2.7-3.2,6.5-6.2,11-8.5s9-3.8,13.3-4.3l-6.1-11.5c-4.4,0.2-9,1.5-13.5,3.8
		C464.6,217.4,460.9,220.6,458.3,224"/>
	<polygon style="fill:#111A1A;" points="459.7,236 469.5,260.9 474.5,266.9 493.1,259.6 492.6,251.9 482.7,227 	"/>
	<polygon style="fill:#A7ACAA;" points="493.1,259.6 474.6,266.9 475.3,268.6 493.8,261.3 	"/>
	<polygon style="fill:#252D2A;" points="479.9,220.2 456.9,229.2 459.7,236 482.7,227 	"/>
	<path style="fill:#162120;" d="M491.4,228l11.2,11.6c3.1-2.2,6.7-5.1,10.2-8.5c3.6-3.4,6.7-6.7,9.1-9.7l-11.2-11.6L491.4,228z"/>
	<polygon style="fill:#606B67;" points="505.9,204.9 486.5,223.1 491.9,228.6 511.2,210.4 	"/>
	<path style="fill:#132221;" d="M474.1,224.3c-6.7,3.5-11.5,7.8-10.5,9.4l5.5,10.3l5.8,10.8l2.7,5.1l24.3-12.8l-2.7-5.1l-5.8-10.8
		l-5.5-10.3C486.9,219.2,480.8,220.8,474.1,224.3"/>
	<path style="fill:#7D807C;" d="M487.4,249c-6.7,3.5-11.1,8.3-9.8,10.8l14.8,7l2.4-1.3l2.4-1.3l2.4-1.3l2.3-16
		C500.5,244.5,494.1,245.4,487.4,249"/>
	<path style="fill:#161E18;" d="M499.4,262.9c-0.3-0.5-2.1-0.1-4.1,1s-3.4,2.3-3.1,2.8s2.1,0.1,4.1-1
		C498.4,264.7,499.7,263.5,499.4,262.9"/>
	<path style="fill:#5A5D5B;" d="M460.4,227.8l4.1,7.6c3-2.7,6.9-5.4,11.4-7.8s8.9-4.1,12.9-4.9l-4.1-7.6c-4.1,0.8-8.5,2.3-13,4.7
		C467.1,222.1,463.2,224.9,460.4,227.8"/>
	<polygon style="fill:#111A1A;" points="435.9,240.2 435.9,270.4 438.3,278.6 458.3,278.6 460.7,270.4 460.7,240.2 	"/>
	<rect x="439.7" y="278.6" style="fill:#A7ACAA;" width="17.3" height="4.3"/>
	<g>
		<polygon style="fill:#5B675F;" points="452.6,282.8 448.5,282.8 448.1,282.8 446.5,282.8 441.9,282.8 442.9,284.4 446.5,284.4 
			448.1,284.4 448.5,284.4 451.6,284.4 453.7,284.4 454.7,282.8 		"/>
	</g>
	<rect x="435.9" y="233" style="fill:#4C5B56;" width="24.8" height="7.3"/>
	<path style="fill:#17211D;" d="M425.8,222.7l2.7,6.9l0.7,1.6l0.7,1.6c0.5,1.2,1.7,1.6,3,1.2l80.1-31.4c1.2-0.5,1.7-1.7,1.4-2.9
		l-0.7-1.6l-0.7-1.6l-2.7-6.9L425.8,222.7z"/>
</g>
</svg>
