<?xml version="1.0" encoding="utf-8"?>
<!-- Generator: Adobe Illustrator 15.1.0, SVG Export Plug-In . SVG Version: 6.00 Build 0)  -->
    <svg version="1.1" xmlns="http://www.w3.org/2000/svg" xmlns:xlink="http://www.w3.org/1999/xlink" x="0px" y="0px"
         viewBox="0 0 792.998 640.101" enable-background="new 0 0 792.998 640.101" xml:space="preserve">
<path fill="#E6DFD5" d="M520.361,500.29c0,0-11.652-10.822-12.609-13.016l-19.014-43.709c-0.588-1.354-1.803-2.258-3.17-2.533
	l-0.004-0.016h-0.062c-0.51-0.094-1.035-0.09-1.561,0h-8.455V428.86H344.832v-0.27c-4.879-0.705-8.632-4.854-8.632-9.879
	c0-0.496,0.05-0.977,0.12-1.453h-0.12v-27.016h-4.089V263.626c1.056-6.756,5.684-12.873,11.895-15.865l35.742-12.866l124.531-46.342
	c0,0-2.123-8.442-4.742-10.045c-2.615-1.603-9.248-1.488-9.248-1.488v-14.195l3.074-3.434l18.746-18.728l7.002-6.873l-5.156-8.511
	l-7.553-9.157l-5.395-5.953l-9.869-10.531l-10.023-10.684l-7.395-5.185l-20.008,19.634l0.105,0.107l-41.143,41.099l-8.411,13.181
	l0.463,14.881l-133.43,48.596c-1.019,0.367-12.633,6.698-12.633,12.305v5.182h-14.266l-1.776-7.378v-2.627
	c0-1-0.826-1.815-1.835-1.815h-10.436c-1.01,0-1.835,0.815-1.835,1.815v31.928c0,0.997,0.826,1.816,1.835,1.816h5.331v0.595
	l0.907-0.595h0.184l15.274,22.823h6.615v75.608l-17.669,28.537h-6.087c-2.03,0-3.691,1.645-3.691,3.652v27.738
	c0,2.01,1.661,3.652,3.691,3.652h0.686l9.947-12.385l0.17-0.047h12.957v88.758c0,0.814,0.097,1.609,0.27,2.375
	c-4.251,2.375-8.497,2.738-10.513,7.168c-1.282,2.822-1.173,9.266-1.173,12.545v23.891c0,12.443,10.286,22.625,22.852,22.625
	h250.266c12.566,0,22.852-10.182,22.852-22.625v-23.891C543.215,514.792,532.93,500.29,520.361,500.29"/>
<line fill="none" x1="337.093" y1="391.167" x2="334.32" y2="391.167"/>
<path fill="#BCB6B0" d="M333.004,264.549c1.057-6.756,5.686-12.874,11.895-15.864l35.742-12.868l124.531-46.34l-2.775-5.999
	l-124.528,46.34l-35.742,12.868c-6.21,2.991-10.841,9.108-11.896,15.866v126.619h2.773V264.549z"/>
<path fill="#ADA598" d="M433.402,145.654c2.979,0,2.98-4.579,0-4.579C430.426,141.074,430.42,145.654,433.402,145.654"/>
<polygon fill="#D7D0C8" points="490.289,172.133 490.289,162.824 493.357,159.391 512.107,140.663 519.109,133.788 513.951,125.276 
	506.398,116.119 501,110.167 491.135,99.635 481.115,88.951 473.715,83.767 453.713,103.399 453.822,103.506 412.676,144.607 
	404.265,157.788 404.712,172.133 "/>
<polygon fill="#9C9C9A" points="404.633,169.693 404.712,172.136 490.289,172.136 490.289,169.693 "/>
<path fill="#BCB5AD" d="M236.958,395.03c-1.359,0-3.461,1.256-3.461,2.787v21.166c0,1.533,1.114,2.787,2.47,2.787h0.459l0.184-8.586
	l0.347-10.988v-5.15v-2.016H236.958z"/>
<path fill="#BCB5AD" d="M258.672,412.142c0-1.346-1.163-3.426-2.583-3.426h-19.615c-1.423,0-2.584,1.1-2.584,2.443v0.76
	l18.138,0.223h4.772H258.672L258.672,412.142z"/>
<path fill="#C4BEB7" d="M240.591,231.429h-3.753c-1.827,0-3.324,1.483-3.324,3.293v3.714v26.398c0,0.503,0.415,0.911,0.921,0.911
	h0.792c0.508,0,0.921-0.408,0.921-0.911v-21.584c0-1.343,1.101-2.433,2.459-2.433h1.985c1.322,0,3.419,0.081,3.419-1.229
	l-1.014-5.778C242.997,232.5,241.914,231.429,240.591,231.429"/>
<path fill="#373A3A" d="M518.041,476.403c-0.361-1.121-0.854-2.221-1.51-3.26l-10.57-16.775c-2.166-3.432-5.539-5.65-9.225-6.467
	l-0.107-0.35l-10.271-3.609c6.068,11.43,12.881,24.955,13.316,25.811l8.398,14.73c0.441,0.869,0.611,1.865,0.424,2.822
	c-0.494,2.479-2.186,3.662-5.197,3.662h-0.49l-120.438-14.445c0.32-2.031,1.196-3.883,2.463-5.395h-49.832h-4.57h-60.793
	c-5.028,0-9.293,3.436-10.575,8.078c-0.726,2.629-9.44,20.332-9.575,20.973c-0.918,4.398-1.765,9.379-0.242,11.518
	c2.913,4.088,10.496,2.779,14.36,2.779h55.856l17.888,1.08l168.885,19.68h26.01c6.033,0,10.969-4.945,10.969-10.986v-4.141
	c0-3.33-0.93-6.588-2.689-9.424L518.041,476.403z"/>
<path fill="#54555C" d="M548.455,56.504c-7.229-7.511-16.01-10.846-19.611-7.45c-0.283,0.271-32.887,31.932-32.887,31.932
	l26.699,27.151l32.961-32.559C558.258,71.792,555.248,63.56,548.455,56.504"/>
<polygon fill="#9C9EA3" points="495.953,80.988 490.518,76.741 484.387,72.394 468.096,89.283 514.812,138.004 530.75,122.845 
	523.82,112.456 522.652,108.138 507.812,93.045 "/>
<rect x="386.688" y="326.783" fill="#9C9EA3" width="93.324" height="22.223"/>
<polygon fill="#5D6660" points="386.688,309.962 326.796,309.962 331.65,302.057 386.688,302.057 "/>
<polygon fill="#363B39" points="326.796,309.962 326.796,390.323 373.35,390.323 373.35,376.433 386.688,376.433 386.688,309.962 
	"/>
<rect x="348.766" y="314.419" fill="#1E2E31" width="169.965" height="12.363"/>
<polygon fill="#777E73" points="351.771,298.851 491.443,298.851 518.73,314.419 348.766,314.419 "/>
<polygon fill="#494A40" points="317.899,397.767 319.216,396.233 319.114,395.993 316.231,389.269 316.128,389.028 314.448,388.927 
	314.981,387.345 314.796,387.161 309.577,381.995 309.392,381.81 307.465,382.448 307.303,380.444 307.061,380.345 300.217,377.608 
	299.973,377.509 298.712,378.614 297.96,377.126 297.699,377.126 290.318,377.126 290.054,377.126 289.146,378.923 287.602,377.618 
	287.36,377.72 280.565,380.573 280.323,380.675 280.219,382.341 278.623,381.81 278.438,381.995 273.219,387.161 273.034,387.345 
	273.675,389.257 271.651,389.415 271.552,389.651 268.789,396.429 268.692,396.671 269.804,397.919 268.299,398.665 
	268.299,398.923 268.299,406.229 268.299,406.489 270.116,407.39 268.798,408.919 268.9,409.157 271.785,415.882 271.886,416.126 
	273.566,416.228 273.034,417.808 273.219,417.989 278.438,423.157 278.623,423.341 280.551,422.704 280.714,424.71 280.956,424.806 
	287.798,427.544 288.043,427.64 289.302,426.54 290.054,428.03 290.318,428.03 297.699,428.03 297.96,428.03 298.869,426.231 
	300.415,427.534 300.656,427.433 307.45,424.579 307.69,424.478 307.796,422.813 309.392,423.341 309.577,423.157 314.796,417.989 
	314.981,417.808 314.339,415.901 316.366,415.743 316.462,415.497 319.228,408.726 319.325,408.483 318.212,407.235 
	319.716,406.489 319.716,406.229 319.716,398.923 319.716,398.665 "/>
<polygon fill="#919486" points="388.457,483.767 388.457,480.88 388.457,480.677 386.641,479.966 387.957,478.757 387.855,478.565 
	384.972,473.253 384.869,473.065 383.191,472.985 383.722,471.735 383.537,471.589 378.318,467.509 378.133,467.364 
	376.207,467.868 376.045,466.286 375.801,466.204 368.957,464.042 368.713,463.966 367.453,464.837 366.7,463.661 366.438,463.661 
	359.059,463.661 358.796,463.661 357.886,465.083 356.341,464.054 356.1,464.132 349.307,466.388 349.062,466.466 348.958,467.78 
	347.363,467.364 347.178,467.509 341.96,471.589 341.773,471.735 342.418,473.241 340.393,473.368 340.293,473.556 337.529,478.911 
	337.43,479.099 338.543,480.087 337.039,480.677 337.039,480.88 337.039,483.767 "/>
<polygon fill="#63655E" points="370.314,483.767 370.314,482.69 370.314,482.614 369.779,482.351 370.169,481.899 370.137,481.831 
	369.289,479.853 369.258,479.778 368.764,479.749 368.92,479.284 368.867,479.231 367.332,477.708 367.275,477.655 366.708,477.845 
	366.661,477.249 366.59,477.224 364.575,476.417 364.504,476.388 364.133,476.714 363.91,476.274 363.834,476.274 361.662,476.274 
	361.584,476.274 361.318,476.806 360.863,476.419 360.791,476.452 358.793,477.292 358.719,477.321 358.69,477.812 358.219,477.655 
	358.166,477.708 356.627,479.231 356.574,479.284 356.764,479.845 356.168,479.89 356.139,479.966 355.325,481.956 355.296,482.028 
	355.625,482.397 355.182,482.614 355.182,482.69 355.182,483.767 "/>
<polygon fill="#161B1B" points="306.319,400.097 306.997,399.308 306.946,399.183 305.459,395.718 305.406,395.593 304.542,395.54 
	304.816,394.728 304.722,394.632 302.032,391.97 301.936,391.876 300.941,392.202 300.86,391.169 300.735,391.12 297.208,389.71 
	297.084,389.659 296.433,390.228 296.043,389.46 295.91,389.46 292.106,389.46 291.97,389.46 291.502,390.386 290.706,389.712 
	290.581,389.767 287.08,391.237 286.957,391.29 286.902,392.146 286.079,391.876 285.983,391.97 283.296,394.632 283.199,394.728 
	283.53,395.712 282.487,395.794 282.435,395.915 281.01,399.407 280.959,399.532 281.534,400.177 280.758,400.558 280.758,400.694 
	280.758,404.456 280.758,404.593 281.695,405.054 281.018,405.843 281.071,405.97 282.555,409.433 282.608,409.556 283.472,409.612 
	283.199,410.425 283.296,410.521 285.983,413.181 286.079,413.278 287.072,412.952 287.155,413.983 287.281,414.032 
	290.808,415.444 290.934,415.493 291.585,414.923 291.97,415.692 292.106,415.692 295.91,415.692 296.043,415.692 296.513,414.765 
	297.309,415.438 297.434,415.386 300.935,413.915 301.059,413.864 301.113,413.005 301.936,413.278 302.032,413.181 
	304.722,410.521 304.816,410.425 304.486,409.442 305.528,409.36 305.579,409.237 307.005,405.747 307.055,405.62 306.481,404.978 
	307.257,404.593 307.257,404.456 307.257,400.694 307.257,400.558 "/>
<path fill="#323737" d="M295.72,402.493c0,0.955-0.785,1.736-1.752,1.736c-0.969,0-1.756-0.779-1.756-1.736
	c0-0.961,0.788-1.74,1.756-1.74C294.935,400.753,295.72,401.532,295.72,402.493"/>
<polygon fill="#111314" points="294.867,402.288 294.256,402.288 294.256,401.683 293.675,401.683 293.675,402.288 293.062,402.288 
	293.062,402.862 293.675,402.862 293.675,403.47 294.256,403.47 294.256,402.862 294.867,402.862 "/>



<g id="adjustDHeight">
<path fill="#1E2526" d="M397.416,344.132h-10.791v10.684v35.355h-13.277v20.229h7.099v2.643h6.18v3.105h10.794v-5.748v-2.287v-4.326
	v-13.611v-28.2c0-3.953,3.235-7.157,7.226-7.157h16.489v-10.682H397.42v-0.004H397.416z"/>
<path fill="#1E2526" d="M443.941,341.104c-19.924,0-36.069,2.77-36.069,6.182v1.271v4.761v4.403c0,2.583,16.146,4.678,36.069,4.678
	c19.922,0,36.07-2.095,36.07-4.678v-4.403v-4.761v-1.271C480.012,343.873,463.863,341.104,443.941,341.104"/>
<path fill="#2A302F" d="M418.816,343.053v3.51c0,1.351,11.881,2.442,26.533,2.442c14.654,0,26.533-1.094,26.533-2.442v-3.51H418.816
	z"/>
<rect x="418.816" y="341.89" fill="#4A4D4E" width="53.066" height="1.163"/>
<polygon fill="#101516" points="465.098,335.481 453.453,335.481 449.402,335.481 441.299,335.481 427.627,335.481 425.602,335.481 
	418.816,341.89 427.627,341.89 441.299,341.89 449.402,341.89 453.453,341.89 471.883,341.89 "/>
<polygon fill="#101516" points="458.85,331.107 450.889,331.107 448.121,331.107 442.584,331.107 433.236,331.107 431.855,331.107 
	427.213,335.481 433.236,335.481 442.584,335.481 448.121,335.481 450.889,335.481 463.486,335.481 "/>
<path fill="#394542" d="M479.242,357.451h-2.373h-4.037h-28.273h-23.242h-5.961h-2.148h-5.333v4.024l5.29,5.82h8.152h12.393h43.164
	c1.736,0,3.141-1.311,3.141-2.928v-1.971v-2.017v-2.93H479.242L479.242,357.451z"/>
<path fill="#394F9F" d="M423.537,367.298v2.617v5.256c0,3.033,9.768,5.492,21.812,5.492c12.047,0,21.814-2.463,21.814-5.492v-5.256
	v-2.617H423.537z"/>
<path fill="#162249" d="M445.35,371.558c-8.146,0-15.674-0.219-21.812-0.588v2.613c0,1.008,9.766,1.824,21.812,1.824
	s21.814-0.816,21.814-1.824v-2.613C461.023,371.339,453.496,371.558,445.35,371.558"/>
<path fill="#546FB5" d="M445.35,375.409c-12.047,0-21.812-0.818-21.812-1.824v1.582c0,3.035,9.766,5.496,21.812,5.496
	s21.814-2.463,21.814-5.496v-1.582C467.164,374.591,457.396,375.409,445.35,375.409"/>

</g>

<g id="draggableDiaphragm">
<polygon fill="#010101" points="389.803,375.118 390.807,373.95 390.728,373.769 388.531,368.642 388.451,368.46 387.173,368.38 
	387.578,367.175 387.438,367.037 383.46,363.098 383.316,362.958 381.85,363.442 381.725,361.915 381.541,361.838 376.323,359.754 
	376.139,359.682 375.177,360.521 374.604,359.384 374.404,359.384 368.778,359.384 368.58,359.384 367.885,360.755 366.708,359.763 
	366.522,359.839 361.345,362.014 361.162,362.092 361.081,363.36 359.867,362.958 359.725,363.098 355.744,367.037 355.604,367.175 
	356.094,368.63 354.55,368.753 354.475,368.938 352.369,374.101 352.293,374.282 353.141,375.235 351.994,375.802 351.994,376.003 
	351.994,381.571 351.994,381.767 353.381,382.452 352.375,383.62 352.453,383.802 354.651,388.929 354.73,389.112 356.008,389.19 
	355.604,390.394 355.744,390.536 359.725,394.474 359.867,394.614 361.336,394.13 361.456,395.657 361.643,395.729 366.857,397.817 
	367.045,397.894 368.006,397.05 368.58,398.188 368.778,398.188 374.404,398.188 374.604,398.188 375.295,396.817 376.474,397.812 
	376.658,397.733 381.838,395.558 382.021,395.479 382.102,394.212 383.316,394.614 383.46,394.474 387.438,390.536 387.578,390.394 
	387.089,388.94 388.633,388.817 388.707,388.636 390.815,383.47 390.889,383.288 390.041,382.337 391.186,381.767 391.186,381.571 
	391.186,376.003 391.186,375.802 "/>

<path fill="#29322C" d="M388.245,378.784c0,9.109-7.456,16.49-16.655,16.49c-9.197,0-16.656-7.381-16.656-16.49
	c0-9.105,7.457-16.486,16.656-16.486S388.245,369.679,388.245,378.784"/>
<path fill="#151817" d="M385.231,378.784c0,7.461-6.108,13.508-13.642,13.508c-7.534,0-13.641-6.047-13.641-13.508
	c0-7.459,6.106-13.502,13.641-13.502C379.123,365.282,385.231,371.325,385.231,378.784"/>
<path fill="#323737" d="M373.776,378.784c0,1.197-0.978,2.168-2.187,2.168s-2.186-0.971-2.186-2.168c0-1.193,0.977-2.16,2.186-2.16
	S373.776,377.591,373.776,378.784"/>
<polygon fill="#111314" points="372.717,378.427 371.954,378.427 371.954,377.673 371.23,377.673 371.23,378.427 370.465,378.427 
	370.465,379.144 371.23,379.144 371.23,379.901 371.954,379.901 371.954,379.144 372.717,379.144 "/>

</g>

<path fill="#989998" d="M503.607,205.328c3.033,6.909-11.088,19.64-31.533,28.436c-20.449,8.794-39.482,10.322-42.516,3.412
	c-3.031-6.91,11.088-19.641,31.535-28.437C481.539,199.945,500.574,198.418,503.607,205.328"/>
<rect x="430.506" y="222.976" fill="#5A5B5B" width="25.555" height="17.367"/>
<polygon fill="#5A5B5B" points="496.129,197.097 476.197,215.882 488.217,228.387 508.148,209.602 "/>
<path fill="#5A5B5B" d="M453.641,223.62l6.326,11.75c2.846-3.281,6.699-6.356,11.32-8.793c4.615-2.436,9.344-3.893,13.68-4.399
	l-6.328-11.75c-4.469,0.192-9.299,1.475-13.938,3.922C460.061,216.797,456.293,220.056,453.641,223.62"/>
<polygon fill="#111A1A" points="454.971,236.01 465.23,261.697 470.326,267.765 489.467,260.271 488.992,252.394 478.73,226.706 "/>
<polygon fill="#A7ACAA" points="489.482,260.265 470.35,267.756 471.07,269.553 490.199,262.063 "/>
<polygon fill="#252D2A" points="475.947,219.742 452.186,229.046 454.971,236.01 478.73,226.706 "/>
<path fill="#162120" d="M487.656,227.802l11.547,12.01c3.219-2.305,6.861-5.312,10.547-8.786c3.689-3.478,6.902-6.93,9.385-9.997
	l-11.549-12.013L487.656,227.802z"/>
<polygon fill="#606B67" points="502.672,203.904 482.742,222.69 488.217,228.385 508.148,209.602 "/>
<path fill="#132221" d="M469.857,223.932c-6.9,3.643-11.75,7.986-10.828,9.697l5.686,10.562l6,11.141l2.83,5.261l25-13.194
	l-2.834-5.26l-5.994-11.142l-5.689-10.559C483.105,218.724,476.762,220.288,469.857,223.932"/>
<path fill="#7D807C" d="M483.561,249.378c-6.902,3.644-11.408,8.62-10.064,11.115l15.193,7.202l2.451-1.292l2.475-1.308l2.451-1.293
	l2.43-16.503C497.15,244.807,490.465,245.736,483.561,249.378"/>
<path fill="#161E18" d="M496.045,263.731c-0.285-0.534-2.178-0.091-4.223,0.99c-2.045,1.079-3.471,2.385-3.186,2.918
	c0.285,0.533,2.176,0.09,4.223-0.99C494.904,265.571,496.33,264.265,496.045,263.731"/>
<path fill="#5A5D5B" d="M455.783,227.598l4.184,7.772c3.096-2.811,7.102-5.613,11.717-8.048c4.615-2.437,9.199-4.167,13.283-5.144
	l-4.186-7.774c-4.162,0.764-8.814,2.381-13.449,4.829C462.691,221.678,458.742,224.604,455.783,227.598"/>
<polygon fill="#111A1A" points="430.506,240.343 430.506,271.436 432.994,279.875 453.572,279.875 456.059,271.436 456.059,240.343 
	"/>
<rect x="434.381" y="279.875" fill="#A7ACAA" width="17.805" height="4.35"/>
<g opacity="0.46">
	<g>
		<polygon fill="#5B675F" points="447.74,284.225 443.48,284.225 443.086,284.225 441.361,284.225 436.707,284.225 437.711,285.904 
			441.361,285.904 443.086,285.904 443.48,285.904 446.736,285.904 448.854,285.904 449.859,284.225 		"/>
	</g>
</g>
<rect x="430.506" y="232.854" fill="#4C5B56" width="25.555" height="7.489"/>
<path fill="#7D807C" d="M503.594,189.558l-0.287-0.72l-0.072-0.171l-0.068-0.174c-0.047-0.117-1,0.146-2.119,0.586l-75.902,29.786
	c-1.117,0.438-1.996,0.895-1.947,1.012l0.068,0.174l0.07,0.173l0.289,0.72L503.594,189.558z"/>
<path fill="#17211D" d="M420.141,222.291l2.848,7.11l0.684,1.705l0.684,1.704c0.463,1.16,1.84,1.718,3.057,1.242l82.498-32.376
	c1.217-0.478,1.834-1.816,1.367-2.976l-0.682-1.707l-0.684-1.704l-2.846-7.111L420.141,222.291z"/>
<polygon fill="#BCBDAF" points="406.576,429.604 363.795,429.604 363.795,447.233 409.699,447.233 "/>
<rect x="366.338" y="430.349" fill="#2F3124" width="3.99" height="15.453"/>
<rect x="374.115" y="430.349" fill="#2F3124" width="3.988" height="15.453"/>
<rect x="381.893" y="430.349" fill="#2F3124" width="3.988" height="15.453"/>
<rect x="389.667" y="430.349" fill="#2F3124" width="3.989" height="15.453"/>
<rect x="397.445" y="430.349" fill="#2F3124" width="3.987" height="15.453"/>
</svg>
