<?xml version="1.0" encoding="utf-8"?>
<!-- Generator: Adobe Illustrator 15.1.0, SVG Export Plug-In . SVG Version: 6.00 Build 0)  -->
<!DOCTYPE svg PUBLIC "-//W3C//DTD SVG 1.1//EN" "http://www.w3.org/Graphics/SVG/1.1/DTD/svg11.dtd">
<svg version="1.1" id="Layer_1" xmlns="http://www.w3.org/2000/svg" xmlns:xlink="http://www.w3.org/1999/xlink" x="0px" y="0px"
	 width="263.811px" height="425.565px" viewBox="0 0 263.811 425.565" enable-background="new 0 0 263.811 425.565"
	 xml:space="preserve">
<path fill="#E6DFD5" d="M234.695,369.165c0,0-9.373-8.828-10.142-10.619l-15.289-35.653c-0.475-1.104-1.45-1.842-2.549-2.065
	l-0.004-0.014h-0.051c-0.408-0.076-0.831-0.072-1.253,0h-6.802v-9.916H93.539v-0.22c-3.924-0.575-6.942-3.959-6.942-8.06
	c0-0.403,0.039-0.795,0.096-1.184h-0.096v-22.038h-3.289V176.115c0.849-5.511,4.571-10.5,9.566-12.942l28.743-10.495l100.144-37.801
	c0,0-1.707-6.887-3.812-8.194c-2.104-1.308-7.438-1.214-7.438-1.214V93.89l2.471-2.801l15.076-15.277l5.632-5.606l-4.148-6.943
	l-6.073-7.47l-4.339-4.855l-7.936-8.591l-8.06-8.715l-5.949-4.229l-16.087,16.016l0.085,0.087l-33.086,33.525l-6.764,10.752
	l0.371,12.139l-107.301,39.64c-0.819,0.299-10.159,5.463-10.159,10.037v4.227H12.772l-1.428-6.019v-2.143
	c0-0.815-0.664-1.481-1.475-1.481H1.476c-0.812,0-1.476,0.666-1.476,1.481v26.045c0,0.813,0.664,1.48,1.476,1.48h4.287v0.486
	l0.729-0.486H6.64l12.283,18.617h5.32v61.674l-14.209,23.278H5.138c-1.633,0-2.968,1.341-2.968,2.979v22.627
	c0,1.64,1.335,2.98,2.968,2.98h0.551l8-10.104l0.137-0.037h10.419v72.401c0,0.664,0.078,1.312,0.217,1.937
	c-3.418,1.938-6.833,2.233-8.454,5.846c-1.031,2.303-0.943,7.56-0.943,10.235v19.487c0,10.15,8.271,18.455,18.377,18.455h201.256
	c10.106,0,18.377-8.305,18.377-18.455v-19.487C253.072,380.993,244.803,369.165,234.695,369.165"/>
<line fill="none" x1="87.315" y1="280.151" x2="85.085" y2="280.151"/>
<path fill="#BCB6B0" d="M84.026,176.867c0.85-5.511,4.572-10.501,9.566-12.941l28.743-10.496l100.144-37.8l-2.232-4.894
	l-100.142,37.8l-28.743,10.496c-4.994,2.44-8.719,7.43-9.566,12.942v103.284h2.23V176.867z"/>
<path fill="#ADA598" d="M164.764,79.883c2.394,0,2.396-3.735,0-3.735C162.371,76.147,162.365,79.883,164.764,79.883"/>
<polygon fill="#D7D0C8" points="210.51,101.483 210.51,93.889 212.979,91.089 228.057,75.812 233.688,70.204 229.539,63.261 
	223.466,55.791 219.125,50.936 211.191,42.345 203.133,33.63 197.183,29.401 181.097,45.416 181.185,45.503 148.096,79.029 
	141.332,89.781 141.691,101.483 "/>
<polygon fill="#9C9C9A" points="141.629,99.492 141.691,101.485 210.51,101.485 210.51,99.492 "/>
<path fill="#BCB5AD" d="M6.788,283.302c-1.093,0-2.783,1.023-2.783,2.273v17.267c0,1.25,0.895,2.272,1.986,2.272H6.36l0.148-7.002
	l0.279-8.965v-4.201V283.302z"/>
<path fill="#BCB5AD" d="M24.25,297.26c0-1.097-0.935-2.795-2.077-2.795H6.399c-1.144,0-2.078,0.897-2.078,1.993v0.621l14.587,0.181
	h3.838H24.25L24.25,297.26z"/>
<path fill="#C4BEB7" d="M9.71,149.851H6.692c-1.469,0-2.674,1.209-2.674,2.686v3.029v21.533c0,0.411,0.334,0.743,0.742,0.743h0.637
	c0.408,0,0.74-0.333,0.74-0.743v-17.606c0-1.096,0.885-1.985,1.977-1.985h1.597c1.063,0,2.75,0.066,2.75-1.002l-0.815-4.713
	C11.644,150.725,10.774,149.851,9.71,149.851"/>
<path fill="#373A3A" d="M232.83,349.679c-0.293-0.914-0.688-1.811-1.215-2.658l-8.502-13.684c-1.74-2.799-4.453-4.61-7.418-5.275
	l-0.086-0.285l-8.26-2.945c4.88,9.324,10.358,20.357,10.708,21.054l6.754,12.016c0.355,0.709,0.492,1.521,0.341,2.302
	c-0.396,2.022-1.757,2.987-4.179,2.987h-0.392l-96.854-11.783c0.256-1.657,0.961-3.168,1.979-4.401H85.632h-3.674H33.069
	c-4.043,0-7.473,2.803-8.504,6.59c-0.584,2.145-7.592,16.584-7.7,17.107c-0.739,3.588-1.419,7.651-0.195,9.395
	c2.343,3.334,8.44,2.268,11.548,2.268h44.918l14.385,0.88l135.812,16.054h20.918c4.852,0,8.82-4.035,8.82-8.963v-3.377
	c0-2.717-0.748-5.374-2.162-7.688L232.83,349.679z"/>
<path fill="#54555C" d="M257.287,7.163c-5.814-6.127-12.875-8.848-15.771-6.078c-0.229,0.221-26.448,26.048-26.448,26.048
	l21.471,22.147l26.507-26.558C265.17,19.633,262.75,12.919,257.287,7.163"/>
<polygon fill="#9C9EA3" points="215.066,27.134 210.695,23.67 205.766,20.124 192.663,33.901 230.232,73.644 243.049,61.278 
	237.475,52.804 236.537,49.281 224.601,36.97 "/>
<rect x="127.198" y="227.632" fill="#9C9EA3" width="75.048" height="18.128"/>
<polygon fill="#5D6660" points="127.198,213.912 79.034,213.912 82.938,207.463 127.198,207.463 "/>
<polygon fill="#363B39" points="79.034,213.912 79.034,279.462 116.471,279.462 116.471,268.132 127.198,268.132 127.198,213.912 
	"/>
<rect x="96.701" y="217.547" fill="#1E2E31" width="136.682" height="10.085"/>
<polygon fill="#777E73" points="99.118,204.848 211.439,204.848 233.383,217.547 96.701,217.547 "/>
<polygon fill="#494A40" points="71.879,285.532 72.938,284.284 72.856,284.089 70.538,278.603 70.455,278.407 69.104,278.323 
	69.533,277.032 69.384,276.884 65.187,272.669 65.038,272.518 63.488,273.038 63.358,271.403 63.163,271.323 57.66,269.091 
	57.464,269.011 56.45,269.911 55.845,268.696 55.634,268.696 49.699,268.696 49.487,268.696 48.757,270.163 47.515,269.098 
	47.32,269.181 41.856,271.511 41.662,271.593 41.578,272.95 40.295,272.518 40.146,272.669 35.949,276.884 35.8,277.034 
	36.315,278.591 34.688,278.721 34.608,278.915 32.386,284.442 32.308,284.64 33.202,285.659 31.992,286.266 31.992,286.477 
	31.992,292.438 31.992,292.649 33.453,293.384 32.394,294.631 32.476,294.827 34.795,300.312 34.877,300.509 36.228,300.593 
	35.8,301.883 35.949,302.03 40.146,306.245 40.295,306.396 41.845,305.876 41.976,307.513 42.17,307.592 47.673,309.825 
	47.869,309.903 48.882,309.005 49.487,310.221 49.699,310.221 55.634,310.221 55.845,310.221 56.576,308.753 57.819,309.817 
	58.013,309.733 63.476,307.405 63.67,307.323 63.754,305.967 65.038,306.396 65.187,306.245 69.384,302.03 69.533,301.883 
	69.017,300.325 70.646,300.196 70.724,299.997 72.947,294.473 73.026,294.276 72.131,293.257 73.34,292.649 73.34,292.438 
	73.34,286.477 73.34,286.266 "/>
<polygon fill="#919486" points="128.62,355.685 128.62,353.331 128.62,353.165 127.159,352.585 128.218,351.599 128.136,351.442 
	125.817,347.11 125.735,346.956 124.385,346.89 124.812,345.87 124.663,345.753 120.466,342.424 120.317,342.306 118.769,342.717 
	118.638,341.425 118.442,341.36 112.938,339.597 112.743,339.534 111.729,340.245 111.124,339.284 110.913,339.284 104.979,339.284 
	104.767,339.284 104.036,340.444 102.793,339.604 102.599,339.669 97.136,341.509 96.94,341.573 96.856,342.645 95.574,342.306 
	95.425,342.424 91.228,345.753 91.079,345.87 91.597,347.101 89.968,347.204 89.888,347.358 87.665,351.724 87.585,351.878 
	88.481,352.683 87.271,353.165 87.271,353.331 87.271,355.685 "/>
<polygon fill="#63655E" points="114.03,355.685 114.03,354.808 114.03,354.745 113.601,354.53 113.913,354.163 113.888,354.106 
	113.206,352.491 113.181,352.433 112.784,352.407 112.909,352.028 112.866,351.985 111.632,350.743 111.587,350.7 111.13,350.853 
	111.093,350.37 111.035,350.347 109.415,349.69 109.358,349.667 109.06,349.933 108.881,349.573 108.819,349.573 107.072,349.573 
	107.01,349.573 106.796,350.007 106.429,349.692 106.372,349.718 104.765,350.403 104.706,350.427 104.682,350.827 104.304,350.7 
	104.261,350.743 103.024,351.985 102.981,352.028 103.133,352.487 102.654,352.524 102.631,352.583 101.976,354.21 101.953,354.267 
	102.218,354.567 101.861,354.745 101.861,354.808 101.861,355.685 "/>
<polygon fill="#161B1B" points="62.567,287.434 63.113,286.79 63.071,286.69 61.876,283.862 61.833,283.762 61.138,283.719 
	61.358,283.055 61.282,282.978 59.119,280.806 59.042,280.729 58.243,280.995 58.177,280.153 58.076,280.112 55.24,278.962 
	55.14,278.921 54.616,279.384 54.304,278.759 54.196,278.759 51.138,278.759 51.028,278.759 50.651,279.514 50.011,278.965 
	49.911,279.009 47.095,280.208 46.996,280.251 46.952,280.95 46.29,280.729 46.213,280.806 44.052,282.978 43.974,283.055 
	44.24,283.857 43.401,283.925 43.36,284.024 42.214,286.872 42.173,286.975 42.636,287.499 42.011,287.812 42.011,287.922 
	42.011,290.993 42.011,291.102 42.765,291.479 42.22,292.124 42.263,292.224 43.456,295.051 43.499,295.151 44.194,295.196 
	43.974,295.86 44.052,295.938 46.213,298.108 46.29,298.187 47.089,297.92 47.156,298.763 47.257,298.803 50.093,299.954 
	50.194,299.995 50.718,299.53 51.028,300.157 51.138,300.157 54.196,300.157 54.304,300.157 54.681,299.401 55.321,299.95 
	55.421,299.907 58.237,298.706 58.337,298.665 58.38,297.965 59.042,298.187 59.119,298.108 61.282,295.938 61.358,295.86 
	61.093,295.058 61.931,294.991 61.972,294.89 63.118,292.042 63.158,291.94 62.697,291.415 63.321,291.102 63.321,290.993 
	63.321,287.922 63.321,287.812 "/>
<path fill="#323737" d="M54.044,289.389c0,0.781-0.632,1.417-1.41,1.417c-0.779,0-1.412-0.635-1.412-1.417
	c0-0.783,0.633-1.418,1.412-1.418C53.412,287.971,54.044,288.605,54.044,289.389"/>
<polygon fill="#111314" points="53.358,289.223 52.866,289.223 52.866,288.728 52.399,288.728 52.399,289.223 51.906,289.223 
	51.906,289.692 52.399,289.692 52.399,290.188 52.866,290.188 52.866,289.692 53.358,289.692 "/>
<path fill="#1E2526" d="M135.826,241.784h-8.679v8.715v28.839H116.47v16.5h5.708v2.157h4.97v2.533h8.679v-4.689v-1.865v-3.529
	V279.34v-23.002c0-3.224,2.602-5.837,5.811-5.837h13.261v-8.715h-19.071V241.784z"/>
<path fill="#1E2526" d="M173.239,239.315c-16.021,0-29.007,2.258-29.007,5.042v1.036v3.883v3.592c0,2.106,12.985,3.815,29.007,3.815
	c16.021,0,29.007-1.708,29.007-3.815v-3.592v-3.883v-1.036C202.246,241.573,189.26,239.315,173.239,239.315"/>
<path fill="#2A302F" d="M153.035,240.903v2.863c0,1.102,9.553,1.993,21.336,1.993c11.785,0,21.338-0.892,21.338-1.993v-2.863
	H153.035z"/>
<rect x="153.035" y="239.954" fill="#4A4D4E" width="42.674" height="0.949"/>
<polygon fill="#101516" points="190.253,234.727 180.888,234.727 177.631,234.727 171.115,234.727 160.121,234.727 158.491,234.727 
	153.035,239.954 160.121,239.954 171.115,239.954 177.631,239.954 180.888,239.954 195.709,239.954 "/>
<polygon fill="#101516" points="185.228,231.161 178.826,231.161 176.6,231.161 172.146,231.161 164.631,231.161 163.519,231.161 
	159.787,234.727 164.631,234.727 172.146,234.727 176.6,234.727 178.826,234.727 188.957,234.727 "/>
<path fill="#394542" d="M201.626,252.649h-1.906h-3.249h-22.736h-18.69h-4.795h-1.725h-4.291v3.283l4.256,4.747h6.555h9.964h34.713
	c1.396,0,2.526-1.069,2.526-2.388v-1.608v-1.646v-2.389H201.626z"/>
<path fill="#394F9F" d="M156.83,260.68v2.134v4.288c0,2.476,7.855,4.481,17.541,4.481c9.689,0,17.544-2.008,17.544-4.481v-4.288
	v-2.134H156.83z"/>
<path fill="#162249" d="M174.371,264.155c-6.549,0-12.604-0.179-17.541-0.479v2.131c0,0.822,7.854,1.488,17.541,1.488
	c9.689,0,17.543-0.667,17.543-1.488v-2.131C186.976,263.976,180.922,264.155,174.371,264.155"/>
<path fill="#546FB5" d="M174.371,267.296c-9.688,0-17.541-0.667-17.541-1.488v1.292c0,2.476,7.854,4.481,17.541,4.481
	c9.689,0,17.543-2.006,17.543-4.481v-1.292C191.914,266.63,184.06,267.296,174.371,267.296"/>
<polygon fill="#010101" points="129.702,267.059 130.51,266.107 130.446,265.958 128.68,261.776 128.616,261.628 127.587,261.562 
	127.913,260.581 127.8,260.468 124.601,257.254 124.487,257.14 123.306,257.536 123.207,256.29 123.058,256.228 118.862,254.528 
	118.714,254.468 117.94,255.153 117.479,254.226 117.319,254.226 112.795,254.226 112.636,254.226 112.077,255.344 111.13,254.534 
	110.981,254.596 106.817,256.37 106.67,256.435 106.605,257.469 105.628,257.14 105.515,257.254 102.313,260.468 102.2,260.581 
	102.595,261.767 101.353,261.866 101.293,262.017 99.599,266.229 99.538,266.378 100.22,267.155 99.298,267.618 99.298,267.78 
	99.298,272.323 99.298,272.483 100.413,273.042 99.604,273.995 99.667,274.144 101.435,278.325 101.498,278.475 102.526,278.538 
	102.2,279.521 102.313,279.636 105.515,282.848 105.628,282.962 106.81,282.567 106.907,283.812 107.057,283.872 111.251,285.575 
	111.401,285.637 112.174,284.95 112.636,285.878 112.795,285.878 117.319,285.878 117.479,285.878 118.036,284.759 118.983,285.571 
	119.132,285.507 123.298,283.731 123.444,283.669 123.509,282.636 124.487,282.962 124.601,282.848 127.8,279.636 127.913,279.521 
	127.52,278.335 128.761,278.235 128.821,278.086 130.517,273.872 130.576,273.724 129.894,272.948 130.815,272.483 130.815,272.323 
	130.815,267.78 130.815,267.618 "/>
<path fill="#29322C" d="M128.45,270.051c0,7.429-5.996,13.45-13.394,13.45c-7.396,0-13.394-6.021-13.394-13.45
	c0-7.429,5.996-13.449,13.394-13.449S128.45,262.622,128.45,270.051"/>
<path fill="#151817" d="M126.026,270.051c0,6.083-4.912,11.017-10.97,11.017c-6.059,0-10.97-4.934-10.97-11.017
	c0-6.084,4.911-11.015,10.97-11.015C121.114,259.036,126.026,263.967,126.026,270.051"/>
<path fill="#323737" d="M116.815,270.051c0,0.976-0.787,1.767-1.759,1.767s-1.758-0.791-1.758-1.767
	c0-0.974,0.786-1.765,1.758-1.765S116.815,269.077,116.815,270.051"/>
<polygon fill="#111314" points="115.962,269.76 115.349,269.76 115.349,269.143 114.767,269.143 114.767,269.76 114.152,269.76 
	114.152,270.344 114.767,270.344 114.767,270.96 115.349,270.96 115.349,270.344 115.962,270.344 "/>
<path fill="#989998" d="M221.221,128.56c2.438,5.636-8.917,16.021-25.359,23.195c-16.444,7.174-31.751,8.42-34.19,2.783
	c-2.438-5.636,8.917-16.021,25.361-23.195C203.475,124.169,218.782,122.924,221.221,128.56"/>
<rect x="162.435" y="142.956" fill="#5A5B5B" width="20.55" height="14.167"/>
<polygon fill="#5A5B5B" points="215.207,121.846 199.178,137.169 208.845,147.369 224.874,132.046 "/>
<path fill="#5A5B5B" d="M181.039,143.481l5.088,9.585c2.287-2.677,5.388-5.185,9.102-7.173c3.712-1.987,7.515-3.175,11.002-3.589
	l-5.089-9.585c-3.595,0.157-7.479,1.203-11.209,3.2C186.203,137.915,183.172,140.574,181.039,143.481"/>
<polygon fill="#111A1A" points="182.107,153.588 190.359,174.541 194.458,179.491 209.85,173.378 209.467,166.952 201.216,145.998 
	"/>
<polygon fill="#A7ACAA" points="209.861,173.373 194.476,179.483 195.055,180.949 210.439,174.839 "/>
<polygon fill="#252D2A" points="198.979,140.318 179.869,147.907 182.107,153.588 201.216,145.998 "/>
<path fill="#162120" d="M208.395,146.893l9.285,9.796c2.587-1.88,5.518-4.333,8.481-7.167c2.967-2.836,5.551-5.653,7.547-8.154
	l-9.287-9.798L208.395,146.893z"/>
<polygon fill="#606B67" points="220.469,127.399 204.441,142.723 208.845,147.368 224.874,132.046 "/>
<path fill="#132221" d="M194.081,143.735c-5.551,2.972-9.45,6.514-8.708,7.91l4.572,8.615l4.824,9.088l2.277,4.292l20.104-10.763
	l-2.279-4.291l-4.822-9.088l-4.573-8.614C204.734,139.487,199.633,140.763,194.081,143.735"/>
<path fill="#7D807C" d="M205.1,164.493c-5.55,2.972-9.174,7.031-8.094,9.066l12.219,5.875l1.97-1.054l1.99-1.067l1.971-1.055
	l1.954-13.462C216.027,160.763,210.652,161.521,205.1,164.493"/>
<path fill="#161E18" d="M215.139,176.2c-0.229-0.435-1.75-0.073-3.395,0.808c-1.646,0.88-2.791,1.946-2.562,2.381
	c0.23,0.435,1.75,0.073,3.396-0.807C214.223,177.701,215.369,176.635,215.139,176.2"/>
<path fill="#5A5D5B" d="M182.762,146.726l3.365,6.34c2.49-2.293,5.71-4.579,9.422-6.565c3.712-1.988,7.396-3.399,10.681-4.196
	l-3.365-6.341c-3.346,0.623-7.089,1.942-10.816,3.938C188.318,141.897,185.141,144.284,182.762,146.726"/>
<polygon fill="#111A1A" points="162.435,157.123 162.435,182.485 164.435,189.369 180.985,189.369 182.984,182.485 182.984,157.123 
	"/>
<rect x="165.551" y="189.369" fill="#A7ACAA" width="14.318" height="3.548"/>
<g opacity="0.46">
	<g>
		<defs>
			<rect id="SVGID_1_" x="167.422" y="192.917" width="10.576" height="1.37"/>
		</defs>
		<clipPath id="SVGID_2_">
			<use xlink:href="#SVGID_1_"  overflow="visible"/>
		</clipPath>
		<polygon clip-path="url(#SVGID_2_)" fill="#5B675F" points="176.293,192.917 172.869,192.917 172.551,192.917 171.164,192.917 
			167.422,192.917 168.229,194.287 171.164,194.287 172.551,194.287 172.869,194.287 175.488,194.287 177.191,194.287 
			177.998,192.917 		"/>
	</g>
</g>
<rect x="162.435" y="151.013" fill="#4C5B56" width="20.55" height="6.109"/>
<path fill="#7D807C" d="M221.21,115.697l-0.231-0.588l-0.057-0.14l-0.055-0.142c-0.039-0.095-0.806,0.119-1.705,0.478
	l-61.039,24.297c-0.899,0.358-1.604,0.73-1.566,0.825l0.056,0.142l0.057,0.141l0.231,0.588L221.21,115.697z"/>
<path fill="#17211D" d="M154.1,142.397l2.289,5.799l0.55,1.391l0.551,1.39c0.372,0.946,1.479,1.401,2.457,1.013l66.342-26.409
	c0.979-0.39,1.475-1.482,1.1-2.428l-0.549-1.392l-0.549-1.39l-2.289-5.8L154.1,142.397z"/>
<polygon fill="#BCBDAF" points="143.191,311.505 108.788,311.505 108.788,325.885 145.702,325.885 "/>
<rect x="110.833" y="312.112" fill="#2F3124" width="3.208" height="12.606"/>
<rect x="117.087" y="312.112" fill="#2F3124" width="3.207" height="12.606"/>
<rect x="123.341" y="312.112" fill="#2F3124" width="3.207" height="12.606"/>
<rect x="129.593" y="312.112" fill="#2F3124" width="3.208" height="12.606"/>
<rect x="135.847" y="312.112" fill="#2F3124" width="3.207" height="12.606"/>
</svg>
